ISO-10303-21;
HEADER;
FILE_DESCRIPTION (( 'STEP AP214' ),
    '1' );
FILE_NAME ('4490-E0W.STEP',
    '2009-12-21T17:06:33',
    ( ' ' ),
    ( ' ' ),
    'SwSTEP 2.0',
    'SolidWorks 2009',
    '' );
FILE_SCHEMA (( 'AUTOMOTIVE_DESIGN' ));
ENDSEC;

DATA;
#1 = DIRECTION ( 'NONE',  ( 1.000000000000000000, 0.0000000000000000000, 0.0000000000000000000 ) ) ;
#2 =( GEOMETRIC_REPRESENTATION_CONTEXT ( 3 ) GLOBAL_UNCERTAINTY_ASSIGNED_CONTEXT ( ( #249 ) ) GLOBAL_UNIT_ASSIGNED_CONTEXT ( ( #252, #251, #250 ) ) REPRESENTATION_CONTEXT ( 'NONE', 'WORKASPACE' ) );
#3 = DIRECTION ( 'NONE',  ( 1.000000000000000000, 0.0000000000000000000, 0.0000000000000000000 ) ) ;
#4 = DIRECTION ( 'NONE',  ( -0.0000000000000000000, -0.0000000000000000000, 1.000000000000000000 ) ) ;
#5 = CARTESIAN_POINT ( 'NONE',  ( 0.0000000000000000000, 0.0000000000000000000, 4.308132045400366600 ) ) ;
#6 = AXIS2_PLACEMENT_3D ( 'NONE', #5, #4, #3 ) ;
#7 = MECHANICAL_DESIGN_GEOMETRIC_PRESENTATION_REPRESENTATION (  '', ( #101 ), #27 ) ;
#8 = AXIS2_PLACEMENT_3D ( 'NONE', #16, #11, #21 ) ;
#9 =( LENGTH_UNIT ( ) NAMED_UNIT ( * ) SI_UNIT ( .MILLI., .METRE. ) );
#10 =( NAMED_UNIT ( * ) SI_UNIT ( $, .STERADIAN. ) SOLID_ANGLE_UNIT ( ) );
#11 = DIRECTION ( 'NONE',  ( 0.0000000000000000000, -0.0000000000000000000, 1.000000000000000000 ) ) ;
#12 =( LENGTH_UNIT ( ) NAMED_UNIT ( * ) SI_UNIT ( .MILLI., .METRE. ) );
#13 =( NAMED_UNIT ( * ) SI_UNIT ( $, .STERADIAN. ) SOLID_ANGLE_UNIT ( ) );
#14 =( NAMED_UNIT ( * ) PLANE_ANGLE_UNIT ( ) SI_UNIT ( $, .RADIAN. ) );
#15 = MECHANICAL_DESIGN_GEOMETRIC_PRESENTATION_REPRESENTATION (  '', ( #18 ), #28 ) ;
#16 = CARTESIAN_POINT ( 'NONE',  ( 0.0000000000000000000, 1.328129453675304600E-015, -3.615000000000000200 ) ) ;
#17 = PRESENTATION_STYLE_ASSIGNMENT (( #151 ) ) ;
#18 = STYLED_ITEM ( 'NONE', ( #17 ), #245 ) ;
#19 =( NAMED_UNIT ( * ) PLANE_ANGLE_UNIT ( ) SI_UNIT ( $, .RADIAN. ) );
#20 = PRESENTATION_LAYER_ASSIGNMENT (  '', '', ( #18 ) ) ;
#21 = DIRECTION ( 'NONE',  ( 1.000000000000000000, 0.0000000000000000000, 0.0000000000000000000 ) ) ;
#22 = APPLICATION_CONTEXT ( 'automotive_design' ) ;
#23 = PRODUCT_CONTEXT ( 'NONE', #22, 'mechanical' ) ;
#24 = APPLICATION_PROTOCOL_DEFINITION ( 'draft international standard', 'automotive_design', 1998, #22 ) ;
#25 = UNCERTAINTY_MEASURE_WITH_UNIT (LENGTH_MEASURE( 1.000000000000000100E-005 ), #12, 'distance_accuracy_value', 'NONE');
#26 = UNCERTAINTY_MEASURE_WITH_UNIT (LENGTH_MEASURE( 1.000000000000000100E-005 ), #9, 'distance_accuracy_value', 'NONE');
#27 =( GEOMETRIC_REPRESENTATION_CONTEXT ( 3 ) GLOBAL_UNCERTAINTY_ASSIGNED_CONTEXT ( ( #26 ) ) GLOBAL_UNIT_ASSIGNED_CONTEXT ( ( #9, #19, #13 ) ) REPRESENTATION_CONTEXT ( 'NONE', 'WORKASPACE' ) );
#28 =( GEOMETRIC_REPRESENTATION_CONTEXT ( 3 ) GLOBAL_UNCERTAINTY_ASSIGNED_CONTEXT ( ( #25 ) ) GLOBAL_UNIT_ASSIGNED_CONTEXT ( ( #12, #14, #10 ) ) REPRESENTATION_CONTEXT ( 'NONE', 'WORKASPACE' ) );
#29 = PRODUCT_DEFINITION ( 'UNKNOWN', '', #31, #34 ) ;
#30 = APPLICATION_CONTEXT ( 'automotive_design' ) ;
#31 = PRODUCT_DEFINITION_FORMATION_WITH_SPECIFIED_SOURCE ( 'ANY', '', #35, .NOT_KNOWN. ) ;
#32 = APPLICATION_PROTOCOL_DEFINITION ( 'draft international standard', 'automotive_design', 1998, #30 ) ;
#33 = PRODUCT_RELATED_PRODUCT_CATEGORY ( 'part', '', ( #35 ) ) ;
#34 = PRODUCT_DEFINITION_CONTEXT ( 'detailed design', #30, 'design' ) ;
#35 = PRODUCT ( '4490-E0W', '4490-E0W', '', ( #23 ) ) ;
#36 = SPHERICAL_SURFACE ( 'NONE', #39, 18.02000000000000000 ) ;
#37 = CARTESIAN_POINT ( 'NONE',  ( 0.0000000000000000000, 0.0000000000000000000, -14.40500000000000100 ) ) ;
#38 = DIRECTION ( 'NONE',  ( -1.000000000000000000, 0.0000000000000000000, 0.0000000000000000000 ) ) ;
#39 = AXIS2_PLACEMENT_3D ( 'NONE', #37, #38, #40 ) ;
#40 = DIRECTION ( 'NONE',  ( 0.0000000000000000000, 1.000000000000000000, 0.0000000000000000000 ) ) ;
#41 = DIRECTION ( 'NONE',  ( 1.000000000000000000, 0.0000000000000000000, 0.0000000000000000000 ) ) ;
#42 = DIRECTION ( 'NONE',  ( -0.0000000000000000000, -0.0000000000000000000, 1.000000000000000000 ) ) ;
#43 = CARTESIAN_POINT ( 'NONE',  ( 0.0000000000000000000, 0.0000000000000000000, -1.621010012519564300 ) ) ;
#44 = AXIS2_PLACEMENT_3D ( 'NONE', #43, #42, #41 ) ;
#45 = CYLINDRICAL_SURFACE ( 'NONE', #6, 12.69999999999999900 ) ;
#46 = CIRCLE ( 'NONE', #44, 12.69999999999999900 ) ;
#47 = DIRECTION ( 'NONE',  ( -0.0000000000000000000, -0.0000000000000000000, 1.000000000000000000 ) ) ;
#48 = AXIS2_PLACEMENT_3D ( 'NONE', #50, #47, #1 ) ;
#49 = CIRCLE ( 'NONE', #48, 12.69999999999999900 ) ;
#50 = CARTESIAN_POINT ( 'NONE',  ( 0.0000000000000000000, 0.0000000000000000000, -1.621010012519564300 ) ) ;
#51 = CARTESIAN_POINT ( 'NONE',  ( -12.69999999999999900, 1.555250069354419100E-015, -1.621010012519564300 ) ) ;
#52 = DIRECTION ( 'NONE',  ( 1.000000000000000000, 0.0000000000000000000, 0.0000000000000000000 ) ) ;
#53 = CARTESIAN_POINT ( 'NONE',  ( -1.555250069354418900E-015, -12.69999999999999900, -1.621010012519564300 ) ) ;
#54 = DIRECTION ( 'NONE',  ( -0.0000000000000000000, -0.0000000000000000000, 1.000000000000000000 ) ) ;
#55 = CARTESIAN_POINT ( 'NONE',  ( 0.0000000000000000000, 0.0000000000000000000, -3.615000000000000200 ) ) ;
#56 = AXIS2_PLACEMENT_3D ( 'NONE', #55, #54, #52 ) ;
#57 = CIRCLE ( 'NONE', #56, 12.69999999999999900 ) ;
#58 = CYLINDRICAL_SURFACE ( 'NONE', #60, 12.69999999999999900 ) ;
#59 = CARTESIAN_POINT ( 'NONE',  ( 0.0000000000000000000, 0.0000000000000000000, 4.308132045400366600 ) ) ;
#60 = AXIS2_PLACEMENT_3D ( 'NONE', #59, #62, #61 ) ;
#61 = DIRECTION ( 'NONE',  ( 1.000000000000000000, 0.0000000000000000000, 0.0000000000000000000 ) ) ;
#62 = DIRECTION ( 'NONE',  ( -0.0000000000000000000, -0.0000000000000000000, 1.000000000000000000 ) ) ;
#63 =( GEOMETRIC_REPRESENTATION_CONTEXT ( 3 ) GLOBAL_UNCERTAINTY_ASSIGNED_CONTEXT ( ( #73 ) ) GLOBAL_UNIT_ASSIGNED_CONTEXT ( ( #66, #77, #74 ) ) REPRESENTATION_CONTEXT ( 'NONE', 'WORKASPACE' ) );
#64 = AXIS2_PLACEMENT_3D ( 'NONE', #79, #69, #71 ) ;
#65 = FILL_AREA_STYLE ('',( #78 ) ) ;
#66 =( LENGTH_UNIT ( ) NAMED_UNIT ( * ) SI_UNIT ( .MILLI., .METRE. ) );
#67 = SURFACE_SIDE_STYLE ('',( #82 ) ) ;
#68 = STYLED_ITEM ( 'NONE', ( #84 ), #209 ) ;
#69 = DIRECTION ( 'NONE',  ( -0.0000000000000000000, -0.0000000000000000000, 1.000000000000000000 ) ) ;
#70 = COLOUR_RGB ( '',0.9568627450980391500, 0.9490196078431372100, 0.9607843137254902200 ) ;
#71 = DIRECTION ( 'NONE',  ( 1.000000000000000000, 0.0000000000000000000, 0.0000000000000000000 ) ) ;
#72 = CARTESIAN_POINT ( 'NONE',  ( 0.0000000000000000000, 12.69999999999999900, -1.621010012519564300 ) ) ;
#73 = UNCERTAINTY_MEASURE_WITH_UNIT (LENGTH_MEASURE( 1.000000000000000100E-005 ), #66, 'distance_accuracy_value', 'NONE');
#74 =( NAMED_UNIT ( * ) SI_UNIT ( $, .STERADIAN. ) SOLID_ANGLE_UNIT ( ) );
#75 = CIRCLE ( 'NONE', #64, 12.69999999999999900 ) ;
#76 = PRESENTATION_LAYER_ASSIGNMENT (  '', '', ( #68 ) ) ;
#77 =( NAMED_UNIT ( * ) PLANE_ANGLE_UNIT ( ) SI_UNIT ( $, .RADIAN. ) );
#78 = FILL_AREA_STYLE_COLOUR ( '', #70 ) ;
#79 = CARTESIAN_POINT ( 'NONE',  ( 0.0000000000000000000, 0.0000000000000000000, -1.621010012519564300 ) ) ;
#80 = SURFACE_STYLE_USAGE ( .BOTH. , #67 ) ;
#81 = MECHANICAL_DESIGN_GEOMETRIC_PRESENTATION_REPRESENTATION (  '', ( #68 ), #63 ) ;
#82 = SURFACE_STYLE_FILL_AREA ( #65 ) ;
#83 = FACE_OUTER_BOUND ( 'NONE', #210, .T. ) ;
#84 = PRESENTATION_STYLE_ASSIGNMENT (( #80 ) ) ;
#85 = UNCERTAINTY_MEASURE_WITH_UNIT (LENGTH_MEASURE( 1.000000000000000100E-005 ), #95, 'distance_accuracy_value', 'NONE');
#86 =( NAMED_UNIT ( * ) SI_UNIT ( $, .STERADIAN. ) SOLID_ANGLE_UNIT ( ) );
#87 =( NAMED_UNIT ( * ) PLANE_ANGLE_UNIT ( ) SI_UNIT ( $, .RADIAN. ) );
#88 =( GEOMETRIC_REPRESENTATION_CONTEXT ( 3 ) GLOBAL_UNCERTAINTY_ASSIGNED_CONTEXT ( ( #85 ) ) GLOBAL_UNIT_ASSIGNED_CONTEXT ( ( #95, #124, #86 ) ) REPRESENTATION_CONTEXT ( 'NONE', 'WORKASPACE' ) );
#89 = UNCERTAINTY_MEASURE_WITH_UNIT (LENGTH_MEASURE( 1.000000000000000100E-005 ), #94, 'distance_accuracy_value', 'NONE');
#90 =( NAMED_UNIT ( * ) SI_UNIT ( $, .STERADIAN. ) SOLID_ANGLE_UNIT ( ) );
#91 = CARTESIAN_POINT ( 'NONE',  ( 0.0000000000000000000, 0.0000000000000000000, -14.40500000000000100 ) ) ;
#92 = AXIS2_PLACEMENT_3D ( 'NONE', #91, #117, #116 ) ;
#93 = CARTESIAN_POINT ( 'NONE',  ( 12.69999999999999900, 0.0000000000000000000, -3.615000000000000200 ) ) ;
#94 =( LENGTH_UNIT ( ) NAMED_UNIT ( * ) SI_UNIT ( .MILLI., .METRE. ) );
#95 =( LENGTH_UNIT ( ) NAMED_UNIT ( * ) SI_UNIT ( .MILLI., .METRE. ) );
#96 = MECHANICAL_DESIGN_GEOMETRIC_PRESENTATION_REPRESENTATION (  '', ( #98 ), #88 ) ;
#97 = PRESENTATION_LAYER_ASSIGNMENT (  '', '', ( #98 ) ) ;
#98 = STYLED_ITEM ( 'NONE', ( #99 ), #234 ) ;
#99 = PRESENTATION_STYLE_ASSIGNMENT (( #110 ) ) ;
#100 = PRESENTATION_LAYER_ASSIGNMENT (  '', '', ( #101 ) ) ;
#101 = STYLED_ITEM ( 'NONE', ( #102 ), #235 ) ;
#102 = PRESENTATION_STYLE_ASSIGNMENT (( #103 ) ) ;
#103 = SURFACE_STYLE_USAGE ( .BOTH. , #104 ) ;
#104 = SURFACE_SIDE_STYLE ('',( #105 ) ) ;
#105 = SURFACE_STYLE_FILL_AREA ( #106 ) ;
#106 = FILL_AREA_STYLE ('',( #107 ) ) ;
#107 = FILL_AREA_STYLE_COLOUR ( '', #108 ) ;
#108 = COLOUR_RGB ( '',0.9568627450980391500, 0.9490196078431372100, 0.9607843137254902200 ) ;
#109 = FACE_OUTER_BOUND ( 'NONE', #236, .T. ) ;
#110 = SURFACE_STYLE_USAGE ( .BOTH. , #111 ) ;
#111 = SURFACE_SIDE_STYLE ('',( #112 ) ) ;
#112 = SURFACE_STYLE_FILL_AREA ( #113 ) ;
#113 = FILL_AREA_STYLE ('',( #114 ) ) ;
#114 = FILL_AREA_STYLE_COLOUR ( '', #115 ) ;
#115 = COLOUR_RGB ( '',0.7960784313725489700, 0.8235294117647058400, 0.9372549019607843100 ) ;
#116 = DIRECTION ( 'NONE',  ( 0.0000000000000000000, 1.000000000000000000, 0.0000000000000000000 ) ) ;
#117 = DIRECTION ( 'NONE',  ( -1.000000000000000000, 0.0000000000000000000, 0.0000000000000000000 ) ) ;
#118 = CARTESIAN_POINT ( 'NONE',  ( 0.0000000000000000000, 1.103370324793961900E-015, 3.615000000000000200 ) ) ;
#119 = DIRECTION ( 'NONE',  ( -1.224606353822377300E-016, -1.000000000000000000, 0.0000000000000000000 ) ) ;
#120 = DIRECTION ( 'NONE',  ( -1.000000000000000000, 1.224606353822377300E-016, 0.0000000000000000000 ) ) ;
#121 = CARTESIAN_POINT ( 'NONE',  ( 0.0000000000000000000, 0.0000000000000000000, -14.40500000000000100 ) ) ;
#122 = AXIS2_PLACEMENT_3D ( 'NONE', #121, #120, #119 ) ;
#123 = CIRCLE ( 'NONE', #122, 18.02000000000000000 ) ;
#124 =( NAMED_UNIT ( * ) PLANE_ANGLE_UNIT ( ) SI_UNIT ( $, .RADIAN. ) );
#125 = MECHANICAL_DESIGN_GEOMETRIC_PRESENTATION_REPRESENTATION (  '', ( #127 ), #134 ) ;
#126 = PRESENTATION_LAYER_ASSIGNMENT (  '', '', ( #127 ) ) ;
#127 = STYLED_ITEM ( 'NONE', ( #128 ), #217 ) ;
#128 = PRESENTATION_STYLE_ASSIGNMENT (( #129 ) ) ;
#129 = SURFACE_STYLE_USAGE ( .BOTH. , #130 ) ;
#130 = SURFACE_SIDE_STYLE ('',( #131 ) ) ;
#131 = SURFACE_STYLE_FILL_AREA ( #137 ) ;
#132 = COLOUR_RGB ( '',0.9568627450980391500, 0.9490196078431372100, 0.9607843137254902200 ) ;
#133 = SPHERICAL_SURFACE ( 'NONE', #92, 18.02000000000000000 ) ;
#134 =( GEOMETRIC_REPRESENTATION_CONTEXT ( 3 ) GLOBAL_UNCERTAINTY_ASSIGNED_CONTEXT ( ( #89 ) ) GLOBAL_UNIT_ASSIGNED_CONTEXT ( ( #94, #87, #90 ) ) REPRESENTATION_CONTEXT ( 'NONE', 'WORKASPACE' ) );
#135 = AXIS2_PLACEMENT_3D ( 'NONE', #142, #141, #140 ) ;
#136 = CIRCLE ( 'NONE', #135, 18.02000000000000000 ) ;
#137 = FILL_AREA_STYLE ('',( #138 ) ) ;
#138 = FILL_AREA_STYLE_COLOUR ( '', #132 ) ;
#139 = FACE_OUTER_BOUND ( 'NONE', #259, .T. ) ;
#140 = DIRECTION ( 'NONE',  ( 0.0000000000000000000, 0.0000000000000000000, -1.000000000000000000 ) ) ;
#141 = DIRECTION ( 'NONE',  ( 1.000000000000000000, 0.0000000000000000000, 0.0000000000000000000 ) ) ;
#142 = CARTESIAN_POINT ( 'NONE',  ( 0.0000000000000000000, 0.0000000000000000000, -14.40500000000000100 ) ) ;
#143 = DIRECTION ( 'NONE',  ( -0.0000000000000000000, -0.0000000000000000000, 1.000000000000000000 ) ) ;
#144 = VECTOR ( 'NONE', #143, 1000.000000000000000 ) ;
#145 = CARTESIAN_POINT ( 'NONE',  ( -12.69999999999999900, 1.555250069354419100E-015, 4.308132045400366600 ) ) ;
#146 = CARTESIAN_POINT ( 'NONE',  ( -12.69999999999999900, 1.555250069354419100E-015, -3.615000000000000200 ) ) ;
#147 = AXIS2_PLACEMENT_3D ( 'NONE', #159, #158, #157 ) ;
#148 = CIRCLE ( 'NONE', #147, 12.69999999999999900 ) ;
#149 = FACE_OUTER_BOUND ( 'NONE', #246, .T. ) ;
#150 = LINE ( 'NONE', #145, #144 ) ;
#151 = SURFACE_STYLE_USAGE ( .BOTH. , #152 ) ;
#152 = SURFACE_SIDE_STYLE ('',( #153 ) ) ;
#153 = SURFACE_STYLE_FILL_AREA ( #154 ) ;
#154 = FILL_AREA_STYLE ('',( #155 ) ) ;
#155 = FILL_AREA_STYLE_COLOUR ( '', #156 ) ;
#156 = COLOUR_RGB ( '',0.9568627450980391500, 0.9490196078431372100, 0.9607843137254902200 ) ;
#157 = DIRECTION ( 'NONE',  ( 1.000000000000000000, 0.0000000000000000000, 0.0000000000000000000 ) ) ;
#158 = DIRECTION ( 'NONE',  ( -0.0000000000000000000, -0.0000000000000000000, 1.000000000000000000 ) ) ;
#159 = CARTESIAN_POINT ( 'NONE',  ( 0.0000000000000000000, 0.0000000000000000000, -3.615000000000000200 ) ) ;
#160 = PLANE ( 'NONE',  #8 ) ;
#161 =( NAMED_UNIT ( * ) SI_UNIT ( $, .STERADIAN. ) SOLID_ANGLE_UNIT ( ) );
#162 =( GEOMETRIC_REPRESENTATION_CONTEXT ( 3 ) GLOBAL_UNCERTAINTY_ASSIGNED_CONTEXT ( ( #181 ) ) GLOBAL_UNIT_ASSIGNED_CONTEXT ( ( #180, #176, #161 ) ) REPRESENTATION_CONTEXT ( 'NONE', 'WORKASPACE' ) );
#163 = PRESENTATION_LAYER_ASSIGNMENT (  '', '', ( #164 ) ) ;
#164 = STYLED_ITEM ( 'NONE', ( #165 ), #175 ) ;
#165 = PRESENTATION_STYLE_ASSIGNMENT (( #167 ) ) ;
#166 = SHAPE_DEFINITION_REPRESENTATION ( #179, #175 ) ;
#167 = SURFACE_STYLE_USAGE ( .BOTH. , #168 ) ;
#168 = SURFACE_SIDE_STYLE ('',( #169 ) ) ;
#169 = SURFACE_STYLE_FILL_AREA ( #170 ) ;
#170 = FILL_AREA_STYLE ('',( #177 ) ) ;
#171 = UNCERTAINTY_MEASURE_WITH_UNIT (LENGTH_MEASURE( 1.000000000000000100E-005 ), #182, 'distance_accuracy_value', 'NONE');
#172 = MECHANICAL_DESIGN_GEOMETRIC_PRESENTATION_REPRESENTATION (  '', ( #164 ), #162 ) ;
#173 =( NAMED_UNIT ( * ) SI_UNIT ( $, .STERADIAN. ) SOLID_ANGLE_UNIT ( ) );
#174 =( NAMED_UNIT ( * ) PLANE_ANGLE_UNIT ( ) SI_UNIT ( $, .RADIAN. ) );
#175 = ADVANCED_BREP_SHAPE_REPRESENTATION ( '4490-E0W', ( #234, #186 ), #183 ) ;
#176 =( NAMED_UNIT ( * ) PLANE_ANGLE_UNIT ( ) SI_UNIT ( $, .RADIAN. ) );
#177 = FILL_AREA_STYLE_COLOUR ( '', #178 ) ;
#178 = COLOUR_RGB ( '',0.7960784313725489700, 0.8235294117647058400, 0.9372549019607843100 ) ;
#179 = PRODUCT_DEFINITION_SHAPE ( 'NONE', 'NONE',  #29 ) ;
#180 =( LENGTH_UNIT ( ) NAMED_UNIT ( * ) SI_UNIT ( .MILLI., .METRE. ) );
#181 = UNCERTAINTY_MEASURE_WITH_UNIT (LENGTH_MEASURE( 1.000000000000000100E-005 ), #180, 'distance_accuracy_value', 'NONE');
#182 =( LENGTH_UNIT ( ) NAMED_UNIT ( * ) SI_UNIT ( .MILLI., .METRE. ) );
#183 =( GEOMETRIC_REPRESENTATION_CONTEXT ( 3 ) GLOBAL_UNCERTAINTY_ASSIGNED_CONTEXT ( ( #171 ) ) GLOBAL_UNIT_ASSIGNED_CONTEXT ( ( #182, #174, #173 ) ) REPRESENTATION_CONTEXT ( 'NONE', 'WORKASPACE' ) );
#184 = DIRECTION ( 'NONE',  ( 1.000000000000000000, 0.0000000000000000000, 0.0000000000000000000 ) ) ;
#185 = DIRECTION ( 'NONE',  ( 0.0000000000000000000, 0.0000000000000000000, 1.000000000000000000 ) ) ;
#186 = AXIS2_PLACEMENT_3D ( 'NONE', #187, #185, #184 ) ;
#187 = CARTESIAN_POINT ( 'NONE',  ( 0.0000000000000000000, 0.0000000000000000000, 0.0000000000000000000 ) ) ;
#188 = CLOSED_SHELL ( 'NONE', ( #235, #194, #217, #209, #245 ) ) ;
#189 = ORIENTED_EDGE ( 'NONE', *, *, #190, .F. ) ;
#190 = EDGE_CURVE ( 'NONE', #191, #205, #232, .T. ) ;
#191 = VERTEX_POINT ( 'NONE', #227 ) ;
#192 = ORIENTED_EDGE ( 'NONE', *, *, #193, .F. ) ;
#193 = EDGE_CURVE ( 'NONE', #233, #191, #225, .T. ) ;
#194 = ADVANCED_FACE ( 'NONE', ( #221 ), #36, .T. ) ;
#195 = EDGE_LOOP ( 'NONE', ( #196, #197, #212, #215 ) ) ;
#196 = ORIENTED_EDGE ( 'NONE', *, *, #204, .T. ) ;
#197 = ORIENTED_EDGE ( 'NONE', *, *, #198, .T. ) ;
#198 = EDGE_CURVE ( 'NONE', #202, #199, #46, .T. ) ;
#199 = VERTEX_POINT ( 'NONE', #53 ) ;
#200 = ORIENTED_EDGE ( 'NONE', *, *, #201, .T. ) ;
#201 = EDGE_CURVE ( 'NONE', #233, #237, #57, .T. ) ;
#202 = VERTEX_POINT ( 'NONE', #51 ) ;
#203 = ORIENTED_EDGE ( 'NONE', *, *, #204, .F. ) ;
#204 = EDGE_CURVE ( 'NONE', #205, #202, #49, .T. ) ;
#205 = VERTEX_POINT ( 'NONE', #72 ) ;
#206 = EDGE_CURVE ( 'NONE', #199, #191, #75, .T. ) ;
#207 = ORIENTED_EDGE ( 'NONE', *, *, #190, .T. ) ;
#208 = ORIENTED_EDGE ( 'NONE', *, *, #216, .T. ) ;
#209 = ADVANCED_FACE ( 'NONE', ( #83 ), #45, .T. ) ;
#210 = EDGE_LOOP ( 'NONE', ( #211, #240, #242, #243, #244 ) ) ;
#211 = ORIENTED_EDGE ( 'NONE', *, *, #239, .F. ) ;
#212 = ORIENTED_EDGE ( 'NONE', *, *, #213, .T. ) ;
#213 = EDGE_CURVE ( 'NONE', #199, #214, #123, .T. ) ;
#214 = VERTEX_POINT ( 'NONE', #118 ) ;
#215 = ORIENTED_EDGE ( 'NONE', *, *, #216, .F. ) ;
#216 = EDGE_CURVE ( 'NONE', #205, #214, #136, .T. ) ;
#217 = ADVANCED_FACE ( 'NONE', ( #139 ), #133, .T. ) ;
#218 = SURFACE_STYLE_FILL_AREA ( #219 ) ;
#219 = FILL_AREA_STYLE ('',( #226 ) ) ;
#220 = COLOUR_RGB ( '',0.9568627450980391500, 0.9490196078431372100, 0.9607843137254902200 ) ;
#221 = FACE_OUTER_BOUND ( 'NONE', #195, .T. ) ;
#222 = DIRECTION ( 'NONE',  ( -0.0000000000000000000, -0.0000000000000000000, 1.000000000000000000 ) ) ;
#223 = VECTOR ( 'NONE', #222, 1000.000000000000000 ) ;
#224 = CARTESIAN_POINT ( 'NONE',  ( 12.69999999999999900, 0.0000000000000000000, 4.308132045400366600 ) ) ;
#225 = LINE ( 'NONE', #224, #223 ) ;
#226 = FILL_AREA_STYLE_COLOUR ( '', #220 ) ;
#227 = CARTESIAN_POINT ( 'NONE',  ( 12.69999999999999900, 0.0000000000000000000, -1.621010012519564300 ) ) ;
#228 = DIRECTION ( 'NONE',  ( 1.000000000000000000, 0.0000000000000000000, 0.0000000000000000000 ) ) ;
#229 = DIRECTION ( 'NONE',  ( -0.0000000000000000000, -0.0000000000000000000, 1.000000000000000000 ) ) ;
#230 = CARTESIAN_POINT ( 'NONE',  ( 0.0000000000000000000, 0.0000000000000000000, -1.621010012519564300 ) ) ;
#231 = AXIS2_PLACEMENT_3D ( 'NONE', #230, #229, #228 ) ;
#232 = CIRCLE ( 'NONE', #231, 12.69999999999999900 ) ;
#233 = VERTEX_POINT ( 'NONE', #93 ) ;
#234 = MANIFOLD_SOLID_BREP ( 'NONE', #188 ) ;
#235 = ADVANCED_FACE ( 'NONE', ( #109 ), #58, .T. ) ;
#236 = EDGE_LOOP ( 'NONE', ( #200, #238, #203, #189, #192 ) ) ;
#237 = VERTEX_POINT ( 'NONE', #146 ) ;
#238 = ORIENTED_EDGE ( 'NONE', *, *, #239, .T. ) ;
#239 = EDGE_CURVE ( 'NONE', #237, #202, #150, .T. ) ;
#240 = ORIENTED_EDGE ( 'NONE', *, *, #241, .T. ) ;
#241 = EDGE_CURVE ( 'NONE', #237, #233, #148, .T. ) ;
#242 = ORIENTED_EDGE ( 'NONE', *, *, #193, .T. ) ;
#243 = ORIENTED_EDGE ( 'NONE', *, *, #206, .F. ) ;
#244 = ORIENTED_EDGE ( 'NONE', *, *, #198, .F. ) ;
#245 = ADVANCED_FACE ( 'NONE', ( #149 ), #160, .F. ) ;
#246 = EDGE_LOOP ( 'NONE', ( #247, #248 ) ) ;
#247 = ORIENTED_EDGE ( 'NONE', *, *, #201, .F. ) ;
#248 = ORIENTED_EDGE ( 'NONE', *, *, #241, .F. ) ;
#249 = UNCERTAINTY_MEASURE_WITH_UNIT (LENGTH_MEASURE( 1.000000000000000100E-005 ), #252, 'distance_accuracy_value', 'NONE');
#250 =( NAMED_UNIT ( * ) SI_UNIT ( $, .STERADIAN. ) SOLID_ANGLE_UNIT ( ) );
#251 =( NAMED_UNIT ( * ) PLANE_ANGLE_UNIT ( ) SI_UNIT ( $, .RADIAN. ) );
#252 =( LENGTH_UNIT ( ) NAMED_UNIT ( * ) SI_UNIT ( .MILLI., .METRE. ) );
#253 = MECHANICAL_DESIGN_GEOMETRIC_PRESENTATION_REPRESENTATION (  '', ( #255 ), #2 ) ;
#254 = PRESENTATION_LAYER_ASSIGNMENT (  '', '', ( #255 ) ) ;
#255 = STYLED_ITEM ( 'NONE', ( #256 ), #194 ) ;
#256 = PRESENTATION_STYLE_ASSIGNMENT (( #257 ) ) ;
#257 = SURFACE_STYLE_USAGE ( .BOTH. , #258 ) ;
#258 = SURFACE_SIDE_STYLE ('',( #218 ) ) ;
#259 = EDGE_LOOP ( 'NONE', ( #260, #261, #207, #208 ) ) ;
#260 = ORIENTED_EDGE ( 'NONE', *, *, #213, .F. ) ;
#261 = ORIENTED_EDGE ( 'NONE', *, *, #206, .T. ) ;
ENDSEC;
END-ISO-10303-21;
