ISO-10303-21;
HEADER;
FILE_DESCRIPTION (( 'STEP AP214' ),
    '1' );
FILE_NAME ('4492-E0W.STEP',
    '2009-12-21T17:06:36',
    ( ' ' ),
    ( ' ' ),
    'SwSTEP 2.0',
    'SolidWorks 2009',
    '' );
FILE_SCHEMA (( 'AUTOMOTIVE_DESIGN' ));
ENDSEC;

DATA;
#1 = SURFACE_SIDE_STYLE ('',( #2 ) ) ;
#2 = SURFACE_STYLE_FILL_AREA ( #3 ) ;
#3 = FILL_AREA_STYLE ('',( #4 ) ) ;
#4 = FILL_AREA_STYLE_COLOUR ( '', #5 ) ;
#5 = COLOUR_RGB ( '',0.9568627450980391500, 0.9490196078431372100, 0.9607843137254902200 ) ;
#6 = DIRECTION ( 'NONE',  ( 0.0000000000000000000, 0.0000000000000000000, -1.000000000000000000 ) ) ;
#7 = DIRECTION ( 'NONE',  ( 1.000000000000000000, 0.0000000000000000000, 0.0000000000000000000 ) ) ;
#8 = CARTESIAN_POINT ( 'NONE',  ( 0.0000000000000000000, 0.0000000000000000000, -23.07999999999999800 ) ) ;
#9 = AXIS2_PLACEMENT_3D ( 'NONE', #8, #7, #6 ) ;
#10 = CIRCLE ( 'NONE', #9, 25.75000000000000000 ) ;
#11 = FACE_OUTER_BOUND ( 'NONE', #171, .T. ) ;
#12 = CARTESIAN_POINT ( 'NONE',  ( 0.0000000000000000000, 1.576680680546310500E-015, 2.669999999999995500 ) ) ;
#13 = DIRECTION ( 'NONE',  ( -1.224606353822377300E-016, -1.000000000000000000, 0.0000000000000000000 ) ) ;
#14 = DIRECTION ( 'NONE',  ( -1.000000000000000000, 1.224606353822377300E-016, 0.0000000000000000000 ) ) ;
#15 = CARTESIAN_POINT ( 'NONE',  ( 0.0000000000000000000, 0.0000000000000000000, -23.07999999999999800 ) ) ;
#16 = AXIS2_PLACEMENT_3D ( 'NONE', #15, #14, #13 ) ;
#17 = CIRCLE ( 'NONE', #16, 25.74999999999999600 ) ;
#18 = UNCERTAINTY_MEASURE_WITH_UNIT (LENGTH_MEASURE( 1.000000000000000100E-005 ), #21, 'distance_accuracy_value', 'NONE');
#19 =( NAMED_UNIT ( * ) SI_UNIT ( $, .STERADIAN. ) SOLID_ANGLE_UNIT ( ) );
#20 =( NAMED_UNIT ( * ) PLANE_ANGLE_UNIT ( ) SI_UNIT ( $, .RADIAN. ) );
#21 =( LENGTH_UNIT ( ) NAMED_UNIT ( * ) SI_UNIT ( .MILLI., .METRE. ) );
#22 = MECHANICAL_DESIGN_GEOMETRIC_PRESENTATION_REPRESENTATION (  '', ( #24 ), #141 ) ;
#23 = PRESENTATION_LAYER_ASSIGNMENT (  '', '', ( #24 ) ) ;
#24 = STYLED_ITEM ( 'NONE', ( #25 ), #143 ) ;
#25 = PRESENTATION_STYLE_ASSIGNMENT (( #26 ) ) ;
#26 = SURFACE_STYLE_USAGE ( .BOTH. , #27 ) ;
#27 = SURFACE_SIDE_STYLE ('',( #28 ) ) ;
#28 = SURFACE_STYLE_FILL_AREA ( #29 ) ;
#29 = FILL_AREA_STYLE ('',( #30 ) ) ;
#30 = FILL_AREA_STYLE_COLOUR ( '', #31 ) ;
#31 = COLOUR_RGB ( '',0.9568627450980391500, 0.9490196078431372100, 0.9607843137254902200 ) ;
#32 = FACE_OUTER_BOUND ( 'NONE', #144, .T. ) ;
#33 = CARTESIAN_POINT ( 'NONE',  ( 12.69999999999999800, 0.0000000000000000000, -0.6797209838805811100 ) ) ;
#34 = CARTESIAN_POINT ( 'NONE',  ( 0.0000000000000000000, 12.69999999999999200, -0.6797209838805803300 ) ) ;
#35 = DIRECTION ( 'NONE',  ( 1.000000000000000000, 0.0000000000000000000, 0.0000000000000000000 ) ) ;
#36 = DIRECTION ( 'NONE',  ( -0.0000000000000000000, -0.0000000000000000000, 1.000000000000000000 ) ) ;
#37 = CARTESIAN_POINT ( 'NONE',  ( 0.0000000000000000000, 0.0000000000000000000, -0.6797209838805811100 ) ) ;
#38 = AXIS2_PLACEMENT_3D ( 'NONE', #37, #36, #35 ) ;
#39 = CIRCLE ( 'NONE', #38, 12.69999999999999800 ) ;
#40 = CARTESIAN_POINT ( 'NONE',  ( -12.69999999999999800, 1.555250069354418900E-015, -0.6797209838805811100 ) ) ;
#41 = DIRECTION ( 'NONE',  ( -0.0000000000000000000, -0.0000000000000000000, 1.000000000000000000 ) ) ;
#42 = VECTOR ( 'NONE', #41, 1000.000000000000000 ) ;
#43 = CARTESIAN_POINT ( 'NONE',  ( -12.69999999999999900, 1.555250069354419100E-015, 4.308132045400366600 ) ) ;
#44 = LINE ( 'NONE', #43, #42 ) ;
#45 = CARTESIAN_POINT ( 'NONE',  ( -12.69999999999999900, 1.555250069354419100E-015, -2.670000000000000400 ) ) ;
#46 = CARTESIAN_POINT ( 'NONE',  ( 12.69999999999999900, 0.0000000000000000000, -2.670000000000000400 ) ) ;
#47 = DIRECTION ( 'NONE',  ( 1.000000000000000000, 0.0000000000000000000, 0.0000000000000000000 ) ) ;
#48 = EDGE_CURVE ( 'NONE', #49, #50, #61, .T. ) ;
#49 = VERTEX_POINT ( 'NONE', #46 ) ;
#50 = VERTEX_POINT ( 'NONE', #45 ) ;
#51 = ORIENTED_EDGE ( 'NONE', *, *, #52, .T. ) ;
#52 = EDGE_CURVE ( 'NONE', #50, #53, #44, .T. ) ;
#53 = VERTEX_POINT ( 'NONE', #40 ) ;
#54 = ORIENTED_EDGE ( 'NONE', *, *, #55, .F. ) ;
#55 = EDGE_CURVE ( 'NONE', #56, #53, #39, .T. ) ;
#56 = VERTEX_POINT ( 'NONE', #34 ) ;
#57 = VERTEX_POINT ( 'NONE', #33 ) ;
#58 = DIRECTION ( 'NONE',  ( -0.0000000000000000000, -0.0000000000000000000, 1.000000000000000000 ) ) ;
#59 = CARTESIAN_POINT ( 'NONE',  ( 0.0000000000000000000, 0.0000000000000000000, -2.670000000000000400 ) ) ;
#60 = AXIS2_PLACEMENT_3D ( 'NONE', #59, #58, #47 ) ;
#61 = CIRCLE ( 'NONE', #60, 12.69999999999999900 ) ;
#62 = ORIENTED_EDGE ( 'NONE', *, *, #158, .T. ) ;
#63 = ORIENTED_EDGE ( 'NONE', *, *, #145, .F. ) ;
#64 = ORIENTED_EDGE ( 'NONE', *, *, #169, .T. ) ;
#65 = ORIENTED_EDGE ( 'NONE', *, *, #145, .T. ) ;
#66 =( LENGTH_UNIT ( ) NAMED_UNIT ( * ) SI_UNIT ( .MILLI., .METRE. ) );
#67 = MECHANICAL_DESIGN_GEOMETRIC_PRESENTATION_REPRESENTATION (  '', ( #69 ), #179 ) ;
#68 = PRESENTATION_LAYER_ASSIGNMENT (  '', '', ( #69 ) ) ;
#69 = STYLED_ITEM ( 'NONE', ( #70 ), #160 ) ;
#70 = PRESENTATION_STYLE_ASSIGNMENT (( #71 ) ) ;
#71 = SURFACE_STYLE_USAGE ( .BOTH. , #72 ) ;
#72 = SURFACE_SIDE_STYLE ('',( #73 ) ) ;
#73 = SURFACE_STYLE_FILL_AREA ( #74 ) ;
#74 = FILL_AREA_STYLE ('',( #81 ) ) ;
#75 = COLOUR_RGB ( '',0.9568627450980391500, 0.9490196078431372100, 0.9607843137254902200 ) ;
#76 = FACE_OUTER_BOUND ( 'NONE', #159, .T. ) ;
#77 = DIRECTION ( 'NONE',  ( -0.0000000000000000000, -0.0000000000000000000, 1.000000000000000000 ) ) ;
#78 = VECTOR ( 'NONE', #77, 1000.000000000000000 ) ;
#79 = CARTESIAN_POINT ( 'NONE',  ( 12.69999999999999900, 0.0000000000000000000, 4.308132045400366600 ) ) ;
#80 = LINE ( 'NONE', #79, #78 ) ;
#81 = FILL_AREA_STYLE_COLOUR ( '', #75 ) ;
#82 = DIRECTION ( 'NONE',  ( 1.000000000000000000, 0.0000000000000000000, 0.0000000000000000000 ) ) ;
#83 = DIRECTION ( 'NONE',  ( -0.0000000000000000000, -0.0000000000000000000, 1.000000000000000000 ) ) ;
#84 = CARTESIAN_POINT ( 'NONE',  ( 0.0000000000000000000, 0.0000000000000000000, -0.6797209838805811100 ) ) ;
#85 = AXIS2_PLACEMENT_3D ( 'NONE', #84, #83, #82 ) ;
#86 = DIRECTION ( 'NONE',  ( 1.000000000000000000, 0.0000000000000000000, 0.0000000000000000000 ) ) ;
#87 = DIRECTION ( 'NONE',  ( 0.0000000000000000000, -0.0000000000000000000, 1.000000000000000000 ) ) ;
#88 = CARTESIAN_POINT ( 'NONE',  ( 0.0000000000000000000, 9.809420861170299400E-016, -2.669999999999999900 ) ) ;
#89 = AXIS2_PLACEMENT_3D ( 'NONE', #88, #87, #86 ) ;
#90 = CIRCLE ( 'NONE', #85, 12.69999999999999800 ) ;
#91 = PLANE ( 'NONE',  #89 ) ;
#92 =( GEOMETRIC_REPRESENTATION_CONTEXT ( 3 ) GLOBAL_UNCERTAINTY_ASSIGNED_CONTEXT ( ( #93 ) ) GLOBAL_UNIT_ASSIGNED_CONTEXT ( ( #114, #113, #112 ) ) REPRESENTATION_CONTEXT ( 'NONE', 'WORKASPACE' ) );
#93 = UNCERTAINTY_MEASURE_WITH_UNIT (LENGTH_MEASURE( 1.000000000000000100E-005 ), #114, 'distance_accuracy_value', 'NONE');
#94 = UNCERTAINTY_MEASURE_WITH_UNIT (LENGTH_MEASURE( 1.000000000000000100E-005 ), #97, 'distance_accuracy_value', 'NONE');
#95 =( NAMED_UNIT ( * ) SI_UNIT ( $, .STERADIAN. ) SOLID_ANGLE_UNIT ( ) );
#96 =( NAMED_UNIT ( * ) PLANE_ANGLE_UNIT ( ) SI_UNIT ( $, .RADIAN. ) );
#97 =( LENGTH_UNIT ( ) NAMED_UNIT ( * ) SI_UNIT ( .MILLI., .METRE. ) );
#98 = MECHANICAL_DESIGN_GEOMETRIC_PRESENTATION_REPRESENTATION (  '', ( #100 ), #200 ) ;
#99 = PRESENTATION_LAYER_ASSIGNMENT (  '', '', ( #100 ) ) ;
#100 = STYLED_ITEM ( 'NONE', ( #101 ), #170 ) ;
#101 = PRESENTATION_STYLE_ASSIGNMENT (( #102 ) ) ;
#102 = SURFACE_STYLE_USAGE ( .BOTH. , #1 ) ;
#103 = CARTESIAN_POINT ( 'NONE',  ( -1.555250069354418500E-015, -12.69999999999999200, -0.6797209838805803300 ) ) ;
#104 = DIRECTION ( 'NONE',  ( 1.000000000000000000, 0.0000000000000000000, 0.0000000000000000000 ) ) ;
#105 = DIRECTION ( 'NONE',  ( -0.0000000000000000000, -0.0000000000000000000, 1.000000000000000000 ) ) ;
#106 = CARTESIAN_POINT ( 'NONE',  ( 0.0000000000000000000, 0.0000000000000000000, -0.6797209838805811100 ) ) ;
#107 = AXIS2_PLACEMENT_3D ( 'NONE', #106, #105, #104 ) ;
#108 = DIRECTION ( 'NONE',  ( 0.0000000000000000000, 1.000000000000000000, 0.0000000000000000000 ) ) ;
#109 = DIRECTION ( 'NONE',  ( -1.000000000000000000, 0.0000000000000000000, 0.0000000000000000000 ) ) ;
#110 = CARTESIAN_POINT ( 'NONE',  ( 0.0000000000000000000, 0.0000000000000000000, -23.07999999999999800 ) ) ;
#111 = CIRCLE ( 'NONE', #107, 12.69999999999999800 ) ;
#112 =( NAMED_UNIT ( * ) SI_UNIT ( $, .STERADIAN. ) SOLID_ANGLE_UNIT ( ) );
#113 =( NAMED_UNIT ( * ) PLANE_ANGLE_UNIT ( ) SI_UNIT ( $, .RADIAN. ) );
#114 =( LENGTH_UNIT ( ) NAMED_UNIT ( * ) SI_UNIT ( .MILLI., .METRE. ) );
#115 = MECHANICAL_DESIGN_GEOMETRIC_PRESENTATION_REPRESENTATION (  '', ( #117 ), #92 ) ;
#116 = PRESENTATION_LAYER_ASSIGNMENT (  '', '', ( #117 ) ) ;
#117 = STYLED_ITEM ( 'NONE', ( #118 ), #152 ) ;
#118 = PRESENTATION_STYLE_ASSIGNMENT (( #119 ) ) ;
#119 = SURFACE_STYLE_USAGE ( .BOTH. , #120 ) ;
#120 = SURFACE_SIDE_STYLE ('',( #121 ) ) ;
#121 = SURFACE_STYLE_FILL_AREA ( #122 ) ;
#122 = FILL_AREA_STYLE ('',( #130 ) ) ;
#123 = COLOUR_RGB ( '',0.9568627450980391500, 0.9490196078431372100, 0.9607843137254902200 ) ;
#124 = FACE_OUTER_BOUND ( 'NONE', #153, .T. ) ;
#125 = DIRECTION ( 'NONE',  ( 1.000000000000000000, 0.0000000000000000000, 0.0000000000000000000 ) ) ;
#126 = DIRECTION ( 'NONE',  ( -0.0000000000000000000, -0.0000000000000000000, 1.000000000000000000 ) ) ;
#127 = CARTESIAN_POINT ( 'NONE',  ( 0.0000000000000000000, 0.0000000000000000000, -2.670000000000000400 ) ) ;
#128 = AXIS2_PLACEMENT_3D ( 'NONE', #127, #126, #125 ) ;
#129 = CIRCLE ( 'NONE', #128, 12.69999999999999900 ) ;
#130 = FILL_AREA_STYLE_COLOUR ( '', #123 ) ;
#131 = DIRECTION ( 'NONE',  ( 1.000000000000000000, 0.0000000000000000000, 0.0000000000000000000 ) ) ;
#132 = DIRECTION ( 'NONE',  ( -0.0000000000000000000, -0.0000000000000000000, 1.000000000000000000 ) ) ;
#133 = CARTESIAN_POINT ( 'NONE',  ( 0.0000000000000000000, 0.0000000000000000000, -0.6797209838805811100 ) ) ;
#134 = AXIS2_PLACEMENT_3D ( 'NONE', #133, #132, #131 ) ;
#135 = DIRECTION ( 'NONE',  ( 1.000000000000000000, 0.0000000000000000000, 0.0000000000000000000 ) ) ;
#136 = DIRECTION ( 'NONE',  ( -0.0000000000000000000, -0.0000000000000000000, 1.000000000000000000 ) ) ;
#137 = CARTESIAN_POINT ( 'NONE',  ( 0.0000000000000000000, 0.0000000000000000000, 4.308132045400366600 ) ) ;
#138 = AXIS2_PLACEMENT_3D ( 'NONE', #137, #136, #135 ) ;
#139 = CIRCLE ( 'NONE', #134, 12.69999999999999800 ) ;
#140 = CYLINDRICAL_SURFACE ( 'NONE', #138, 12.69999999999999900 ) ;
#141 =( GEOMETRIC_REPRESENTATION_CONTEXT ( 3 ) GLOBAL_UNCERTAINTY_ASSIGNED_CONTEXT ( ( #18 ) ) GLOBAL_UNIT_ASSIGNED_CONTEXT ( ( #21, #20, #19 ) ) REPRESENTATION_CONTEXT ( 'NONE', 'WORKASPACE' ) );
#142 = ORIENTED_EDGE ( 'NONE', *, *, #156, .T. ) ;
#143 = ADVANCED_FACE ( 'NONE', ( #32 ), #140, .T. ) ;
#144 = EDGE_LOOP ( 'NONE', ( #154, #149, #62, #63, #151 ) ) ;
#145 = EDGE_CURVE ( 'NONE', #164, #57, #139, .T. ) ;
#146 = ORIENTED_EDGE ( 'NONE', *, *, #48, .F. ) ;
#147 = ORIENTED_EDGE ( 'NONE', *, *, #150, .F. ) ;
#148 = CLOSED_SHELL ( 'NONE', ( #174, #160, #170, #143, #152 ) ) ;
#149 = ORIENTED_EDGE ( 'NONE', *, *, #150, .T. ) ;
#150 = EDGE_CURVE ( 'NONE', #50, #49, #129, .T. ) ;
#151 = ORIENTED_EDGE ( 'NONE', *, *, #163, .F. ) ;
#152 = ADVANCED_FACE ( 'NONE', ( #124 ), #91, .F. ) ;
#153 = EDGE_LOOP ( 'NONE', ( #146, #147 ) ) ;
#154 = ORIENTED_EDGE ( 'NONE', *, *, #52, .F. ) ;
#155 = ORIENTED_EDGE ( 'NONE', *, *, #156, .F. ) ;
#156 = EDGE_CURVE ( 'NONE', #57, #56, #90, .T. ) ;
#157 = ORIENTED_EDGE ( 'NONE', *, *, #158, .F. ) ;
#158 = EDGE_CURVE ( 'NONE', #49, #57, #80, .T. ) ;
#159 = EDGE_LOOP ( 'NONE', ( #161, #162, #165, #168 ) ) ;
#160 = ADVANCED_FACE ( 'NONE', ( #76 ), #178, .T. ) ;
#161 = ORIENTED_EDGE ( 'NONE', *, *, #55, .T. ) ;
#162 = ORIENTED_EDGE ( 'NONE', *, *, #163, .T. ) ;
#163 = EDGE_CURVE ( 'NONE', #53, #164, #111, .T. ) ;
#164 = VERTEX_POINT ( 'NONE', #103 ) ;
#165 = ORIENTED_EDGE ( 'NONE', *, *, #166, .T. ) ;
#166 = EDGE_CURVE ( 'NONE', #164, #167, #17, .T. ) ;
#167 = VERTEX_POINT ( 'NONE', #12 ) ;
#168 = ORIENTED_EDGE ( 'NONE', *, *, #169, .F. ) ;
#169 = EDGE_CURVE ( 'NONE', #56, #167, #10, .T. ) ;
#170 = ADVANCED_FACE ( 'NONE', ( #11 ), #184, .T. ) ;
#171 = EDGE_LOOP ( 'NONE', ( #172, #65, #142, #64 ) ) ;
#172 = ORIENTED_EDGE ( 'NONE', *, *, #166, .F. ) ;
#173 = MANIFOLD_SOLID_BREP ( 'NONE', #148 ) ;
#174 = ADVANCED_FACE ( 'NONE', ( #198 ), #208, .T. ) ;
#175 = EDGE_LOOP ( 'NONE', ( #176, #51, #54, #155, #157 ) ) ;
#176 = ORIENTED_EDGE ( 'NONE', *, *, #48, .T. ) ;
#177 = AXIS2_PLACEMENT_3D ( 'NONE', #110, #109, #108 ) ;
#178 = SPHERICAL_SURFACE ( 'NONE', #177, 25.74999999999999600 ) ;
#179 =( GEOMETRIC_REPRESENTATION_CONTEXT ( 3 ) GLOBAL_UNCERTAINTY_ASSIGNED_CONTEXT ( ( #180 ) ) GLOBAL_UNIT_ASSIGNED_CONTEXT ( ( #66, #182, #181 ) ) REPRESENTATION_CONTEXT ( 'NONE', 'WORKASPACE' ) );
#180 = UNCERTAINTY_MEASURE_WITH_UNIT (LENGTH_MEASURE( 1.000000000000000100E-005 ), #66, 'distance_accuracy_value', 'NONE');
#181 =( NAMED_UNIT ( * ) SI_UNIT ( $, .STERADIAN. ) SOLID_ANGLE_UNIT ( ) );
#182 =( NAMED_UNIT ( * ) PLANE_ANGLE_UNIT ( ) SI_UNIT ( $, .RADIAN. ) );
#183 = CARTESIAN_POINT ( 'NONE',  ( 0.0000000000000000000, 0.0000000000000000000, -23.07999999999999800 ) ) ;
#184 = SPHERICAL_SURFACE ( 'NONE', #244, 25.74999999999999600 ) ;
#185 = UNCERTAINTY_MEASURE_WITH_UNIT (LENGTH_MEASURE( 1.000000000000000100E-005 ), #211, 'distance_accuracy_value', 'NONE');
#186 =( NAMED_UNIT ( * ) SI_UNIT ( $, .STERADIAN. ) SOLID_ANGLE_UNIT ( ) );
#187 =( LENGTH_UNIT ( ) NAMED_UNIT ( * ) SI_UNIT ( .MILLI., .METRE. ) );
#188 = MECHANICAL_DESIGN_GEOMETRIC_PRESENTATION_REPRESENTATION (  '', ( #190 ), #209 ) ;
#189 = PRESENTATION_LAYER_ASSIGNMENT (  '', '', ( #190 ) ) ;
#190 = STYLED_ITEM ( 'NONE', ( #191 ), #174 ) ;
#191 = PRESENTATION_STYLE_ASSIGNMENT (( #192 ) ) ;
#192 = SURFACE_STYLE_USAGE ( .BOTH. , #193 ) ;
#193 = SURFACE_SIDE_STYLE ('',( #194 ) ) ;
#194 = SURFACE_STYLE_FILL_AREA ( #195 ) ;
#195 = FILL_AREA_STYLE ('',( #196 ) ) ;
#196 = FILL_AREA_STYLE_COLOUR ( '', #197 ) ;
#197 = COLOUR_RGB ( '',0.9568627450980391500, 0.9490196078431372100, 0.9607843137254902200 ) ;
#198 = FACE_OUTER_BOUND ( 'NONE', #175, .T. ) ;
#199 =( GEOMETRIC_REPRESENTATION_CONTEXT ( 3 ) GLOBAL_UNCERTAINTY_ASSIGNED_CONTEXT ( ( #185 ) ) GLOBAL_UNIT_ASSIGNED_CONTEXT ( ( #211, #210, #186 ) ) REPRESENTATION_CONTEXT ( 'NONE', 'WORKASPACE' ) );
#200 =( GEOMETRIC_REPRESENTATION_CONTEXT ( 3 ) GLOBAL_UNCERTAINTY_ASSIGNED_CONTEXT ( ( #94 ) ) GLOBAL_UNIT_ASSIGNED_CONTEXT ( ( #97, #96, #95 ) ) REPRESENTATION_CONTEXT ( 'NONE', 'WORKASPACE' ) );
#201 =( NAMED_UNIT ( * ) PLANE_ANGLE_UNIT ( ) SI_UNIT ( $, .RADIAN. ) );
#202 =( LENGTH_UNIT ( ) NAMED_UNIT ( * ) SI_UNIT ( .MILLI., .METRE. ) );
#203 = DIRECTION ( 'NONE',  ( 1.000000000000000000, 0.0000000000000000000, 0.0000000000000000000 ) ) ;
#204 = DIRECTION ( 'NONE',  ( -0.0000000000000000000, -0.0000000000000000000, 1.000000000000000000 ) ) ;
#205 = CARTESIAN_POINT ( 'NONE',  ( 0.0000000000000000000, 0.0000000000000000000, 4.308132045400366600 ) ) ;
#206 = AXIS2_PLACEMENT_3D ( 'NONE', #205, #204, #203 ) ;
#207 = AXIS2_PLACEMENT_3D ( 'NONE', #214, #213, #212 ) ;
#208 = CYLINDRICAL_SURFACE ( 'NONE', #206, 12.69999999999999900 ) ;
#209 =( GEOMETRIC_REPRESENTATION_CONTEXT ( 3 ) GLOBAL_UNCERTAINTY_ASSIGNED_CONTEXT ( ( #247 ) ) GLOBAL_UNIT_ASSIGNED_CONTEXT ( ( #187, #249, #248 ) ) REPRESENTATION_CONTEXT ( 'NONE', 'WORKASPACE' ) );
#210 =( NAMED_UNIT ( * ) PLANE_ANGLE_UNIT ( ) SI_UNIT ( $, .RADIAN. ) );
#211 =( LENGTH_UNIT ( ) NAMED_UNIT ( * ) SI_UNIT ( .MILLI., .METRE. ) );
#212 = DIRECTION ( 'NONE',  ( 1.000000000000000000, 0.0000000000000000000, 0.0000000000000000000 ) ) ;
#213 = DIRECTION ( 'NONE',  ( 0.0000000000000000000, 0.0000000000000000000, 1.000000000000000000 ) ) ;
#214 = CARTESIAN_POINT ( 'NONE',  ( 0.0000000000000000000, 0.0000000000000000000, 0.0000000000000000000 ) ) ;
#215 =( GEOMETRIC_REPRESENTATION_CONTEXT ( 3 ) GLOBAL_UNCERTAINTY_ASSIGNED_CONTEXT ( ( #216 ) ) GLOBAL_UNIT_ASSIGNED_CONTEXT ( ( #219, #218, #217 ) ) REPRESENTATION_CONTEXT ( 'NONE', 'WORKASPACE' ) );
#216 = UNCERTAINTY_MEASURE_WITH_UNIT (LENGTH_MEASURE( 1.000000000000000100E-005 ), #219, 'distance_accuracy_value', 'NONE');
#217 =( NAMED_UNIT ( * ) SI_UNIT ( $, .STERADIAN. ) SOLID_ANGLE_UNIT ( ) );
#218 =( NAMED_UNIT ( * ) PLANE_ANGLE_UNIT ( ) SI_UNIT ( $, .RADIAN. ) );
#219 =( LENGTH_UNIT ( ) NAMED_UNIT ( * ) SI_UNIT ( .MILLI., .METRE. ) );
#220 = MECHANICAL_DESIGN_GEOMETRIC_PRESENTATION_REPRESENTATION (  '', ( #222 ), #215 ) ;
#221 = PRESENTATION_LAYER_ASSIGNMENT (  '', '', ( #222 ) ) ;
#222 = STYLED_ITEM ( 'NONE', ( #250 ), #258 ) ;
#223 = PRODUCT_DEFINITION_SHAPE ( 'NONE', 'NONE',  #226 ) ;
#224 = PRODUCT_RELATED_PRODUCT_CATEGORY ( 'part', '', ( #230 ) ) ;
#225 = PRODUCT_DEFINITION_FORMATION_WITH_SPECIFIED_SOURCE ( 'ANY', '', #230, .NOT_KNOWN. ) ;
#226 = PRODUCT_DEFINITION ( 'UNKNOWN', '', #225, #227 ) ;
#227 = PRODUCT_DEFINITION_CONTEXT ( 'detailed design', #229, 'design' ) ;
#228 = APPLICATION_PROTOCOL_DEFINITION ( 'draft international standard', 'automotive_design', 1998, #229 ) ;
#229 = APPLICATION_CONTEXT ( 'automotive_design' ) ;
#230 = PRODUCT ( '4492-E0W', '4492-E0W', '', ( #231 ) ) ;
#231 = PRODUCT_CONTEXT ( 'NONE', #257, 'mechanical' ) ;
#232 = APPLICATION_PROTOCOL_DEFINITION ( 'draft international standard', 'automotive_design', 1998, #257 ) ;
#233 = SHAPE_DEFINITION_REPRESENTATION ( #223, #258 ) ;
#234 = MECHANICAL_DESIGN_GEOMETRIC_PRESENTATION_REPRESENTATION (  '', ( #236 ), #199 ) ;
#235 = PRESENTATION_LAYER_ASSIGNMENT (  '', '', ( #236 ) ) ;
#236 = STYLED_ITEM ( 'NONE', ( #237 ), #173 ) ;
#237 = PRESENTATION_STYLE_ASSIGNMENT (( #238 ) ) ;
#238 = SURFACE_STYLE_USAGE ( .BOTH. , #239 ) ;
#239 = SURFACE_SIDE_STYLE ('',( #240 ) ) ;
#240 = SURFACE_STYLE_FILL_AREA ( #241 ) ;
#241 = FILL_AREA_STYLE ('',( #246 ) ) ;
#242 = DIRECTION ( 'NONE',  ( 0.0000000000000000000, 1.000000000000000000, 0.0000000000000000000 ) ) ;
#243 = DIRECTION ( 'NONE',  ( -1.000000000000000000, 0.0000000000000000000, 0.0000000000000000000 ) ) ;
#244 = AXIS2_PLACEMENT_3D ( 'NONE', #183, #243, #242 ) ;
#245 = COLOUR_RGB ( '',0.7960784313725489700, 0.8235294117647058400, 0.9372549019607843100 ) ;
#246 = FILL_AREA_STYLE_COLOUR ( '', #245 ) ;
#247 = UNCERTAINTY_MEASURE_WITH_UNIT (LENGTH_MEASURE( 1.000000000000000100E-005 ), #187, 'distance_accuracy_value', 'NONE');
#248 =( NAMED_UNIT ( * ) SI_UNIT ( $, .STERADIAN. ) SOLID_ANGLE_UNIT ( ) );
#249 =( NAMED_UNIT ( * ) PLANE_ANGLE_UNIT ( ) SI_UNIT ( $, .RADIAN. ) );
#250 = PRESENTATION_STYLE_ASSIGNMENT (( #251 ) ) ;
#251 = SURFACE_STYLE_USAGE ( .BOTH. , #252 ) ;
#252 = SURFACE_SIDE_STYLE ('',( #253 ) ) ;
#253 = SURFACE_STYLE_FILL_AREA ( #254 ) ;
#254 = FILL_AREA_STYLE ('',( #255 ) ) ;
#255 = FILL_AREA_STYLE_COLOUR ( '', #256 ) ;
#256 = COLOUR_RGB ( '',0.7960784313725489700, 0.8235294117647058400, 0.9372549019607843100 ) ;
#257 = APPLICATION_CONTEXT ( 'automotive_design' ) ;
#258 = ADVANCED_BREP_SHAPE_REPRESENTATION ( '4492-E0W', ( #173, #207 ), #259 ) ;
#259 =( GEOMETRIC_REPRESENTATION_CONTEXT ( 3 ) GLOBAL_UNCERTAINTY_ASSIGNED_CONTEXT ( ( #260 ) ) GLOBAL_UNIT_ASSIGNED_CONTEXT ( ( #202, #201, #261 ) ) REPRESENTATION_CONTEXT ( 'NONE', 'WORKASPACE' ) );
#260 = UNCERTAINTY_MEASURE_WITH_UNIT (LENGTH_MEASURE( 1.000000000000000100E-005 ), #202, 'distance_accuracy_value', 'NONE');
#261 =( NAMED_UNIT ( * ) SI_UNIT ( $, .STERADIAN. ) SOLID_ANGLE_UNIT ( ) );
ENDSEC;
END-ISO-10303-21;
