ISO-10303-21;
HEADER;
FILE_DESCRIPTION (( 'STEP AP214' ),
    '1' );
FILE_NAME ('4488-E0W.STEP',
    '2009-12-21T17:06:30',
    ( ' ' ),
    ( ' ' ),
    'SwSTEP 2.0',
    'SolidWorks 2009',
    '' );
FILE_SCHEMA (( 'AUTOMOTIVE_DESIGN' ));
ENDSEC;

DATA;
#1 = AXIS2_PLACEMENT_3D ( 'NONE', #2, #3, #5 ) ;
#2 = CARTESIAN_POINT ( 'NONE',  ( 0.0000000000000000000, 0.0000000000000000000, -7.210000000000000900 ) ) ;
#3 = DIRECTION ( 'NONE',  ( -1.000000000000000000, 1.224606353822377300E-016, 0.0000000000000000000 ) ) ;
#4 = CIRCLE ( 'NONE', #1, 13.08000000000000200 ) ;
#5 = DIRECTION ( 'NONE',  ( -1.224606353822377000E-016, -1.000000000000000000, 0.0000000000000000000 ) ) ;
#6 = CARTESIAN_POINT ( 'NONE',  ( -1.555250069354419300E-015, -12.69999999999999900, -4.080079873223597900 ) ) ;
#7 =( NAMED_UNIT ( * ) PLANE_ANGLE_UNIT ( ) SI_UNIT ( $, .RADIAN. ) );
#8 = ADVANCED_BREP_SHAPE_REPRESENTATION ( '4488-E0W', ( #90, #72 ), #9 ) ;
#9 =( GEOMETRIC_REPRESENTATION_CONTEXT ( 3 ) GLOBAL_UNCERTAINTY_ASSIGNED_CONTEXT ( ( #10 ) ) GLOBAL_UNIT_ASSIGNED_CONTEXT ( ( #22, #7, #11 ) ) REPRESENTATION_CONTEXT ( 'NONE', 'WORKASPACE' ) );
#10 = UNCERTAINTY_MEASURE_WITH_UNIT (LENGTH_MEASURE( 1.000000000000000100E-005 ), #22, 'distance_accuracy_value', 'NONE');
#11 =( NAMED_UNIT ( * ) SI_UNIT ( $, .STERADIAN. ) SOLID_ANGLE_UNIT ( ) );
#12 = MECHANICAL_DESIGN_GEOMETRIC_PRESENTATION_REPRESENTATION (  '', ( #14 ), #59 ) ;
#13 = PRESENTATION_LAYER_ASSIGNMENT (  '', '', ( #14 ) ) ;
#14 = STYLED_ITEM ( 'NONE', ( #15 ), #8 ) ;
#15 = PRESENTATION_STYLE_ASSIGNMENT (( #16 ) ) ;
#16 = SURFACE_STYLE_USAGE ( .BOTH. , #17 ) ;
#17 = SURFACE_SIDE_STYLE ('',( #18 ) ) ;
#18 = SURFACE_STYLE_FILL_AREA ( #19 ) ;
#19 = FILL_AREA_STYLE ('',( #20 ) ) ;
#20 = FILL_AREA_STYLE_COLOUR ( '', #21 ) ;
#21 = COLOUR_RGB ( '',0.7960784313725489700, 0.8235294117647058400, 0.9372549019607843100 ) ;
#22 =( LENGTH_UNIT ( ) NAMED_UNIT ( * ) SI_UNIT ( .MILLI., .METRE. ) );
#23 = DIRECTION ( 'NONE',  ( 0.0000000000000000000, 1.000000000000000000, 0.0000000000000000000 ) ) ;
#24 = DIRECTION ( 'NONE',  ( -1.000000000000000000, 0.0000000000000000000, 0.0000000000000000000 ) ) ;
#25 = CARTESIAN_POINT ( 'NONE',  ( 0.0000000000000000000, 0.0000000000000000000, -7.210000000000000900 ) ) ;
#26 = AXIS2_PLACEMENT_3D ( 'NONE', #25, #24, #23 ) ;
#27 = CIRCLE ( 'NONE', #43, 13.08000000000000200 ) ;
#28 = CARTESIAN_POINT ( 'NONE',  ( 12.69999999999999900, 0.0000000000000000000, -4.080079873223597900 ) ) ;
#29 =( LENGTH_UNIT ( ) NAMED_UNIT ( * ) SI_UNIT ( .MILLI., .METRE. ) );
#30 = SPHERICAL_SURFACE ( 'NONE', #26, 13.08000000000000200 ) ;
#31 =( GEOMETRIC_REPRESENTATION_CONTEXT ( 3 ) GLOBAL_UNCERTAINTY_ASSIGNED_CONTEXT ( ( #32 ) ) GLOBAL_UNIT_ASSIGNED_CONTEXT ( ( #29, #36, #48 ) ) REPRESENTATION_CONTEXT ( 'NONE', 'WORKASPACE' ) );
#32 = UNCERTAINTY_MEASURE_WITH_UNIT (LENGTH_MEASURE( 1.000000000000000100E-005 ), #29, 'distance_accuracy_value', 'NONE');
#33 = CARTESIAN_POINT ( 'NONE',  ( 0.0000000000000000000, 0.0000000000000000000, -7.210000000000000900 ) ) ;
#34 = CARTESIAN_POINT ( 'NONE',  ( 0.0000000000000000000, 8.008925553998347600E-016, 5.870000000000000100 ) ) ;
#35 = CARTESIAN_POINT ( 'NONE',  ( -12.69999999999999900, 1.555250069354419100E-015, -5.870000000000000100 ) ) ;
#36 =( NAMED_UNIT ( * ) PLANE_ANGLE_UNIT ( ) SI_UNIT ( $, .RADIAN. ) );
#37 = CARTESIAN_POINT ( 'NONE',  ( 12.69999999999999900, 0.0000000000000000000, 4.308132045400366600 ) ) ;
#38 = DIRECTION ( 'NONE',  ( 1.000000000000000000, 0.0000000000000000000, 0.0000000000000000000 ) ) ;
#39 = SURFACE_STYLE_USAGE ( .BOTH. , #40 ) ;
#40 = SURFACE_SIDE_STYLE ('',( #41 ) ) ;
#41 = SURFACE_STYLE_FILL_AREA ( #54 ) ;
#42 = DIRECTION ( 'NONE',  ( 0.0000000000000000000, 0.0000000000000000000, -1.000000000000000000 ) ) ;
#43 = AXIS2_PLACEMENT_3D ( 'NONE', #33, #38, #42 ) ;
#44 = STYLED_ITEM ( 'NONE', ( #45 ), #125 ) ;
#45 = PRESENTATION_STYLE_ASSIGNMENT (( #39 ) ) ;
#46 = FACE_OUTER_BOUND ( 'NONE', #77, .T. ) ;
#47 = DIRECTION ( 'NONE',  ( -0.0000000000000000000, -0.0000000000000000000, 1.000000000000000000 ) ) ;
#48 =( NAMED_UNIT ( * ) SI_UNIT ( $, .STERADIAN. ) SOLID_ANGLE_UNIT ( ) );
#49 = MECHANICAL_DESIGN_GEOMETRIC_PRESENTATION_REPRESENTATION (  '', ( #44 ), #31 ) ;
#50 = PRESENTATION_LAYER_ASSIGNMENT (  '', '', ( #44 ) ) ;
#51 = VECTOR ( 'NONE', #47, 1000.000000000000000 ) ;
#52 = FILL_AREA_STYLE_COLOUR ( '', #55 ) ;
#53 = LINE ( 'NONE', #37, #51 ) ;
#54 = FILL_AREA_STYLE ('',( #52 ) ) ;
#55 = COLOUR_RGB ( '',0.9568627450980391500, 0.9490196078431372100, 0.9607843137254902200 ) ;
#56 = UNCERTAINTY_MEASURE_WITH_UNIT (LENGTH_MEASURE( 1.000000000000000100E-005 ), #76, 'distance_accuracy_value', 'NONE');
#57 = APPLICATION_PROTOCOL_DEFINITION ( 'draft international standard', 'automotive_design', 1998, #70 ) ;
#58 = DIRECTION ( 'NONE',  ( 0.0000000000000000000, 0.0000000000000000000, 1.000000000000000000 ) ) ;
#59 =( GEOMETRIC_REPRESENTATION_CONTEXT ( 3 ) GLOBAL_UNCERTAINTY_ASSIGNED_CONTEXT ( ( #56 ) ) GLOBAL_UNIT_ASSIGNED_CONTEXT ( ( #76, #75, #60 ) ) REPRESENTATION_CONTEXT ( 'NONE', 'WORKASPACE' ) );
#60 =( NAMED_UNIT ( * ) SI_UNIT ( $, .STERADIAN. ) SOLID_ANGLE_UNIT ( ) );
#61 = PRODUCT_RELATED_PRODUCT_CATEGORY ( 'part', '', ( #67 ) ) ;
#62 = PRODUCT_DEFINITION_FORMATION_WITH_SPECIFIED_SOURCE ( 'ANY', '', #67, .NOT_KNOWN. ) ;
#63 = PRODUCT_DEFINITION ( 'UNKNOWN', '', #62, #64 ) ;
#64 = PRODUCT_DEFINITION_CONTEXT ( 'detailed design', #66, 'design' ) ;
#65 = APPLICATION_PROTOCOL_DEFINITION ( 'draft international standard', 'automotive_design', 1998, #66 ) ;
#66 = APPLICATION_CONTEXT ( 'automotive_design' ) ;
#67 = PRODUCT ( '4488-E0W', '4488-E0W', '', ( #68 ) ) ;
#68 = PRODUCT_CONTEXT ( 'NONE', #70, 'mechanical' ) ;
#69 = DIRECTION ( 'NONE',  ( 1.000000000000000000, 0.0000000000000000000, 0.0000000000000000000 ) ) ;
#70 = APPLICATION_CONTEXT ( 'automotive_design' ) ;
#71 = CARTESIAN_POINT ( 'NONE',  ( 0.0000000000000000000, 0.0000000000000000000, 0.0000000000000000000 ) ) ;
#72 = AXIS2_PLACEMENT_3D ( 'NONE', #71, #58, #69 ) ;
#73 = PRODUCT_DEFINITION_SHAPE ( 'NONE', 'NONE',  #63 ) ;
#74 = SHAPE_DEFINITION_REPRESENTATION ( #73, #8 ) ;
#75 =( NAMED_UNIT ( * ) PLANE_ANGLE_UNIT ( ) SI_UNIT ( $, .RADIAN. ) );
#76 =( LENGTH_UNIT ( ) NAMED_UNIT ( * ) SI_UNIT ( .MILLI., .METRE. ) );
#77 = EDGE_LOOP ( 'NONE', ( #78, #113, #116, #119 ) ) ;
#78 = ORIENTED_EDGE ( 'NONE', *, *, #85, .T. ) ;
#79 = EDGE_CURVE ( 'NONE', #122, #112, #158, .T. ) ;
#80 = ORIENTED_EDGE ( 'NONE', *, *, #85, .F. ) ;
#81 = VERTEX_POINT ( 'NONE', #154 ) ;
#82 = ORIENTED_EDGE ( 'NONE', *, *, #83, .T. ) ;
#83 = EDGE_CURVE ( 'NONE', #84, #122, #153, .T. ) ;
#84 = VERTEX_POINT ( 'NONE', #148 ) ;
#85 = EDGE_CURVE ( 'NONE', #81, #112, #147, .T. ) ;
#86 = ORIENTED_EDGE ( 'NONE', *, *, #87, .F. ) ;
#87 = EDGE_CURVE ( 'NONE', #121, #81, #141, .T. ) ;
#88 = ADVANCED_FACE ( 'NONE', ( #136 ), #177, .T. ) ;
#89 = EDGE_LOOP ( 'NONE', ( #82, #111, #80, #86, #123 ) ) ;
#90 = MANIFOLD_SOLID_BREP ( 'NONE', #98 ) ;
#91 = ORIENTED_EDGE ( 'NONE', *, *, #124, .T. ) ;
#92 = ORIENTED_EDGE ( 'NONE', *, *, #103, .F. ) ;
#93 = ORIENTED_EDGE ( 'NONE', *, *, #114, .F. ) ;
#94 = ADVANCED_FACE ( 'NONE', ( #211 ), #195, .F. ) ;
#95 = EDGE_LOOP ( 'NONE', ( #96, #97 ) ) ;
#96 = ORIENTED_EDGE ( 'NONE', *, *, #83, .F. ) ;
#97 = ORIENTED_EDGE ( 'NONE', *, *, #110, .F. ) ;
#98 = CLOSED_SHELL ( 'NONE', ( #88, #125, #99, #106, #94 ) ) ;
#99 = ADVANCED_FACE ( 'NONE', ( #193 ), #233, .T. ) ;
#100 = EDGE_LOOP ( 'NONE', ( #101, #102, #104, #105 ) ) ;
#101 = ORIENTED_EDGE ( 'NONE', *, *, #117, .F. ) ;
#102 = ORIENTED_EDGE ( 'NONE', *, *, #103, .T. ) ;
#103 = EDGE_CURVE ( 'NONE', #115, #121, #232, .T. ) ;
#104 = ORIENTED_EDGE ( 'NONE', *, *, #87, .T. ) ;
#105 = ORIENTED_EDGE ( 'NONE', *, *, #120, .T. ) ;
#106 = ADVANCED_FACE ( 'NONE', ( #222 ), #256, .T. ) ;
#107 = EDGE_LOOP ( 'NONE', ( #108, #109, #91, #92, #93 ) ) ;
#108 = ORIENTED_EDGE ( 'NONE', *, *, #79, .F. ) ;
#109 = ORIENTED_EDGE ( 'NONE', *, *, #110, .T. ) ;
#110 = EDGE_CURVE ( 'NONE', #122, #84, #255, .T. ) ;
#111 = ORIENTED_EDGE ( 'NONE', *, *, #79, .T. ) ;
#112 = VERTEX_POINT ( 'NONE', #246 ) ;
#113 = ORIENTED_EDGE ( 'NONE', *, *, #114, .T. ) ;
#114 = EDGE_CURVE ( 'NONE', #112, #115, #245, .T. ) ;
#115 = VERTEX_POINT ( 'NONE', #6 ) ;
#116 = ORIENTED_EDGE ( 'NONE', *, *, #117, .T. ) ;
#117 = EDGE_CURVE ( 'NONE', #115, #118, #4, .T. ) ;
#118 = VERTEX_POINT ( 'NONE', #34 ) ;
#119 = ORIENTED_EDGE ( 'NONE', *, *, #120, .F. ) ;
#120 = EDGE_CURVE ( 'NONE', #81, #118, #27, .T. ) ;
#121 = VERTEX_POINT ( 'NONE', #28 ) ;
#122 = VERTEX_POINT ( 'NONE', #35 ) ;
#123 = ORIENTED_EDGE ( 'NONE', *, *, #124, .F. ) ;
#124 = EDGE_CURVE ( 'NONE', #84, #121, #53, .T. ) ;
#125 = ADVANCED_FACE ( 'NONE', ( #46 ), #30, .T. ) ;
#126 =( LENGTH_UNIT ( ) NAMED_UNIT ( * ) SI_UNIT ( .MILLI., .METRE. ) );
#127 = MECHANICAL_DESIGN_GEOMETRIC_PRESENTATION_REPRESENTATION (  '', ( #129 ), #178 ) ;
#128 = PRESENTATION_LAYER_ASSIGNMENT (  '', '', ( #129 ) ) ;
#129 = STYLED_ITEM ( 'NONE', ( #130 ), #88 ) ;
#130 = PRESENTATION_STYLE_ASSIGNMENT (( #131 ) ) ;
#131 = SURFACE_STYLE_USAGE ( .BOTH. , #132 ) ;
#132 = SURFACE_SIDE_STYLE ('',( #133 ) ) ;
#133 = SURFACE_STYLE_FILL_AREA ( #134 ) ;
#134 = FILL_AREA_STYLE ('',( #142 ) ) ;
#135 = COLOUR_RGB ( '',0.9568627450980391500, 0.9490196078431372100, 0.9607843137254902200 ) ;
#136 = FACE_OUTER_BOUND ( 'NONE', #89, .T. ) ;
#137 = DIRECTION ( 'NONE',  ( 1.000000000000000000, 0.0000000000000000000, 0.0000000000000000000 ) ) ;
#138 = DIRECTION ( 'NONE',  ( -0.0000000000000000000, -0.0000000000000000000, 1.000000000000000000 ) ) ;
#139 = CARTESIAN_POINT ( 'NONE',  ( 0.0000000000000000000, 0.0000000000000000000, -4.080079873223597900 ) ) ;
#140 = AXIS2_PLACEMENT_3D ( 'NONE', #139, #138, #137 ) ;
#141 = CIRCLE ( 'NONE', #140, 12.69999999999999900 ) ;
#142 = FILL_AREA_STYLE_COLOUR ( '', #135 ) ;
#143 = DIRECTION ( 'NONE',  ( 1.000000000000000000, 0.0000000000000000000, 0.0000000000000000000 ) ) ;
#144 = DIRECTION ( 'NONE',  ( -0.0000000000000000000, -0.0000000000000000000, 1.000000000000000000 ) ) ;
#145 = CARTESIAN_POINT ( 'NONE',  ( 0.0000000000000000000, 0.0000000000000000000, -4.080079873223597900 ) ) ;
#146 = AXIS2_PLACEMENT_3D ( 'NONE', #145, #144, #143 ) ;
#147 = CIRCLE ( 'NONE', #146, 12.69999999999999900 ) ;
#148 = CARTESIAN_POINT ( 'NONE',  ( 12.69999999999999900, 0.0000000000000000000, -5.870000000000000100 ) ) ;
#149 = DIRECTION ( 'NONE',  ( 1.000000000000000000, 0.0000000000000000000, 0.0000000000000000000 ) ) ;
#150 = DIRECTION ( 'NONE',  ( -0.0000000000000000000, -0.0000000000000000000, 1.000000000000000000 ) ) ;
#151 = CARTESIAN_POINT ( 'NONE',  ( 0.0000000000000000000, 0.0000000000000000000, -5.870000000000000100 ) ) ;
#152 = AXIS2_PLACEMENT_3D ( 'NONE', #151, #150, #149 ) ;
#153 = CIRCLE ( 'NONE', #152, 12.69999999999999900 ) ;
#154 = CARTESIAN_POINT ( 'NONE',  ( 0.0000000000000000000, 12.69999999999999900, -4.080079873223597900 ) ) ;
#155 = DIRECTION ( 'NONE',  ( -0.0000000000000000000, -0.0000000000000000000, 1.000000000000000000 ) ) ;
#156 = VECTOR ( 'NONE', #155, 1000.000000000000000 ) ;
#157 = CARTESIAN_POINT ( 'NONE',  ( -12.69999999999999900, 1.555250069354419100E-015, 4.308132045400366600 ) ) ;
#158 = LINE ( 'NONE', #157, #156 ) ;
#159 = UNCERTAINTY_MEASURE_WITH_UNIT (LENGTH_MEASURE( 1.000000000000000100E-005 ), #162, 'distance_accuracy_value', 'NONE');
#160 =( NAMED_UNIT ( * ) SI_UNIT ( $, .STERADIAN. ) SOLID_ANGLE_UNIT ( ) );
#161 =( NAMED_UNIT ( * ) PLANE_ANGLE_UNIT ( ) SI_UNIT ( $, .RADIAN. ) );
#162 =( LENGTH_UNIT ( ) NAMED_UNIT ( * ) SI_UNIT ( .MILLI., .METRE. ) );
#163 = MECHANICAL_DESIGN_GEOMETRIC_PRESENTATION_REPRESENTATION (  '', ( #165 ), #212 ) ;
#164 = PRESENTATION_LAYER_ASSIGNMENT (  '', '', ( #165 ) ) ;
#165 = STYLED_ITEM ( 'NONE', ( #166 ), #90 ) ;
#166 = PRESENTATION_STYLE_ASSIGNMENT (( #167 ) ) ;
#167 = SURFACE_STYLE_USAGE ( .BOTH. , #168 ) ;
#168 = SURFACE_SIDE_STYLE ('',( #169 ) ) ;
#169 = SURFACE_STYLE_FILL_AREA ( #170 ) ;
#170 = FILL_AREA_STYLE ('',( #176 ) ) ;
#171 = DIRECTION ( 'NONE',  ( 1.000000000000000000, 0.0000000000000000000, 0.0000000000000000000 ) ) ;
#172 = DIRECTION ( 'NONE',  ( -0.0000000000000000000, -0.0000000000000000000, 1.000000000000000000 ) ) ;
#173 = CARTESIAN_POINT ( 'NONE',  ( 0.0000000000000000000, 0.0000000000000000000, 4.308132045400366600 ) ) ;
#174 = AXIS2_PLACEMENT_3D ( 'NONE', #173, #172, #171 ) ;
#175 = COLOUR_RGB ( '',0.7960784313725489700, 0.8235294117647058400, 0.9372549019607843100 ) ;
#176 = FILL_AREA_STYLE_COLOUR ( '', #175 ) ;
#177 = CYLINDRICAL_SURFACE ( 'NONE', #174, 12.69999999999999900 ) ;
#178 =( GEOMETRIC_REPRESENTATION_CONTEXT ( 3 ) GLOBAL_UNCERTAINTY_ASSIGNED_CONTEXT ( ( #179 ) ) GLOBAL_UNIT_ASSIGNED_CONTEXT ( ( #126, #181, #180 ) ) REPRESENTATION_CONTEXT ( 'NONE', 'WORKASPACE' ) );
#179 = UNCERTAINTY_MEASURE_WITH_UNIT (LENGTH_MEASURE( 1.000000000000000100E-005 ), #126, 'distance_accuracy_value', 'NONE');
#180 =( NAMED_UNIT ( * ) SI_UNIT ( $, .STERADIAN. ) SOLID_ANGLE_UNIT ( ) );
#181 =( NAMED_UNIT ( * ) PLANE_ANGLE_UNIT ( ) SI_UNIT ( $, .RADIAN. ) );
#182 = STYLED_ITEM ( 'NONE', ( #183 ), #99 ) ;
#183 = PRESENTATION_STYLE_ASSIGNMENT (( #184 ) ) ;
#184 = SURFACE_STYLE_USAGE ( .BOTH. , #185 ) ;
#185 = SURFACE_SIDE_STYLE ('',( #186 ) ) ;
#186 = SURFACE_STYLE_FILL_AREA ( #187 ) ;
#187 = FILL_AREA_STYLE ('',( #194 ) ) ;
#188 = COLOUR_RGB ( '',0.9568627450980391500, 0.9490196078431372100, 0.9607843137254902200 ) ;
#189 = DIRECTION ( 'NONE',  ( 1.000000000000000000, 0.0000000000000000000, 0.0000000000000000000 ) ) ;
#190 = DIRECTION ( 'NONE',  ( 0.0000000000000000000, -0.0000000000000000000, 1.000000000000000000 ) ) ;
#191 = CARTESIAN_POINT ( 'NONE',  ( 0.0000000000000000000, 2.156603013298489200E-015, -5.870000000000000100 ) ) ;
#192 = AXIS2_PLACEMENT_3D ( 'NONE', #191, #190, #189 ) ;
#193 = FACE_OUTER_BOUND ( 'NONE', #100, .T. ) ;
#194 = FILL_AREA_STYLE_COLOUR ( '', #188 ) ;
#195 = PLANE ( 'NONE',  #192 ) ;
#196 =( GEOMETRIC_REPRESENTATION_CONTEXT ( 3 ) GLOBAL_UNCERTAINTY_ASSIGNED_CONTEXT ( ( #197 ) ) GLOBAL_UNIT_ASSIGNED_CONTEXT ( ( #200, #199, #198 ) ) REPRESENTATION_CONTEXT ( 'NONE', 'WORKASPACE' ) );
#197 = UNCERTAINTY_MEASURE_WITH_UNIT (LENGTH_MEASURE( 1.000000000000000100E-005 ), #200, 'distance_accuracy_value', 'NONE');
#198 =( NAMED_UNIT ( * ) SI_UNIT ( $, .STERADIAN. ) SOLID_ANGLE_UNIT ( ) );
#199 =( NAMED_UNIT ( * ) PLANE_ANGLE_UNIT ( ) SI_UNIT ( $, .RADIAN. ) );
#200 =( LENGTH_UNIT ( ) NAMED_UNIT ( * ) SI_UNIT ( .MILLI., .METRE. ) );
#201 = MECHANICAL_DESIGN_GEOMETRIC_PRESENTATION_REPRESENTATION (  '', ( #203 ), #196 ) ;
#202 = PRESENTATION_LAYER_ASSIGNMENT (  '', '', ( #203 ) ) ;
#203 = STYLED_ITEM ( 'NONE', ( #204 ), #94 ) ;
#204 = PRESENTATION_STYLE_ASSIGNMENT (( #205 ) ) ;
#205 = SURFACE_STYLE_USAGE ( .BOTH. , #206 ) ;
#206 = SURFACE_SIDE_STYLE ('',( #207 ) ) ;
#207 = SURFACE_STYLE_FILL_AREA ( #208 ) ;
#208 = FILL_AREA_STYLE ('',( #209 ) ) ;
#209 = FILL_AREA_STYLE_COLOUR ( '', #210 ) ;
#210 = COLOUR_RGB ( '',0.9568627450980391500, 0.9490196078431372100, 0.9607843137254902200 ) ;
#211 = FACE_OUTER_BOUND ( 'NONE', #95, .T. ) ;
#212 =( GEOMETRIC_REPRESENTATION_CONTEXT ( 3 ) GLOBAL_UNCERTAINTY_ASSIGNED_CONTEXT ( ( #159 ) ) GLOBAL_UNIT_ASSIGNED_CONTEXT ( ( #162, #161, #160 ) ) REPRESENTATION_CONTEXT ( 'NONE', 'WORKASPACE' ) );
#213 = MECHANICAL_DESIGN_GEOMETRIC_PRESENTATION_REPRESENTATION (  '', ( #215 ), #257 ) ;
#214 = PRESENTATION_LAYER_ASSIGNMENT (  '', '', ( #215 ) ) ;
#215 = STYLED_ITEM ( 'NONE', ( #216 ), #106 ) ;
#216 = PRESENTATION_STYLE_ASSIGNMENT (( #217 ) ) ;
#217 = SURFACE_STYLE_USAGE ( .BOTH. , #218 ) ;
#218 = SURFACE_SIDE_STYLE ('',( #219 ) ) ;
#219 = SURFACE_STYLE_FILL_AREA ( #220 ) ;
#220 = FILL_AREA_STYLE ('',( #227 ) ) ;
#221 = COLOUR_RGB ( '',0.9568627450980391500, 0.9490196078431372100, 0.9607843137254902200 ) ;
#222 = FACE_OUTER_BOUND ( 'NONE', #107, .T. ) ;
#223 = DIRECTION ( 'NONE',  ( 1.000000000000000000, 0.0000000000000000000, 0.0000000000000000000 ) ) ;
#224 = DIRECTION ( 'NONE',  ( -0.0000000000000000000, -0.0000000000000000000, 1.000000000000000000 ) ) ;
#225 = CARTESIAN_POINT ( 'NONE',  ( 0.0000000000000000000, 0.0000000000000000000, -4.080079873223597900 ) ) ;
#226 = AXIS2_PLACEMENT_3D ( 'NONE', #225, #224, #223 ) ;
#227 = FILL_AREA_STYLE_COLOUR ( '', #221 ) ;
#228 = DIRECTION ( 'NONE',  ( 0.0000000000000000000, 1.000000000000000000, 0.0000000000000000000 ) ) ;
#229 = DIRECTION ( 'NONE',  ( -1.000000000000000000, 0.0000000000000000000, 0.0000000000000000000 ) ) ;
#230 = CARTESIAN_POINT ( 'NONE',  ( 0.0000000000000000000, 0.0000000000000000000, -7.210000000000000900 ) ) ;
#231 = AXIS2_PLACEMENT_3D ( 'NONE', #230, #229, #228 ) ;
#232 = CIRCLE ( 'NONE', #226, 12.69999999999999900 ) ;
#233 = SPHERICAL_SURFACE ( 'NONE', #231, 13.08000000000000200 ) ;
#234 =( GEOMETRIC_REPRESENTATION_CONTEXT ( 3 ) GLOBAL_UNCERTAINTY_ASSIGNED_CONTEXT ( ( #235 ) ) GLOBAL_UNIT_ASSIGNED_CONTEXT ( ( #238, #237, #236 ) ) REPRESENTATION_CONTEXT ( 'NONE', 'WORKASPACE' ) );
#235 = UNCERTAINTY_MEASURE_WITH_UNIT (LENGTH_MEASURE( 1.000000000000000100E-005 ), #238, 'distance_accuracy_value', 'NONE');
#236 =( NAMED_UNIT ( * ) SI_UNIT ( $, .STERADIAN. ) SOLID_ANGLE_UNIT ( ) );
#237 =( NAMED_UNIT ( * ) PLANE_ANGLE_UNIT ( ) SI_UNIT ( $, .RADIAN. ) );
#238 =( LENGTH_UNIT ( ) NAMED_UNIT ( * ) SI_UNIT ( .MILLI., .METRE. ) );
#239 = MECHANICAL_DESIGN_GEOMETRIC_PRESENTATION_REPRESENTATION (  '', ( #182 ), #234 ) ;
#240 = PRESENTATION_LAYER_ASSIGNMENT (  '', '', ( #182 ) ) ;
#241 = DIRECTION ( 'NONE',  ( 1.000000000000000000, 0.0000000000000000000, 0.0000000000000000000 ) ) ;
#242 = DIRECTION ( 'NONE',  ( -0.0000000000000000000, -0.0000000000000000000, 1.000000000000000000 ) ) ;
#243 = CARTESIAN_POINT ( 'NONE',  ( 0.0000000000000000000, 0.0000000000000000000, -4.080079873223597900 ) ) ;
#244 = AXIS2_PLACEMENT_3D ( 'NONE', #243, #242, #241 ) ;
#245 = CIRCLE ( 'NONE', #244, 12.69999999999999900 ) ;
#246 = CARTESIAN_POINT ( 'NONE',  ( -12.69999999999999900, 1.555250069354419100E-015, -4.080079873223597900 ) ) ;
#247 = DIRECTION ( 'NONE',  ( 1.000000000000000000, 0.0000000000000000000, 0.0000000000000000000 ) ) ;
#248 = DIRECTION ( 'NONE',  ( -0.0000000000000000000, -0.0000000000000000000, 1.000000000000000000 ) ) ;
#249 = CARTESIAN_POINT ( 'NONE',  ( 0.0000000000000000000, 0.0000000000000000000, -5.870000000000000100 ) ) ;
#250 = AXIS2_PLACEMENT_3D ( 'NONE', #249, #248, #247 ) ;
#251 = DIRECTION ( 'NONE',  ( 1.000000000000000000, 0.0000000000000000000, 0.0000000000000000000 ) ) ;
#252 = DIRECTION ( 'NONE',  ( -0.0000000000000000000, -0.0000000000000000000, 1.000000000000000000 ) ) ;
#253 = CARTESIAN_POINT ( 'NONE',  ( 0.0000000000000000000, 0.0000000000000000000, 4.308132045400366600 ) ) ;
#254 = AXIS2_PLACEMENT_3D ( 'NONE', #253, #252, #251 ) ;
#255 = CIRCLE ( 'NONE', #250, 12.69999999999999900 ) ;
#256 = CYLINDRICAL_SURFACE ( 'NONE', #254, 12.69999999999999900 ) ;
#257 =( GEOMETRIC_REPRESENTATION_CONTEXT ( 3 ) GLOBAL_UNCERTAINTY_ASSIGNED_CONTEXT ( ( #258 ) ) GLOBAL_UNIT_ASSIGNED_CONTEXT ( ( #261, #260, #259 ) ) REPRESENTATION_CONTEXT ( 'NONE', 'WORKASPACE' ) );
#258 = UNCERTAINTY_MEASURE_WITH_UNIT (LENGTH_MEASURE( 1.000000000000000100E-005 ), #261, 'distance_accuracy_value', 'NONE');
#259 =( NAMED_UNIT ( * ) SI_UNIT ( $, .STERADIAN. ) SOLID_ANGLE_UNIT ( ) );
#260 =( NAMED_UNIT ( * ) PLANE_ANGLE_UNIT ( ) SI_UNIT ( $, .RADIAN. ) );
#261 =( LENGTH_UNIT ( ) NAMED_UNIT ( * ) SI_UNIT ( .MILLI., .METRE. ) );
ENDSEC;
END-ISO-10303-21;
