ISO-10303-21;
HEADER;
FILE_DESCRIPTION (( 'STEP AP214' ),
    '1' );
FILE_NAME ('5459-E0W.STEP',
    '2009-12-23T16:38:35',
    ( 'Admin' ),
    ( 'Thorlabs, Inc.' ),
    'SwSTEP 2.0',
    'SolidWorks 2009',
    '' );
FILE_SCHEMA (( 'AUTOMOTIVE_DESIGN' ));
ENDSEC;

DATA;
#1 =( NAMED_UNIT ( * ) PLANE_ANGLE_UNIT ( ) SI_UNIT ( $, .RADIAN. ) );
#2 =( NAMED_UNIT ( * ) SI_UNIT ( $, .STERADIAN. ) SOLID_ANGLE_UNIT ( ) );
#3 = PRESENTATION_STYLE_ASSIGNMENT (( #168 ) ) ;
#4 = CARTESIAN_POINT ( 'NONE',  ( 0.0000000000000000000, 1.907845426860660200E-016, -1.616929133858267900 ) ) ;
#5 = CARTESIAN_POINT ( 'NONE',  ( 0.5000000000000003300, -1.863758272383971800E-016, -0.1414727810836767800 ) ) ;
#6 = DIRECTION ( 'NONE',  ( -0.0000000000000000000, -0.0000000000000000000, 1.000000000000000000 ) ) ;
#7 = VECTOR ( 'NONE', #6, 39.37007874015748100 ) ;
#8 = CARTESIAN_POINT ( 'NONE',  ( 0.5000000000000002200, -1.863758272383971800E-016, 0.2817819440259598500 ) ) ;
#9 = LINE ( 'NONE', #8, #7 ) ;
#10 = DIRECTION ( 'NONE',  ( 0.0000000000000000000, 1.000000000000000000, 0.0000000000000000000 ) ) ;
#11 = DIRECTION ( 'NONE',  ( -1.000000000000000000, 0.0000000000000000000, 0.0000000000000000000 ) ) ;
#12 = CARTESIAN_POINT ( 'NONE',  ( 0.0000000000000000000, -2.052488749594599600E-016, 1.616929133858267900 ) ) ;
#13 = AXIS2_PLACEMENT_3D ( 'NONE', #12, #11, #10 ) ;
#14 = SPHERICAL_SURFACE ( 'NONE', #13, 1.557874015748031500 ) ;
#15 =( GEOMETRIC_REPRESENTATION_CONTEXT ( 3 ) GLOBAL_UNCERTAINTY_ASSIGNED_CONTEXT ( ( #16 ) ) GLOBAL_UNIT_ASSIGNED_CONTEXT ( ( #19, #18, #17 ) ) REPRESENTATION_CONTEXT ( 'NONE', 'WORKASPACE' ) );
#16 = UNCERTAINTY_MEASURE_WITH_UNIT (LENGTH_MEASURE( 1.000000000000000100E-005 ), #19, 'distance_accuracy_value', 'NONE');
#17 =( NAMED_UNIT ( * ) SI_UNIT ( $, .STERADIAN. ) SOLID_ANGLE_UNIT ( ) );
#18 =( NAMED_UNIT ( * ) PLANE_ANGLE_UNIT ( ) SI_UNIT ( $, .RADIAN. ) );
#19 =( CONVERSION_BASED_UNIT ( 'INCH', #20 ) LENGTH_UNIT ( ) NAMED_UNIT ( #21 ) );
#20 = LENGTH_MEASURE_WITH_UNIT ( LENGTH_MEASURE( 0.02539999999999999900 ), #39 );
#21 = DIMENSIONAL_EXPONENTS ( 1.000000000000000000, 0.0000000000000000000, 0.0000000000000000000, 0.0000000000000000000, 0.0000000000000000000, 0.0000000000000000000, 0.0000000000000000000 ) ;
#22 = ORIENTED_EDGE ( 'NONE', *, *, #132, .F. ) ;
#23 = ORIENTED_EDGE ( 'NONE', *, *, #24, .T. ) ;
#24 = EDGE_CURVE ( 'NONE', #25, #26, #33, .T. ) ;
#25 = VERTEX_POINT ( 'NONE', #34 ) ;
#26 = VERTEX_POINT ( 'NONE', #86 ) ;
#27 = ORIENTED_EDGE ( 'NONE', *, *, #28, .T. ) ;
#28 = EDGE_CURVE ( 'NONE', #26, #87, #84, .T. ) ;
#29 = DIRECTION ( 'NONE',  ( 1.000000000000000000, 0.0000000000000000000, 0.0000000000000000000 ) ) ;
#30 = DIRECTION ( 'NONE',  ( -0.0000000000000000000, -0.0000000000000000000, 1.000000000000000000 ) ) ;
#31 = CARTESIAN_POINT ( 'NONE',  ( 0.0000000000000000000, -1.863758272383971800E-016, -0.1414727810836767800 ) ) ;
#32 = AXIS2_PLACEMENT_3D ( 'NONE', #31, #30, #29 ) ;
#33 = CIRCLE ( 'NONE', #32, 0.5000000000000002200 ) ;
#34 = CARTESIAN_POINT ( 'NONE',  ( 6.123031769111883800E-017, 0.4999999999999999400, -0.1414727810836767800 ) ) ;
#35 = ADVANCED_FACE ( 'NONE', ( #80 ), #14, .F. ) ;
#36 = EDGE_LOOP ( 'NONE', ( #37, #38, #130, #131 ) ) ;
#37 = ORIENTED_EDGE ( 'NONE', *, *, #100, .F. ) ;
#38 = ORIENTED_EDGE ( 'NONE', *, *, #97, .T. ) ;
#39 =( LENGTH_UNIT ( ) NAMED_UNIT ( * ) SI_UNIT ( $, .METRE. ) );
#40 = MECHANICAL_DESIGN_GEOMETRIC_PRESENTATION_REPRESENTATION (  '', ( #42 ), #15 ) ;
#41 = PRESENTATION_LAYER_ASSIGNMENT (  '', '', ( #42 ) ) ;
#42 = STYLED_ITEM ( 'NONE', ( #43 ), #35 ) ;
#43 = PRESENTATION_STYLE_ASSIGNMENT (( #44 ) ) ;
#44 = SURFACE_STYLE_USAGE ( .BOTH. , #45 ) ;
#45 = SURFACE_SIDE_STYLE ('',( #46 ) ) ;
#46 = SURFACE_STYLE_FILL_AREA ( #47 ) ;
#47 = FILL_AREA_STYLE ('',( #85 ) ) ;
#48 = FACE_OUTER_BOUND ( 'NONE', #74, .T. ) ;
#49 = CARTESIAN_POINT ( 'NONE',  ( 0.0000000000000000000, -0.4999999999999999400, -0.1414727810836767800 ) ) ;
#50 = DIRECTION ( 'NONE',  ( 0.0000000000000000000, 0.0000000000000000000, 1.000000000000000000 ) ) ;
#51 = DIRECTION ( 'NONE',  ( -1.000000000000000000, -0.0000000000000000000, -0.0000000000000000000 ) ) ;
#52 = CARTESIAN_POINT ( 'NONE',  ( 0.0000000000000000000, 1.907845426860660200E-016, -1.616929133858267900 ) ) ;
#53 = AXIS2_PLACEMENT_3D ( 'NONE', #52, #51, #50 ) ;
#54 = CIRCLE ( 'NONE', #53, 1.557874015748031500 ) ;
#55 = CARTESIAN_POINT ( 'NONE',  ( 0.0000000000000000000, 9.539542177907492600E-017, -0.05905511811023627500 ) ) ;
#56 = DIRECTION ( 'NONE',  ( 1.224606353822377500E-016, 1.000000000000000000, 0.0000000000000000000 ) ) ;
#57 = DIRECTION ( 'NONE',  ( 1.000000000000000000, -1.224606353822377300E-016, 0.0000000000000000000 ) ) ;
#58 = AXIS2_PLACEMENT_3D ( 'NONE', #4, #57, #56 ) ;
#59 = CIRCLE ( 'NONE', #58, 1.557874015748031500 ) ;
#60 = EDGE_LOOP ( 'NONE', ( #23, #27, #88, #91, #94, #63 ) ) ;
#61 = EDGE_CURVE ( 'NONE', #62, #93, #9, .T. ) ;
#62 = VERTEX_POINT ( 'NONE', #5 ) ;
#63 = ORIENTED_EDGE ( 'NONE', *, *, #115, .T. ) ;
#64 = EDGE_CURVE ( 'NONE', #25, #65, #59, .T. ) ;
#65 = VERTEX_POINT ( 'NONE', #55 ) ;
#66 = ORIENTED_EDGE ( 'NONE', *, *, #67, .F. ) ;
#67 = EDGE_CURVE ( 'NONE', #68, #65, #54, .T. ) ;
#68 = VERTEX_POINT ( 'NONE', #49 ) ;
#69 = ORIENTED_EDGE ( 'NONE', *, *, #95, .F. ) ;
#70 = ORIENTED_EDGE ( 'NONE', *, *, #28, .F. ) ;
#71 = ORIENTED_EDGE ( 'NONE', *, *, #95, .T. ) ;
#72 = ORIENTED_EDGE ( 'NONE', *, *, #119, .T. ) ;
#73 = ADVANCED_FACE ( 'NONE', ( #48 ), #140, .F. ) ;
#74 = EDGE_LOOP ( 'NONE', ( #75, #136, #66, #69 ) ) ;
#75 = ORIENTED_EDGE ( 'NONE', *, *, #24, .F. ) ;
#76 = ORIENTED_EDGE ( 'NONE', *, *, #115, .F. ) ;
#77 = ORIENTED_EDGE ( 'NONE', *, *, #126, .F. ) ;
#78 = CLOSED_SHELL ( 'NONE', ( #129, #116, #73, #133, #35, #123 ) ) ;
#79 = COLOUR_RGB ( '',1.000000000000000000, 1.000000000000000000, 1.000000000000000000 ) ;
#80 = FACE_OUTER_BOUND ( 'NONE', #36, .T. ) ;
#81 = DIRECTION ( 'NONE',  ( -0.0000000000000000000, -0.0000000000000000000, 1.000000000000000000 ) ) ;
#82 = VECTOR ( 'NONE', #81, 39.37007874015748100 ) ;
#83 = CARTESIAN_POINT ( 'NONE',  ( -0.5000000000000002200, -1.251455095472782900E-016, 0.2817819440259598500 ) ) ;
#84 = LINE ( 'NONE', #83, #82 ) ;
#85 = FILL_AREA_STYLE_COLOUR ( '', #79 ) ;
#86 = CARTESIAN_POINT ( 'NONE',  ( -0.5000000000000003300, -1.251455095472782700E-016, -0.1414727810836767800 ) ) ;
#87 = VERTEX_POINT ( 'NONE', #141 ) ;
#88 = ORIENTED_EDGE ( 'NONE', *, *, #89, .F. ) ;
#89 = EDGE_CURVE ( 'NONE', #90, #87, #166, .T. ) ;
#90 = VERTEX_POINT ( 'NONE', #153 ) ;
#91 = ORIENTED_EDGE ( 'NONE', *, *, #92, .F. ) ;
#92 = EDGE_CURVE ( 'NONE', #93, #90, #152, .T. ) ;
#93 = VERTEX_POINT ( 'NONE', #147 ) ;
#94 = ORIENTED_EDGE ( 'NONE', *, *, #61, .F. ) ;
#95 = EDGE_CURVE ( 'NONE', #26, #68, #146, .T. ) ;
#96 = ORIENTED_EDGE ( 'NONE', *, *, #97, .F. ) ;
#97 = EDGE_CURVE ( 'NONE', #98, #90, #213, .T. ) ;
#98 = VERTEX_POINT ( 'NONE', #208 ) ;
#99 = ORIENTED_EDGE ( 'NONE', *, *, #100, .T. ) ;
#100 = EDGE_CURVE ( 'NONE', #98, #124, #207, .T. ) ;
#101 =( CONVERSION_BASED_UNIT ( 'INCH', #102 ) LENGTH_UNIT ( ) NAMED_UNIT ( #103 ) );
#102 = LENGTH_MEASURE_WITH_UNIT ( LENGTH_MEASURE( 0.02539999999999999900 ), #104 );
#103 = DIMENSIONAL_EXPONENTS ( 1.000000000000000000, 0.0000000000000000000, 0.0000000000000000000, 0.0000000000000000000, 0.0000000000000000000, 0.0000000000000000000, 0.0000000000000000000 ) ;
#104 =( LENGTH_UNIT ( ) NAMED_UNIT ( * ) SI_UNIT ( $, .METRE. ) );
#105 = MECHANICAL_DESIGN_GEOMETRIC_PRESENTATION_REPRESENTATION (  '', ( #107 ), #159 ) ;
#106 = PRESENTATION_LAYER_ASSIGNMENT (  '', '', ( #107 ) ) ;
#107 = STYLED_ITEM ( 'NONE', ( #108 ), #73 ) ;
#108 = PRESENTATION_STYLE_ASSIGNMENT (( #109 ) ) ;
#109 = SURFACE_STYLE_USAGE ( .BOTH. , #110 ) ;
#110 = SURFACE_SIDE_STYLE ('',( #111 ) ) ;
#111 = SURFACE_STYLE_FILL_AREA ( #112 ) ;
#112 = FILL_AREA_STYLE ('',( #113 ) ) ;
#113 = FILL_AREA_STYLE_COLOUR ( '', #114 ) ;
#114 = COLOUR_RGB ( '',1.000000000000000000, 1.000000000000000000, 1.000000000000000000 ) ;
#115 = EDGE_CURVE ( 'NONE', #62, #25, #201, .T. ) ;
#116 = ADVANCED_FACE ( 'NONE', ( #196 ), #162, .F. ) ;
#117 = EDGE_LOOP ( 'NONE', ( #96, #99, #125, #127 ) ) ;
#118 = ORIENTED_EDGE ( 'NONE', *, *, #119, .F. ) ;
#119 = EDGE_CURVE ( 'NONE', #68, #62, #181, .T. ) ;
#120 = ORIENTED_EDGE ( 'NONE', *, *, #67, .T. ) ;
#121 = EDGE_LOOP ( 'NONE', ( #70, #71, #72, #122, #77, #22 ) ) ;
#122 = ORIENTED_EDGE ( 'NONE', *, *, #61, .T. ) ;
#123 = ADVANCED_FACE ( 'NONE', ( #173 ), #331, .T. ) ;
#124 = VERTEX_POINT ( 'NONE', #232 ) ;
#125 = ORIENTED_EDGE ( 'NONE', *, *, #126, .T. ) ;
#126 = EDGE_CURVE ( 'NONE', #124, #93, #266, .T. ) ;
#127 = ORIENTED_EDGE ( 'NONE', *, *, #92, .T. ) ;
#128 = MANIFOLD_SOLID_BREP ( 'NONE', #78 ) ;
#129 = ADVANCED_FACE ( 'NONE', ( #240 ), #263, .T. ) ;
#130 = ORIENTED_EDGE ( 'NONE', *, *, #89, .T. ) ;
#131 = ORIENTED_EDGE ( 'NONE', *, *, #132, .T. ) ;
#132 = EDGE_CURVE ( 'NONE', #87, #124, #254, .T. ) ;
#133 = ADVANCED_FACE ( 'NONE', ( #249 ), #301, .F. ) ;
#134 = EDGE_LOOP ( 'NONE', ( #135, #76, #118, #120 ) ) ;
#135 = ORIENTED_EDGE ( 'NONE', *, *, #64, .F. ) ;
#136 = ORIENTED_EDGE ( 'NONE', *, *, #64, .T. ) ;
#137 = CARTESIAN_POINT ( 'NONE',  ( 0.0000000000000000000, 1.907845426860660200E-016, -1.616929133858267900 ) ) ;
#138 = DIRECTION ( 'NONE',  ( 1.000000000000000000, 0.0000000000000000000, 0.0000000000000000000 ) ) ;
#139 = AXIS2_PLACEMENT_3D ( 'NONE', #137, #138, #167 ) ;
#140 = SPHERICAL_SURFACE ( 'NONE', #139, 1.557874015748031500 ) ;
#141 = CARTESIAN_POINT ( 'NONE',  ( -0.5000000000000001100, -1.251455095472782900E-016, 0.1414727810836770600 ) ) ;
#142 = DIRECTION ( 'NONE',  ( 1.000000000000000000, 0.0000000000000000000, 0.0000000000000000000 ) ) ;
#143 = DIRECTION ( 'NONE',  ( -0.0000000000000000000, -0.0000000000000000000, 1.000000000000000000 ) ) ;
#144 = CARTESIAN_POINT ( 'NONE',  ( 0.0000000000000000000, -1.863758272383971800E-016, -0.1414727810836767800 ) ) ;
#145 = AXIS2_PLACEMENT_3D ( 'NONE', #144, #143, #142 ) ;
#146 = CIRCLE ( 'NONE', #145, 0.5000000000000002200 ) ;
#147 = CARTESIAN_POINT ( 'NONE',  ( 0.5000000000000001100, -1.863758272383971800E-016, 0.1414727810836770600 ) ) ;
#148 = DIRECTION ( 'NONE',  ( 1.000000000000000000, 0.0000000000000000000, 0.0000000000000000000 ) ) ;
#149 = DIRECTION ( 'NONE',  ( -0.0000000000000000000, -0.0000000000000000000, 1.000000000000000000 ) ) ;
#150 = CARTESIAN_POINT ( 'NONE',  ( 0.0000000000000000000, -1.863758272383971800E-016, 0.1414727810836770600 ) ) ;
#151 = AXIS2_PLACEMENT_3D ( 'NONE', #150, #149, #148 ) ;
#152 = CIRCLE ( 'NONE', #151, 0.5000000000000001100 ) ;
#153 = CARTESIAN_POINT ( 'NONE',  ( 0.0000000000000000000, 0.5000000000000001100, 0.1414727810836770600 ) ) ;
#154 = DIRECTION ( 'NONE',  ( 1.000000000000000000, 0.0000000000000000000, 0.0000000000000000000 ) ) ;
#155 = DIRECTION ( 'NONE',  ( -0.0000000000000000000, -0.0000000000000000000, 1.000000000000000000 ) ) ;
#156 = CARTESIAN_POINT ( 'NONE',  ( 0.0000000000000000000, -1.863758272383971800E-016, 0.1414727810836770600 ) ) ;
#157 = AXIS2_PLACEMENT_3D ( 'NONE', #156, #155, #154 ) ;
#158 = UNCERTAINTY_MEASURE_WITH_UNIT (LENGTH_MEASURE( 1.000000000000000100E-005 ), #101, 'distance_accuracy_value', 'NONE');
#159 =( GEOMETRIC_REPRESENTATION_CONTEXT ( 3 ) GLOBAL_UNCERTAINTY_ASSIGNED_CONTEXT ( ( #158 ) ) GLOBAL_UNIT_ASSIGNED_CONTEXT ( ( #101, #1, #2 ) ) REPRESENTATION_CONTEXT ( 'NONE', 'WORKASPACE' ) );
#160 = CARTESIAN_POINT ( 'NONE',  ( 0.0000000000000000000, -2.052488749594599600E-016, 1.616929133858267900 ) ) ;
#161 = AXIS2_PLACEMENT_3D ( 'NONE', #160, #180, #179 ) ;
#162 = SPHERICAL_SURFACE ( 'NONE', #161, 1.557874015748031500 ) ;
#163 =( GEOMETRIC_REPRESENTATION_CONTEXT ( 3 ) GLOBAL_UNCERTAINTY_ASSIGNED_CONTEXT ( ( #164 ) ) GLOBAL_UNIT_ASSIGNED_CONTEXT ( ( #183, #182, #165 ) ) REPRESENTATION_CONTEXT ( 'NONE', 'WORKASPACE' ) );
#164 = UNCERTAINTY_MEASURE_WITH_UNIT (LENGTH_MEASURE( 1.000000000000000100E-005 ), #183, 'distance_accuracy_value', 'NONE');
#165 =( NAMED_UNIT ( * ) SI_UNIT ( $, .STERADIAN. ) SOLID_ANGLE_UNIT ( ) );
#166 = CIRCLE ( 'NONE', #157, 0.5000000000000001100 ) ;
#167 = DIRECTION ( 'NONE',  ( 0.0000000000000000000, -1.000000000000000000, 0.0000000000000000000 ) ) ;
#168 = SURFACE_STYLE_USAGE ( .BOTH. , #169 ) ;
#169 = SURFACE_SIDE_STYLE ('',( #170 ) ) ;
#170 = SURFACE_STYLE_FILL_AREA ( #171 ) ;
#171 = FILL_AREA_STYLE ('',( #178 ) ) ;
#172 = COLOUR_RGB ( '',1.000000000000000000, 1.000000000000000000, 1.000000000000000000 ) ;
#173 = FACE_OUTER_BOUND ( 'NONE', #121, .T. ) ;
#174 = DIRECTION ( 'NONE',  ( 1.000000000000000000, 0.0000000000000000000, 0.0000000000000000000 ) ) ;
#175 = DIRECTION ( 'NONE',  ( -0.0000000000000000000, -0.0000000000000000000, 1.000000000000000000 ) ) ;
#176 = CARTESIAN_POINT ( 'NONE',  ( 0.0000000000000000000, -1.863758272383971800E-016, -0.1414727810836767800 ) ) ;
#177 = AXIS2_PLACEMENT_3D ( 'NONE', #176, #175, #174 ) ;
#178 = FILL_AREA_STYLE_COLOUR ( '', #172 ) ;
#179 = DIRECTION ( 'NONE',  ( 0.0000000000000000000, 1.000000000000000000, 0.0000000000000000000 ) ) ;
#180 = DIRECTION ( 'NONE',  ( -1.000000000000000000, 0.0000000000000000000, 0.0000000000000000000 ) ) ;
#181 = CIRCLE ( 'NONE', #177, 0.5000000000000002200 ) ;
#182 =( NAMED_UNIT ( * ) PLANE_ANGLE_UNIT ( ) SI_UNIT ( $, .RADIAN. ) );
#183 =( CONVERSION_BASED_UNIT ( 'INCH', #184 ) LENGTH_UNIT ( ) NAMED_UNIT ( #185 ) );
#184 = LENGTH_MEASURE_WITH_UNIT ( LENGTH_MEASURE( 0.02539999999999999900 ), #186 );
#185 = DIMENSIONAL_EXPONENTS ( 1.000000000000000000, 0.0000000000000000000, 0.0000000000000000000, 0.0000000000000000000, 0.0000000000000000000, 0.0000000000000000000, 0.0000000000000000000 ) ;
#186 =( LENGTH_UNIT ( ) NAMED_UNIT ( * ) SI_UNIT ( $, .METRE. ) );
#187 = MECHANICAL_DESIGN_GEOMETRIC_PRESENTATION_REPRESENTATION (  '', ( #189 ), #163 ) ;
#188 = PRESENTATION_LAYER_ASSIGNMENT (  '', '', ( #189 ) ) ;
#189 = STYLED_ITEM ( 'NONE', ( #190 ), #116 ) ;
#190 = PRESENTATION_STYLE_ASSIGNMENT (( #191 ) ) ;
#191 = SURFACE_STYLE_USAGE ( .BOTH. , #192 ) ;
#192 = SURFACE_SIDE_STYLE ('',( #193 ) ) ;
#193 = SURFACE_STYLE_FILL_AREA ( #194 ) ;
#194 = FILL_AREA_STYLE ('',( #202 ) ) ;
#195 = COLOUR_RGB ( '',1.000000000000000000, 1.000000000000000000, 1.000000000000000000 ) ;
#196 = FACE_OUTER_BOUND ( 'NONE', #117, .T. ) ;
#197 = DIRECTION ( 'NONE',  ( 1.000000000000000000, 0.0000000000000000000, 0.0000000000000000000 ) ) ;
#198 = DIRECTION ( 'NONE',  ( -0.0000000000000000000, -0.0000000000000000000, 1.000000000000000000 ) ) ;
#199 = CARTESIAN_POINT ( 'NONE',  ( 0.0000000000000000000, -1.863758272383971800E-016, -0.1414727810836767800 ) ) ;
#200 = AXIS2_PLACEMENT_3D ( 'NONE', #199, #198, #197 ) ;
#201 = CIRCLE ( 'NONE', #200, 0.5000000000000002200 ) ;
#202 = FILL_AREA_STYLE_COLOUR ( '', #195 ) ;
#203 = DIRECTION ( 'NONE',  ( -1.224606353822377500E-016, -1.000000000000000000, 0.0000000000000000000 ) ) ;
#204 = DIRECTION ( 'NONE',  ( -1.000000000000000000, 1.224606353822377300E-016, 0.0000000000000000000 ) ) ;
#205 = CARTESIAN_POINT ( 'NONE',  ( 0.0000000000000000000, -2.052488749594599600E-016, 1.616929133858267900 ) ) ;
#206 = AXIS2_PLACEMENT_3D ( 'NONE', #205, #204, #203 ) ;
#207 = CIRCLE ( 'NONE', #206, 1.557874015748031500 ) ;
#208 = CARTESIAN_POINT ( 'NONE',  ( 0.0000000000000000000, -1.098597540524688600E-016, 0.05905511811023627500 ) ) ;
#209 = DIRECTION ( 'NONE',  ( 0.0000000000000000000, 0.0000000000000000000, -1.000000000000000000 ) ) ;
#210 = DIRECTION ( 'NONE',  ( 1.000000000000000000, 0.0000000000000000000, 0.0000000000000000000 ) ) ;
#211 = CARTESIAN_POINT ( 'NONE',  ( 0.0000000000000000000, -2.052488749594599600E-016, 1.616929133858267900 ) ) ;
#212 = AXIS2_PLACEMENT_3D ( 'NONE', #211, #210, #209 ) ;
#213 = CIRCLE ( 'NONE', #212, 1.557874015748031500 ) ;
#214 = UNCERTAINTY_MEASURE_WITH_UNIT (LENGTH_MEASURE( 1.000000000000000100E-005 ), #324, 'distance_accuracy_value', 'NONE');
#215 =( NAMED_UNIT ( * ) SI_UNIT ( $, .STERADIAN. ) SOLID_ANGLE_UNIT ( ) );
#216 = UNCERTAINTY_MEASURE_WITH_UNIT (LENGTH_MEASURE( 1.000000000000000100E-005 ), #327, 'distance_accuracy_value', 'NONE');
#217 = PRESENTATION_STYLE_ASSIGNMENT (( #218 ) ) ;
#218 = SURFACE_STYLE_USAGE ( .BOTH. , #219 ) ;
#219 = SURFACE_SIDE_STYLE ('',( #220 ) ) ;
#220 = SURFACE_STYLE_FILL_AREA ( #221 ) ;
#221 = FILL_AREA_STYLE ('',( #222 ) ) ;
#222 = FILL_AREA_STYLE_COLOUR ( '', #267 ) ;
#223 = DIRECTION ( 'NONE',  ( 1.000000000000000000, 0.0000000000000000000, 0.0000000000000000000 ) ) ;
#224 = DIRECTION ( 'NONE',  ( -0.0000000000000000000, -0.0000000000000000000, 1.000000000000000000 ) ) ;
#225 = CARTESIAN_POINT ( 'NONE',  ( 0.0000000000000000000, -1.863758272383971800E-016, 0.1414727810836770600 ) ) ;
#226 = STYLED_ITEM ( 'NONE', ( #3 ), #123 ) ;
#227 =( NAMED_UNIT ( * ) PLANE_ANGLE_UNIT ( ) SI_UNIT ( $, .RADIAN. ) );
#228 =( GEOMETRIC_REPRESENTATION_CONTEXT ( 3 ) GLOBAL_UNCERTAINTY_ASSIGNED_CONTEXT ( ( #216 ) ) GLOBAL_UNIT_ASSIGNED_CONTEXT ( ( #327, #227, #229 ) ) REPRESENTATION_CONTEXT ( 'NONE', 'WORKASPACE' ) );
#229 =( NAMED_UNIT ( * ) SI_UNIT ( $, .STERADIAN. ) SOLID_ANGLE_UNIT ( ) );
#230 = DIRECTION ( 'NONE',  ( 1.000000000000000000, 0.0000000000000000000, 0.0000000000000000000 ) ) ;
#231 = DIRECTION ( 'NONE',  ( -0.0000000000000000000, -0.0000000000000000000, 1.000000000000000000 ) ) ;
#232 = CARTESIAN_POINT ( 'NONE',  ( -6.123031769111890000E-017, -0.5000000000000005600, 0.1414727810836770600 ) ) ;
#233 = UNCERTAINTY_MEASURE_WITH_UNIT (LENGTH_MEASURE( 1.000000000000000100E-005 ), #291, 'distance_accuracy_value', 'NONE');
#234 = SURFACE_STYLE_USAGE ( .BOTH. , #235 ) ;
#235 = SURFACE_SIDE_STYLE ('',( #236 ) ) ;
#236 = SURFACE_STYLE_FILL_AREA ( #237 ) ;
#237 = FILL_AREA_STYLE ('',( #238 ) ) ;
#238 = FILL_AREA_STYLE_COLOUR ( '', #239 ) ;
#239 = COLOUR_RGB ( '',1.000000000000000000, 1.000000000000000000, 1.000000000000000000 ) ;
#240 = FACE_OUTER_BOUND ( 'NONE', #60, .T. ) ;
#241 =( GEOMETRIC_REPRESENTATION_CONTEXT ( 3 ) GLOBAL_UNCERTAINTY_ASSIGNED_CONTEXT ( ( #233 ) ) GLOBAL_UNIT_ASSIGNED_CONTEXT ( ( #291, #290, #289 ) ) REPRESENTATION_CONTEXT ( 'NONE', 'WORKASPACE' ) );
#242 =( LENGTH_UNIT ( ) NAMED_UNIT ( * ) SI_UNIT ( $, .METRE. ) );
#243 = MECHANICAL_DESIGN_GEOMETRIC_PRESENTATION_REPRESENTATION (  '', ( #245 ), #264 ) ;
#244 = PRESENTATION_LAYER_ASSIGNMENT (  '', '', ( #245 ) ) ;
#245 = STYLED_ITEM ( 'NONE', ( #246 ), #129 ) ;
#246 = PRESENTATION_STYLE_ASSIGNMENT (( #234 ) ) ;
#247 = FILL_AREA_STYLE ('',( #255 ) ) ;
#248 = COLOUR_RGB ( '',1.000000000000000000, 1.000000000000000000, 1.000000000000000000 ) ;
#249 = FACE_OUTER_BOUND ( 'NONE', #134, .T. ) ;
#250 = DIRECTION ( 'NONE',  ( 1.000000000000000000, 0.0000000000000000000, 0.0000000000000000000 ) ) ;
#251 = DIRECTION ( 'NONE',  ( -0.0000000000000000000, -0.0000000000000000000, 1.000000000000000000 ) ) ;
#252 = CARTESIAN_POINT ( 'NONE',  ( 0.0000000000000000000, -1.863758272383971800E-016, 0.1414727810836770600 ) ) ;
#253 = AXIS2_PLACEMENT_3D ( 'NONE', #252, #251, #250 ) ;
#254 = CIRCLE ( 'NONE', #253, 0.5000000000000001100 ) ;
#255 = FILL_AREA_STYLE_COLOUR ( '', #248 ) ;
#256 = DIRECTION ( 'NONE',  ( 1.000000000000000000, 0.0000000000000000000, 0.0000000000000000000 ) ) ;
#257 = DIRECTION ( 'NONE',  ( -0.0000000000000000000, -0.0000000000000000000, 1.000000000000000000 ) ) ;
#258 = CARTESIAN_POINT ( 'NONE',  ( 0.0000000000000000000, -1.863758272383971800E-016, 0.2817819440259598500 ) ) ;
#259 = ADVANCED_BREP_SHAPE_REPRESENTATION ( '5459-E0W', ( #128, #270 ), #260 ) ;
#260 =( GEOMETRIC_REPRESENTATION_CONTEXT ( 3 ) GLOBAL_UNCERTAINTY_ASSIGNED_CONTEXT ( ( #261 ) ) GLOBAL_UNIT_ASSIGNED_CONTEXT ( ( #335, #334, #333 ) ) REPRESENTATION_CONTEXT ( 'NONE', 'WORKASPACE' ) );
#261 = UNCERTAINTY_MEASURE_WITH_UNIT (LENGTH_MEASURE( 1.000000000000000100E-005 ), #335, 'distance_accuracy_value', 'NONE');
#262 = AXIS2_PLACEMENT_3D ( 'NONE', #258, #257, #256 ) ;
#263 = CYLINDRICAL_SURFACE ( 'NONE', #262, 0.5000000000000002200 ) ;
#264 =( GEOMETRIC_REPRESENTATION_CONTEXT ( 3 ) GLOBAL_UNCERTAINTY_ASSIGNED_CONTEXT ( ( #214 ) ) GLOBAL_UNIT_ASSIGNED_CONTEXT ( ( #324, #323, #215 ) ) REPRESENTATION_CONTEXT ( 'NONE', 'WORKASPACE' ) );
#265 = AXIS2_PLACEMENT_3D ( 'NONE', #225, #224, #223 ) ;
#266 = CIRCLE ( 'NONE', #265, 0.5000000000000001100 ) ;
#267 = COLOUR_RGB ( '',0.7529411764705882200, 0.7529411764705882200, 0.7529411764705882200 ) ;
#268 = DIRECTION ( 'NONE',  ( 1.000000000000000000, 0.0000000000000000000, 0.0000000000000000000 ) ) ;
#269 = DIRECTION ( 'NONE',  ( 0.0000000000000000000, 0.0000000000000000000, 1.000000000000000000 ) ) ;
#270 = AXIS2_PLACEMENT_3D ( 'NONE', #300, #269, #268 ) ;
#271 =( GEOMETRIC_REPRESENTATION_CONTEXT ( 3 ) GLOBAL_UNCERTAINTY_ASSIGNED_CONTEXT ( ( #272 ) ) GLOBAL_UNIT_ASSIGNED_CONTEXT ( ( #309, #308, #273 ) ) REPRESENTATION_CONTEXT ( 'NONE', 'WORKASPACE' ) );
#272 = UNCERTAINTY_MEASURE_WITH_UNIT (LENGTH_MEASURE( 1.000000000000000100E-005 ), #309, 'distance_accuracy_value', 'NONE');
#273 =( NAMED_UNIT ( * ) SI_UNIT ( $, .STERADIAN. ) SOLID_ANGLE_UNIT ( ) );
#274 = MECHANICAL_DESIGN_GEOMETRIC_PRESENTATION_REPRESENTATION (  '', ( #226 ), #228 ) ;
#275 =( LENGTH_UNIT ( ) NAMED_UNIT ( * ) SI_UNIT ( $, .METRE. ) );
#276 =( NAMED_UNIT ( * ) SI_UNIT ( $, .STERADIAN. ) SOLID_ANGLE_UNIT ( ) );
#277 =( NAMED_UNIT ( * ) PLANE_ANGLE_UNIT ( ) SI_UNIT ( $, .RADIAN. ) );
#278 =( CONVERSION_BASED_UNIT ( 'INCH', #279 ) LENGTH_UNIT ( ) NAMED_UNIT ( #280 ) );
#279 = LENGTH_MEASURE_WITH_UNIT ( LENGTH_MEASURE( 0.02539999999999999900 ), #281 );
#280 = DIMENSIONAL_EXPONENTS ( 1.000000000000000000, 0.0000000000000000000, 0.0000000000000000000, 0.0000000000000000000, 0.0000000000000000000, 0.0000000000000000000, 0.0000000000000000000 ) ;
#281 =( LENGTH_UNIT ( ) NAMED_UNIT ( * ) SI_UNIT ( $, .METRE. ) );
#282 = MECHANICAL_DESIGN_GEOMETRIC_PRESENTATION_REPRESENTATION (  '', ( #284 ), #302 ) ;
#283 = PRESENTATION_LAYER_ASSIGNMENT (  '', '', ( #284 ) ) ;
#284 = STYLED_ITEM ( 'NONE', ( #285 ), #133 ) ;
#285 = PRESENTATION_STYLE_ASSIGNMENT (( #286 ) ) ;
#286 = SURFACE_STYLE_USAGE ( .BOTH. , #287 ) ;
#287 = SURFACE_SIDE_STYLE ('',( #288 ) ) ;
#288 = SURFACE_STYLE_FILL_AREA ( #247 ) ;
#289 =( NAMED_UNIT ( * ) SI_UNIT ( $, .STERADIAN. ) SOLID_ANGLE_UNIT ( ) );
#290 =( NAMED_UNIT ( * ) PLANE_ANGLE_UNIT ( ) SI_UNIT ( $, .RADIAN. ) );
#291 =( CONVERSION_BASED_UNIT ( 'INCH', #292 ) LENGTH_UNIT ( ) NAMED_UNIT ( #293 ) );
#292 = LENGTH_MEASURE_WITH_UNIT ( LENGTH_MEASURE( 0.02539999999999999900 ), #304 );
#293 = DIMENSIONAL_EXPONENTS ( 1.000000000000000000, 0.0000000000000000000, 0.0000000000000000000, 0.0000000000000000000, 0.0000000000000000000, 0.0000000000000000000, 0.0000000000000000000 ) ;
#294 = DIMENSIONAL_EXPONENTS ( 1.000000000000000000, 0.0000000000000000000, 0.0000000000000000000, 0.0000000000000000000, 0.0000000000000000000, 0.0000000000000000000, 0.0000000000000000000 ) ;
#295 =( LENGTH_UNIT ( ) NAMED_UNIT ( * ) SI_UNIT ( $, .METRE. ) );
#296 = DIRECTION ( 'NONE',  ( 0.0000000000000000000, -1.000000000000000000, 0.0000000000000000000 ) ) ;
#297 = DIRECTION ( 'NONE',  ( 1.000000000000000000, 0.0000000000000000000, 0.0000000000000000000 ) ) ;
#298 = CARTESIAN_POINT ( 'NONE',  ( 0.0000000000000000000, 1.907845426860660200E-016, -1.616929133858267900 ) ) ;
#299 = AXIS2_PLACEMENT_3D ( 'NONE', #298, #297, #296 ) ;
#300 = CARTESIAN_POINT ( 'NONE',  ( 0.0000000000000000000, 0.0000000000000000000, 0.0000000000000000000 ) ) ;
#301 = SPHERICAL_SURFACE ( 'NONE', #299, 1.557874015748031500 ) ;
#302 =( GEOMETRIC_REPRESENTATION_CONTEXT ( 3 ) GLOBAL_UNCERTAINTY_ASSIGNED_CONTEXT ( ( #303 ) ) GLOBAL_UNIT_ASSIGNED_CONTEXT ( ( #278, #277, #276 ) ) REPRESENTATION_CONTEXT ( 'NONE', 'WORKASPACE' ) );
#303 = UNCERTAINTY_MEASURE_WITH_UNIT (LENGTH_MEASURE( 1.000000000000000100E-005 ), #278, 'distance_accuracy_value', 'NONE');
#304 =( LENGTH_UNIT ( ) NAMED_UNIT ( * ) SI_UNIT ( $, .METRE. ) );
#305 = MECHANICAL_DESIGN_GEOMETRIC_PRESENTATION_REPRESENTATION (  '', ( #307 ), #241 ) ;
#306 = PRESENTATION_LAYER_ASSIGNMENT (  '', '', ( #307 ) ) ;
#307 = STYLED_ITEM ( 'NONE', ( #217 ), #128 ) ;
#308 =( NAMED_UNIT ( * ) PLANE_ANGLE_UNIT ( ) SI_UNIT ( $, .RADIAN. ) );
#309 =( CONVERSION_BASED_UNIT ( 'INCH', #310 ) LENGTH_UNIT ( ) NAMED_UNIT ( #311 ) );
#310 = LENGTH_MEASURE_WITH_UNIT ( LENGTH_MEASURE( 0.02539999999999999900 ), #312 );
#311 = DIMENSIONAL_EXPONENTS ( 1.000000000000000000, 0.0000000000000000000, 0.0000000000000000000, 0.0000000000000000000, 0.0000000000000000000, 0.0000000000000000000, 0.0000000000000000000 ) ;
#312 =( LENGTH_UNIT ( ) NAMED_UNIT ( * ) SI_UNIT ( $, .METRE. ) );
#313 = MECHANICAL_DESIGN_GEOMETRIC_PRESENTATION_REPRESENTATION (  '', ( #315 ), #271 ) ;
#314 = PRESENTATION_LAYER_ASSIGNMENT (  '', '', ( #315 ) ) ;
#315 = STYLED_ITEM ( 'NONE', ( #316 ), #259 ) ;
#316 = PRESENTATION_STYLE_ASSIGNMENT (( #317 ) ) ;
#317 = SURFACE_STYLE_USAGE ( .BOTH. , #318 ) ;
#318 = SURFACE_SIDE_STYLE ('',( #319 ) ) ;
#319 = SURFACE_STYLE_FILL_AREA ( #320 ) ;
#320 = FILL_AREA_STYLE ('',( #321 ) ) ;
#321 = FILL_AREA_STYLE_COLOUR ( '', #322 ) ;
#322 = COLOUR_RGB ( '',0.7529411764705882200, 0.7529411764705882200, 0.7529411764705882200 ) ;
#323 =( NAMED_UNIT ( * ) PLANE_ANGLE_UNIT ( ) SI_UNIT ( $, .RADIAN. ) );
#324 =( CONVERSION_BASED_UNIT ( 'INCH', #325 ) LENGTH_UNIT ( ) NAMED_UNIT ( #326 ) );
#325 = LENGTH_MEASURE_WITH_UNIT ( LENGTH_MEASURE( 0.02539999999999999900 ), #242 );
#326 = DIMENSIONAL_EXPONENTS ( 1.000000000000000000, 0.0000000000000000000, 0.0000000000000000000, 0.0000000000000000000, 0.0000000000000000000, 0.0000000000000000000, 0.0000000000000000000 ) ;
#327 =( CONVERSION_BASED_UNIT ( 'INCH', #332 ) LENGTH_UNIT ( ) NAMED_UNIT ( #294 ) );
#328 = PRESENTATION_LAYER_ASSIGNMENT (  '', '', ( #226 ) ) ;
#329 = CARTESIAN_POINT ( 'NONE',  ( 0.0000000000000000000, -1.863758272383971800E-016, 0.2817819440259598500 ) ) ;
#330 = AXIS2_PLACEMENT_3D ( 'NONE', #329, #231, #230 ) ;
#331 = CYLINDRICAL_SURFACE ( 'NONE', #330, 0.5000000000000002200 ) ;
#332 = LENGTH_MEASURE_WITH_UNIT ( LENGTH_MEASURE( 0.02539999999999999900 ), #275 );
#333 =( NAMED_UNIT ( * ) SI_UNIT ( $, .STERADIAN. ) SOLID_ANGLE_UNIT ( ) );
#334 =( NAMED_UNIT ( * ) PLANE_ANGLE_UNIT ( ) SI_UNIT ( $, .RADIAN. ) );
#335 =( CONVERSION_BASED_UNIT ( 'INCH', #336 ) LENGTH_UNIT ( ) NAMED_UNIT ( #337 ) );
#336 = LENGTH_MEASURE_WITH_UNIT ( LENGTH_MEASURE( 0.02539999999999999900 ), #295 );
#337 = DIMENSIONAL_EXPONENTS ( 1.000000000000000000, 0.0000000000000000000, 0.0000000000000000000, 0.0000000000000000000, 0.0000000000000000000, 0.0000000000000000000, 0.0000000000000000000 ) ;
#338 = APPLICATION_PROTOCOL_DEFINITION ( 'draft international standard', 'automotive_design', 1998, #339 ) ;
#339 = APPLICATION_CONTEXT ( 'automotive_design' ) ;
#340 = PRODUCT ( '5459-E0W', '5459-E0W', '', ( #342 ) ) ;
#341 = PRODUCT_DEFINITION_SHAPE ( 'NONE', 'NONE',  #347 ) ;
#342 = PRODUCT_CONTEXT ( 'NONE', #349, 'mechanical' ) ;
#343 = APPLICATION_PROTOCOL_DEFINITION ( 'draft international standard', 'automotive_design', 1998, #349 ) ;
#344 = PRODUCT_RELATED_PRODUCT_CATEGORY ( 'part', '', ( #340 ) ) ;
#345 = PRODUCT_DEFINITION_FORMATION_WITH_SPECIFIED_SOURCE ( 'ANY', '', #340, .NOT_KNOWN. ) ;
#346 = SHAPE_DEFINITION_REPRESENTATION ( #341, #259 ) ;
#347 = PRODUCT_DEFINITION ( 'UNKNOWN', '', #345, #348 ) ;
#348 = PRODUCT_DEFINITION_CONTEXT ( 'detailed design', #339, 'design' ) ;
#349 = APPLICATION_CONTEXT ( 'automotive_design' ) ;
ENDSEC;
END-ISO-10303-21;
