ISO-10303-21;
HEADER;
FILE_DESCRIPTION (( 'STEP AP214' ),
    '1' );
FILE_NAME ('5660-E0W.STEP',
    '2010-04-23T12:23:10',
    ( '' ),
    ( '' ),
    'SwSTEP 2.0',
    'SolidWorks 2009',
    '' );
FILE_SCHEMA (( 'AUTOMOTIVE_DESIGN' ));
ENDSEC;

DATA;
#1 = EDGE_LOOP ( 'NONE', ( #311, #28, #26, #27, #38, #12 ) ) ;
#2 = VERTEX_POINT ( 'NONE', #258 ) ;
#3 = VERTEX_POINT ( 'NONE', #257 ) ;
#4 = ORIENTED_EDGE ( 'NONE', *, *, #5, .F. ) ;
#5 = EDGE_CURVE ( 'NONE', #2, #62, #227, .T. ) ;
#6 = EDGE_CURVE ( 'NONE', #42, #32, #228, .T. ) ;
#7 = EDGE_CURVE ( 'NONE', #3, #32, #219, .T. ) ;
#8 = ORIENTED_EDGE ( 'NONE', *, *, #7, .F. ) ;
#9 = ORIENTED_EDGE ( 'NONE', *, *, #6, .T. ) ;
#10 = ORIENTED_EDGE ( 'NONE', *, *, #11, .F. ) ;
#11 = EDGE_CURVE ( 'NONE', #77, #103, #215, .T. ) ;
#12 = ORIENTED_EDGE ( 'NONE', *, *, #13, .T. ) ;
#13 = EDGE_CURVE ( 'NONE', #36, #103, #307, .T. ) ;
#14 = EDGE_LOOP ( 'NONE', ( #37, #35, #30, #10 ) ) ;
#15 = ORIENTED_EDGE ( 'NONE', *, *, #65, .F. ) ;
#16 = ADVANCED_FACE ( 'NONE', ( #303 ), #211, .T. ) ;
#17 = EDGE_LOOP ( 'NONE', ( #15, #4, #44, #96, #98, #100 ) ) ;
#18 = ADVANCED_FACE ( 'NONE', ( #209 ), #149, .F. ) ;
#19 = ORIENTED_EDGE ( 'NONE', *, *, #21, .F. ) ;
#20 = ORIENTED_EDGE ( 'NONE', *, *, #88, .F. ) ;
#21 = EDGE_CURVE ( 'NONE', #23, #36, #144, .T. ) ;
#22 = ORIENTED_EDGE ( 'NONE', *, *, #13, .F. ) ;
#23 = VERTEX_POINT ( 'NONE', #140 ) ;
#24 = EDGE_CURVE ( 'NONE', #118, #42, #139, .T. ) ;
#25 = EDGE_CURVE ( 'NONE', #118, #114, #135, .T. ) ;
#26 = ORIENTED_EDGE ( 'NONE', *, *, #48, .T. ) ;
#27 = ORIENTED_EDGE ( 'NONE', *, *, #24, .T. ) ;
#28 = ORIENTED_EDGE ( 'NONE', *, *, #120, .T. ) ;
#29 = ORIENTED_EDGE ( 'NONE', *, *, #21, .T. ) ;
#30 = ORIENTED_EDGE ( 'NONE', *, *, #167, .T. ) ;
#31 = VERTEX_POINT ( 'NONE', #131 ) ;
#32 = VERTEX_POINT ( 'NONE', #130 ) ;
#33 = ORIENTED_EDGE ( 'NONE', *, *, #25, .F. ) ;
#34 = ORIENTED_EDGE ( 'NONE', *, *, #39, .F. ) ;
#35 = ORIENTED_EDGE ( 'NONE', *, *, #117, .T. ) ;
#36 = VERTEX_POINT ( 'NONE', #129 ) ;
#37 = ORIENTED_EDGE ( 'NONE', *, *, #76, .T. ) ;
#38 = ORIENTED_EDGE ( 'NONE', *, *, #39, .T. ) ;
#39 = EDGE_CURVE ( 'NONE', #42, #36, #128, .T. ) ;
#40 = VERTEX_POINT ( 'NONE', #124 ) ;
#41 = VERTEX_POINT ( 'NONE', #123 ) ;
#42 = VERTEX_POINT ( 'NONE', #122 ) ;
#43 = EDGE_CURVE ( 'NONE', #2, #41, #252, .T. ) ;
#44 = ORIENTED_EDGE ( 'NONE', *, *, #43, .T. ) ;
#45 = ORIENTED_EDGE ( 'NONE', *, *, #87, .T. ) ;
#46 = ORIENTED_EDGE ( 'NONE', *, *, #56, .T. ) ;
#47 = VERTEX_POINT ( 'NONE', #121 ) ;
#48 = EDGE_CURVE ( 'NONE', #57, #118, #246, .T. ) ;
#49 = EDGE_LOOP ( 'NONE', ( #51, #46, #45, #80, #78, #33 ) ) ;
#50 = EDGE_CURVE ( 'NONE', #55, #86, #247, .T. ) ;
#51 = ORIENTED_EDGE ( 'NONE', *, *, #48, .F. ) ;
#52 = ADVANCED_FACE ( 'NONE', ( #162 ), #291, .F. ) ;
#53 = EDGE_CURVE ( 'NONE', #55, #66, #290, .T. ) ;
#54 = ORIENTED_EDGE ( 'NONE', *, *, #50, .T. ) ;
#55 = VERTEX_POINT ( 'NONE', #281 ) ;
#56 = EDGE_CURVE ( 'NONE', #57, #110, #280, .T. ) ;
#57 = VERTEX_POINT ( 'NONE', #276 ) ;
#58 = ORIENTED_EDGE ( 'NONE', *, *, #120, .F. ) ;
#59 = ADVANCED_FACE ( 'NONE', ( #275 ), #369, .T. ) ;
#60 = ORIENTED_EDGE ( 'NONE', *, *, #61, .F. ) ;
#61 = EDGE_CURVE ( 'NONE', #62, #63, #368, .T. ) ;
#62 = VERTEX_POINT ( 'NONE', #359 ) ;
#63 = VERTEX_POINT ( 'NONE', #358 ) ;
#64 = ORIENTED_EDGE ( 'NONE', *, *, #65, .T. ) ;
#65 = EDGE_CURVE ( 'NONE', #62, #66, #357, .T. ) ;
#66 = VERTEX_POINT ( 'NONE', #353 ) ;
#67 = ORIENTED_EDGE ( 'NONE', *, *, #68, .T. ) ;
#68 = EDGE_CURVE ( 'NONE', #66, #69, #352, .T. ) ;
#69 = VERTEX_POINT ( 'NONE', #347 ) ;
#70 = ORIENTED_EDGE ( 'NONE', *, *, #74, .T. ) ;
#71 = VERTEX_POINT ( 'NONE', #331 ) ;
#72 = EDGE_LOOP ( 'NONE', ( #60, #64, #67, #70, #75, #104 ) ) ;
#73 = DIRECTION ( 'NONE',  ( 1.000000000000000000, 0.0000000000000000000, 0.0000000000000000000 ) ) ;
#74 = EDGE_CURVE ( 'NONE', #69, #71, #330, .T. ) ;
#75 = ORIENTED_EDGE ( 'NONE', *, *, #76, .F. ) ;
#76 = EDGE_CURVE ( 'NONE', #77, #71, #341, .T. ) ;
#77 = VERTEX_POINT ( 'NONE', #337 ) ;
#78 = ORIENTED_EDGE ( 'NONE', *, *, #79, .F. ) ;
#79 = EDGE_CURVE ( 'NONE', #114, #47, #335, .T. ) ;
#80 = ORIENTED_EDGE ( 'NONE', *, *, #81, .T. ) ;
#81 = EDGE_CURVE ( 'NONE', #86, #47, #336, .T. ) ;
#82 = ORIENTED_EDGE ( 'NONE', *, *, #53, .F. ) ;
#83 = ORIENTED_EDGE ( 'NONE', *, *, #68, .F. ) ;
#84 = ORIENTED_EDGE ( 'NONE', *, *, #109, .F. ) ;
#85 = ORIENTED_EDGE ( 'NONE', *, *, #87, .F. ) ;
#86 = VERTEX_POINT ( 'NONE', #448 ) ;
#87 = EDGE_CURVE ( 'NONE', #110, #86, #447, .T. ) ;
#88 = EDGE_CURVE ( 'NONE', #63, #23, #442, .T. ) ;
#89 = ORIENTED_EDGE ( 'NONE', *, *, #105, .F. ) ;
#90 = ADVANCED_FACE ( 'NONE', ( #438 ), #322, .F. ) ;
#91 = EDGE_LOOP ( 'NONE', ( #92, #29, #34, #9, #8, #194 ) ) ;
#92 = ORIENTED_EDGE ( 'NONE', *, *, #93, .F. ) ;
#93 = EDGE_CURVE ( 'NONE', #23, #31, #495, .T. ) ;
#94 = ADVANCED_FACE ( 'NONE', ( #491 ), #427, .F. ) ;
#95 = ORIENTED_EDGE ( 'NONE', *, *, #11, .T. ) ;
#96 = ORIENTED_EDGE ( 'NONE', *, *, #97, .T. ) ;
#97 = EDGE_CURVE ( 'NONE', #41, #40, #422, .T. ) ;
#98 = ORIENTED_EDGE ( 'NONE', *, *, #99, .T. ) ;
#99 = EDGE_CURVE ( 'NONE', #40, #55, #416, .T. ) ;
#100 = ORIENTED_EDGE ( 'NONE', *, *, #53, .T. ) ;
#101 = EDGE_LOOP ( 'NONE', ( #95, #22, #19, #20, #89 ) ) ;
#102 = ADVANCED_FACE ( 'NONE', ( #418 ), #397, .F. ) ;
#103 = VERTEX_POINT ( 'NONE', #392 ) ;
#104 = ORIENTED_EDGE ( 'NONE', *, *, #105, .T. ) ;
#105 = EDGE_CURVE ( 'NONE', #77, #63, #389, .T. ) ;
#106 = ADVANCED_FACE ( 'NONE', ( #391 ), #471, .F. ) ;
#107 = EDGE_LOOP ( 'NONE', ( #108, #111, #58, #116, #115 ) ) ;
#108 = ORIENTED_EDGE ( 'NONE', *, *, #109, .T. ) ;
#109 = EDGE_CURVE ( 'NONE', #69, #110, #466, .T. ) ;
#110 = VERTEX_POINT ( 'NONE', #462 ) ;
#111 = ORIENTED_EDGE ( 'NONE', *, *, #56, .F. ) ;
#112 = ADVANCED_FACE ( 'NONE', ( #461 ), #542, .F. ) ;
#113 = EDGE_LOOP ( 'NONE', ( #85, #84, #83, #82, #54 ) ) ;
#114 = VERTEX_POINT ( 'NONE', #557 ) ;
#115 = ORIENTED_EDGE ( 'NONE', *, *, #74, .F. ) ;
#116 = ORIENTED_EDGE ( 'NONE', *, *, #117, .F. ) ;
#117 = EDGE_CURVE ( 'NONE', #71, #119, #523, .T. ) ;
#118 = VERTEX_POINT ( 'NONE', #519 ) ;
#119 = VERTEX_POINT ( 'NONE', #606 ) ;
#120 = EDGE_CURVE ( 'NONE', #119, #57, #605, .T. ) ;
#121 = CARTESIAN_POINT ( 'NONE',  ( -14.92928932188134500, 7.429289321881344500, -2.539289321881344800 ) ) ;
#122 = CARTESIAN_POINT ( 'NONE',  ( 14.85857864376268900, -7.358578643762687200, -2.610000000000002100 ) ) ;
#123 = CARTESIAN_POINT ( 'NONE',  ( 14.85857864376268900, 7.499999999999999100, -0.6120227592384094300 ) ) ;
#124 = CARTESIAN_POINT ( 'NONE',  ( -14.85857864376268900, 7.499999999999999100, -0.6120227592384094300 ) ) ;
#125 = DIRECTION ( 'NONE',  ( 0.5773502691896257300, -0.5773502691896257300, 0.5773502691896257300 ) ) ;
#126 = VECTOR ( 'NONE', #125, 999.9999999999998900 ) ;
#127 = CARTESIAN_POINT ( 'NONE',  ( 5.000000000000000000, 2.500000000000000000, -12.46857864376269000 ) ) ;
#128 = LINE ( 'NONE', #127, #126 ) ;
#129 = CARTESIAN_POINT ( 'NONE',  ( 14.92928932188134400, -7.429289321881342700, -2.539289321881346600 ) ) ;
#130 = CARTESIAN_POINT ( 'NONE',  ( 14.85857864376268900, 7.358578643762686300, -2.610000000000002100 ) ) ;
#131 = CARTESIAN_POINT ( 'NONE',  ( 15.00000000000000000, 7.358578643762689900, -2.468578643762691500 ) ) ;
#132 = DIRECTION ( 'NONE',  ( -0.0000000000000000000, 1.000000000000000000, -0.0000000000000000000 ) ) ;
#133 = VECTOR ( 'NONE', #132, 1000.000000000000000 ) ;
#134 = CARTESIAN_POINT ( 'NONE',  ( -14.85857864376268900, -7.500000000000000000, -2.609999999999997700 ) ) ;
#135 = LINE ( 'NONE', #134, #133 ) ;
#136 = DIRECTION ( 'NONE',  ( 1.000000000000000000, -0.0000000000000000000, -0.0000000000000000000 ) ) ;
#137 = VECTOR ( 'NONE', #136, 1000.000000000000000 ) ;
#138 = CARTESIAN_POINT ( 'NONE',  ( -15.00000000000000000, -7.358578643762689900, -2.610000000000000300 ) ) ;
#139 = LINE ( 'NONE', #138, #137 ) ;
#140 = CARTESIAN_POINT ( 'NONE',  ( 15.00000000000000000, -7.358578643762686300, -2.468578643762691500 ) ) ;
#141 = DIRECTION ( 'NONE',  ( -0.5773502691896234000, -0.5773502691896305100, -0.5773502691896234000 ) ) ;
#142 = VECTOR ( 'NONE', #141, 1000.000000000000000 ) ;
#143 = CARTESIAN_POINT ( 'NONE',  ( 14.85857864376268900, -7.499999999999999100, -2.610000000000001700 ) ) ;
#144 = LINE ( 'NONE', #143, #142 ) ;
#145 = DIRECTION ( 'NONE',  ( 0.0000000000000000000, -0.0000000000000000000, 1.000000000000000000 ) ) ;
#146 = DIRECTION ( 'NONE',  ( 0.0000000000000000000, 1.000000000000000000, 0.0000000000000000000 ) ) ;
#147 = CARTESIAN_POINT ( 'NONE',  ( 15.00000000000000000, -7.500000000000000000, -2.610000000000000300 ) ) ;
#148 = AXIS2_PLACEMENT_3D ( 'NONE', #147, #146, #145 ) ;
#149 = PLANE ( 'NONE',  #148 ) ;
#150 = ORIENTED_EDGE ( 'NONE', *, *, #151, .T. ) ;
#151 = EDGE_CURVE ( 'NONE', #181, #238, #705, .T. ) ;
#152 = ORIENTED_EDGE ( 'NONE', *, *, #235, .T. ) ;
#153 = MECHANICAL_DESIGN_GEOMETRIC_PRESENTATION_REPRESENTATION (  '', ( #155 ), #292 ) ;
#154 = PRESENTATION_LAYER_ASSIGNMENT (  '', '', ( #155 ) ) ;
#155 = STYLED_ITEM ( 'NONE', ( #156 ), #52 ) ;
#156 = PRESENTATION_STYLE_ASSIGNMENT (( #157 ) ) ;
#157 = SURFACE_STYLE_USAGE ( .BOTH. , #158 ) ;
#158 = SURFACE_SIDE_STYLE ('',( #159 ) ) ;
#159 = SURFACE_STYLE_FILL_AREA ( #160 ) ;
#160 = FILL_AREA_STYLE ('',( #166 ) ) ;
#161 = COLOUR_RGB ( '',0.7529411764705882200, 0.7529411764705882200, 0.7529411764705882200 ) ;
#162 = FACE_OUTER_BOUND ( 'NONE', #49, .T. ) ;
#163 = DIRECTION ( 'NONE',  ( -0.0000000000000000000, 1.301042606982605300E-016, -1.000000000000000000 ) ) ;
#164 = VECTOR ( 'NONE', #163, 1000.000000000000000 ) ;
#165 = CARTESIAN_POINT ( 'NONE',  ( -14.99999999999999800, 7.358578643762689000, 2.610000000000000300 ) ) ;
#166 = FILL_AREA_STYLE_COLOUR ( '', #161 ) ;
#167 = EDGE_CURVE ( 'NONE', #119, #103, #518, .T. ) ;
#168 = UNCERTAINTY_MEASURE_WITH_UNIT (LENGTH_MEASURE( 1.000000000000000100E-005 ), #171, 'distance_accuracy_value', 'NONE');
#169 =( NAMED_UNIT ( * ) SI_UNIT ( $, .STERADIAN. ) SOLID_ANGLE_UNIT ( ) );
#170 =( NAMED_UNIT ( * ) PLANE_ANGLE_UNIT ( ) SI_UNIT ( $, .RADIAN. ) );
#171 =( LENGTH_UNIT ( ) NAMED_UNIT ( * ) SI_UNIT ( .MILLI., .METRE. ) );
#172 = EDGE_CURVE ( 'NONE', #114, #32, #513, .T. ) ;
#173 = ORIENTED_EDGE ( 'NONE', *, *, #151, .F. ) ;
#174 = ORIENTED_EDGE ( 'NONE', *, *, #310, .F. ) ;
#175 = ORIENTED_EDGE ( 'NONE', *, *, #97, .F. ) ;
#176 = ORIENTED_EDGE ( 'NONE', *, *, #253, .T. ) ;
#177 = ADVANCED_FACE ( 'NONE', ( #683 ), #611, .F. ) ;
#178 = ORIENTED_EDGE ( 'NONE', *, *, #79, .T. ) ;
#179 = ORIENTED_EDGE ( 'NONE', *, *, #180, .T. ) ;
#180 = EDGE_CURVE ( 'NONE', #47, #181, #540, .T. ) ;
#181 = VERTEX_POINT ( 'NONE', #536 ) ;
#182 = ORIENTED_EDGE ( 'NONE', *, *, #6, .F. ) ;
#183 = ORIENTED_EDGE ( 'NONE', *, *, #180, .F. ) ;
#184 = ORIENTED_EDGE ( 'NONE', *, *, #81, .F. ) ;
#185 = ORIENTED_EDGE ( 'NONE', *, *, #50, .F. ) ;
#186 = ORIENTED_EDGE ( 'NONE', *, *, #99, .F. ) ;
#187 = UNCERTAINTY_MEASURE_WITH_UNIT (LENGTH_MEASURE( 1.000000000000000100E-005 ), #190, 'distance_accuracy_value', 'NONE');
#188 =( NAMED_UNIT ( * ) SI_UNIT ( $, .STERADIAN. ) SOLID_ANGLE_UNIT ( ) );
#189 =( NAMED_UNIT ( * ) PLANE_ANGLE_UNIT ( ) SI_UNIT ( $, .RADIAN. ) );
#190 =( LENGTH_UNIT ( ) NAMED_UNIT ( * ) SI_UNIT ( .MILLI., .METRE. ) );
#191 = ORIENTED_EDGE ( 'NONE', *, *, #25, .T. ) ;
#192 = OPEN_SHELL ( 'NONE', ( #59, #106, #112, #52, #102, #18, #16, #94, #90, #240, #231, #177, #293, #236, #314 ) ) ;
#193 = ORIENTED_EDGE ( 'NONE', *, *, #313, .F. ) ;
#194 = ORIENTED_EDGE ( 'NONE', *, *, #239, .T. ) ;
#195 = ORIENTED_EDGE ( 'NONE', *, *, #61, .T. ) ;
#196 = MECHANICAL_DESIGN_GEOMETRIC_PRESENTATION_REPRESENTATION (  '', ( #198 ), #316 ) ;
#197 = PRESENTATION_LAYER_ASSIGNMENT (  '', '', ( #198 ) ) ;
#198 = STYLED_ITEM ( 'NONE', ( #199 ), #18 ) ;
#199 = PRESENTATION_STYLE_ASSIGNMENT (( #200 ) ) ;
#200 = SURFACE_STYLE_USAGE ( .BOTH. , #201 ) ;
#201 = SURFACE_SIDE_STYLE ('',( #202 ) ) ;
#202 = SURFACE_STYLE_FILL_AREA ( #203 ) ;
#203 = FILL_AREA_STYLE ('',( #210 ) ) ;
#204 = COLOUR_RGB ( '',0.7529411764705882200, 0.7529411764705882200, 0.7529411764705882200 ) ;
#205 = DIRECTION ( 'NONE',  ( 0.0000000000000000000, 0.0000000000000000000, 1.000000000000000000 ) ) ;
#206 = DIRECTION ( 'NONE',  ( -1.000000000000000000, -0.0000000000000000000, -0.0000000000000000000 ) ) ;
#207 = CARTESIAN_POINT ( 'NONE',  ( 15.00000000000000000, 0.0000000000000000000, -7.730000000000001300 ) ) ;
#208 = AXIS2_PLACEMENT_3D ( 'NONE', #207, #206, #205 ) ;
#209 = FACE_OUTER_BOUND ( 'NONE', #14, .T. ) ;
#210 = FILL_AREA_STYLE_COLOUR ( '', #204 ) ;
#211 = CYLINDRICAL_SURFACE ( 'NONE', #208, 10.34000000000000000 ) ;
#212 =( GEOMETRIC_REPRESENTATION_CONTEXT ( 3 ) GLOBAL_UNCERTAINTY_ASSIGNED_CONTEXT ( ( #168 ) ) GLOBAL_UNIT_ASSIGNED_CONTEXT ( ( #171, #170, #169 ) ) REPRESENTATION_CONTEXT ( 'NONE', 'WORKASPACE' ) );
#213 = VECTOR ( 'NONE', #309, 1000.000000000000000 ) ;
#214 = CARTESIAN_POINT ( 'NONE',  ( 14.85857864376269100, -7.499999999999997300, 2.609999999999998500 ) ) ;
#215 = LINE ( 'NONE', #214, #213 ) ;
#216 = DIRECTION ( 'NONE',  ( -0.5773502691896257300, -0.5773502691896257300, -0.5773502691896257300 ) ) ;
#217 = VECTOR ( 'NONE', #216, 999.9999999999998900 ) ;
#218 = CARTESIAN_POINT ( 'NONE',  ( 5.000000000000001800, -2.500000000000000900, -12.46857864376269000 ) ) ;
#219 = LINE ( 'NONE', #218, #217 ) ;
#220 = DIRECTION ( 'NONE',  ( -0.0000000000000000000, 1.000000000000000000, -0.0000000000000000000 ) ) ;
#221 = VECTOR ( 'NONE', #220, 1000.000000000000000 ) ;
#222 = CARTESIAN_POINT ( 'NONE',  ( 14.85857864376268900, -7.500000000000000000, -2.610000000000001200 ) ) ;
#223 = DIRECTION ( 'NONE',  ( 0.0000000000000000000, 0.0000000000000000000, -1.000000000000000000 ) ) ;
#224 = DIRECTION ( 'NONE',  ( 1.000000000000000000, 0.0000000000000000000, 0.0000000000000000000 ) ) ;
#225 = CARTESIAN_POINT ( 'NONE',  ( 15.00000000000000000, 0.0000000000000000000, -7.730000000000001300 ) ) ;
#226 = AXIS2_PLACEMENT_3D ( 'NONE', #225, #224, #223 ) ;
#227 = CIRCLE ( 'NONE', #226, 10.34000000000000200 ) ;
#228 = LINE ( 'NONE', #222, #221 ) ;
#229 = ORIENTED_EDGE ( 'NONE', *, *, #7, .T. ) ;
#230 = ORIENTED_EDGE ( 'NONE', *, *, #172, .F. ) ;
#231 = ADVANCED_FACE ( 'NONE', ( #535 ), #508, .F. ) ;
#232 = EDGE_LOOP ( 'NONE', ( #241, #265, #266, #242, #256 ) ) ;
#233 = EDGE_LOOP ( 'NONE', ( #234, #312, #193, #255, #195 ) ) ;
#234 = ORIENTED_EDGE ( 'NONE', *, *, #88, .T. ) ;
#235 = EDGE_CURVE ( 'NONE', #238, #3, #658, .T. ) ;
#236 = ADVANCED_FACE ( 'NONE', ( #654 ), #636, .F. ) ;
#237 = EDGE_LOOP ( 'NONE', ( #173, #174, #175, #176 ) ) ;
#238 = VERTEX_POINT ( 'NONE', #635 ) ;
#239 = EDGE_CURVE ( 'NONE', #3, #31, #634, .T. ) ;
#240 = ADVANCED_FACE ( 'NONE', ( #581 ), #566, .T. ) ;
#241 = ORIENTED_EDGE ( 'NONE', *, *, #313, .T. ) ;
#242 = ORIENTED_EDGE ( 'NONE', *, *, #253, .F. ) ;
#243 = DIRECTION ( 'NONE',  ( 0.5773502691896257300, 0.5773502691896257300, -0.5773502691896257300 ) ) ;
#244 = VECTOR ( 'NONE', #243, 999.9999999999998900 ) ;
#245 = CARTESIAN_POINT ( 'NONE',  ( -14.99999999999999800, -7.500000000000000900, -2.468578643762689800 ) ) ;
#246 = LINE ( 'NONE', #245, #244 ) ;
#247 = LINE ( 'NONE', #165, #164 ) ;
#248 = CARTESIAN_POINT ( 'NONE',  ( 14.85857864376268900, 7.499999999999999100, -0.6120227592384094300 ) ) ;
#249 = CARTESIAN_POINT ( 'NONE',  ( 14.90523944513762300, 7.453339198625067200, -0.5628576666180022900 ) ) ;
#250 = CARTESIAN_POINT ( 'NONE',  ( 14.95238141651380700, 7.406197227248882500, -0.5141537524827835000 ) ) ;
#251 = CARTESIAN_POINT ( 'NONE',  ( 14.99999999999999800, 7.358578643762689000, -0.4659157257394337400 ) ) ;
#252 =( BOUNDED_CURVE ( )  B_SPLINE_CURVE ( 3, ( #251, #250, #249, #248 ),
 .UNSPECIFIED., .F., .T. ) 
 B_SPLINE_CURVE_WITH_KNOTS ( ( 4, 4 ),
 ( 5.504249239961741800, 5.523914960106123900 ),
 .UNSPECIFIED. ) 
 CURVE ( )  GEOMETRIC_REPRESENTATION_ITEM ( )  RATIONAL_B_SPLINE_CURVE ( ( 1.000000000000000000, 0.9999677718805998200, 0.9999677718805998200, 1.000000000000000000 ) ) 
 REPRESENTATION_ITEM ( '' )  );
#253 = EDGE_CURVE ( 'NONE', #41, #238, #560, .T. ) ;
#254 = EDGE_LOOP ( 'NONE', ( #178, #179, #150, #152, #229, #230 ) ) ;
#255 = ORIENTED_EDGE ( 'NONE', *, *, #5, .T. ) ;
#256 = ORIENTED_EDGE ( 'NONE', *, *, #43, .F. ) ;
#257 = CARTESIAN_POINT ( 'NONE',  ( 14.92928932188134500, 7.429289321881342700, -2.539289321881347000 ) ) ;
#258 = CARTESIAN_POINT ( 'NONE',  ( 14.99999999999999800, 7.358578643762689000, -0.4659157257394337400 ) ) ;
#259 = DIRECTION ( 'NONE',  ( 0.0000000000000000000, 0.0000000000000000000, 1.000000000000000000 ) ) ;
#260 = AXIS2_PLACEMENT_3D ( 'NONE', #267, #259, #73 ) ;
#261 = ORIENTED_EDGE ( 'NONE', *, *, #24, .F. ) ;
#262 = EDGE_LOOP ( 'NONE', ( #263, #183, #184, #185, #186 ) ) ;
#263 = ORIENTED_EDGE ( 'NONE', *, *, #310, .T. ) ;
#264 = EDGE_LOOP ( 'NONE', ( #315, #182, #261, #191 ) ) ;
#265 = ORIENTED_EDGE ( 'NONE', *, *, #239, .F. ) ;
#266 = ORIENTED_EDGE ( 'NONE', *, *, #235, .F. ) ;
#267 = CARTESIAN_POINT ( 'NONE',  ( 0.0000000000000000000, 0.0000000000000000000, 0.0000000000000000000 ) ) ;
#268 = PRESENTATION_STYLE_ASSIGNMENT (( #269 ) ) ;
#269 = SURFACE_STYLE_USAGE ( .BOTH. , #270 ) ;
#270 = SURFACE_SIDE_STYLE ('',( #271 ) ) ;
#271 = SURFACE_STYLE_FILL_AREA ( #272 ) ;
#272 = FILL_AREA_STYLE ('',( #273 ) ) ;
#273 = FILL_AREA_STYLE_COLOUR ( '', #274 ) ;
#274 = COLOUR_RGB ( '',0.7529411764705882200, 0.7529411764705882200, 0.7529411764705882200 ) ;
#275 = FACE_OUTER_BOUND ( 'NONE', #72, .T. ) ;
#276 = CARTESIAN_POINT ( 'NONE',  ( -14.92928932188134400, -7.429289321881344500, -2.539289321881345700 ) ) ;
#277 = DIRECTION ( 'NONE',  ( -0.5773502691896234000, 0.5773502691896305100, 0.5773502691896234000 ) ) ;
#278 = VECTOR ( 'NONE', #277, 1000.000000000000000 ) ;
#279 = CARTESIAN_POINT ( 'NONE',  ( -14.85857864376268900, -7.499999999999999100, -2.609999999999998100 ) ) ;
#280 = LINE ( 'NONE', #279, #278 ) ;
#281 = CARTESIAN_POINT ( 'NONE',  ( -14.99999999999999800, 7.358578643762689000, -0.4659157257394337400 ) ) ;
#282 = DIRECTION ( 'NONE',  ( 0.0000000000000000000, 0.0000000000000000000, -1.000000000000000000 ) ) ;
#283 = DIRECTION ( 'NONE',  ( 1.000000000000000000, 0.0000000000000000000, 0.0000000000000000000 ) ) ;
#284 = CARTESIAN_POINT ( 'NONE',  ( -15.00000000000000000, 0.0000000000000000000, -7.730000000000001300 ) ) ;
#285 = AXIS2_PLACEMENT_3D ( 'NONE', #284, #283, #282 ) ;
#286 = DIRECTION ( 'NONE',  ( 0.7071067811865474600, 0.0000000000000000000, -0.7071067811865474600 ) ) ;
#287 = DIRECTION ( 'NONE',  ( 0.7071067811865475700, 0.0000000000000000000, 0.7071067811865475700 ) ) ;
#288 = CARTESIAN_POINT ( 'NONE',  ( -14.85857864376268900, -7.500000000000000000, -2.609999999999997700 ) ) ;
#289 = AXIS2_PLACEMENT_3D ( 'NONE', #288, #287, #286 ) ;
#290 = CIRCLE ( 'NONE', #285, 10.34000000000000200 ) ;
#291 = PLANE ( 'NONE',  #289 ) ;
#292 =( GEOMETRIC_REPRESENTATION_CONTEXT ( 3 ) GLOBAL_UNCERTAINTY_ASSIGNED_CONTEXT ( ( #187 ) ) GLOBAL_UNIT_ASSIGNED_CONTEXT ( ( #190, #189, #188 ) ) REPRESENTATION_CONTEXT ( 'NONE', 'WORKASPACE' ) );
#293 = ADVANCED_FACE ( 'NONE', ( #700 ), #555, .F. ) ;
#294 = MECHANICAL_DESIGN_GEOMETRIC_PRESENTATION_REPRESENTATION (  '', ( #296 ), #212 ) ;
#295 = PRESENTATION_LAYER_ASSIGNMENT (  '', '', ( #296 ) ) ;
#296 = STYLED_ITEM ( 'NONE', ( #297 ), #16 ) ;
#297 = PRESENTATION_STYLE_ASSIGNMENT (( #298 ) ) ;
#298 = SURFACE_STYLE_USAGE ( .BOTH. , #299 ) ;
#299 = SURFACE_SIDE_STYLE ('',( #300 ) ) ;
#300 = SURFACE_STYLE_FILL_AREA ( #301 ) ;
#301 = FILL_AREA_STYLE ('',( #308 ) ) ;
#302 = COLOUR_RGB ( '',0.7529411764705882200, 0.7529411764705882200, 0.7529411764705882200 ) ;
#303 = FACE_OUTER_BOUND ( 'NONE', #17, .T. ) ;
#304 = DIRECTION ( 'NONE',  ( -0.5773502691896208500, -0.5773502691896281700, 0.5773502691896281700 ) ) ;
#305 = VECTOR ( 'NONE', #304, 1000.000000000000100 ) ;
#306 = CARTESIAN_POINT ( 'NONE',  ( 4.905719095841958800, -17.45285954792085500, 7.484280904158163500 ) ) ;
#307 = LINE ( 'NONE', #306, #305 ) ;
#308 = FILL_AREA_STYLE_COLOUR ( '', #302 ) ;
#309 = DIRECTION ( 'NONE',  ( -0.0000000000000000000, 1.301042606982605300E-016, -1.000000000000000000 ) ) ;
#310 = EDGE_CURVE ( 'NONE', #40, #181, #550, .T. ) ;
#311 = ORIENTED_EDGE ( 'NONE', *, *, #167, .F. ) ;
#312 = ORIENTED_EDGE ( 'NONE', *, *, #93, .T. ) ;
#313 = EDGE_CURVE ( 'NONE', #2, #31, #545, .T. ) ;
#314 = ADVANCED_FACE ( 'NONE', ( #628 ), #670, .F. ) ;
#315 = ORIENTED_EDGE ( 'NONE', *, *, #172, .T. ) ;
#316 =( GEOMETRIC_REPRESENTATION_CONTEXT ( 3 ) GLOBAL_UNCERTAINTY_ASSIGNED_CONTEXT ( ( #317 ) ) GLOBAL_UNIT_ASSIGNED_CONTEXT ( ( #320, #319, #318 ) ) REPRESENTATION_CONTEXT ( 'NONE', 'WORKASPACE' ) );
#317 = UNCERTAINTY_MEASURE_WITH_UNIT (LENGTH_MEASURE( 1.000000000000000100E-005 ), #320, 'distance_accuracy_value', 'NONE');
#318 =( NAMED_UNIT ( * ) SI_UNIT ( $, .STERADIAN. ) SOLID_ANGLE_UNIT ( ) );
#319 =( NAMED_UNIT ( * ) PLANE_ANGLE_UNIT ( ) SI_UNIT ( $, .RADIAN. ) );
#320 =( LENGTH_UNIT ( ) NAMED_UNIT ( * ) SI_UNIT ( .MILLI., .METRE. ) );
#321 = AXIS2_PLACEMENT_3D ( 'NONE', #499, #498, #497 ) ;
#322 = PLANE ( 'NONE',  #321 ) ;
#323 =( GEOMETRIC_REPRESENTATION_CONTEXT ( 3 ) GLOBAL_UNCERTAINTY_ASSIGNED_CONTEXT ( ( #500 ) ) GLOBAL_UNIT_ASSIGNED_CONTEXT ( ( #503, #502, #501 ) ) REPRESENTATION_CONTEXT ( 'NONE', 'WORKASPACE' ) );
#324 =( GEOMETRIC_REPRESENTATION_CONTEXT ( 3 ) GLOBAL_UNCERTAINTY_ASSIGNED_CONTEXT ( ( #325 ) ) GLOBAL_UNIT_ASSIGNED_CONTEXT ( ( #328, #327, #326 ) ) REPRESENTATION_CONTEXT ( 'NONE', 'WORKASPACE' ) );
#325 = UNCERTAINTY_MEASURE_WITH_UNIT (LENGTH_MEASURE( 1.000000000000000100E-005 ), #328, 'distance_accuracy_value', 'NONE');
#326 =( NAMED_UNIT ( * ) SI_UNIT ( $, .STERADIAN. ) SOLID_ANGLE_UNIT ( ) );
#327 =( NAMED_UNIT ( * ) PLANE_ANGLE_UNIT ( ) SI_UNIT ( $, .RADIAN. ) );
#328 =( LENGTH_UNIT ( ) NAMED_UNIT ( * ) SI_UNIT ( .MILLI., .METRE. ) );
#329 = MECHANICAL_DESIGN_GEOMETRIC_PRESENTATION_REPRESENTATION (  '', ( #453 ), #324 ) ;
#330 =( BOUNDED_CURVE ( )  B_SPLINE_CURVE ( 3, ( #345, #344, #343, #342 ),
 .UNSPECIFIED., .F., .T. ) 
 B_SPLINE_CURVE_WITH_KNOTS ( ( 4, 4 ),
 ( 2.362656586371948200, 2.382322306516330400 ),
 .UNSPECIFIED. ) 
 CURVE ( )  GEOMETRIC_REPRESENTATION_ITEM ( )  RATIONAL_B_SPLINE_CURVE ( ( 1.000000000000000000, 0.9999677718805998200, 0.9999677718805998200, 1.000000000000000000 ) ) 
 REPRESENTATION_ITEM ( '' )  );
#331 = CARTESIAN_POINT ( 'NONE',  ( -14.85857864376269100, -7.499999999999997300, -0.6120227592384094300 ) ) ;
#332 = DIRECTION ( 'NONE',  ( -0.5773502691896257300, 0.5773502691896257300, 0.5773502691896257300 ) ) ;
#333 = VECTOR ( 'NONE', #332, 999.9999999999998900 ) ;
#334 = CARTESIAN_POINT ( 'NONE',  ( -15.00000000000000000, 7.500000000000000000, -2.468578643762688400 ) ) ;
#335 = LINE ( 'NONE', #334, #333 ) ;
#336 = LINE ( 'NONE', #451, #450 ) ;
#337 = CARTESIAN_POINT ( 'NONE',  ( 14.85857864376269100, -7.499999999999997300, -0.6120227592384094300 ) ) ;
#338 = DIRECTION ( 'NONE',  ( -1.000000000000000000, -0.0000000000000000000, -0.0000000000000000000 ) ) ;
#339 = VECTOR ( 'NONE', #338, 1000.000000000000000 ) ;
#340 = CARTESIAN_POINT ( 'NONE',  ( 15.00000000000000000, -7.500000000000000000, -0.6120227592384094300 ) ) ;
#341 = LINE ( 'NONE', #340, #339 ) ;
#342 = CARTESIAN_POINT ( 'NONE',  ( -14.85857864376269100, -7.499999999999997300, -0.6120227592384094300 ) ) ;
#343 = CARTESIAN_POINT ( 'NONE',  ( -14.90523944513762300, -7.453339198625066300, -0.5628576666180014100 ) ) ;
#344 = CARTESIAN_POINT ( 'NONE',  ( -14.95238141651381100, -7.406197227248880700, -0.5141537524827826100 ) ) ;
#345 = CARTESIAN_POINT ( 'NONE',  ( -15.00000000000000000, -7.358578643762687200, -0.4659157257394320200 ) ) ;
#346 = PRESENTATION_LAYER_ASSIGNMENT (  '', '', ( #477 ) ) ;
#347 = CARTESIAN_POINT ( 'NONE',  ( -15.00000000000000000, -7.358578643762687200, -0.4659157257394320200 ) ) ;
#348 = DIRECTION ( 'NONE',  ( 0.0000000000000000000, 0.0000000000000000000, -1.000000000000000000 ) ) ;
#349 = DIRECTION ( 'NONE',  ( 1.000000000000000000, 0.0000000000000000000, 0.0000000000000000000 ) ) ;
#350 = CARTESIAN_POINT ( 'NONE',  ( -15.00000000000000000, 0.0000000000000000000, -7.730000000000001300 ) ) ;
#351 = AXIS2_PLACEMENT_3D ( 'NONE', #350, #349, #348 ) ;
#352 = CIRCLE ( 'NONE', #351, 10.34000000000000200 ) ;
#353 = CARTESIAN_POINT ( 'NONE',  ( -15.00000000000000000, 0.0000000000000000000, 2.609999999999998500 ) ) ;
#354 = DIRECTION ( 'NONE',  ( -1.000000000000000000, -0.0000000000000000000, -0.0000000000000000000 ) ) ;
#355 = VECTOR ( 'NONE', #354, 1000.000000000000000 ) ;
#356 = CARTESIAN_POINT ( 'NONE',  ( 15.00000000000000000, 0.0000000000000000000, 2.609999999999998500 ) ) ;
#357 = LINE ( 'NONE', #356, #355 ) ;
#358 = CARTESIAN_POINT ( 'NONE',  ( 15.00000000000000000, -7.358578643762687200, -0.4659157257394320200 ) ) ;
#359 = CARTESIAN_POINT ( 'NONE',  ( 15.00000000000000000, 0.0000000000000000000, 2.609999999999998500 ) ) ;
#360 = DIRECTION ( 'NONE',  ( 0.0000000000000000000, 0.0000000000000000000, -1.000000000000000000 ) ) ;
#361 = DIRECTION ( 'NONE',  ( 1.000000000000000000, 0.0000000000000000000, 0.0000000000000000000 ) ) ;
#362 = CARTESIAN_POINT ( 'NONE',  ( 15.00000000000000000, 0.0000000000000000000, -7.730000000000001300 ) ) ;
#363 = AXIS2_PLACEMENT_3D ( 'NONE', #362, #361, #360 ) ;
#364 = DIRECTION ( 'NONE',  ( 0.0000000000000000000, 0.0000000000000000000, 1.000000000000000000 ) ) ;
#365 = DIRECTION ( 'NONE',  ( -1.000000000000000000, -0.0000000000000000000, -0.0000000000000000000 ) ) ;
#366 = CARTESIAN_POINT ( 'NONE',  ( 15.00000000000000000, 0.0000000000000000000, -7.730000000000001300 ) ) ;
#367 = AXIS2_PLACEMENT_3D ( 'NONE', #366, #365, #364 ) ;
#368 = CIRCLE ( 'NONE', #363, 10.34000000000000200 ) ;
#369 = CYLINDRICAL_SURFACE ( 'NONE', #367, 10.34000000000000000 ) ;
#370 =( GEOMETRIC_REPRESENTATION_CONTEXT ( 3 ) GLOBAL_UNCERTAINTY_ASSIGNED_CONTEXT ( ( #371 ) ) GLOBAL_UNIT_ASSIGNED_CONTEXT ( ( #475, #476, #372 ) ) REPRESENTATION_CONTEXT ( 'NONE', 'WORKASPACE' ) );
#371 = UNCERTAINTY_MEASURE_WITH_UNIT (LENGTH_MEASURE( 1.000000000000000100E-005 ), #475, 'distance_accuracy_value', 'NONE');
#372 =( NAMED_UNIT ( * ) SI_UNIT ( $, .STERADIAN. ) SOLID_ANGLE_UNIT ( ) );
#373 =( NAMED_UNIT ( * ) SI_UNIT ( $, .STERADIAN. ) SOLID_ANGLE_UNIT ( ) );
#374 =( NAMED_UNIT ( * ) PLANE_ANGLE_UNIT ( ) SI_UNIT ( $, .RADIAN. ) );
#375 =( LENGTH_UNIT ( ) NAMED_UNIT ( * ) SI_UNIT ( .MILLI., .METRE. ) );
#376 = MECHANICAL_DESIGN_GEOMETRIC_PRESENTATION_REPRESENTATION (  '', ( #378 ), #472 ) ;
#377 = PRESENTATION_LAYER_ASSIGNMENT (  '', '', ( #378 ) ) ;
#378 = STYLED_ITEM ( 'NONE', ( #379 ), #106 ) ;
#379 = PRESENTATION_STYLE_ASSIGNMENT (( #380 ) ) ;
#380 = SURFACE_STYLE_USAGE ( .BOTH. , #381 ) ;
#381 = SURFACE_SIDE_STYLE ('',( #382 ) ) ;
#382 = SURFACE_STYLE_FILL_AREA ( #383 ) ;
#383 = FILL_AREA_STYLE ('',( #388 ) ) ;
#384 = CARTESIAN_POINT ( 'NONE',  ( 15.00000000000000000, -7.358578643762687200, -0.4659157257394320200 ) ) ;
#385 = CARTESIAN_POINT ( 'NONE',  ( 14.95238141651380900, -7.406197227248882500, -0.5141537524827836100 ) ) ;
#386 = CARTESIAN_POINT ( 'NONE',  ( 14.90523944513762600, -7.453339198625065400, -0.5628576666180022900 ) ) ;
#387 = CARTESIAN_POINT ( 'NONE',  ( 14.85857864376269100, -7.499999999999997300, -0.6120227592384094300 ) ) ;
#388 = FILL_AREA_STYLE_COLOUR ( '', #390 ) ;
#389 =( BOUNDED_CURVE ( )  B_SPLINE_CURVE ( 3, ( #387, #386, #385, #384 ),
 .UNSPECIFIED., .F., .T. ) 
 B_SPLINE_CURVE_WITH_KNOTS ( ( 4, 4 ),
 ( 0.7592703470734629700, 0.7789360672178448100 ),
 .UNSPECIFIED. ) 
 CURVE ( )  GEOMETRIC_REPRESENTATION_ITEM ( )  RATIONAL_B_SPLINE_CURVE ( ( 1.000000000000000000, 0.9999677718805998200, 0.9999677718805998200, 1.000000000000000000 ) ) 
 REPRESENTATION_ITEM ( '' )  );
#390 = COLOUR_RGB ( '',0.7529411764705882200, 0.7529411764705882200, 0.7529411764705882200 ) ;
#391 = FACE_OUTER_BOUND ( 'NONE', #107, .T. ) ;
#392 = CARTESIAN_POINT ( 'NONE',  ( 14.85857864376269100, -7.499999999999996400, -2.468578643762692400 ) ) ;
#393 = DIRECTION ( 'NONE',  ( 0.0000000000000000000, -0.7071067811865474600, 0.7071067811865474600 ) ) ;
#394 = DIRECTION ( 'NONE',  ( 0.0000000000000000000, 0.7071067811865475700, 0.7071067811865475700 ) ) ;
#395 = CARTESIAN_POINT ( 'NONE',  ( -15.00000000000000000, -7.500000000000000000, -2.468578643762690600 ) ) ;
#396 = AXIS2_PLACEMENT_3D ( 'NONE', #395, #394, #393 ) ;
#397 = PLANE ( 'NONE',  #396 ) ;
#398 =( GEOMETRIC_REPRESENTATION_CONTEXT ( 3 ) GLOBAL_UNCERTAINTY_ASSIGNED_CONTEXT ( ( #399 ) ) GLOBAL_UNIT_ASSIGNED_CONTEXT ( ( #402, #401, #400 ) ) REPRESENTATION_CONTEXT ( 'NONE', 'WORKASPACE' ) );
#399 = UNCERTAINTY_MEASURE_WITH_UNIT (LENGTH_MEASURE( 1.000000000000000100E-005 ), #402, 'distance_accuracy_value', 'NONE');
#400 =( NAMED_UNIT ( * ) SI_UNIT ( $, .STERADIAN. ) SOLID_ANGLE_UNIT ( ) );
#401 =( NAMED_UNIT ( * ) PLANE_ANGLE_UNIT ( ) SI_UNIT ( $, .RADIAN. ) );
#402 =( LENGTH_UNIT ( ) NAMED_UNIT ( * ) SI_UNIT ( .MILLI., .METRE. ) );
#403 = MECHANICAL_DESIGN_GEOMETRIC_PRESENTATION_REPRESENTATION (  '', ( #405 ), #398 ) ;
#404 = PRESENTATION_LAYER_ASSIGNMENT (  '', '', ( #405 ) ) ;
#405 = STYLED_ITEM ( 'NONE', ( #406 ), #102 ) ;
#406 = PRESENTATION_STYLE_ASSIGNMENT (( #407 ) ) ;
#407 = SURFACE_STYLE_USAGE ( .BOTH. , #408 ) ;
#408 = SURFACE_SIDE_STYLE ('',( #409 ) ) ;
#409 = SURFACE_STYLE_FILL_AREA ( #410 ) ;
#410 = FILL_AREA_STYLE ('',( #415 ) ) ;
#411 = CARTESIAN_POINT ( 'NONE',  ( -14.99999999999999800, 7.358578643762689000, -0.4659157257394337400 ) ) ;
#412 = CARTESIAN_POINT ( 'NONE',  ( -14.95238141651380400, 7.406197227248885200, -0.5141537524827861600 ) ) ;
#413 = CARTESIAN_POINT ( 'NONE',  ( -14.90523944513761900, 7.453339198625069000, -0.5628576666180057400 ) ) ;
#414 = CARTESIAN_POINT ( 'NONE',  ( -14.85857864376268900, 7.499999999999999100, -0.6120227592384094300 ) ) ;
#415 = FILL_AREA_STYLE_COLOUR ( '', #417 ) ;
#416 =( BOUNDED_CURVE ( )  B_SPLINE_CURVE ( 3, ( #414, #413, #412, #411 ),
 .UNSPECIFIED., .F., .T. ) 
 B_SPLINE_CURVE_WITH_KNOTS ( ( 4, 4 ),
 ( 3.900863000663255400, 3.920528720807637600 ),
 .UNSPECIFIED. ) 
 CURVE ( )  GEOMETRIC_REPRESENTATION_ITEM ( )  RATIONAL_B_SPLINE_CURVE ( ( 1.000000000000000000, 0.9999677718805998200, 0.9999677718805998200, 1.000000000000000000 ) ) 
 REPRESENTATION_ITEM ( '' )  );
#417 = COLOUR_RGB ( '',0.7529411764705882200, 0.7529411764705882200, 0.7529411764705882200 ) ;
#418 = FACE_OUTER_BOUND ( 'NONE', #1, .T. ) ;
#419 = DIRECTION ( 'NONE',  ( -1.000000000000000000, -0.0000000000000000000, -0.0000000000000000000 ) ) ;
#420 = VECTOR ( 'NONE', #419, 1000.000000000000000 ) ;
#421 = CARTESIAN_POINT ( 'NONE',  ( 15.00000000000000000, 7.500000000000000000, -0.6120227592384094300 ) ) ;
#422 = LINE ( 'NONE', #421, #420 ) ;
#423 = DIRECTION ( 'NONE',  ( -0.7071067811865431300, -0.7071067811865519000, 0.0000000000000000000 ) ) ;
#424 = DIRECTION ( 'NONE',  ( -0.7071067811865519000, 0.7071067811865431300, 9.199760500100185700E-017 ) ) ;
#425 = CARTESIAN_POINT ( 'NONE',  ( 15.00000000000000000, -7.358578643762687200, 2.609999999999998500 ) ) ;
#426 = AXIS2_PLACEMENT_3D ( 'NONE', #425, #424, #423 ) ;
#427 = PLANE ( 'NONE',  #426 ) ;
#428 =( GEOMETRIC_REPRESENTATION_CONTEXT ( 3 ) GLOBAL_UNCERTAINTY_ASSIGNED_CONTEXT ( ( #478 ) ) GLOBAL_UNIT_ASSIGNED_CONTEXT ( ( #481, #480, #479 ) ) REPRESENTATION_CONTEXT ( 'NONE', 'WORKASPACE' ) );
#429 = MECHANICAL_DESIGN_GEOMETRIC_PRESENTATION_REPRESENTATION (  '', ( #431 ), #323 ) ;
#430 = PRESENTATION_LAYER_ASSIGNMENT (  '', '', ( #431 ) ) ;
#431 = STYLED_ITEM ( 'NONE', ( #432 ), #90 ) ;
#432 = PRESENTATION_STYLE_ASSIGNMENT (( #433 ) ) ;
#433 = SURFACE_STYLE_USAGE ( .BOTH. , #434 ) ;
#434 = SURFACE_SIDE_STYLE ('',( #435 ) ) ;
#435 = SURFACE_STYLE_FILL_AREA ( #436 ) ;
#436 = FILL_AREA_STYLE ('',( #443 ) ) ;
#437 = COLOUR_RGB ( '',0.7529411764705882200, 0.7529411764705882200, 0.7529411764705882200 ) ;
#438 = FACE_OUTER_BOUND ( 'NONE', #91, .T. ) ;
#439 = DIRECTION ( 'NONE',  ( -0.0000000000000000000, 1.301042606982605300E-016, -1.000000000000000000 ) ) ;
#440 = VECTOR ( 'NONE', #439, 1000.000000000000000 ) ;
#441 = CARTESIAN_POINT ( 'NONE',  ( 15.00000000000000000, -7.358578643762687200, 2.609999999999998500 ) ) ;
#442 = LINE ( 'NONE', #441, #440 ) ;
#443 = FILL_AREA_STYLE_COLOUR ( '', #437 ) ;
#444 = DIRECTION ( 'NONE',  ( -0.0000000000000000000, 1.000000000000000000, -0.0000000000000000000 ) ) ;
#445 = VECTOR ( 'NONE', #444, 1000.000000000000000 ) ;
#446 = CARTESIAN_POINT ( 'NONE',  ( -15.00000000000000000, -7.500000000000000000, -2.468578643762688000 ) ) ;
#447 = LINE ( 'NONE', #446, #445 ) ;
#448 = CARTESIAN_POINT ( 'NONE',  ( -14.99999999999999800, 7.358578643762689900, -2.468578643762691100 ) ) ;
#449 = DIRECTION ( 'NONE',  ( 0.5773502691896234000, 0.5773502691896305100, -0.5773502691896234000 ) ) ;
#450 = VECTOR ( 'NONE', #449, 1000.000000000000100 ) ;
#451 = CARTESIAN_POINT ( 'NONE',  ( -19.85857864376271200, 2.499999999999916500, 2.390000000000022800 ) ) ;
#452 = PRESENTATION_LAYER_ASSIGNMENT (  '', '', ( #453 ) ) ;
#453 = STYLED_ITEM ( 'NONE', ( #454 ), #112 ) ;
#454 = PRESENTATION_STYLE_ASSIGNMENT (( #455 ) ) ;
#455 = SURFACE_STYLE_USAGE ( .BOTH. , #456 ) ;
#456 = SURFACE_SIDE_STYLE ('',( #457 ) ) ;
#457 = SURFACE_STYLE_FILL_AREA ( #458 ) ;
#458 = FILL_AREA_STYLE ('',( #460 ) ) ;
#459 = COLOUR_RGB ( '',0.7529411764705882200, 0.7529411764705882200, 0.7529411764705882200 ) ;
#460 = FILL_AREA_STYLE_COLOUR ( '', #459 ) ;
#461 = FACE_OUTER_BOUND ( 'NONE', #113, .T. ) ;
#462 = CARTESIAN_POINT ( 'NONE',  ( -15.00000000000000000, -7.358578643762686300, -2.468578643762688000 ) ) ;
#463 = DIRECTION ( 'NONE',  ( -0.0000000000000000000, 1.301042606982605300E-016, -1.000000000000000000 ) ) ;
#464 = VECTOR ( 'NONE', #463, 1000.000000000000000 ) ;
#465 = CARTESIAN_POINT ( 'NONE',  ( -15.00000000000000000, -7.358578643762687200, 2.609999999999998500 ) ) ;
#466 = LINE ( 'NONE', #465, #464 ) ;
#467 = DIRECTION ( 'NONE',  ( -0.7071067811865431300, 0.7071067811865519000, 0.0000000000000000000 ) ) ;
#468 = DIRECTION ( 'NONE',  ( 0.7071067811865519000, 0.7071067811865431300, 9.199760500100185700E-017 ) ) ;
#469 = CARTESIAN_POINT ( 'NONE',  ( -15.00000000000000000, -7.358578643762687200, 2.609999999999998500 ) ) ;
#470 = AXIS2_PLACEMENT_3D ( 'NONE', #469, #468, #467 ) ;
#471 = PLANE ( 'NONE',  #470 ) ;
#472 =( GEOMETRIC_REPRESENTATION_CONTEXT ( 3 ) GLOBAL_UNCERTAINTY_ASSIGNED_CONTEXT ( ( #473 ) ) GLOBAL_UNIT_ASSIGNED_CONTEXT ( ( #375, #374, #373 ) ) REPRESENTATION_CONTEXT ( 'NONE', 'WORKASPACE' ) );
#473 = UNCERTAINTY_MEASURE_WITH_UNIT (LENGTH_MEASURE( 1.000000000000000100E-005 ), #375, 'distance_accuracy_value', 'NONE');
#474 = MECHANICAL_DESIGN_GEOMETRIC_PRESENTATION_REPRESENTATION (  '', ( #477 ), #370 ) ;
#475 =( LENGTH_UNIT ( ) NAMED_UNIT ( * ) SI_UNIT ( .MILLI., .METRE. ) );
#476 =( NAMED_UNIT ( * ) PLANE_ANGLE_UNIT ( ) SI_UNIT ( $, .RADIAN. ) );
#477 = STYLED_ITEM ( 'NONE', ( #268 ), #59 ) ;
#478 = UNCERTAINTY_MEASURE_WITH_UNIT (LENGTH_MEASURE( 1.000000000000000100E-005 ), #481, 'distance_accuracy_value', 'NONE');
#479 =( NAMED_UNIT ( * ) SI_UNIT ( $, .STERADIAN. ) SOLID_ANGLE_UNIT ( ) );
#480 =( NAMED_UNIT ( * ) PLANE_ANGLE_UNIT ( ) SI_UNIT ( $, .RADIAN. ) );
#481 =( LENGTH_UNIT ( ) NAMED_UNIT ( * ) SI_UNIT ( .MILLI., .METRE. ) );
#482 = MECHANICAL_DESIGN_GEOMETRIC_PRESENTATION_REPRESENTATION (  '', ( #484 ), #428 ) ;
#483 = PRESENTATION_LAYER_ASSIGNMENT (  '', '', ( #484 ) ) ;
#484 = STYLED_ITEM ( 'NONE', ( #485 ), #94 ) ;
#485 = PRESENTATION_STYLE_ASSIGNMENT (( #486 ) ) ;
#486 = SURFACE_STYLE_USAGE ( .BOTH. , #487 ) ;
#487 = SURFACE_SIDE_STYLE ('',( #488 ) ) ;
#488 = SURFACE_STYLE_FILL_AREA ( #489 ) ;
#489 = FILL_AREA_STYLE ('',( #496 ) ) ;
#490 = COLOUR_RGB ( '',0.7529411764705882200, 0.7529411764705882200, 0.7529411764705882200 ) ;
#491 = FACE_OUTER_BOUND ( 'NONE', #101, .T. ) ;
#492 = DIRECTION ( 'NONE',  ( -0.0000000000000000000, 1.000000000000000000, -0.0000000000000000000 ) ) ;
#493 = VECTOR ( 'NONE', #492, 1000.000000000000000 ) ;
#494 = CARTESIAN_POINT ( 'NONE',  ( 15.00000000000000000, -7.500000000000000000, -2.468578643762691500 ) ) ;
#495 = LINE ( 'NONE', #494, #493 ) ;
#496 = FILL_AREA_STYLE_COLOUR ( '', #490 ) ;
#497 = DIRECTION ( 'NONE',  ( 0.7071067811865474600, 0.0000000000000000000, 0.7071067811865474600 ) ) ;
#498 = DIRECTION ( 'NONE',  ( -0.7071067811865475700, 0.0000000000000000000, 0.7071067811865475700 ) ) ;
#499 = CARTESIAN_POINT ( 'NONE',  ( 14.85857864376268900, -7.500000000000000000, -2.610000000000001200 ) ) ;
#500 = UNCERTAINTY_MEASURE_WITH_UNIT (LENGTH_MEASURE( 1.000000000000000100E-005 ), #503, 'distance_accuracy_value', 'NONE');
#501 =( NAMED_UNIT ( * ) SI_UNIT ( $, .STERADIAN. ) SOLID_ANGLE_UNIT ( ) );
#502 =( NAMED_UNIT ( * ) PLANE_ANGLE_UNIT ( ) SI_UNIT ( $, .RADIAN. ) );
#503 =( LENGTH_UNIT ( ) NAMED_UNIT ( * ) SI_UNIT ( .MILLI., .METRE. ) );
#504 = DIRECTION ( 'NONE',  ( 0.7071067811865431300, -0.7071067811865519000, 0.0000000000000000000 ) ) ;
#505 = DIRECTION ( 'NONE',  ( -0.7071067811865519000, -0.7071067811865431300, -9.199760500100185700E-017 ) ) ;
#506 = CARTESIAN_POINT ( 'NONE',  ( 14.99999999999999800, 7.358578643762689000, 2.610000000000000300 ) ) ;
#507 = AXIS2_PLACEMENT_3D ( 'NONE', #506, #505, #504 ) ;
#508 = PLANE ( 'NONE',  #507 ) ;
#509 =( GEOMETRIC_REPRESENTATION_CONTEXT ( 3 ) GLOBAL_UNCERTAINTY_ASSIGNED_CONTEXT ( ( #510 ) ) GLOBAL_UNIT_ASSIGNED_CONTEXT ( ( #524, #512, #511 ) ) REPRESENTATION_CONTEXT ( 'NONE', 'WORKASPACE' ) );
#510 = UNCERTAINTY_MEASURE_WITH_UNIT (LENGTH_MEASURE( 1.000000000000000100E-005 ), #524, 'distance_accuracy_value', 'NONE');
#511 =( NAMED_UNIT ( * ) SI_UNIT ( $, .STERADIAN. ) SOLID_ANGLE_UNIT ( ) );
#512 =( NAMED_UNIT ( * ) PLANE_ANGLE_UNIT ( ) SI_UNIT ( $, .RADIAN. ) );
#513 = LINE ( 'NONE', #686, #685 ) ;
#514 = FILL_AREA_STYLE_COLOUR ( '', #682 ) ;
#515 = DIRECTION ( 'NONE',  ( 1.000000000000000000, -0.0000000000000000000, -0.0000000000000000000 ) ) ;
#516 = VECTOR ( 'NONE', #515, 1000.000000000000000 ) ;
#517 = CARTESIAN_POINT ( 'NONE',  ( -15.00000000000000000, -7.500000000000000000, -2.468578643762690600 ) ) ;
#518 = LINE ( 'NONE', #517, #516 ) ;
#519 = CARTESIAN_POINT ( 'NONE',  ( -14.85857864376268900, -7.358578643762689900, -2.610000000000000300 ) ) ;
#520 = DIRECTION ( 'NONE',  ( -0.0000000000000000000, 1.301042606982605300E-016, -1.000000000000000000 ) ) ;
#521 = VECTOR ( 'NONE', #520, 1000.000000000000000 ) ;
#522 = CARTESIAN_POINT ( 'NONE',  ( -14.85857864376269100, -7.499999999999997300, 2.609999999999998500 ) ) ;
#523 = LINE ( 'NONE', #522, #521 ) ;
#524 =( LENGTH_UNIT ( ) NAMED_UNIT ( * ) SI_UNIT ( .MILLI., .METRE. ) );
#525 = MECHANICAL_DESIGN_GEOMETRIC_PRESENTATION_REPRESENTATION (  '', ( #527 ), #509 ) ;
#526 = PRESENTATION_LAYER_ASSIGNMENT (  '', '', ( #527 ) ) ;
#527 = STYLED_ITEM ( 'NONE', ( #528 ), #231 ) ;
#528 = PRESENTATION_STYLE_ASSIGNMENT (( #529 ) ) ;
#529 = SURFACE_STYLE_USAGE ( .BOTH. , #530 ) ;
#530 = SURFACE_SIDE_STYLE ('',( #531 ) ) ;
#531 = SURFACE_STYLE_FILL_AREA ( #532 ) ;
#532 = FILL_AREA_STYLE ('',( #534 ) ) ;
#533 = COLOUR_RGB ( '',0.7529411764705882200, 0.7529411764705882200, 0.7529411764705882200 ) ;
#534 = FILL_AREA_STYLE_COLOUR ( '', #533 ) ;
#535 = FACE_OUTER_BOUND ( 'NONE', #232, .T. ) ;
#536 = CARTESIAN_POINT ( 'NONE',  ( -14.85857864376268900, 7.500000000000000000, -2.468578643762688900 ) ) ;
#537 = DIRECTION ( 'NONE',  ( 0.5773502691896210700, 0.5773502691896280600, 0.5773502691896280600 ) ) ;
#538 = VECTOR ( 'NONE', #537, 1000.000000000000200 ) ;
#539 = CARTESIAN_POINT ( 'NONE',  ( -14.90571909584179300, 7.452859547920896300, -2.515719095841792100 ) ) ;
#540 = LINE ( 'NONE', #539, #538 ) ;
#541 = AXIS2_PLACEMENT_3D ( 'NONE', #642, #641, #640 ) ;
#542 = PLANE ( 'NONE',  #541 ) ;
#543 = VECTOR ( 'NONE', #629, 1000.000000000000000 ) ;
#544 = CARTESIAN_POINT ( 'NONE',  ( 14.99999999999999800, 7.358578643762689000, 2.610000000000000300 ) ) ;
#545 = LINE ( 'NONE', #544, #543 ) ;
#546 = FILL_AREA_STYLE_COLOUR ( '', #627 ) ;
#547 = DIRECTION ( 'NONE',  ( -0.0000000000000000000, 1.301042606982605300E-016, -1.000000000000000000 ) ) ;
#548 = VECTOR ( 'NONE', #547, 1000.000000000000000 ) ;
#549 = CARTESIAN_POINT ( 'NONE',  ( -14.85857864376268900, 7.499999999999999100, 2.610000000000000300 ) ) ;
#550 = LINE ( 'NONE', #549, #548 ) ;
#551 = DIRECTION ( 'NONE',  ( 0.7071067811865431300, 0.7071067811865519000, 0.0000000000000000000 ) ) ;
#552 = DIRECTION ( 'NONE',  ( 0.7071067811865519000, -0.7071067811865431300, -9.199760500100185700E-017 ) ) ;
#553 = CARTESIAN_POINT ( 'NONE',  ( -14.99999999999999800, 7.358578643762689000, 2.610000000000000300 ) ) ;
#554 = AXIS2_PLACEMENT_3D ( 'NONE', #553, #552, #551 ) ;
#555 = PLANE ( 'NONE',  #554 ) ;
#556 =( GEOMETRIC_REPRESENTATION_CONTEXT ( 3 ) GLOBAL_UNCERTAINTY_ASSIGNED_CONTEXT ( ( #687 ) ) GLOBAL_UNIT_ASSIGNED_CONTEXT ( ( #690, #689, #688 ) ) REPRESENTATION_CONTEXT ( 'NONE', 'WORKASPACE' ) );
#557 = CARTESIAN_POINT ( 'NONE',  ( -14.85857864376268900, 7.358578643762690800, -2.609999999999997700 ) ) ;
#558 = VECTOR ( 'NONE', #701, 1000.000000000000000 ) ;
#559 = CARTESIAN_POINT ( 'NONE',  ( 14.85857864376268900, 7.499999999999999100, 2.610000000000000300 ) ) ;
#560 = LINE ( 'NONE', #559, #558 ) ;
#561 = FILL_AREA_STYLE_COLOUR ( '', #699 ) ;
#562 = DIRECTION ( 'NONE',  ( 0.0000000000000000000, 0.0000000000000000000, -1.000000000000000000 ) ) ;
#563 = DIRECTION ( 'NONE',  ( 1.000000000000000000, 0.0000000000000000000, 0.0000000000000000000 ) ) ;
#564 = CARTESIAN_POINT ( 'NONE',  ( 15.00000000000000000, 0.0000000000000000000, -7.730000000000001300 ) ) ;
#565 = AXIS2_PLACEMENT_3D ( 'NONE', #564, #563, #562 ) ;
#566 = PLANE ( 'NONE',  #565 ) ;
#567 =( GEOMETRIC_REPRESENTATION_CONTEXT ( 3 ) GLOBAL_UNCERTAINTY_ASSIGNED_CONTEXT ( ( #568 ) ) GLOBAL_UNIT_ASSIGNED_CONTEXT ( ( #571, #570, #569 ) ) REPRESENTATION_CONTEXT ( 'NONE', 'WORKASPACE' ) );
#568 = UNCERTAINTY_MEASURE_WITH_UNIT (LENGTH_MEASURE( 1.000000000000000100E-005 ), #571, 'distance_accuracy_value', 'NONE');
#569 =( NAMED_UNIT ( * ) SI_UNIT ( $, .STERADIAN. ) SOLID_ANGLE_UNIT ( ) );
#570 =( NAMED_UNIT ( * ) PLANE_ANGLE_UNIT ( ) SI_UNIT ( $, .RADIAN. ) );
#571 =( LENGTH_UNIT ( ) NAMED_UNIT ( * ) SI_UNIT ( .MILLI., .METRE. ) );
#572 = MECHANICAL_DESIGN_GEOMETRIC_PRESENTATION_REPRESENTATION (  '', ( #574 ), #567 ) ;
#573 = PRESENTATION_LAYER_ASSIGNMENT (  '', '', ( #574 ) ) ;
#574 = STYLED_ITEM ( 'NONE', ( #575 ), #240 ) ;
#575 = PRESENTATION_STYLE_ASSIGNMENT (( #576 ) ) ;
#576 = SURFACE_STYLE_USAGE ( .BOTH. , #577 ) ;
#577 = SURFACE_SIDE_STYLE ('',( #578 ) ) ;
#578 = SURFACE_STYLE_FILL_AREA ( #579 ) ;
#579 = FILL_AREA_STYLE ('',( #585 ) ) ;
#580 = COLOUR_RGB ( '',0.7529411764705882200, 0.7529411764705882200, 0.7529411764705882200 ) ;
#581 = FACE_OUTER_BOUND ( 'NONE', #233, .T. ) ;
#582 = DIRECTION ( 'NONE',  ( 0.5773502691896234000, -0.5773502691896305100, 0.5773502691896234000 ) ) ;
#583 = VECTOR ( 'NONE', #582, 1000.000000000000100 ) ;
#584 = CARTESIAN_POINT ( 'NONE',  ( 19.85857864376271200, 2.499999999999916500, 2.390000000000019200 ) ) ;
#585 = FILL_AREA_STYLE_COLOUR ( '', #580 ) ;
#586 =( GEOMETRIC_REPRESENTATION_CONTEXT ( 3 ) GLOBAL_UNCERTAINTY_ASSIGNED_CONTEXT ( ( #587 ) ) GLOBAL_UNIT_ASSIGNED_CONTEXT ( ( #590, #589, #588 ) ) REPRESENTATION_CONTEXT ( 'NONE', 'WORKASPACE' ) );
#587 = UNCERTAINTY_MEASURE_WITH_UNIT (LENGTH_MEASURE( 1.000000000000000100E-005 ), #590, 'distance_accuracy_value', 'NONE');
#588 =( NAMED_UNIT ( * ) SI_UNIT ( $, .STERADIAN. ) SOLID_ANGLE_UNIT ( ) );
#589 =( NAMED_UNIT ( * ) PLANE_ANGLE_UNIT ( ) SI_UNIT ( $, .RADIAN. ) );
#590 =( LENGTH_UNIT ( ) NAMED_UNIT ( * ) SI_UNIT ( .MILLI., .METRE. ) );
#591 = MECHANICAL_DESIGN_GEOMETRIC_PRESENTATION_REPRESENTATION (  '', ( #593 ), #586 ) ;
#592 = PRESENTATION_LAYER_ASSIGNMENT (  '', '', ( #593 ) ) ;
#593 = STYLED_ITEM ( 'NONE', ( #594 ), #660 ) ;
#594 = PRESENTATION_STYLE_ASSIGNMENT (( #595 ) ) ;
#595 = SURFACE_STYLE_USAGE ( .BOTH. , #596 ) ;
#596 = SURFACE_SIDE_STYLE ('',( #597 ) ) ;
#597 = SURFACE_STYLE_FILL_AREA ( #598 ) ;
#598 = FILL_AREA_STYLE ('',( #599 ) ) ;
#599 = FILL_AREA_STYLE_COLOUR ( '', #600 ) ;
#600 = COLOUR_RGB ( '',0.7960784313725489700, 0.8235294117647058400, 0.9372549019607843100 ) ;
#601 = SHELL_BASED_SURFACE_MODEL ( 'NONE', ( #192 ) );
#602 = DIRECTION ( 'NONE',  ( -0.5773502691896208500, 0.5773502691896281700, -0.5773502691896281700 ) ) ;
#603 = VECTOR ( 'NONE', #602, 1000.000000000000100 ) ;
#604 = CARTESIAN_POINT ( 'NONE',  ( -14.90571909584179100, -7.452859547920896300, -2.515719095841794300 ) ) ;
#605 = LINE ( 'NONE', #604, #603 ) ;
#606 = CARTESIAN_POINT ( 'NONE',  ( -14.85857864376269100, -7.499999999999996400, -2.468578643762694200 ) ) ;
#607 = DIRECTION ( 'NONE',  ( 0.0000000000000000000, -0.7071067811865474600, -0.7071067811865474600 ) ) ;
#608 = DIRECTION ( 'NONE',  ( 0.0000000000000000000, -0.7071067811865475700, 0.7071067811865475700 ) ) ;
#609 = CARTESIAN_POINT ( 'NONE',  ( -15.00000000000000000, 7.500000000000000000, -2.468578643762688900 ) ) ;
#610 = AXIS2_PLACEMENT_3D ( 'NONE', #609, #608, #607 ) ;
#611 = PLANE ( 'NONE',  #610 ) ;
#612 =( GEOMETRIC_REPRESENTATION_CONTEXT ( 3 ) GLOBAL_UNCERTAINTY_ASSIGNED_CONTEXT ( ( #613 ) ) GLOBAL_UNIT_ASSIGNED_CONTEXT ( ( #616, #615, #614 ) ) REPRESENTATION_CONTEXT ( 'NONE', 'WORKASPACE' ) );
#613 = UNCERTAINTY_MEASURE_WITH_UNIT (LENGTH_MEASURE( 1.000000000000000100E-005 ), #616, 'distance_accuracy_value', 'NONE');
#614 =( NAMED_UNIT ( * ) SI_UNIT ( $, .STERADIAN. ) SOLID_ANGLE_UNIT ( ) );
#615 =( NAMED_UNIT ( * ) PLANE_ANGLE_UNIT ( ) SI_UNIT ( $, .RADIAN. ) );
#616 =( LENGTH_UNIT ( ) NAMED_UNIT ( * ) SI_UNIT ( .MILLI., .METRE. ) );
#617 =( NAMED_UNIT ( * ) PLANE_ANGLE_UNIT ( ) SI_UNIT ( $, .RADIAN. ) );
#618 =( LENGTH_UNIT ( ) NAMED_UNIT ( * ) SI_UNIT ( .MILLI., .METRE. ) );
#619 = MECHANICAL_DESIGN_GEOMETRIC_PRESENTATION_REPRESENTATION (  '', ( #621 ), #671 ) ;
#620 = PRESENTATION_LAYER_ASSIGNMENT (  '', '', ( #621 ) ) ;
#621 = STYLED_ITEM ( 'NONE', ( #622 ), #314 ) ;
#622 = PRESENTATION_STYLE_ASSIGNMENT (( #623 ) ) ;
#623 = SURFACE_STYLE_USAGE ( .BOTH. , #624 ) ;
#624 = SURFACE_SIDE_STYLE ('',( #625 ) ) ;
#625 = SURFACE_STYLE_FILL_AREA ( #626 ) ;
#626 = FILL_AREA_STYLE ('',( #546 ) ) ;
#627 = COLOUR_RGB ( '',0.7529411764705882200, 0.7529411764705882200, 0.7529411764705882200 ) ;
#628 = FACE_OUTER_BOUND ( 'NONE', #264, .T. ) ;
#629 = DIRECTION ( 'NONE',  ( -0.0000000000000000000, 1.301042606982605300E-016, -1.000000000000000000 ) ) ;
#630 = DIRECTION ( 'NONE',  ( 0.0000000000000000000, -0.0000000000000000000, -1.000000000000000000 ) ) ;
#631 = DIRECTION ( 'NONE',  ( 0.0000000000000000000, -1.000000000000000000, 0.0000000000000000000 ) ) ;
#632 = CARTESIAN_POINT ( 'NONE',  ( 15.00000000000000000, 7.500000000000000000, -0.6120227592384094300 ) ) ;
#633 = AXIS2_PLACEMENT_3D ( 'NONE', #632, #631, #630 ) ;
#634 = LINE ( 'NONE', #584, #583 ) ;
#635 = CARTESIAN_POINT ( 'NONE',  ( 14.85857864376268900, 7.500000000000000900, -2.468578643762685800 ) ) ;
#636 = PLANE ( 'NONE',  #633 ) ;
#637 =( GEOMETRIC_REPRESENTATION_CONTEXT ( 3 ) GLOBAL_UNCERTAINTY_ASSIGNED_CONTEXT ( ( #638 ) ) GLOBAL_UNIT_ASSIGNED_CONTEXT ( ( #644, #643, #639 ) ) REPRESENTATION_CONTEXT ( 'NONE', 'WORKASPACE' ) );
#638 = UNCERTAINTY_MEASURE_WITH_UNIT (LENGTH_MEASURE( 1.000000000000000100E-005 ), #644, 'distance_accuracy_value', 'NONE');
#639 =( NAMED_UNIT ( * ) SI_UNIT ( $, .STERADIAN. ) SOLID_ANGLE_UNIT ( ) );
#640 = DIRECTION ( 'NONE',  ( 0.0000000000000000000, 0.0000000000000000000, -1.000000000000000000 ) ) ;
#641 = DIRECTION ( 'NONE',  ( 1.000000000000000000, 0.0000000000000000000, 0.0000000000000000000 ) ) ;
#642 = CARTESIAN_POINT ( 'NONE',  ( -15.00000000000000000, 0.0000000000000000000, -7.730000000000001300 ) ) ;
#643 =( NAMED_UNIT ( * ) PLANE_ANGLE_UNIT ( ) SI_UNIT ( $, .RADIAN. ) );
#644 =( LENGTH_UNIT ( ) NAMED_UNIT ( * ) SI_UNIT ( .MILLI., .METRE. ) );
#645 = MECHANICAL_DESIGN_GEOMETRIC_PRESENTATION_REPRESENTATION (  '', ( #647 ), #637 ) ;
#646 = PRESENTATION_LAYER_ASSIGNMENT (  '', '', ( #647 ) ) ;
#647 = STYLED_ITEM ( 'NONE', ( #648 ), #236 ) ;
#648 = PRESENTATION_STYLE_ASSIGNMENT (( #649 ) ) ;
#649 = SURFACE_STYLE_USAGE ( .BOTH. , #650 ) ;
#650 = SURFACE_SIDE_STYLE ('',( #651 ) ) ;
#651 = SURFACE_STYLE_FILL_AREA ( #652 ) ;
#652 = FILL_AREA_STYLE ('',( #659 ) ) ;
#653 = COLOUR_RGB ( '',0.7529411764705882200, 0.7529411764705882200, 0.7529411764705882200 ) ;
#654 = FACE_OUTER_BOUND ( 'NONE', #237, .T. ) ;
#655 = DIRECTION ( 'NONE',  ( 0.5773502691896210700, -0.5773502691896280600, -0.5773502691896280600 ) ) ;
#656 = VECTOR ( 'NONE', #655, 1000.000000000000200 ) ;
#657 = CARTESIAN_POINT ( 'NONE',  ( 4.905719095841955200, 17.45285954792085500, 7.484280904158167900 ) ) ;
#658 = LINE ( 'NONE', #657, #656 ) ;
#659 = FILL_AREA_STYLE_COLOUR ( '', #653 ) ;
#660 = MANIFOLD_SURFACE_SHAPE_REPRESENTATION ( '5660-E0W', ( #601, #260 ), #661 ) ;
#661 =( GEOMETRIC_REPRESENTATION_CONTEXT ( 3 ) GLOBAL_UNCERTAINTY_ASSIGNED_CONTEXT ( ( #662 ) ) GLOBAL_UNIT_ASSIGNED_CONTEXT ( ( #665, #664, #663 ) ) REPRESENTATION_CONTEXT ( 'NONE', 'WORKASPACE' ) );
#662 = UNCERTAINTY_MEASURE_WITH_UNIT (LENGTH_MEASURE( 1.000000000000000100E-005 ), #665, 'distance_accuracy_value', 'NONE');
#663 =( NAMED_UNIT ( * ) SI_UNIT ( $, .STERADIAN. ) SOLID_ANGLE_UNIT ( ) );
#664 =( NAMED_UNIT ( * ) PLANE_ANGLE_UNIT ( ) SI_UNIT ( $, .RADIAN. ) );
#665 =( LENGTH_UNIT ( ) NAMED_UNIT ( * ) SI_UNIT ( .MILLI., .METRE. ) );
#666 = DIRECTION ( 'NONE',  ( 0.0000000000000000000, -1.000000000000000000, -1.156482317317871500E-016 ) ) ;
#667 = DIRECTION ( 'NONE',  ( 0.0000000000000000000, -1.156482317317871500E-016, 1.000000000000000000 ) ) ;
#668 = CARTESIAN_POINT ( 'NONE',  ( 15.00000000000000000, 7.500000000000000000, -2.609999999999998500 ) ) ;
#669 = AXIS2_PLACEMENT_3D ( 'NONE', #668, #667, #666 ) ;
#670 = PLANE ( 'NONE',  #669 ) ;
#671 =( GEOMETRIC_REPRESENTATION_CONTEXT ( 3 ) GLOBAL_UNCERTAINTY_ASSIGNED_CONTEXT ( ( #672 ) ) GLOBAL_UNIT_ASSIGNED_CONTEXT ( ( #618, #617, #673 ) ) REPRESENTATION_CONTEXT ( 'NONE', 'WORKASPACE' ) );
#672 = UNCERTAINTY_MEASURE_WITH_UNIT (LENGTH_MEASURE( 1.000000000000000100E-005 ), #618, 'distance_accuracy_value', 'NONE');
#673 =( NAMED_UNIT ( * ) SI_UNIT ( $, .STERADIAN. ) SOLID_ANGLE_UNIT ( ) );
#674 = MECHANICAL_DESIGN_GEOMETRIC_PRESENTATION_REPRESENTATION (  '', ( #676 ), #612 ) ;
#675 = PRESENTATION_LAYER_ASSIGNMENT (  '', '', ( #676 ) ) ;
#676 = STYLED_ITEM ( 'NONE', ( #677 ), #177 ) ;
#677 = PRESENTATION_STYLE_ASSIGNMENT (( #678 ) ) ;
#678 = SURFACE_STYLE_USAGE ( .BOTH. , #679 ) ;
#679 = SURFACE_SIDE_STYLE ('',( #680 ) ) ;
#680 = SURFACE_STYLE_FILL_AREA ( #681 ) ;
#681 = FILL_AREA_STYLE ('',( #514 ) ) ;
#682 = COLOUR_RGB ( '',0.7529411764705882200, 0.7529411764705882200, 0.7529411764705882200 ) ;
#683 = FACE_OUTER_BOUND ( 'NONE', #254, .T. ) ;
#684 = DIRECTION ( 'NONE',  ( 1.000000000000000000, -0.0000000000000000000, -0.0000000000000000000 ) ) ;
#685 = VECTOR ( 'NONE', #684, 1000.000000000000000 ) ;
#686 = CARTESIAN_POINT ( 'NONE',  ( -15.00000000000000000, 7.358578643762689900, -2.609999999999998500 ) ) ;
#687 = UNCERTAINTY_MEASURE_WITH_UNIT (LENGTH_MEASURE( 1.000000000000000100E-005 ), #690, 'distance_accuracy_value', 'NONE');
#688 =( NAMED_UNIT ( * ) SI_UNIT ( $, .STERADIAN. ) SOLID_ANGLE_UNIT ( ) );
#689 =( NAMED_UNIT ( * ) PLANE_ANGLE_UNIT ( ) SI_UNIT ( $, .RADIAN. ) );
#690 =( LENGTH_UNIT ( ) NAMED_UNIT ( * ) SI_UNIT ( .MILLI., .METRE. ) );
#691 = MECHANICAL_DESIGN_GEOMETRIC_PRESENTATION_REPRESENTATION (  '', ( #693 ), #556 ) ;
#692 = PRESENTATION_LAYER_ASSIGNMENT (  '', '', ( #693 ) ) ;
#693 = STYLED_ITEM ( 'NONE', ( #694 ), #293 ) ;
#694 = PRESENTATION_STYLE_ASSIGNMENT (( #695 ) ) ;
#695 = SURFACE_STYLE_USAGE ( .BOTH. , #696 ) ;
#696 = SURFACE_SIDE_STYLE ('',( #697 ) ) ;
#697 = SURFACE_STYLE_FILL_AREA ( #698 ) ;
#698 = FILL_AREA_STYLE ('',( #561 ) ) ;
#699 = COLOUR_RGB ( '',0.7529411764705882200, 0.7529411764705882200, 0.7529411764705882200 ) ;
#700 = FACE_OUTER_BOUND ( 'NONE', #262, .T. ) ;
#701 = DIRECTION ( 'NONE',  ( -0.0000000000000000000, 1.301042606982605300E-016, -1.000000000000000000 ) ) ;
#702 = DIRECTION ( 'NONE',  ( 1.000000000000000000, -0.0000000000000000000, -0.0000000000000000000 ) ) ;
#703 = VECTOR ( 'NONE', #702, 1000.000000000000000 ) ;
#704 = CARTESIAN_POINT ( 'NONE',  ( -15.00000000000000000, 7.500000000000000000, -2.468578643762688900 ) ) ;
#705 = LINE ( 'NONE', #704, #703 ) ;
#706 = PRODUCT ( '5660-E0W', '5660-E0W', '', ( #707 ) ) ;
#707 = PRODUCT_CONTEXT ( 'NONE', #712, 'mechanical' ) ;
#708 = APPLICATION_PROTOCOL_DEFINITION ( 'draft international standard', 'automotive_design', 1998, #712 ) ;
#709 = PRODUCT_DEFINITION_SHAPE ( 'NONE', 'NONE',  #714 ) ;
#710 = PRODUCT_RELATED_PRODUCT_CATEGORY ( 'part', '', ( #706 ) ) ;
#711 = SHAPE_DEFINITION_REPRESENTATION ( #709, #660 ) ;
#712 = APPLICATION_CONTEXT ( 'automotive_design' ) ;
#713 = PRODUCT_DEFINITION_FORMATION_WITH_SPECIFIED_SOURCE ( 'ANY', '', #706, .NOT_KNOWN. ) ;
#714 = PRODUCT_DEFINITION ( 'UNKNOWN', '', #713, #715 ) ;
#715 = PRODUCT_DEFINITION_CONTEXT ( 'detailed design', #717, 'design' ) ;
#716 = APPLICATION_PROTOCOL_DEFINITION ( 'draft international standard', 'automotive_design', 1998, #717 ) ;
#717 = APPLICATION_CONTEXT ( 'automotive_design' ) ;
ENDSEC;
END-ISO-10303-21;
