ISO-10303-21;
HEADER;
FILE_DESCRIPTION (( 'STEP AP214' ),
    '1' );
FILE_NAME ('5737-E0W.STEP',
    '2010-04-23T13:36:49',
    ( 'Admin' ),
    ( 'Thorlabs, Inc.' ),
    'SwSTEP 2.0',
    'SolidWorks 2009',
    '' );
FILE_SCHEMA (( 'AUTOMOTIVE_DESIGN' ));
ENDSEC;

DATA;
#1 = EDGE_LOOP ( 'NONE', ( #72, #71, #13, #9, #23, #11 ) ) ;
#2 = EDGE_CURVE ( 'NONE', #56, #78, #137, .T. ) ;
#3 = ORIENTED_EDGE ( 'NONE', *, *, #73, .F. ) ;
#4 = ORIENTED_EDGE ( 'NONE', *, *, #73, .T. ) ;
#5 = EDGE_LOOP ( 'NONE', ( #18, #35, #28, #29 ) ) ;
#6 = VERTEX_POINT ( 'NONE', #118 ) ;
#7 = EDGE_LOOP ( 'NONE', ( #4, #30, #219, #133, #231, #233 ) ) ;
#8 = EDGE_CURVE ( 'NONE', #75, #26, #116, .T. ) ;
#9 = ORIENTED_EDGE ( 'NONE', *, *, #14, .T. ) ;
#10 = ADVANCED_FACE ( 'NONE', ( #112 ), #94, .F. ) ;
#11 = ORIENTED_EDGE ( 'NONE', *, *, #207, .T. ) ;
#12 = VERTEX_POINT ( 'NONE', #323 ) ;
#13 = ORIENTED_EDGE ( 'NONE', *, *, #77, .T. ) ;
#14 = EDGE_CURVE ( 'NONE', #45, #12, #322, .T. ) ;
#15 = ORIENTED_EDGE ( 'NONE', *, *, #2, .F. ) ;
#16 = EDGE_LOOP ( 'NONE', ( #22, #20, #15, #24, #17 ) ) ;
#17 = ORIENTED_EDGE ( 'NONE', *, *, #184, .F. ) ;
#18 = ORIENTED_EDGE ( 'NONE', *, *, #8, .T. ) ;
#19 = EDGE_CURVE ( 'NONE', #12, #206, #317, .T. ) ;
#20 = ORIENTED_EDGE ( 'NONE', *, *, #81, .F. ) ;
#21 = ADVANCED_FACE ( 'NONE', ( #313 ), #294, .F. ) ;
#22 = ORIENTED_EDGE ( 'NONE', *, *, #85, .T. ) ;
#23 = ORIENTED_EDGE ( 'NONE', *, *, #19, .T. ) ;
#24 = ORIENTED_EDGE ( 'NONE', *, *, #65, .F. ) ;
#25 = ADVANCED_FACE ( 'NONE', ( #292 ), #270, .F. ) ;
#26 = VERTEX_POINT ( 'NONE', #265 ) ;
#27 = EDGE_CURVE ( 'NONE', #12, #26, #264, .T. ) ;
#28 = ORIENTED_EDGE ( 'NONE', *, *, #14, .F. ) ;
#29 = ORIENTED_EDGE ( 'NONE', *, *, #69, .T. ) ;
#30 = ORIENTED_EDGE ( 'NONE', *, *, #31, .T. ) ;
#31 = EDGE_CURVE ( 'NONE', #42, #6, #260, .T. ) ;
#32 = EDGE_CURVE ( 'NONE', #210, #132, #256, .T. ) ;
#33 = ORIENTED_EDGE ( 'NONE', *, *, #131, .F. ) ;
#34 = ORIENTED_EDGE ( 'NONE', *, *, #54, .T. ) ;
#35 = ORIENTED_EDGE ( 'NONE', *, *, #27, .F. ) ;
#36 = ORIENTED_EDGE ( 'NONE', *, *, #32, .T. ) ;
#37 = ORIENTED_EDGE ( 'NONE', *, *, #212, .T. ) ;
#38 = EDGE_LOOP ( 'NONE', ( #37, #36, #33, #34, #228 ) ) ;
#39 = ORIENTED_EDGE ( 'NONE', *, *, #89, .F. ) ;
#40 = ADVANCED_FACE ( 'NONE', ( #251 ), #176, .F. ) ;
#41 = ORIENTED_EDGE ( 'NONE', *, *, #88, .T. ) ;
#42 = VERTEX_POINT ( 'NONE', #175 ) ;
#43 = EDGE_CURVE ( 'NONE', #79, #83, #170, .T. ) ;
#44 = EDGE_LOOP ( 'NONE', ( #76, #80, #86, #41, #3, #70 ) ) ;
#45 = VERTEX_POINT ( 'NONE', #166 ) ;
#46 = ORIENTED_EDGE ( 'NONE', *, *, #85, .F. ) ;
#47 = ORIENTED_EDGE ( 'NONE', *, *, #43, .T. ) ;
#48 = ORIENTED_EDGE ( 'NONE', *, *, #59, .T. ) ;
#49 = VERTEX_POINT ( 'NONE', #165 ) ;
#50 = ADVANCED_FACE ( 'NONE', ( #164 ), #380, .T. ) ;
#51 = EDGE_LOOP ( 'NONE', ( #67, #53, #60, #68, #48, #82 ) ) ;
#52 = ORIENTED_EDGE ( 'NONE', *, *, #186, .T. ) ;
#53 = ORIENTED_EDGE ( 'NONE', *, *, #54, .F. ) ;
#54 = EDGE_CURVE ( 'NONE', #49, #182, #385, .T. ) ;
#55 = ORIENTED_EDGE ( 'NONE', *, *, #195, .F. ) ;
#56 = VERTEX_POINT ( 'NONE', #375 ) ;
#57 = EDGE_CURVE ( 'NONE', #63, #58, #374, .T. ) ;
#58 = VERTEX_POINT ( 'NONE', #475 ) ;
#59 = EDGE_CURVE ( 'NONE', #58, #79, #474, .T. ) ;
#60 = ORIENTED_EDGE ( 'NONE', *, *, #62, .T. ) ;
#61 = EDGE_CURVE ( 'NONE', #56, #141, #396, .T. ) ;
#62 = EDGE_CURVE ( 'NONE', #49, #63, #390, .T. ) ;
#63 = VERTEX_POINT ( 'NONE', #392 ) ;
#64 = ORIENTED_EDGE ( 'NONE', *, *, #65, .T. ) ;
#65 = EDGE_CURVE ( 'NONE', #193, #56, #391, .T. ) ;
#66 = ORIENTED_EDGE ( 'NONE', *, *, #61, .T. ) ;
#67 = ORIENTED_EDGE ( 'NONE', *, *, #144, .F. ) ;
#68 = ORIENTED_EDGE ( 'NONE', *, *, #57, .T. ) ;
#69 = EDGE_CURVE ( 'NONE', #45, #75, #523, .T. ) ;
#70 = ORIENTED_EDGE ( 'NONE', *, *, #69, .F. ) ;
#71 = ORIENTED_EDGE ( 'NONE', *, *, #2, .T. ) ;
#72 = ORIENTED_EDGE ( 'NONE', *, *, #61, .F. ) ;
#73 = EDGE_CURVE ( 'NONE', #75, #42, #519, .T. ) ;
#74 = ADVANCED_FACE ( 'NONE', ( #514 ), #359, .F. ) ;
#75 = VERTEX_POINT ( 'NONE', #354 ) ;
#76 = ORIENTED_EDGE ( 'NONE', *, *, #77, .F. ) ;
#77 = EDGE_CURVE ( 'NONE', #78, #45, #353, .T. ) ;
#78 = VERTEX_POINT ( 'NONE', #349 ) ;
#79 = VERTEX_POINT ( 'NONE', #348 ) ;
#80 = ORIENTED_EDGE ( 'NONE', *, *, #81, .T. ) ;
#81 = EDGE_CURVE ( 'NONE', #78, #90, #347, .T. ) ;
#82 = ORIENTED_EDGE ( 'NONE', *, *, #89, .T. ) ;
#83 = VERTEX_POINT ( 'NONE', #343 ) ;
#84 = EDGE_LOOP ( 'NONE', ( #91, #46, #93, #39, #47 ) ) ;
#85 = EDGE_CURVE ( 'NONE', #192, #90, #341, .T. ) ;
#86 = ORIENTED_EDGE ( 'NONE', *, *, #92, .T. ) ;
#87 = ADVANCED_FACE ( 'NONE', ( #337 ), #465, .F. ) ;
#88 = EDGE_CURVE ( 'NONE', #83, #42, #370, .T. ) ;
#89 = EDGE_CURVE ( 'NONE', #79, #189, #366, .T. ) ;
#90 = VERTEX_POINT ( 'NONE', #361 ) ;
#91 = ORIENTED_EDGE ( 'NONE', *, *, #92, .F. ) ;
#92 = EDGE_CURVE ( 'NONE', #90, #83, #460, .T. ) ;
#93 = ORIENTED_EDGE ( 'NONE', *, *, #191, .F. ) ;
#94 = PLANE ( 'NONE',  #327 ) ;
#95 =( GEOMETRIC_REPRESENTATION_CONTEXT ( 3 ) GLOBAL_UNCERTAINTY_ASSIGNED_CONTEXT ( ( #96 ) ) GLOBAL_UNIT_ASSIGNED_CONTEXT ( ( #99, #98, #97 ) ) REPRESENTATION_CONTEXT ( 'NONE', 'WORKASPACE' ) );
#96 = UNCERTAINTY_MEASURE_WITH_UNIT (LENGTH_MEASURE( 1.000000000000000100E-005 ), #99, 'distance_accuracy_value', 'NONE');
#97 =( NAMED_UNIT ( * ) SI_UNIT ( $, .STERADIAN. ) SOLID_ANGLE_UNIT ( ) );
#98 =( NAMED_UNIT ( * ) PLANE_ANGLE_UNIT ( ) SI_UNIT ( $, .RADIAN. ) );
#99 =( CONVERSION_BASED_UNIT ( 'INCH', #100 ) LENGTH_UNIT ( ) NAMED_UNIT ( #101 ) );
#100 = LENGTH_MEASURE_WITH_UNIT ( LENGTH_MEASURE( 0.02539999999999999900 ), #102 );
#101 = DIMENSIONAL_EXPONENTS ( 1.000000000000000000, 0.0000000000000000000, 0.0000000000000000000, 0.0000000000000000000, 0.0000000000000000000, 0.0000000000000000000, 0.0000000000000000000 ) ;
#102 =( LENGTH_UNIT ( ) NAMED_UNIT ( * ) SI_UNIT ( $, .METRE. ) );
#103 = MECHANICAL_DESIGN_GEOMETRIC_PRESENTATION_REPRESENTATION (  '', ( #105 ), #95 ) ;
#104 = PRESENTATION_LAYER_ASSIGNMENT (  '', '', ( #105 ) ) ;
#105 = STYLED_ITEM ( 'NONE', ( #106 ), #10 ) ;
#106 = PRESENTATION_STYLE_ASSIGNMENT (( #107 ) ) ;
#107 = SURFACE_STYLE_USAGE ( .BOTH. , #108 ) ;
#108 = SURFACE_SIDE_STYLE ('',( #109 ) ) ;
#109 = SURFACE_STYLE_FILL_AREA ( #110 ) ;
#110 = FILL_AREA_STYLE ('',( #117 ) ) ;
#111 = COLOUR_RGB ( '',0.7529411764705882200, 0.7529411764705882200, 0.7529411764705882200 ) ;
#112 = FACE_OUTER_BOUND ( 'NONE', #16, .T. ) ;
#113 = DIRECTION ( 'NONE',  ( 1.000000000000000000, -0.0000000000000000000, -0.0000000000000000000 ) ) ;
#114 = VECTOR ( 'NONE', #113, 39.37007874015748100 ) ;
#115 = CARTESIAN_POINT ( 'NONE',  ( -0.2362204724409449100, 0.1912826237701846200, -0.05137795275590548900 ) ) ;
#116 = LINE ( 'NONE', #115, #114 ) ;
#117 = FILL_AREA_STYLE_COLOUR ( '', #111 ) ;
#118 = CARTESIAN_POINT ( 'NONE',  ( -0.2306527025103421400, 0.1968503937007873800, -0.04581018282530274800 ) ) ;
#119 = DIRECTION ( 'NONE',  ( -0.5773502691896265100, 0.5773502691896266200, -0.5773502691896240700 ) ) ;
#120 = EDGE_LOOP ( 'NONE', ( #238, #239, #220, #221 ) ) ;
#121 = ORIENTED_EDGE ( 'NONE', *, *, #122, .F. ) ;
#122 = EDGE_CURVE ( 'NONE', #218, #132, #455, .T. ) ;
#123 = ORIENTED_EDGE ( 'NONE', *, *, #232, .F. ) ;
#124 = ORIENTED_EDGE ( 'NONE', *, *, #122, .T. ) ;
#125 = OPEN_SHELL ( 'NONE', ( #145, #140, #214, #50, #87, #40, #74, #10, #21, #25, #234, #237, #128, #127, #229 ) ) ;
#126 = ORIENTED_EDGE ( 'NONE', *, *, #59, .F. ) ;
#127 = ADVANCED_FACE ( 'NONE', ( #451 ), #431, .T. ) ;
#128 = ADVANCED_FACE ( 'NONE', ( #493 ), #476, .F. ) ;
#129 = EDGE_LOOP ( 'NONE', ( #130, #121, #298, #200, #201 ) ) ;
#130 = ORIENTED_EDGE ( 'NONE', *, *, #131, .T. ) ;
#131 = EDGE_CURVE ( 'NONE', #49, #132, #426, .T. ) ;
#132 = VERTEX_POINT ( 'NONE', #422 ) ;
#133 = ORIENTED_EDGE ( 'NONE', *, *, #134, .T. ) ;
#134 = EDGE_CURVE ( 'NONE', #217, #218, #421, .T. ) ;
#135 = VECTOR ( 'NONE', #119, 39.37007874015748900 ) ;
#136 = CARTESIAN_POINT ( 'NONE',  ( -0.2325086258205430500, -0.1949944703905864600, -0.04766610613550373300 ) ) ;
#137 = LINE ( 'NONE', #136, #135 ) ;
#138 = ORIENTED_EDGE ( 'NONE', *, *, #139, .T. ) ;
#139 = EDGE_CURVE ( 'NONE', #187, #142, #416, .T. ) ;
#140 = ADVANCED_FACE ( 'NONE', ( #415 ), #590, .F. ) ;
#141 = VERTEX_POINT ( 'NONE', #585 ) ;
#142 = VERTEX_POINT ( 'NONE', #584 ) ;
#143 = ORIENTED_EDGE ( 'NONE', *, *, #144, .T. ) ;
#144 = EDGE_CURVE ( 'NONE', #182, #189, #582, .T. ) ;
#145 = ADVANCED_FACE ( 'NONE', ( #578 ), #723, .T. ) ;
#146 =( GEOMETRIC_REPRESENTATION_CONTEXT ( 3 ) GLOBAL_UNCERTAINTY_ASSIGNED_CONTEXT ( ( #147 ) ) GLOBAL_UNIT_ASSIGNED_CONTEXT ( ( #150, #149, #148 ) ) REPRESENTATION_CONTEXT ( 'NONE', 'WORKASPACE' ) );
#147 = UNCERTAINTY_MEASURE_WITH_UNIT (LENGTH_MEASURE( 1.000000000000000100E-005 ), #150, 'distance_accuracy_value', 'NONE');
#148 =( NAMED_UNIT ( * ) SI_UNIT ( $, .STERADIAN. ) SOLID_ANGLE_UNIT ( ) );
#149 =( NAMED_UNIT ( * ) PLANE_ANGLE_UNIT ( ) SI_UNIT ( $, .RADIAN. ) );
#150 =( CONVERSION_BASED_UNIT ( 'INCH', #151 ) LENGTH_UNIT ( ) NAMED_UNIT ( #152 ) );
#151 = LENGTH_MEASURE_WITH_UNIT ( LENGTH_MEASURE( 0.02539999999999999900 ), #153 );
#152 = DIMENSIONAL_EXPONENTS ( 1.000000000000000000, 0.0000000000000000000, 0.0000000000000000000, 0.0000000000000000000, 0.0000000000000000000, 0.0000000000000000000, 0.0000000000000000000 ) ;
#153 =( LENGTH_UNIT ( ) NAMED_UNIT ( * ) SI_UNIT ( $, .METRE. ) );
#154 = MECHANICAL_DESIGN_GEOMETRIC_PRESENTATION_REPRESENTATION (  '', ( #156 ), #146 ) ;
#155 = PRESENTATION_LAYER_ASSIGNMENT (  '', '', ( #156 ) ) ;
#156 = STYLED_ITEM ( 'NONE', ( #157 ), #50 ) ;
#157 = PRESENTATION_STYLE_ASSIGNMENT (( #158 ) ) ;
#158 = SURFACE_STYLE_USAGE ( .BOTH. , #159 ) ;
#159 = SURFACE_SIDE_STYLE ('',( #160 ) ) ;
#160 = SURFACE_STYLE_FILL_AREA ( #161 ) ;
#161 = FILL_AREA_STYLE ('',( #162 ) ) ;
#162 = FILL_AREA_STYLE_COLOUR ( '', #163 ) ;
#163 = COLOUR_RGB ( '',0.7529411764705882200, 0.7529411764705882200, 0.7529411764705882200 ) ;
#164 = FACE_OUTER_BOUND ( 'NONE', #51, .T. ) ;
#165 = CARTESIAN_POINT ( 'NONE',  ( 0.2362204724409449100, 0.1912826237701846200, 0.02857761412525260800 ) ) ;
#166 = CARTESIAN_POINT ( 'NONE',  ( -0.2306527025103421400, -0.1912826237701846200, -0.05137795275590553000 ) ) ;
#167 = DIRECTION ( 'NONE',  ( -0.0000000000000000000, 1.301042606982605300E-016, -1.000000000000000000 ) ) ;
#168 = VECTOR ( 'NONE', #167, 39.37007874015748100 ) ;
#169 = CARTESIAN_POINT ( 'NONE',  ( -0.2362204724409449100, 0.1912826237701846200, 0.05137795275590558600 ) ) ;
#170 = LINE ( 'NONE', #169, #168 ) ;
#171 = DIRECTION ( 'NONE',  ( 0.7071067811865474600, 0.0000000000000000000, -0.7071067811865474600 ) ) ;
#172 = DIRECTION ( 'NONE',  ( 0.7071067811865475700, 0.0000000000000000000, 0.7071067811865475700 ) ) ;
#173 = CARTESIAN_POINT ( 'NONE',  ( -0.2306527025103421400, -0.1968503937007873800, -0.05137795275590541900 ) ) ;
#174 = AXIS2_PLACEMENT_3D ( 'NONE', #173, #172, #171 ) ;
#175 = CARTESIAN_POINT ( 'NONE',  ( -0.2334365874756434400, 0.1940665087354860300, -0.04859406779060408000 ) ) ;
#176 = PLANE ( 'NONE',  #174 ) ;
#177 =( GEOMETRIC_REPRESENTATION_CONTEXT ( 3 ) GLOBAL_UNCERTAINTY_ASSIGNED_CONTEXT ( ( #178 ) ) GLOBAL_UNIT_ASSIGNED_CONTEXT ( ( #198, #197, #196 ) ) REPRESENTATION_CONTEXT ( 'NONE', 'WORKASPACE' ) );
#178 = UNCERTAINTY_MEASURE_WITH_UNIT (LENGTH_MEASURE( 1.000000000000000100E-005 ), #198, 'distance_accuracy_value', 'NONE');
#179 = EDGE_LOOP ( 'NONE', ( #180, #143, #190, #183, #185, #138 ) ) ;
#180 = ORIENTED_EDGE ( 'NONE', *, *, #181, .F. ) ;
#181 = EDGE_CURVE ( 'NONE', #182, #142, #722, .T. ) ;
#182 = VERTEX_POINT ( 'NONE', #713 ) ;
#183 = ORIENTED_EDGE ( 'NONE', *, *, #184, .T. ) ;
#184 = EDGE_CURVE ( 'NONE', #192, #193, #712, .T. ) ;
#185 = ORIENTED_EDGE ( 'NONE', *, *, #186, .F. ) ;
#186 = EDGE_CURVE ( 'NONE', #187, #193, #683, .T. ) ;
#187 = VERTEX_POINT ( 'NONE', #679 ) ;
#188 = EDGE_LOOP ( 'NONE', ( #194, #205, #208, #211, #213 ) ) ;
#189 = VERTEX_POINT ( 'NONE', #678 ) ;
#190 = ORIENTED_EDGE ( 'NONE', *, *, #191, .T. ) ;
#191 = EDGE_CURVE ( 'NONE', #189, #192, #676, .T. ) ;
#192 = VERTEX_POINT ( 'NONE', #677 ) ;
#193 = VERTEX_POINT ( 'NONE', #671 ) ;
#194 = ORIENTED_EDGE ( 'NONE', *, *, #195, .T. ) ;
#195 = EDGE_CURVE ( 'NONE', #187, #141, #670, .T. ) ;
#196 =( NAMED_UNIT ( * ) SI_UNIT ( $, .STERADIAN. ) SOLID_ANGLE_UNIT ( ) );
#197 =( NAMED_UNIT ( * ) PLANE_ANGLE_UNIT ( ) SI_UNIT ( $, .RADIAN. ) );
#198 =( CONVERSION_BASED_UNIT ( 'INCH', #199 ) LENGTH_UNIT ( ) NAMED_UNIT ( #240 ) );
#199 = LENGTH_MEASURE_WITH_UNIT ( LENGTH_MEASURE( 0.02539999999999999900 ), #241 );
#200 = ORIENTED_EDGE ( 'NONE', *, *, #222, .F. ) ;
#201 = ORIENTED_EDGE ( 'NONE', *, *, #62, .F. ) ;
#202 = ORIENTED_EDGE ( 'NONE', *, *, #31, .F. ) ;
#203 = ORIENTED_EDGE ( 'NONE', *, *, #88, .F. ) ;
#204 = ORIENTED_EDGE ( 'NONE', *, *, #43, .F. ) ;
#205 = ORIENTED_EDGE ( 'NONE', *, *, #207, .F. ) ;
#206 = VERTEX_POINT ( 'NONE', #666 ) ;
#207 = EDGE_CURVE ( 'NONE', #206, #141, #665, .T. ) ;
#208 = ORIENTED_EDGE ( 'NONE', *, *, #209, .F. ) ;
#209 = EDGE_CURVE ( 'NONE', #210, #206, #627, .T. ) ;
#210 = VERTEX_POINT ( 'NONE', #623 ) ;
#211 = ORIENTED_EDGE ( 'NONE', *, *, #212, .F. ) ;
#212 = EDGE_CURVE ( 'NONE', #142, #210, #621, .T. ) ;
#213 = ORIENTED_EDGE ( 'NONE', *, *, #139, .F. ) ;
#214 = ADVANCED_FACE ( 'NONE', ( #617 ), #547, .F. ) ;
#215 = EDGE_LOOP ( 'NONE', ( #52, #64, #66, #55 ) ) ;
#216 = EDGE_CURVE ( 'NONE', #6, #217, #542, .T. ) ;
#217 = VERTEX_POINT ( 'NONE', #538 ) ;
#218 = VERTEX_POINT ( 'NONE', #537 ) ;
#219 = ORIENTED_EDGE ( 'NONE', *, *, #216, .T. ) ;
#220 = ORIENTED_EDGE ( 'NONE', *, *, #57, .F. ) ;
#221 = ORIENTED_EDGE ( 'NONE', *, *, #222, .T. ) ;
#222 = EDGE_CURVE ( 'NONE', #63, #217, #536, .T. ) ;
#223 = ORIENTED_EDGE ( 'NONE', *, *, #32, .F. ) ;
#224 = ORIENTED_EDGE ( 'NONE', *, *, #209, .T. ) ;
#225 = ORIENTED_EDGE ( 'NONE', *, *, #19, .F. ) ;
#226 = ORIENTED_EDGE ( 'NONE', *, *, #27, .T. ) ;
#227 = EDGE_CURVE ( 'NONE', #58, #6, #531, .T. ) ;
#228 = ORIENTED_EDGE ( 'NONE', *, *, #181, .T. ) ;
#229 = ADVANCED_FACE ( 'NONE', ( #707 ), #568, .F. ) ;
#230 = EDGE_LOOP ( 'NONE', ( #223, #224, #225, #226, #123, #124 ) ) ;
#231 = ORIENTED_EDGE ( 'NONE', *, *, #232, .T. ) ;
#232 = EDGE_CURVE ( 'NONE', #218, #26, #657, .T. ) ;
#233 = ORIENTED_EDGE ( 'NONE', *, *, #8, .F. ) ;
#234 = ADVANCED_FACE ( 'NONE', ( #653 ), #635, .F. ) ;
#235 = EDGE_LOOP ( 'NONE', ( #236, #202, #203, #204, #126 ) ) ;
#236 = ORIENTED_EDGE ( 'NONE', *, *, #227, .T. ) ;
#237 = ADVANCED_FACE ( 'NONE', ( #633 ), #557, .F. ) ;
#238 = ORIENTED_EDGE ( 'NONE', *, *, #216, .F. ) ;
#239 = ORIENTED_EDGE ( 'NONE', *, *, #227, .F. ) ;
#240 = DIMENSIONAL_EXPONENTS ( 1.000000000000000000, 0.0000000000000000000, 0.0000000000000000000, 0.0000000000000000000, 0.0000000000000000000, 0.0000000000000000000, 0.0000000000000000000 ) ;
#241 =( LENGTH_UNIT ( ) NAMED_UNIT ( * ) SI_UNIT ( $, .METRE. ) );
#242 = MECHANICAL_DESIGN_GEOMETRIC_PRESENTATION_REPRESENTATION (  '', ( #244 ), #177 ) ;
#243 = PRESENTATION_LAYER_ASSIGNMENT (  '', '', ( #244 ) ) ;
#244 = STYLED_ITEM ( 'NONE', ( #245 ), #40 ) ;
#245 = PRESENTATION_STYLE_ASSIGNMENT (( #246 ) ) ;
#246 = SURFACE_STYLE_USAGE ( .BOTH. , #247 ) ;
#247 = SURFACE_SIDE_STYLE ('',( #248 ) ) ;
#248 = SURFACE_STYLE_FILL_AREA ( #249 ) ;
#249 = FILL_AREA_STYLE ('',( #255 ) ) ;
#250 = COLOUR_RGB ( '',0.7529411764705882200, 0.7529411764705882200, 0.7529411764705882200 ) ;
#251 = FACE_OUTER_BOUND ( 'NONE', #44, .T. ) ;
#252 = DIRECTION ( 'NONE',  ( -0.0000000000000000000, 1.000000000000000000, -0.0000000000000000000 ) ) ;
#253 = VECTOR ( 'NONE', #252, 39.37007874015748100 ) ;
#254 = CARTESIAN_POINT ( 'NONE',  ( 0.2362204724409449100, -0.1968503937007873800, -0.04581018282530273400 ) ) ;
#255 = FILL_AREA_STYLE_COLOUR ( '', #250 ) ;
#256 = LINE ( 'NONE', #254, #253 ) ;
#257 = DIRECTION ( 'NONE',  ( 0.5773502691896264000, 0.5773502691896262900, 0.5773502691896245100 ) ) ;
#258 = VECTOR ( 'NONE', #257, 39.37007874015748900 ) ;
#259 = CARTESIAN_POINT ( 'NONE',  ( -0.2325086258205430700, 0.1949944703905864600, -0.04766610613550367100 ) ) ;
#260 = LINE ( 'NONE', #259, #258 ) ;
#261 = DIRECTION ( 'NONE',  ( -0.0000000000000000000, 1.000000000000000000, -0.0000000000000000000 ) ) ;
#262 = VECTOR ( 'NONE', #261, 39.37007874015748100 ) ;
#263 = CARTESIAN_POINT ( 'NONE',  ( 0.2306527025103421400, -0.1968503937007873800, -0.05137795275590547500 ) ) ;
#264 = LINE ( 'NONE', #263, #262 ) ;
#265 = CARTESIAN_POINT ( 'NONE',  ( 0.2306527025103421400, 0.1912826237701846200, -0.05137795275590546800 ) ) ;
#266 = DIRECTION ( 'NONE',  ( 0.0000000000000000000, -0.7071067811865486800, -0.7071067811865464600 ) ) ;
#267 = DIRECTION ( 'NONE',  ( 0.0000000000000000000, -0.7071067811865464600, 0.7071067811865486800 ) ) ;
#268 = CARTESIAN_POINT ( 'NONE',  ( -0.2362204724409449100, 0.1968503937007873800, -0.04581018282530276200 ) ) ;
#269 = AXIS2_PLACEMENT_3D ( 'NONE', #268, #267, #266 ) ;
#270 = PLANE ( 'NONE',  #269 ) ;
#271 =( GEOMETRIC_REPRESENTATION_CONTEXT ( 3 ) GLOBAL_UNCERTAINTY_ASSIGNED_CONTEXT ( ( #272 ) ) GLOBAL_UNIT_ASSIGNED_CONTEXT ( ( #275, #274, #273 ) ) REPRESENTATION_CONTEXT ( 'NONE', 'WORKASPACE' ) );
#272 = UNCERTAINTY_MEASURE_WITH_UNIT (LENGTH_MEASURE( 1.000000000000000100E-005 ), #275, 'distance_accuracy_value', 'NONE');
#273 =( NAMED_UNIT ( * ) SI_UNIT ( $, .STERADIAN. ) SOLID_ANGLE_UNIT ( ) );
#274 =( NAMED_UNIT ( * ) PLANE_ANGLE_UNIT ( ) SI_UNIT ( $, .RADIAN. ) );
#275 =( CONVERSION_BASED_UNIT ( 'INCH', #276 ) LENGTH_UNIT ( ) NAMED_UNIT ( #277 ) );
#276 = LENGTH_MEASURE_WITH_UNIT ( LENGTH_MEASURE( 0.02539999999999999900 ), #278 );
#277 = DIMENSIONAL_EXPONENTS ( 1.000000000000000000, 0.0000000000000000000, 0.0000000000000000000, 0.0000000000000000000, 0.0000000000000000000, 0.0000000000000000000, 0.0000000000000000000 ) ;
#278 =( LENGTH_UNIT ( ) NAMED_UNIT ( * ) SI_UNIT ( $, .METRE. ) );
#279 = MECHANICAL_DESIGN_GEOMETRIC_PRESENTATION_REPRESENTATION (  '', ( #281 ), #271 ) ;
#280 = PRESENTATION_LAYER_ASSIGNMENT (  '', '', ( #281 ) ) ;
#281 = STYLED_ITEM ( 'NONE', ( #282 ), #25 ) ;
#282 = PRESENTATION_STYLE_ASSIGNMENT (( #283 ) ) ;
#283 = SURFACE_STYLE_USAGE ( .BOTH. , #284 ) ;
#284 = SURFACE_SIDE_STYLE ('',( #285 ) ) ;
#285 = SURFACE_STYLE_FILL_AREA ( #286 ) ;
#286 = FILL_AREA_STYLE ('',( #293 ) ) ;
#287 = COLOUR_RGB ( '',0.7529411764705882200, 0.7529411764705882200, 0.7529411764705882200 ) ;
#288 = DIRECTION ( 'NONE',  ( 0.0000000000000000000, -1.000000000000000000, -1.301042606982605600E-016 ) ) ;
#289 = DIRECTION ( 'NONE',  ( 0.0000000000000000000, -1.301042606982605600E-016, 1.000000000000000000 ) ) ;
#290 = CARTESIAN_POINT ( 'NONE',  ( 0.2362204724409449100, 0.1968503937007873800, -0.05137795275590548900 ) ) ;
#291 = AXIS2_PLACEMENT_3D ( 'NONE', #290, #289, #288 ) ;
#292 = FACE_OUTER_BOUND ( 'NONE', #7, .T. ) ;
#293 = FILL_AREA_STYLE_COLOUR ( '', #287 ) ;
#294 = PLANE ( 'NONE',  #291 ) ;
#295 =( GEOMETRIC_REPRESENTATION_CONTEXT ( 3 ) GLOBAL_UNCERTAINTY_ASSIGNED_CONTEXT ( ( #296 ) ) GLOBAL_UNIT_ASSIGNED_CONTEXT ( ( #300, #299, #297 ) ) REPRESENTATION_CONTEXT ( 'NONE', 'WORKASPACE' ) );
#296 = UNCERTAINTY_MEASURE_WITH_UNIT (LENGTH_MEASURE( 1.000000000000000100E-005 ), #300, 'distance_accuracy_value', 'NONE');
#297 =( NAMED_UNIT ( * ) SI_UNIT ( $, .STERADIAN. ) SOLID_ANGLE_UNIT ( ) );
#298 = ORIENTED_EDGE ( 'NONE', *, *, #134, .F. ) ;
#299 =( NAMED_UNIT ( * ) PLANE_ANGLE_UNIT ( ) SI_UNIT ( $, .RADIAN. ) );
#300 =( CONVERSION_BASED_UNIT ( 'INCH', #301 ) LENGTH_UNIT ( ) NAMED_UNIT ( #302 ) );
#301 = LENGTH_MEASURE_WITH_UNIT ( LENGTH_MEASURE( 0.02539999999999999900 ), #303 );
#302 = DIMENSIONAL_EXPONENTS ( 1.000000000000000000, 0.0000000000000000000, 0.0000000000000000000, 0.0000000000000000000, 0.0000000000000000000, 0.0000000000000000000, 0.0000000000000000000 ) ;
#303 =( LENGTH_UNIT ( ) NAMED_UNIT ( * ) SI_UNIT ( $, .METRE. ) );
#304 = MECHANICAL_DESIGN_GEOMETRIC_PRESENTATION_REPRESENTATION (  '', ( #306 ), #295 ) ;
#305 = PRESENTATION_LAYER_ASSIGNMENT (  '', '', ( #306 ) ) ;
#306 = STYLED_ITEM ( 'NONE', ( #307 ), #21 ) ;
#307 = PRESENTATION_STYLE_ASSIGNMENT (( #308 ) ) ;
#308 = SURFACE_STYLE_USAGE ( .BOTH. , #309 ) ;
#309 = SURFACE_SIDE_STYLE ('',( #310 ) ) ;
#310 = SURFACE_STYLE_FILL_AREA ( #311 ) ;
#311 = FILL_AREA_STYLE ('',( #318 ) ) ;
#312 = COLOUR_RGB ( '',0.7529411764705882200, 0.7529411764705882200, 0.7529411764705882200 ) ;
#313 = FACE_OUTER_BOUND ( 'NONE', #5, .T. ) ;
#314 = DIRECTION ( 'NONE',  ( 0.5773502691896249500, -0.5773502691896275100, 0.5773502691896249500 ) ) ;
#315 = VECTOR ( 'NONE', #314, 39.37007874015748100 ) ;
#316 = CARTESIAN_POINT ( 'NONE',  ( 0.07874015748031537600, -0.03937007874015724400, -0.2032904977859322500 ) ) ;
#317 = LINE ( 'NONE', #316, #315 ) ;
#318 = FILL_AREA_STYLE_COLOUR ( '', #312 ) ;
#319 = DIRECTION ( 'NONE',  ( 1.000000000000000000, -0.0000000000000000000, -0.0000000000000000000 ) ) ;
#320 = VECTOR ( 'NONE', #319, 39.37007874015748100 ) ;
#321 = CARTESIAN_POINT ( 'NONE',  ( -0.2362204724409449100, -0.1912826237701846200, -0.05137795275590553000 ) ) ;
#322 = LINE ( 'NONE', #321, #320 ) ;
#323 = CARTESIAN_POINT ( 'NONE',  ( 0.2306527025103421400, -0.1912826237701847300, -0.05137795275590546100 ) ) ;
#324 = DIRECTION ( 'NONE',  ( -0.7071067811865474600, 0.7071067811865474600, 0.0000000000000000000 ) ) ;
#325 = DIRECTION ( 'NONE',  ( 0.7071067811865475700, 0.7071067811865475700, 9.199760500100244800E-017 ) ) ;
#326 = CARTESIAN_POINT ( 'NONE',  ( -0.2362204724409449300, -0.1912826237701845700, 0.05137795275590553700 ) ) ;
#327 = AXIS2_PLACEMENT_3D ( 'NONE', #326, #325, #324 ) ;
#328 = MECHANICAL_DESIGN_GEOMETRIC_PRESENTATION_REPRESENTATION (  '', ( #330 ), #466 ) ;
#329 = PRESENTATION_LAYER_ASSIGNMENT (  '', '', ( #330 ) ) ;
#330 = STYLED_ITEM ( 'NONE', ( #331 ), #87 ) ;
#331 = PRESENTATION_STYLE_ASSIGNMENT (( #332 ) ) ;
#332 = SURFACE_STYLE_USAGE ( .BOTH. , #333 ) ;
#333 = SURFACE_SIDE_STYLE ('',( #334 ) ) ;
#334 = SURFACE_STYLE_FILL_AREA ( #335 ) ;
#335 = FILL_AREA_STYLE ('',( #342 ) ) ;
#336 = COLOUR_RGB ( '',0.7529411764705882200, 0.7529411764705882200, 0.7529411764705882200 ) ;
#337 = FACE_OUTER_BOUND ( 'NONE', #84, .T. ) ;
#338 = DIRECTION ( 'NONE',  ( -0.0000000000000000000, 1.301042606982605300E-016, -1.000000000000000000 ) ) ;
#339 = VECTOR ( 'NONE', #338, 39.37007874015748100 ) ;
#340 = CARTESIAN_POINT ( 'NONE',  ( -0.2362204724409449300, -0.1912826237701845700, 0.05137795275590553700 ) ) ;
#341 = LINE ( 'NONE', #340, #339 ) ;
#342 = FILL_AREA_STYLE_COLOUR ( '', #336 ) ;
#343 = CARTESIAN_POINT ( 'NONE',  ( -0.2362204724409449100, 0.1912826237701846200, -0.04581018282530267100 ) ) ;
#344 = DIRECTION ( 'NONE',  ( -0.5773502691896257300, 0.5773502691896256200, 0.5773502691896257300 ) ) ;
#345 = VECTOR ( 'NONE', #344, 39.37007874015748900 ) ;
#346 = CARTESIAN_POINT ( 'NONE',  ( -0.2306527025103421400, -0.1968503937007873300, -0.05137795275590543300 ) ) ;
#347 = LINE ( 'NONE', #346, #345 ) ;
#348 = CARTESIAN_POINT ( 'NONE',  ( -0.2362204724409449100, 0.1912826237701846200, 0.02857761412525260800 ) ) ;
#349 = CARTESIAN_POINT ( 'NONE',  ( -0.2334365874756434400, -0.1940665087354860300, -0.04859406779060412900 ) ) ;
#350 = DIRECTION ( 'NONE',  ( 0.5773502691896249500, 0.5773502691896275100, -0.5773502691896249500 ) ) ;
#351 = VECTOR ( 'NONE', #350, 39.37007874015748100 ) ;
#352 = CARTESIAN_POINT ( 'NONE',  ( -0.2362204724409448000, -0.1968503937007874100, -0.04581018282530276800 ) ) ;
#353 = LINE ( 'NONE', #352, #351 ) ;
#354 = CARTESIAN_POINT ( 'NONE',  ( -0.2306527025103421400, 0.1912826237701847100, -0.05137795275590541900 ) ) ;
#355 = DIRECTION ( 'NONE',  ( 0.0000000000000000000, -0.7071067811865490200, 0.7071067811865459100 ) ) ;
#356 = DIRECTION ( 'NONE',  ( 0.0000000000000000000, 0.7071067811865460200, 0.7071067811865491300 ) ) ;
#357 = CARTESIAN_POINT ( 'NONE',  ( -0.2362204724409449100, -0.1968503937007873800, -0.04581018282530281000 ) ) ;
#358 = AXIS2_PLACEMENT_3D ( 'NONE', #357, #356, #355 ) ;
#359 = PLANE ( 'NONE',  #358 ) ;
#360 =( GEOMETRIC_REPRESENTATION_CONTEXT ( 3 ) GLOBAL_UNCERTAINTY_ASSIGNED_CONTEXT ( ( #498 ) ) GLOBAL_UNIT_ASSIGNED_CONTEXT ( ( #501, #500, #499 ) ) REPRESENTATION_CONTEXT ( 'NONE', 'WORKASPACE' ) );
#361 = CARTESIAN_POINT ( 'NONE',  ( -0.2362204724409449100, -0.1912826237701845700, -0.04581018282530267100 ) ) ;
#362 = DIRECTION ( 'NONE',  ( 0.0000000000000000000, 0.0000000000000000000, -1.000000000000000000 ) ) ;
#363 = DIRECTION ( 'NONE',  ( 1.000000000000000000, 0.0000000000000000000, 0.0000000000000000000 ) ) ;
#364 = CARTESIAN_POINT ( 'NONE',  ( -0.2362204724409449100, 0.0000000000000000000, -0.7624015748031496300 ) ) ;
#365 = AXIS2_PLACEMENT_3D ( 'NONE', #364, #363, #362 ) ;
#366 = CIRCLE ( 'NONE', #365, 0.8137795275590551400 ) ;
#367 = DIRECTION ( 'NONE',  ( 0.5773502691896257300, 0.5773502691896257300, -0.5773502691896257300 ) ) ;
#368 = VECTOR ( 'NONE', #367, 39.37007874015748100 ) ;
#369 = CARTESIAN_POINT ( 'NONE',  ( -0.3618862983108670500, 0.06561679790026245200, 0.07985564304461949300 ) ) ;
#370 = LINE ( 'NONE', #369, #368 ) ;
#371 = DIRECTION ( 'NONE',  ( -1.000000000000000000, -0.0000000000000000000, -0.0000000000000000000 ) ) ;
#372 = VECTOR ( 'NONE', #371, 39.37007874015748100 ) ;
#373 = CARTESIAN_POINT ( 'NONE',  ( 0.2362204724409449100, 0.1968503937007873800, 0.02721038177684289400 ) ) ;
#374 = LINE ( 'NONE', #373, #372 ) ;
#375 = CARTESIAN_POINT ( 'NONE',  ( -0.2306527025103421700, -0.1968503937007873000, -0.04581018282530288600 ) ) ;
#376 = CARTESIAN_POINT ( 'NONE',  ( 0.2362204724409449100, 0.0000000000000000000, -0.7624015748031496300 ) ) ;
#377 = DIRECTION ( 'NONE',  ( 0.0000000000000000000, 0.0000000000000000000, 1.000000000000000000 ) ) ;
#378 = DIRECTION ( 'NONE',  ( -1.000000000000000000, -0.0000000000000000000, -0.0000000000000000000 ) ) ;
#379 = AXIS2_PLACEMENT_3D ( 'NONE', #376, #378, #377 ) ;
#380 = CYLINDRICAL_SURFACE ( 'NONE', #379, 0.8137795275590551400 ) ;
#381 = DIRECTION ( 'NONE',  ( 0.0000000000000000000, 0.0000000000000000000, -1.000000000000000000 ) ) ;
#382 = DIRECTION ( 'NONE',  ( 1.000000000000000000, 0.0000000000000000000, 0.0000000000000000000 ) ) ;
#383 = CARTESIAN_POINT ( 'NONE',  ( 0.2362204724409449100, 0.0000000000000000000, -0.7624015748031496300 ) ) ;
#384 = AXIS2_PLACEMENT_3D ( 'NONE', #383, #382, #381 ) ;
#385 = CIRCLE ( 'NONE', #384, 0.8137795275590551400 ) ;
#386 = CARTESIAN_POINT ( 'NONE',  ( 0.2306527025103421400, 0.1968503937007873800, 0.02721038177684289400 ) ) ;
#387 = CARTESIAN_POINT ( 'NONE',  ( 0.2325070165873116300, 0.1949960796238179300, 0.02767266258839172800 ) ) ;
#388 = CARTESIAN_POINT ( 'NONE',  ( 0.2343629475739550900, 0.1931401486371744900, 0.02812840858957040000 ) ) ;
#389 = CARTESIAN_POINT ( 'NONE',  ( 0.2362204724409449100, 0.1912826237701846200, 0.02857761412525260800 ) ) ;
#390 =( BOUNDED_CURVE ( )  B_SPLINE_CURVE ( 3, ( #389, #388, #387, #386 ),
 .UNSPECIFIED., .F., .T. ) 
 B_SPLINE_CURVE_WITH_KNOTS ( ( 4, 4 ),
 ( 4.949663725041829400, 4.956708870039825900 ),
 .UNSPECIFIED. ) 
 CURVE ( )  GEOMETRIC_REPRESENTATION_ITEM ( )  RATIONAL_B_SPLINE_CURVE ( ( 1.000000000000000000, 0.9999958638319400600, 0.9999958638319400600, 1.000000000000000000 ) ) 
 REPRESENTATION_ITEM ( '' )  );
#391 = LINE ( 'NONE', #526, #525 ) ;
#392 = CARTESIAN_POINT ( 'NONE',  ( 0.2306527025103421400, 0.1968503937007873800, 0.02721038177684289400 ) ) ;
#393 = DIRECTION ( 'NONE',  ( 1.000000000000000000, -0.0000000000000000000, -0.0000000000000000000 ) ) ;
#394 = VECTOR ( 'NONE', #393, 39.37007874015748100 ) ;
#395 = CARTESIAN_POINT ( 'NONE',  ( -0.2362204724409449100, -0.1968503937007873800, -0.04581018282530281000 ) ) ;
#396 = LINE ( 'NONE', #395, #394 ) ;
#397 = CARTESIAN_POINT ( 'NONE',  ( -0.2362204724409449100, 0.1912826237701846200, 0.02857761412525260800 ) ) ;
#398 = CARTESIAN_POINT ( 'NONE',  ( -0.2343629475739548200, 0.1931401486371747400, 0.02812840858957026100 ) ) ;
#399 = CARTESIAN_POINT ( 'NONE',  ( -0.2325070165873113500, 0.1949960796238182100, 0.02767266258839172800 ) ) ;
#400 = CARTESIAN_POINT ( 'NONE',  ( -0.2306527025103421400, 0.1968503937007873800, 0.02721038177684289400 ) ) ;
#401 =( LENGTH_UNIT ( ) NAMED_UNIT ( * ) SI_UNIT ( $, .METRE. ) );
#402 = MECHANICAL_DESIGN_GEOMETRIC_PRESENTATION_REPRESENTATION (  '', ( #404 ), #591 ) ;
#403 = PRESENTATION_LAYER_ASSIGNMENT (  '', '', ( #404 ) ) ;
#404 = STYLED_ITEM ( 'NONE', ( #405 ), #140 ) ;
#405 = PRESENTATION_STYLE_ASSIGNMENT (( #406 ) ) ;
#406 = SURFACE_STYLE_USAGE ( .BOTH. , #407 ) ;
#407 = SURFACE_SIDE_STYLE ('',( #408 ) ) ;
#408 = SURFACE_STYLE_FILL_AREA ( #409 ) ;
#409 = FILL_AREA_STYLE ('',( #417 ) ) ;
#410 = CARTESIAN_POINT ( 'NONE',  ( 0.2362204724409449300, -0.1912826237701845700, 0.02857761412525261200 ) ) ;
#411 = CARTESIAN_POINT ( 'NONE',  ( 0.2343629475739550400, -0.1931401486371744400, 0.02812840858957041000 ) ) ;
#412 = CARTESIAN_POINT ( 'NONE',  ( 0.2325070165873116300, -0.1949960796238178800, 0.02767266258839171800 ) ) ;
#413 = CARTESIAN_POINT ( 'NONE',  ( 0.2306527025103421700, -0.1968503937007873000, 0.02721038177684289400 ) ) ;
#414 = COLOUR_RGB ( '',0.7529411764705882200, 0.7529411764705882200, 0.7529411764705882200 ) ;
#415 = FACE_OUTER_BOUND ( 'NONE', #188, .T. ) ;
#416 =( BOUNDED_CURVE ( )  B_SPLINE_CURVE ( 3, ( #413, #412, #411, #410 ),
 .UNSPECIFIED., .F., .T. ) 
 B_SPLINE_CURVE_WITH_KNOTS ( ( 4, 4 ),
 ( 1.326476437139761000, 1.333521582137757300 ),
 .UNSPECIFIED. ) 
 CURVE ( )  GEOMETRIC_REPRESENTATION_ITEM ( )  RATIONAL_B_SPLINE_CURVE ( ( 1.000000000000000000, 0.9999958638319400600, 0.9999958638319400600, 1.000000000000000000 ) ) 
 REPRESENTATION_ITEM ( '' )  );
#417 = FILL_AREA_STYLE_COLOUR ( '', #414 ) ;
#418 = DIRECTION ( 'NONE',  ( 0.5773502691896264000, -0.5773502691896262900, -0.5773502691896245100 ) ) ;
#419 = VECTOR ( 'NONE', #418, 39.37007874015748900 ) ;
#420 = CARTESIAN_POINT ( 'NONE',  ( 0.07502831085991279500, 0.3524747853512167400, 0.1098142088251261000 ) ) ;
#421 = LINE ( 'NONE', #420, #419 ) ;
#422 = CARTESIAN_POINT ( 'NONE',  ( 0.2362204724409449100, 0.1912826237701846200, -0.04581018282530273400 ) ) ;
#423 = DIRECTION ( 'NONE',  ( -0.0000000000000000000, 1.301042606982605300E-016, -1.000000000000000000 ) ) ;
#424 = VECTOR ( 'NONE', #423, 39.37007874015748100 ) ;
#425 = CARTESIAN_POINT ( 'NONE',  ( 0.2362204724409449100, 0.1912826237701846200, 0.05137795275590558600 ) ) ;
#426 = LINE ( 'NONE', #425, #424 ) ;
#427 = DIRECTION ( 'NONE',  ( 0.7071067811865474600, -0.7071067811865474600, 0.0000000000000000000 ) ) ;
#428 = DIRECTION ( 'NONE',  ( -0.7071067811865475700, -0.7071067811865475700, -9.199760500100244800E-017 ) ) ;
#429 = CARTESIAN_POINT ( 'NONE',  ( 0.2362204724409449100, 0.1912826237701846200, 0.05137795275590558600 ) ) ;
#430 = AXIS2_PLACEMENT_3D ( 'NONE', #429, #428, #427 ) ;
#431 = PLANE ( 'NONE',  #433 ) ;
#432 = CARTESIAN_POINT ( 'NONE',  ( 0.2362204724409449100, 0.0000000000000000000, -0.7624015748031496300 ) ) ;
#433 = AXIS2_PLACEMENT_3D ( 'NONE', #432, #495, #494 ) ;
#434 =( GEOMETRIC_REPRESENTATION_CONTEXT ( 3 ) GLOBAL_UNCERTAINTY_ASSIGNED_CONTEXT ( ( #435 ) ) GLOBAL_UNIT_ASSIGNED_CONTEXT ( ( #438, #437, #436 ) ) REPRESENTATION_CONTEXT ( 'NONE', 'WORKASPACE' ) );
#435 = UNCERTAINTY_MEASURE_WITH_UNIT (LENGTH_MEASURE( 1.000000000000000100E-005 ), #438, 'distance_accuracy_value', 'NONE');
#436 =( NAMED_UNIT ( * ) SI_UNIT ( $, .STERADIAN. ) SOLID_ANGLE_UNIT ( ) );
#437 =( NAMED_UNIT ( * ) PLANE_ANGLE_UNIT ( ) SI_UNIT ( $, .RADIAN. ) );
#438 =( CONVERSION_BASED_UNIT ( 'INCH', #439 ) LENGTH_UNIT ( ) NAMED_UNIT ( #440 ) );
#439 = LENGTH_MEASURE_WITH_UNIT ( LENGTH_MEASURE( 0.02539999999999999900 ), #441 );
#440 = DIMENSIONAL_EXPONENTS ( 1.000000000000000000, 0.0000000000000000000, 0.0000000000000000000, 0.0000000000000000000, 0.0000000000000000000, 0.0000000000000000000, 0.0000000000000000000 ) ;
#441 =( LENGTH_UNIT ( ) NAMED_UNIT ( * ) SI_UNIT ( $, .METRE. ) );
#442 = MECHANICAL_DESIGN_GEOMETRIC_PRESENTATION_REPRESENTATION (  '', ( #444 ), #434 ) ;
#443 = PRESENTATION_LAYER_ASSIGNMENT (  '', '', ( #444 ) ) ;
#444 = STYLED_ITEM ( 'NONE', ( #445 ), #127 ) ;
#445 = PRESENTATION_STYLE_ASSIGNMENT (( #446 ) ) ;
#446 = SURFACE_STYLE_USAGE ( .BOTH. , #447 ) ;
#447 = SURFACE_SIDE_STYLE ('',( #448 ) ) ;
#448 = SURFACE_STYLE_FILL_AREA ( #449 ) ;
#449 = FILL_AREA_STYLE ('',( #456 ) ) ;
#450 = COLOUR_RGB ( '',0.7529411764705882200, 0.7529411764705882200, 0.7529411764705882200 ) ;
#451 = FACE_OUTER_BOUND ( 'NONE', #38, .T. ) ;
#452 = DIRECTION ( 'NONE',  ( 0.5773502691896257300, -0.5773502691896257300, 0.5773502691896257300 ) ) ;
#453 = VECTOR ( 'NONE', #452, 39.37007874015748100 ) ;
#454 = CARTESIAN_POINT ( 'NONE',  ( 0.3618862983108670500, 0.06561679790026245200, 0.07985564304461943700 ) ) ;
#455 = LINE ( 'NONE', #454, #453 ) ;
#456 = FILL_AREA_STYLE_COLOUR ( '', #450 ) ;
#457 = DIRECTION ( 'NONE',  ( -0.0000000000000000000, 1.000000000000000000, -0.0000000000000000000 ) ) ;
#458 = VECTOR ( 'NONE', #457, 39.37007874015748100 ) ;
#459 = CARTESIAN_POINT ( 'NONE',  ( -0.2362204724409449100, -0.1968503937007873800, -0.04581018282530267100 ) ) ;
#460 = LINE ( 'NONE', #459, #458 ) ;
#461 = DIRECTION ( 'NONE',  ( 0.0000000000000000000, 0.0000000000000000000, -1.000000000000000000 ) ) ;
#462 = DIRECTION ( 'NONE',  ( 1.000000000000000000, 0.0000000000000000000, 0.0000000000000000000 ) ) ;
#463 = CARTESIAN_POINT ( 'NONE',  ( -0.2362204724409449100, 0.0000000000000000000, -0.7624015748031496300 ) ) ;
#464 = AXIS2_PLACEMENT_3D ( 'NONE', #463, #462, #461 ) ;
#465 = PLANE ( 'NONE',  #464 ) ;
#466 =( GEOMETRIC_REPRESENTATION_CONTEXT ( 3 ) GLOBAL_UNCERTAINTY_ASSIGNED_CONTEXT ( ( #467 ) ) GLOBAL_UNIT_ASSIGNED_CONTEXT ( ( #470, #469, #468 ) ) REPRESENTATION_CONTEXT ( 'NONE', 'WORKASPACE' ) );
#467 = UNCERTAINTY_MEASURE_WITH_UNIT (LENGTH_MEASURE( 1.000000000000000100E-005 ), #470, 'distance_accuracy_value', 'NONE');
#468 =( NAMED_UNIT ( * ) SI_UNIT ( $, .STERADIAN. ) SOLID_ANGLE_UNIT ( ) );
#469 =( NAMED_UNIT ( * ) PLANE_ANGLE_UNIT ( ) SI_UNIT ( $, .RADIAN. ) );
#470 =( CONVERSION_BASED_UNIT ( 'INCH', #471 ) LENGTH_UNIT ( ) NAMED_UNIT ( #472 ) );
#471 = LENGTH_MEASURE_WITH_UNIT ( LENGTH_MEASURE( 0.02539999999999999900 ), #473 );
#472 = DIMENSIONAL_EXPONENTS ( 1.000000000000000000, 0.0000000000000000000, 0.0000000000000000000, 0.0000000000000000000, 0.0000000000000000000, 0.0000000000000000000, 0.0000000000000000000 ) ;
#473 =( LENGTH_UNIT ( ) NAMED_UNIT ( * ) SI_UNIT ( $, .METRE. ) );
#474 =( BOUNDED_CURVE ( )  B_SPLINE_CURVE ( 3, ( #400, #399, #398, #397 ),
 .UNSPECIFIED., .F., .T. ) 
 B_SPLINE_CURVE_WITH_KNOTS ( ( 4, 4 ),
 ( 4.468069090729553500, 4.475114235727550000 ),
 .UNSPECIFIED. ) 
 CURVE ( )  GEOMETRIC_REPRESENTATION_ITEM ( )  RATIONAL_B_SPLINE_CURVE ( ( 1.000000000000000000, 0.9999958638319400600, 0.9999958638319400600, 1.000000000000000000 ) ) 
 REPRESENTATION_ITEM ( '' )  );
#475 = CARTESIAN_POINT ( 'NONE',  ( -0.2306527025103421400, 0.1968503937007873800, 0.02721038177684289400 ) ) ;
#476 = PLANE ( 'NONE',  #430 ) ;
#477 =( GEOMETRIC_REPRESENTATION_CONTEXT ( 3 ) GLOBAL_UNCERTAINTY_ASSIGNED_CONTEXT ( ( #478 ) ) GLOBAL_UNIT_ASSIGNED_CONTEXT ( ( #481, #480, #479 ) ) REPRESENTATION_CONTEXT ( 'NONE', 'WORKASPACE' ) );
#478 = UNCERTAINTY_MEASURE_WITH_UNIT (LENGTH_MEASURE( 1.000000000000000100E-005 ), #481, 'distance_accuracy_value', 'NONE');
#479 =( NAMED_UNIT ( * ) SI_UNIT ( $, .STERADIAN. ) SOLID_ANGLE_UNIT ( ) );
#480 =( NAMED_UNIT ( * ) PLANE_ANGLE_UNIT ( ) SI_UNIT ( $, .RADIAN. ) );
#481 =( CONVERSION_BASED_UNIT ( 'INCH', #482 ) LENGTH_UNIT ( ) NAMED_UNIT ( #483 ) );
#482 = LENGTH_MEASURE_WITH_UNIT ( LENGTH_MEASURE( 0.02539999999999999900 ), #484 );
#483 = DIMENSIONAL_EXPONENTS ( 1.000000000000000000, 0.0000000000000000000, 0.0000000000000000000, 0.0000000000000000000, 0.0000000000000000000, 0.0000000000000000000, 0.0000000000000000000 ) ;
#484 =( LENGTH_UNIT ( ) NAMED_UNIT ( * ) SI_UNIT ( $, .METRE. ) );
#485 = MECHANICAL_DESIGN_GEOMETRIC_PRESENTATION_REPRESENTATION (  '', ( #487 ), #477 ) ;
#486 = PRESENTATION_LAYER_ASSIGNMENT (  '', '', ( #487 ) ) ;
#487 = STYLED_ITEM ( 'NONE', ( #488 ), #128 ) ;
#488 = PRESENTATION_STYLE_ASSIGNMENT (( #489 ) ) ;
#489 = SURFACE_STYLE_USAGE ( .BOTH. , #490 ) ;
#490 = SURFACE_SIDE_STYLE ('',( #491 ) ) ;
#491 = SURFACE_STYLE_FILL_AREA ( #496 ) ;
#492 = COLOUR_RGB ( '',0.7529411764705882200, 0.7529411764705882200, 0.7529411764705882200 ) ;
#493 = FACE_OUTER_BOUND ( 'NONE', #129, .T. ) ;
#494 = DIRECTION ( 'NONE',  ( 0.0000000000000000000, 0.0000000000000000000, -1.000000000000000000 ) ) ;
#495 = DIRECTION ( 'NONE',  ( 1.000000000000000000, 0.0000000000000000000, 0.0000000000000000000 ) ) ;
#496 = FILL_AREA_STYLE ('',( #497 ) ) ;
#497 = FILL_AREA_STYLE_COLOUR ( '', #492 ) ;
#498 = UNCERTAINTY_MEASURE_WITH_UNIT (LENGTH_MEASURE( 1.000000000000000100E-005 ), #501, 'distance_accuracy_value', 'NONE');
#499 =( NAMED_UNIT ( * ) SI_UNIT ( $, .STERADIAN. ) SOLID_ANGLE_UNIT ( ) );
#500 =( NAMED_UNIT ( * ) PLANE_ANGLE_UNIT ( ) SI_UNIT ( $, .RADIAN. ) );
#501 =( CONVERSION_BASED_UNIT ( 'INCH', #502 ) LENGTH_UNIT ( ) NAMED_UNIT ( #503 ) );
#502 = LENGTH_MEASURE_WITH_UNIT ( LENGTH_MEASURE( 0.02539999999999999900 ), #504 );
#503 = DIMENSIONAL_EXPONENTS ( 1.000000000000000000, 0.0000000000000000000, 0.0000000000000000000, 0.0000000000000000000, 0.0000000000000000000, 0.0000000000000000000, 0.0000000000000000000 ) ;
#504 =( LENGTH_UNIT ( ) NAMED_UNIT ( * ) SI_UNIT ( $, .METRE. ) );
#505 = MECHANICAL_DESIGN_GEOMETRIC_PRESENTATION_REPRESENTATION (  '', ( #507 ), #360 ) ;
#506 = PRESENTATION_LAYER_ASSIGNMENT (  '', '', ( #507 ) ) ;
#507 = STYLED_ITEM ( 'NONE', ( #508 ), #74 ) ;
#508 = PRESENTATION_STYLE_ASSIGNMENT (( #509 ) ) ;
#509 = SURFACE_STYLE_USAGE ( .BOTH. , #510 ) ;
#510 = SURFACE_SIDE_STYLE ('',( #511 ) ) ;
#511 = SURFACE_STYLE_FILL_AREA ( #512 ) ;
#512 = FILL_AREA_STYLE ('',( #518 ) ) ;
#513 = COLOUR_RGB ( '',0.7529411764705882200, 0.7529411764705882200, 0.7529411764705882200 ) ;
#514 = FACE_OUTER_BOUND ( 'NONE', #1, .T. ) ;
#515 = DIRECTION ( 'NONE',  ( -0.5773502691896251800, 0.5773502691896269500, 0.5773502691896251800 ) ) ;
#516 = VECTOR ( 'NONE', #515, 39.37007874015748100 ) ;
#517 = CARTESIAN_POINT ( 'NONE',  ( -0.2362204724409448200, 0.1968503937007874100, -0.04581018282530273400 ) ) ;
#518 = FILL_AREA_STYLE_COLOUR ( '', #513 ) ;
#519 = LINE ( 'NONE', #517, #516 ) ;
#520 = DIRECTION ( 'NONE',  ( -0.0000000000000000000, 1.000000000000000000, -0.0000000000000000000 ) ) ;
#521 = VECTOR ( 'NONE', #520, 39.37007874015748100 ) ;
#522 = CARTESIAN_POINT ( 'NONE',  ( -0.2306527025103421400, -0.1968503937007873800, -0.05137795275590541900 ) ) ;
#523 = LINE ( 'NONE', #522, #521 ) ;
#524 = DIRECTION ( 'NONE',  ( -0.0000000000000000000, 1.301042606982605300E-016, -1.000000000000000000 ) ) ;
#525 = VECTOR ( 'NONE', #524, 39.37007874015748100 ) ;
#526 = CARTESIAN_POINT ( 'NONE',  ( -0.2306527025103421700, -0.1968503937007873000, 0.05137795275590553700 ) ) ;
#527 = FILL_AREA_STYLE ('',( #532 ) ) ;
#528 = DIRECTION ( 'NONE',  ( -0.0000000000000000000, 1.301042606982605300E-016, -1.000000000000000000 ) ) ;
#529 = VECTOR ( 'NONE', #528, 39.37007874015748100 ) ;
#530 = CARTESIAN_POINT ( 'NONE',  ( -0.2306527025103421400, 0.1968503937007873800, 0.05137795275590558600 ) ) ;
#531 = LINE ( 'NONE', #530, #529 ) ;
#532 = FILL_AREA_STYLE_COLOUR ( '', #706 ) ;
#533 = DIRECTION ( 'NONE',  ( -0.0000000000000000000, 1.301042606982605300E-016, -1.000000000000000000 ) ) ;
#534 = VECTOR ( 'NONE', #533, 39.37007874015748100 ) ;
#535 = CARTESIAN_POINT ( 'NONE',  ( 0.2306527025103421400, 0.1968503937007873800, 0.05137795275590558600 ) ) ;
#536 = LINE ( 'NONE', #535, #534 ) ;
#537 = CARTESIAN_POINT ( 'NONE',  ( 0.2334365874756435300, 0.1940665087354860000, -0.04859406779060408000 ) ) ;
#538 = CARTESIAN_POINT ( 'NONE',  ( 0.2306527025103421400, 0.1968503937007873800, -0.04581018282530274800 ) ) ;
#539 = DIRECTION ( 'NONE',  ( 1.000000000000000000, -0.0000000000000000000, -0.0000000000000000000 ) ) ;
#540 = VECTOR ( 'NONE', #539, 39.37007874015748100 ) ;
#541 = CARTESIAN_POINT ( 'NONE',  ( -0.2362204724409449100, 0.1968503937007873800, -0.04581018282530276200 ) ) ;
#542 = LINE ( 'NONE', #541, #540 ) ;
#543 = DIRECTION ( 'NONE',  ( 0.0000000000000000000, -0.0000000000000000000, 1.000000000000000000 ) ) ;
#544 = DIRECTION ( 'NONE',  ( 0.0000000000000000000, 1.000000000000000000, 0.0000000000000000000 ) ) ;
#545 = CARTESIAN_POINT ( 'NONE',  ( 0.2362204724409449100, -0.1968503937007873800, -0.05137795275590553700 ) ) ;
#546 = AXIS2_PLACEMENT_3D ( 'NONE', #545, #544, #543 ) ;
#547 = PLANE ( 'NONE',  #546 ) ;
#548 =( GEOMETRIC_REPRESENTATION_CONTEXT ( 3 ) GLOBAL_UNCERTAINTY_ASSIGNED_CONTEXT ( ( #549 ) ) GLOBAL_UNIT_ASSIGNED_CONTEXT ( ( #552, #551, #550 ) ) REPRESENTATION_CONTEXT ( 'NONE', 'WORKASPACE' ) );
#549 = UNCERTAINTY_MEASURE_WITH_UNIT (LENGTH_MEASURE( 1.000000000000000100E-005 ), #552, 'distance_accuracy_value', 'NONE');
#550 =( NAMED_UNIT ( * ) SI_UNIT ( $, .STERADIAN. ) SOLID_ANGLE_UNIT ( ) );
#551 =( NAMED_UNIT ( * ) PLANE_ANGLE_UNIT ( ) SI_UNIT ( $, .RADIAN. ) );
#552 =( CONVERSION_BASED_UNIT ( 'INCH', #605 ) LENGTH_UNIT ( ) NAMED_UNIT ( #606 ) );
#553 = DIRECTION ( 'NONE',  ( 0.0000000000000000000, -0.0000000000000000000, -1.000000000000000000 ) ) ;
#554 = DIRECTION ( 'NONE',  ( 0.0000000000000000000, -1.000000000000000000, 0.0000000000000000000 ) ) ;
#555 = CARTESIAN_POINT ( 'NONE',  ( 0.2362204724409449100, 0.1968503937007873800, 0.02721038177684289400 ) ) ;
#556 = AXIS2_PLACEMENT_3D ( 'NONE', #555, #554, #553 ) ;
#557 = PLANE ( 'NONE',  #556 ) ;
#558 =( GEOMETRIC_REPRESENTATION_CONTEXT ( 3 ) GLOBAL_UNCERTAINTY_ASSIGNED_CONTEXT ( ( #559 ) ) GLOBAL_UNIT_ASSIGNED_CONTEXT ( ( #562, #561, #560 ) ) REPRESENTATION_CONTEXT ( 'NONE', 'WORKASPACE' ) );
#559 = UNCERTAINTY_MEASURE_WITH_UNIT (LENGTH_MEASURE( 1.000000000000000100E-005 ), #562, 'distance_accuracy_value', 'NONE');
#560 =( NAMED_UNIT ( * ) SI_UNIT ( $, .STERADIAN. ) SOLID_ANGLE_UNIT ( ) );
#561 =( NAMED_UNIT ( * ) PLANE_ANGLE_UNIT ( ) SI_UNIT ( $, .RADIAN. ) );
#562 =( CONVERSION_BASED_UNIT ( 'INCH', #563 ) LENGTH_UNIT ( ) NAMED_UNIT ( #592 ) );
#563 = LENGTH_MEASURE_WITH_UNIT ( LENGTH_MEASURE( 0.02539999999999999900 ), #593 );
#564 = DIRECTION ( 'NONE',  ( 0.7071067811865474600, 0.0000000000000000000, 0.7071067811865474600 ) ) ;
#565 = DIRECTION ( 'NONE',  ( -0.7071067811865475700, 0.0000000000000000000, 0.7071067811865475700 ) ) ;
#566 = CARTESIAN_POINT ( 'NONE',  ( 0.2306527025103421400, -0.1968503937007873800, -0.05137795275590547500 ) ) ;
#567 = AXIS2_PLACEMENT_3D ( 'NONE', #566, #565, #564 ) ;
#568 = PLANE ( 'NONE',  #567 ) ;
#569 =( GEOMETRIC_REPRESENTATION_CONTEXT ( 3 ) GLOBAL_UNCERTAINTY_ASSIGNED_CONTEXT ( ( #692 ) ) GLOBAL_UNIT_ASSIGNED_CONTEXT ( ( #695, #694, #693 ) ) REPRESENTATION_CONTEXT ( 'NONE', 'WORKASPACE' ) );
#570 = PRESENTATION_LAYER_ASSIGNMENT (  '', '', ( #571 ) ) ;
#571 = STYLED_ITEM ( 'NONE', ( #572 ), #145 ) ;
#572 = PRESENTATION_STYLE_ASSIGNMENT (( #573 ) ) ;
#573 = SURFACE_STYLE_USAGE ( .BOTH. , #574 ) ;
#574 = SURFACE_SIDE_STYLE ('',( #575 ) ) ;
#575 = SURFACE_STYLE_FILL_AREA ( #576 ) ;
#576 = FILL_AREA_STYLE ('',( #583 ) ) ;
#577 = COLOUR_RGB ( '',0.7529411764705882200, 0.7529411764705882200, 0.7529411764705882200 ) ;
#578 = FACE_OUTER_BOUND ( 'NONE', #179, .T. ) ;
#579 = DIRECTION ( 'NONE',  ( -1.000000000000000000, -0.0000000000000000000, -0.0000000000000000000 ) ) ;
#580 = VECTOR ( 'NONE', #579, 39.37007874015748100 ) ;
#581 = CARTESIAN_POINT ( 'NONE',  ( 0.2362204724409449100, 0.0000000000000000000, 0.05137795275590553700 ) ) ;
#582 = LINE ( 'NONE', #581, #580 ) ;
#583 = FILL_AREA_STYLE_COLOUR ( '', #577 ) ;
#584 = CARTESIAN_POINT ( 'NONE',  ( 0.2362204724409449300, -0.1912826237701845700, 0.02857761412525261200 ) ) ;
#585 = CARTESIAN_POINT ( 'NONE',  ( 0.2306527025103421700, -0.1968503937007873000, -0.04581018282530285200 ) ) ;
#586 = DIRECTION ( 'NONE',  ( -0.7071067811865474600, -0.7071067811865474600, 0.0000000000000000000 ) ) ;
#587 = DIRECTION ( 'NONE',  ( -0.7071067811865475700, 0.7071067811865475700, 9.199760500100244800E-017 ) ) ;
#588 = CARTESIAN_POINT ( 'NONE',  ( 0.2362204724409449300, -0.1912826237701845700, 0.05137795275590553700 ) ) ;
#589 = AXIS2_PLACEMENT_3D ( 'NONE', #588, #587, #586 ) ;
#590 = PLANE ( 'NONE',  #589 ) ;
#591 =( GEOMETRIC_REPRESENTATION_CONTEXT ( 3 ) GLOBAL_UNCERTAINTY_ASSIGNED_CONTEXT ( ( #660 ) ) GLOBAL_UNIT_ASSIGNED_CONTEXT ( ( #629, #628, #661 ) ) REPRESENTATION_CONTEXT ( 'NONE', 'WORKASPACE' ) );
#592 = DIMENSIONAL_EXPONENTS ( 1.000000000000000000, 0.0000000000000000000, 0.0000000000000000000, 0.0000000000000000000, 0.0000000000000000000, 0.0000000000000000000, 0.0000000000000000000 ) ;
#593 =( LENGTH_UNIT ( ) NAMED_UNIT ( * ) SI_UNIT ( $, .METRE. ) );
#594 = MECHANICAL_DESIGN_GEOMETRIC_PRESENTATION_REPRESENTATION (  '', ( #596 ), #558 ) ;
#595 = PRESENTATION_LAYER_ASSIGNMENT (  '', '', ( #596 ) ) ;
#596 = STYLED_ITEM ( 'NONE', ( #597 ), #237 ) ;
#597 = PRESENTATION_STYLE_ASSIGNMENT (( #598 ) ) ;
#598 = SURFACE_STYLE_USAGE ( .BOTH. , #599 ) ;
#599 = SURFACE_SIDE_STYLE ('',( #600 ) ) ;
#600 = SURFACE_STYLE_FILL_AREA ( #601 ) ;
#601 = FILL_AREA_STYLE ('',( #634 ) ) ;
#602 = COLOUR_RGB ( '',0.7529411764705882200, 0.7529411764705882200, 0.7529411764705882200 ) ;
#603 = DIRECTION ( 'NONE',  ( 0.7071067811865474600, 0.7071067811865474600, 0.0000000000000000000 ) ) ;
#604 = DIRECTION ( 'NONE',  ( 0.7071067811865475700, -0.7071067811865475700, -9.199760500100244800E-017 ) ) ;
#605 = LENGTH_MEASURE_WITH_UNIT ( LENGTH_MEASURE( 0.02539999999999999900 ), #607 );
#606 = DIMENSIONAL_EXPONENTS ( 1.000000000000000000, 0.0000000000000000000, 0.0000000000000000000, 0.0000000000000000000, 0.0000000000000000000, 0.0000000000000000000, 0.0000000000000000000 ) ;
#607 =( LENGTH_UNIT ( ) NAMED_UNIT ( * ) SI_UNIT ( $, .METRE. ) );
#608 = MECHANICAL_DESIGN_GEOMETRIC_PRESENTATION_REPRESENTATION (  '', ( #610 ), #548 ) ;
#609 = PRESENTATION_LAYER_ASSIGNMENT (  '', '', ( #610 ) ) ;
#610 = STYLED_ITEM ( 'NONE', ( #611 ), #214 ) ;
#611 = PRESENTATION_STYLE_ASSIGNMENT (( #612 ) ) ;
#612 = SURFACE_STYLE_USAGE ( .BOTH. , #613 ) ;
#613 = SURFACE_SIDE_STYLE ('',( #614 ) ) ;
#614 = SURFACE_STYLE_FILL_AREA ( #615 ) ;
#615 = FILL_AREA_STYLE ('',( #622 ) ) ;
#616 = COLOUR_RGB ( '',0.7529411764705882200, 0.7529411764705882200, 0.7529411764705882200 ) ;
#617 = FACE_OUTER_BOUND ( 'NONE', #215, .T. ) ;
#618 = DIRECTION ( 'NONE',  ( -0.0000000000000000000, 1.301042606982605300E-016, -1.000000000000000000 ) ) ;
#619 = VECTOR ( 'NONE', #618, 39.37007874015748100 ) ;
#620 = CARTESIAN_POINT ( 'NONE',  ( 0.2362204724409449300, -0.1912826237701845700, 0.05137795275590553700 ) ) ;
#621 = LINE ( 'NONE', #620, #619 ) ;
#622 = FILL_AREA_STYLE_COLOUR ( '', #616 ) ;
#623 = CARTESIAN_POINT ( 'NONE',  ( 0.2362204724409449300, -0.1912826237701845700, -0.04581018282530269200 ) ) ;
#624 = DIRECTION ( 'NONE',  ( -0.5773502691896257300, -0.5773502691896256200, -0.5773502691896257300 ) ) ;
#625 = VECTOR ( 'NONE', #624, 39.37007874015748900 ) ;
#626 = CARTESIAN_POINT ( 'NONE',  ( 0.2306527025103421400, -0.1968503937007873300, -0.05137795275590549500 ) ) ;
#627 = LINE ( 'NONE', #626, #625 ) ;
#628 =( NAMED_UNIT ( * ) PLANE_ANGLE_UNIT ( ) SI_UNIT ( $, .RADIAN. ) );
#629 =( CONVERSION_BASED_UNIT ( 'INCH', #630 ) LENGTH_UNIT ( ) NAMED_UNIT ( #659 ) );
#630 = LENGTH_MEASURE_WITH_UNIT ( LENGTH_MEASURE( 0.02539999999999999900 ), #401 );
#631 = CARTESIAN_POINT ( 'NONE',  ( -0.2362204724409449100, 0.1912826237701846200, 0.05137795275590558600 ) ) ;
#632 = AXIS2_PLACEMENT_3D ( 'NONE', #631, #604, #603 ) ;
#633 = FACE_OUTER_BOUND ( 'NONE', #120, .T. ) ;
#634 = FILL_AREA_STYLE_COLOUR ( '', #602 ) ;
#635 = PLANE ( 'NONE',  #632 ) ;
#636 =( GEOMETRIC_REPRESENTATION_CONTEXT ( 3 ) GLOBAL_UNCERTAINTY_ASSIGNED_CONTEXT ( ( #637 ) ) GLOBAL_UNIT_ASSIGNED_CONTEXT ( ( #640, #639, #638 ) ) REPRESENTATION_CONTEXT ( 'NONE', 'WORKASPACE' ) );
#637 = UNCERTAINTY_MEASURE_WITH_UNIT (LENGTH_MEASURE( 1.000000000000000100E-005 ), #640, 'distance_accuracy_value', 'NONE');
#638 =( NAMED_UNIT ( * ) SI_UNIT ( $, .STERADIAN. ) SOLID_ANGLE_UNIT ( ) );
#639 =( NAMED_UNIT ( * ) PLANE_ANGLE_UNIT ( ) SI_UNIT ( $, .RADIAN. ) );
#640 =( CONVERSION_BASED_UNIT ( 'INCH', #641 ) LENGTH_UNIT ( ) NAMED_UNIT ( #642 ) );
#641 = LENGTH_MEASURE_WITH_UNIT ( LENGTH_MEASURE( 0.02539999999999999900 ), #643 );
#642 = DIMENSIONAL_EXPONENTS ( 1.000000000000000000, 0.0000000000000000000, 0.0000000000000000000, 0.0000000000000000000, 0.0000000000000000000, 0.0000000000000000000, 0.0000000000000000000 ) ;
#643 =( LENGTH_UNIT ( ) NAMED_UNIT ( * ) SI_UNIT ( $, .METRE. ) );
#644 = MECHANICAL_DESIGN_GEOMETRIC_PRESENTATION_REPRESENTATION (  '', ( #646 ), #636 ) ;
#645 = PRESENTATION_LAYER_ASSIGNMENT (  '', '', ( #646 ) ) ;
#646 = STYLED_ITEM ( 'NONE', ( #647 ), #234 ) ;
#647 = PRESENTATION_STYLE_ASSIGNMENT (( #648 ) ) ;
#648 = SURFACE_STYLE_USAGE ( .BOTH. , #649 ) ;
#649 = SURFACE_SIDE_STYLE ('',( #650 ) ) ;
#650 = SURFACE_STYLE_FILL_AREA ( #651 ) ;
#651 = FILL_AREA_STYLE ('',( #658 ) ) ;
#652 = COLOUR_RGB ( '',0.7529411764705882200, 0.7529411764705882200, 0.7529411764705882200 ) ;
#653 = FACE_OUTER_BOUND ( 'NONE', #235, .T. ) ;
#654 = DIRECTION ( 'NONE',  ( -0.5773502691896251800, -0.5773502691896269500, -0.5773502691896251800 ) ) ;
#655 = VECTOR ( 'NONE', #654, 39.37007874015748100 ) ;
#656 = CARTESIAN_POINT ( 'NONE',  ( 0.07874015748031527900, 0.03937007874015728500, -0.2032904977859323300 ) ) ;
#657 = LINE ( 'NONE', #656, #655 ) ;
#658 = FILL_AREA_STYLE_COLOUR ( '', #652 ) ;
#659 = DIMENSIONAL_EXPONENTS ( 1.000000000000000000, 0.0000000000000000000, 0.0000000000000000000, 0.0000000000000000000, 0.0000000000000000000, 0.0000000000000000000, 0.0000000000000000000 ) ;
#660 = UNCERTAINTY_MEASURE_WITH_UNIT (LENGTH_MEASURE( 1.000000000000000100E-005 ), #629, 'distance_accuracy_value', 'NONE');
#661 =( NAMED_UNIT ( * ) SI_UNIT ( $, .STERADIAN. ) SOLID_ANGLE_UNIT ( ) );
#662 = DIRECTION ( 'NONE',  ( -0.5773502691896265100, -0.5773502691896266200, 0.5773502691896240700 ) ) ;
#663 = VECTOR ( 'NONE', #662, 39.37007874015748900 ) ;
#664 = CARTESIAN_POINT ( 'NONE',  ( 0.07502831085991268400, -0.3524747853512168500, 0.1098142088251259500 ) ) ;
#665 = LINE ( 'NONE', #664, #663 ) ;
#666 = CARTESIAN_POINT ( 'NONE',  ( 0.2334365874756434400, -0.1940665087354860000, -0.04859406779060416300 ) ) ;
#667 = DIRECTION ( 'NONE',  ( -0.0000000000000000000, 1.301042606982605300E-016, -1.000000000000000000 ) ) ;
#668 = VECTOR ( 'NONE', #667, 39.37007874015748100 ) ;
#669 = CARTESIAN_POINT ( 'NONE',  ( 0.2306527025103421700, -0.1968503937007873000, 0.05137795275590553700 ) ) ;
#670 = LINE ( 'NONE', #669, #668 ) ;
#671 = CARTESIAN_POINT ( 'NONE',  ( -0.2306527025103421700, -0.1968503937007873000, 0.02721038177684289400 ) ) ;
#672 = DIRECTION ( 'NONE',  ( 0.0000000000000000000, 0.0000000000000000000, -1.000000000000000000 ) ) ;
#673 = DIRECTION ( 'NONE',  ( 1.000000000000000000, 0.0000000000000000000, 0.0000000000000000000 ) ) ;
#674 = CARTESIAN_POINT ( 'NONE',  ( -0.2362204724409449100, 0.0000000000000000000, -0.7624015748031496300 ) ) ;
#675 = AXIS2_PLACEMENT_3D ( 'NONE', #674, #673, #672 ) ;
#676 = CIRCLE ( 'NONE', #675, 0.8137795275590551400 ) ;
#677 = CARTESIAN_POINT ( 'NONE',  ( -0.2362204724409449300, -0.1912826237701845700, 0.02857761412525261200 ) ) ;
#678 = CARTESIAN_POINT ( 'NONE',  ( -0.2362204724409449100, 0.0000000000000000000, 0.05137795275590553700 ) ) ;
#679 = CARTESIAN_POINT ( 'NONE',  ( 0.2306527025103421700, -0.1968503937007873000, 0.02721038177684289400 ) ) ;
#680 = DIRECTION ( 'NONE',  ( -1.000000000000000000, -0.0000000000000000000, -0.0000000000000000000 ) ) ;
#681 = VECTOR ( 'NONE', #680, 39.37007874015748100 ) ;
#682 = CARTESIAN_POINT ( 'NONE',  ( 0.2362204724409449100, -0.1968503937007873800, 0.02721038177684289400 ) ) ;
#683 = LINE ( 'NONE', #682, #681 ) ;
#684 = UNCERTAINTY_MEASURE_WITH_UNIT (LENGTH_MEASURE( 1.000000000000000100E-005 ), #687, 'distance_accuracy_value', 'NONE');
#685 =( NAMED_UNIT ( * ) SI_UNIT ( $, .STERADIAN. ) SOLID_ANGLE_UNIT ( ) );
#686 =( NAMED_UNIT ( * ) PLANE_ANGLE_UNIT ( ) SI_UNIT ( $, .RADIAN. ) );
#687 =( CONVERSION_BASED_UNIT ( 'INCH', #688 ) LENGTH_UNIT ( ) NAMED_UNIT ( #689 ) );
#688 = LENGTH_MEASURE_WITH_UNIT ( LENGTH_MEASURE( 0.02539999999999999900 ), #690 );
#689 = DIMENSIONAL_EXPONENTS ( 1.000000000000000000, 0.0000000000000000000, 0.0000000000000000000, 0.0000000000000000000, 0.0000000000000000000, 0.0000000000000000000, 0.0000000000000000000 ) ;
#690 =( LENGTH_UNIT ( ) NAMED_UNIT ( * ) SI_UNIT ( $, .METRE. ) );
#691 = MECHANICAL_DESIGN_GEOMETRIC_PRESENTATION_REPRESENTATION (  '', ( #571 ), #724 ) ;
#692 = UNCERTAINTY_MEASURE_WITH_UNIT (LENGTH_MEASURE( 1.000000000000000100E-005 ), #695, 'distance_accuracy_value', 'NONE');
#693 =( NAMED_UNIT ( * ) SI_UNIT ( $, .STERADIAN. ) SOLID_ANGLE_UNIT ( ) );
#694 =( NAMED_UNIT ( * ) PLANE_ANGLE_UNIT ( ) SI_UNIT ( $, .RADIAN. ) );
#695 =( CONVERSION_BASED_UNIT ( 'INCH', #696 ) LENGTH_UNIT ( ) NAMED_UNIT ( #697 ) );
#696 = LENGTH_MEASURE_WITH_UNIT ( LENGTH_MEASURE( 0.02539999999999999900 ), #698 );
#697 = DIMENSIONAL_EXPONENTS ( 1.000000000000000000, 0.0000000000000000000, 0.0000000000000000000, 0.0000000000000000000, 0.0000000000000000000, 0.0000000000000000000, 0.0000000000000000000 ) ;
#698 =( LENGTH_UNIT ( ) NAMED_UNIT ( * ) SI_UNIT ( $, .METRE. ) );
#699 = MECHANICAL_DESIGN_GEOMETRIC_PRESENTATION_REPRESENTATION (  '', ( #701 ), #569 ) ;
#700 = PRESENTATION_LAYER_ASSIGNMENT (  '', '', ( #701 ) ) ;
#701 = STYLED_ITEM ( 'NONE', ( #702 ), #229 ) ;
#702 = PRESENTATION_STYLE_ASSIGNMENT (( #703 ) ) ;
#703 = SURFACE_STYLE_USAGE ( .BOTH. , #704 ) ;
#704 = SURFACE_SIDE_STYLE ('',( #705 ) ) ;
#705 = SURFACE_STYLE_FILL_AREA ( #527 ) ;
#706 = COLOUR_RGB ( '',0.7529411764705882200, 0.7529411764705882200, 0.7529411764705882200 ) ;
#707 = FACE_OUTER_BOUND ( 'NONE', #230, .T. ) ;
#708 = CARTESIAN_POINT ( 'NONE',  ( -0.2306527025103421700, -0.1968503937007873000, 0.02721038177684289400 ) ) ;
#709 = CARTESIAN_POINT ( 'NONE',  ( -0.2325070165873116800, -0.1949960796238177900, 0.02767266258839183600 ) ) ;
#710 = CARTESIAN_POINT ( 'NONE',  ( -0.2343629475739550100, -0.1931401486371744900, 0.02812840858957042800 ) ) ;
#711 = CARTESIAN_POINT ( 'NONE',  ( -0.2362204724409449300, -0.1912826237701845700, 0.02857761412525261200 ) ) ;
#712 =( BOUNDED_CURVE ( )  B_SPLINE_CURVE ( 3, ( #711, #710, #709, #708 ),
 .UNSPECIFIED., .F., .T. ) 
 B_SPLINE_CURVE_WITH_KNOTS ( ( 4, 4 ),
 ( 1.808071071452036000, 1.815116216450032100 ),
 .UNSPECIFIED. ) 
 CURVE ( )  GEOMETRIC_REPRESENTATION_ITEM ( )  RATIONAL_B_SPLINE_CURVE ( ( 1.000000000000000000, 0.9999958638319400600, 0.9999958638319400600, 1.000000000000000000 ) ) 
 REPRESENTATION_ITEM ( '' )  );
#713 = CARTESIAN_POINT ( 'NONE',  ( 0.2362204724409449100, 0.0000000000000000000, 0.05137795275590553700 ) ) ;
#714 = DIRECTION ( 'NONE',  ( 0.0000000000000000000, 0.0000000000000000000, -1.000000000000000000 ) ) ;
#715 = DIRECTION ( 'NONE',  ( 1.000000000000000000, 0.0000000000000000000, 0.0000000000000000000 ) ) ;
#716 = CARTESIAN_POINT ( 'NONE',  ( 0.2362204724409449100, 0.0000000000000000000, -0.7624015748031496300 ) ) ;
#717 = AXIS2_PLACEMENT_3D ( 'NONE', #716, #715, #714 ) ;
#718 = DIRECTION ( 'NONE',  ( 0.0000000000000000000, 0.0000000000000000000, 1.000000000000000000 ) ) ;
#719 = DIRECTION ( 'NONE',  ( -1.000000000000000000, -0.0000000000000000000, -0.0000000000000000000 ) ) ;
#720 = CARTESIAN_POINT ( 'NONE',  ( 0.2362204724409449100, 0.0000000000000000000, -0.7624015748031496300 ) ) ;
#721 = AXIS2_PLACEMENT_3D ( 'NONE', #720, #719, #718 ) ;
#722 = CIRCLE ( 'NONE', #717, 0.8137795275590551400 ) ;
#723 = CYLINDRICAL_SURFACE ( 'NONE', #721, 0.8137795275590551400 ) ;
#724 =( GEOMETRIC_REPRESENTATION_CONTEXT ( 3 ) GLOBAL_UNCERTAINTY_ASSIGNED_CONTEXT ( ( #684 ) ) GLOBAL_UNIT_ASSIGNED_CONTEXT ( ( #687, #686, #685 ) ) REPRESENTATION_CONTEXT ( 'NONE', 'WORKASPACE' ) );
#725 = SHELL_BASED_SURFACE_MODEL ( 'NONE', ( #125 ) );
#726 = MANIFOLD_SURFACE_SHAPE_REPRESENTATION ( '5737-E0W', ( #725, #744 ), #732 ) ;
#727 = UNCERTAINTY_MEASURE_WITH_UNIT (LENGTH_MEASURE( 1.000000000000000100E-005 ), #756, 'distance_accuracy_value', 'NONE');
#728 =( NAMED_UNIT ( * ) SI_UNIT ( $, .STERADIAN. ) SOLID_ANGLE_UNIT ( ) );
#729 = DIRECTION ( 'NONE',  ( 0.0000000000000000000, 0.0000000000000000000, 1.000000000000000000 ) ) ;
#730 = APPLICATION_CONTEXT ( 'automotive_design' ) ;
#731 = DIRECTION ( 'NONE',  ( 1.000000000000000000, 0.0000000000000000000, 0.0000000000000000000 ) ) ;
#732 =( GEOMETRIC_REPRESENTATION_CONTEXT ( 3 ) GLOBAL_UNCERTAINTY_ASSIGNED_CONTEXT ( ( #727 ) ) GLOBAL_UNIT_ASSIGNED_CONTEXT ( ( #756, #764, #728 ) ) REPRESENTATION_CONTEXT ( 'NONE', 'WORKASPACE' ) );
#733 = MECHANICAL_DESIGN_GEOMETRIC_PRESENTATION_REPRESENTATION (  '', ( #735 ), #745 ) ;
#734 = PRESENTATION_LAYER_ASSIGNMENT (  '', '', ( #735 ) ) ;
#735 = STYLED_ITEM ( 'NONE', ( #736 ), #726 ) ;
#736 = PRESENTATION_STYLE_ASSIGNMENT (( #737 ) ) ;
#737 = SURFACE_STYLE_USAGE ( .BOTH. , #738 ) ;
#738 = SURFACE_SIDE_STYLE ('',( #739 ) ) ;
#739 = SURFACE_STYLE_FILL_AREA ( #740 ) ;
#740 = FILL_AREA_STYLE ('',( #741 ) ) ;
#741 = FILL_AREA_STYLE_COLOUR ( '', #742 ) ;
#742 = COLOUR_RGB ( '',0.7960784313725489700, 0.8235294117647058400, 0.9372549019607843100 ) ;
#743 = SHAPE_DEFINITION_REPRESENTATION ( #765, #726 ) ;
#744 = AXIS2_PLACEMENT_3D ( 'NONE', #748, #729, #731 ) ;
#745 =( GEOMETRIC_REPRESENTATION_CONTEXT ( 3 ) GLOBAL_UNCERTAINTY_ASSIGNED_CONTEXT ( ( #746 ) ) GLOBAL_UNIT_ASSIGNED_CONTEXT ( ( #760, #759, #747 ) ) REPRESENTATION_CONTEXT ( 'NONE', 'WORKASPACE' ) );
#746 = UNCERTAINTY_MEASURE_WITH_UNIT (LENGTH_MEASURE( 1.000000000000000100E-005 ), #760, 'distance_accuracy_value', 'NONE');
#747 =( NAMED_UNIT ( * ) SI_UNIT ( $, .STERADIAN. ) SOLID_ANGLE_UNIT ( ) );
#748 = CARTESIAN_POINT ( 'NONE',  ( 0.0000000000000000000, 0.0000000000000000000, 0.0000000000000000000 ) ) ;
#749 = PRODUCT_DEFINITION_CONTEXT ( 'detailed design', #751, 'design' ) ;
#750 = APPLICATION_PROTOCOL_DEFINITION ( 'draft international standard', 'automotive_design', 1998, #751 ) ;
#751 = APPLICATION_CONTEXT ( 'automotive_design' ) ;
#752 = PRODUCT ( '5737-E0W', '5737-E0W', '', ( #753 ) ) ;
#753 = PRODUCT_CONTEXT ( 'NONE', #730, 'mechanical' ) ;
#754 = APPLICATION_PROTOCOL_DEFINITION ( 'draft international standard', 'automotive_design', 1998, #730 ) ;
#755 = DIMENSIONAL_EXPONENTS ( 1.000000000000000000, 0.0000000000000000000, 0.0000000000000000000, 0.0000000000000000000, 0.0000000000000000000, 0.0000000000000000000, 0.0000000000000000000 ) ;
#756 =( CONVERSION_BASED_UNIT ( 'INCH', #757 ) LENGTH_UNIT ( ) NAMED_UNIT ( #755 ) );
#757 = LENGTH_MEASURE_WITH_UNIT ( LENGTH_MEASURE( 0.02539999999999999900 ), #758 );
#758 =( LENGTH_UNIT ( ) NAMED_UNIT ( * ) SI_UNIT ( $, .METRE. ) );
#759 =( NAMED_UNIT ( * ) PLANE_ANGLE_UNIT ( ) SI_UNIT ( $, .RADIAN. ) );
#760 =( CONVERSION_BASED_UNIT ( 'INCH', #761 ) LENGTH_UNIT ( ) NAMED_UNIT ( #762 ) );
#761 = LENGTH_MEASURE_WITH_UNIT ( LENGTH_MEASURE( 0.02539999999999999900 ), #763 );
#762 = DIMENSIONAL_EXPONENTS ( 1.000000000000000000, 0.0000000000000000000, 0.0000000000000000000, 0.0000000000000000000, 0.0000000000000000000, 0.0000000000000000000, 0.0000000000000000000 ) ;
#763 =( LENGTH_UNIT ( ) NAMED_UNIT ( * ) SI_UNIT ( $, .METRE. ) );
#764 =( NAMED_UNIT ( * ) PLANE_ANGLE_UNIT ( ) SI_UNIT ( $, .RADIAN. ) );
#765 = PRODUCT_DEFINITION_SHAPE ( 'NONE', 'NONE',  #768 ) ;
#766 = PRODUCT_RELATED_PRODUCT_CATEGORY ( 'part', '', ( #752 ) ) ;
#767 = PRODUCT_DEFINITION_FORMATION_WITH_SPECIFIED_SOURCE ( 'ANY', '', #752, .NOT_KNOWN. ) ;
#768 = PRODUCT_DEFINITION ( 'UNKNOWN', '', #767, #749 ) ;
ENDSEC;
END-ISO-10303-21;
