ISO-10303-21;
HEADER;
FILE_DESCRIPTION (( 'STEP AP214' ),
    '1' );
FILE_NAME ('5915-E0W.STEP',
    '2010-04-23T13:52:37',
    ( 'Admin' ),
    ( 'Thorlabs, Inc.' ),
    'SwSTEP 2.0',
    'SolidWorks 2009',
    '' );
FILE_SCHEMA (( 'AUTOMOTIVE_DESIGN' ));
ENDSEC;

DATA;
#1 = VERTEX_POINT ( 'NONE', #220 ) ;
#2 = VERTEX_POINT ( 'NONE', #183 ) ;
#3 = VERTEX_POINT ( 'NONE', #182 ) ;
#4 = ORIENTED_EDGE ( 'NONE', *, *, #21, .F. ) ;
#5 = EDGE_CURVE ( 'NONE', #1, #3, #232, .T. ) ;
#6 = ORIENTED_EDGE ( 'NONE', *, *, #17, .T. ) ;
#7 = ORIENTED_EDGE ( 'NONE', *, *, #5, .F. ) ;
#8 = EDGE_LOOP ( 'NONE', ( #9, #88, #89, #86, #122 ) ) ;
#9 = ORIENTED_EDGE ( 'NONE', *, *, #11, .F. ) ;
#10 = VERTEX_POINT ( 'NONE', #170 ) ;
#11 = EDGE_CURVE ( 'NONE', #15, #10, #211, .T. ) ;
#12 = EDGE_CURVE ( 'NONE', #108, #3, #234, .T. ) ;
#13 = ADVANCED_FACE ( 'NONE', ( #233 ), #259, .F. ) ;
#14 = EDGE_CURVE ( 'NONE', #3, #18, #260, .T. ) ;
#15 = VERTEX_POINT ( 'NONE', #235 ) ;
#16 = ORIENTED_EDGE ( 'NONE', *, *, #104, .F. ) ;
#17 = EDGE_CURVE ( 'NONE', #2, #107, #323, .T. ) ;
#18 = VERTEX_POINT ( 'NONE', #319 ) ;
#19 = VERTEX_POINT ( 'NONE', #318 ) ;
#20 = ORIENTED_EDGE ( 'NONE', *, *, #14, .F. ) ;
#21 = EDGE_CURVE ( 'NONE', #2, #22, #201, .T. ) ;
#22 = VERTEX_POINT ( 'NONE', #196 ) ;
#23 = EDGE_LOOP ( 'NONE', ( #110, #16, #105, #20, #24 ) ) ;
#24 = ORIENTED_EDGE ( 'NONE', *, *, #12, .F. ) ;
#25 = ADVANCED_FACE ( 'NONE', ( #195 ), #208, .T. ) ;
#26 = ORIENTED_EDGE ( 'NONE', *, *, #36, .F. ) ;
#27 = ADVANCED_FACE ( 'NONE', ( #206 ), #283, .T. ) ;
#28 = EDGE_CURVE ( 'NONE', #39, #41, #278, .T. ) ;
#29 = EDGE_CURVE ( 'NONE', #78, #97, #274, .T. ) ;
#30 = ORIENTED_EDGE ( 'NONE', *, *, #84, .T. ) ;
#31 = ORIENTED_EDGE ( 'NONE', *, *, #21, .T. ) ;
#32 = ORIENTED_EDGE ( 'NONE', *, *, #80, .T. ) ;
#33 = EDGE_LOOP ( 'NONE', ( #40, #44, #45, #26, #35 ) ) ;
#34 = ADVANCED_FACE ( 'NONE', ( #269 ), #257, .F. ) ;
#35 = ORIENTED_EDGE ( 'NONE', *, *, #100, .F. ) ;
#36 = EDGE_CURVE ( 'NONE', #82, #39, #252, .T. ) ;
#37 = ORIENTED_EDGE ( 'NONE', *, *, #46, .T. ) ;
#38 = ORIENTED_EDGE ( 'NONE', *, *, #47, .T. ) ;
#39 = VERTEX_POINT ( 'NONE', #248 ) ;
#40 = ORIENTED_EDGE ( 'NONE', *, *, #29, .T. ) ;
#41 = VERTEX_POINT ( 'NONE', #247 ) ;
#42 = ORIENTED_EDGE ( 'NONE', *, *, #29, .F. ) ;
#43 = EDGE_CURVE ( 'NONE', #41, #115, #246, .T. ) ;
#44 = ORIENTED_EDGE ( 'NONE', *, *, #47, .F. ) ;
#45 = ORIENTED_EDGE ( 'NONE', *, *, #28, .F. ) ;
#46 = EDGE_CURVE ( 'NONE', #1, #22, #242, .T. ) ;
#47 = EDGE_CURVE ( 'NONE', #41, #97, #636, .T. ) ;
#48 = EDGE_LOOP ( 'NONE', ( #32, #52, #42, #30, #31 ) ) ;
#49 = ORIENTED_EDGE ( 'NONE', *, *, #59, .F. ) ;
#50 = ORIENTED_EDGE ( 'NONE', *, *, #123, .F. ) ;
#51 = VERTEX_POINT ( 'NONE', #682 ) ;
#52 = ORIENTED_EDGE ( 'NONE', *, *, #96, .T. ) ;
#53 = ADVANCED_FACE ( 'NONE', ( #681 ), #719, .F. ) ;
#54 = ADVANCED_FACE ( 'NONE', ( #644 ), #742, .F. ) ;
#55 = ORIENTED_EDGE ( 'NONE', *, *, #73, .F. ) ;
#56 = ORIENTED_EDGE ( 'NONE', *, *, #60, .F. ) ;
#57 = ORIENTED_EDGE ( 'NONE', *, *, #66, .F. ) ;
#58 = ORIENTED_EDGE ( 'NONE', *, *, #28, .T. ) ;
#59 = EDGE_CURVE ( 'NONE', #148, #51, #737, .T. ) ;
#60 = EDGE_CURVE ( 'NONE', #145, #115, #733, .T. ) ;
#61 = ORIENTED_EDGE ( 'NONE', *, *, #231, .T. ) ;
#62 = EDGE_LOOP ( 'NONE', ( #65, #57, #68, #168 ) ) ;
#63 = ORIENTED_EDGE ( 'NONE', *, *, #146, .F. ) ;
#64 = ORIENTED_EDGE ( 'NONE', *, *, #143, .T. ) ;
#65 = ORIENTED_EDGE ( 'NONE', *, *, #231, .F. ) ;
#66 = EDGE_CURVE ( 'NONE', #129, #51, #728, .T. ) ;
#67 = ADVANCED_FACE ( 'NONE', ( #625 ), #767, .F. ) ;
#68 = ORIENTED_EDGE ( 'NONE', *, *, #126, .F. ) ;
#69 = ORIENTED_EDGE ( 'NONE', *, *, #66, .T. ) ;
#70 = EDGE_LOOP ( 'NONE', ( #169, #167, #284, #297 ) ) ;
#71 = EDGE_LOOP ( 'NONE', ( #69, #49, #63, #50, #55 ) ) ;
#72 = ADVANCED_FACE ( 'NONE', ( #766 ), #653, .F. ) ;
#73 = EDGE_CURVE ( 'NONE', #129, #151, #752, .T. ) ;
#74 = ORIENTED_EDGE ( 'NONE', *, *, #125, .T. ) ;
#75 = ORIENTED_EDGE ( 'NONE', *, *, #101, .T. ) ;
#76 = ADVANCED_FACE ( 'NONE', ( #751 ), #701, .F. ) ;
#77 = ORIENTED_EDGE ( 'NONE', *, *, #73, .T. ) ;
#78 = VERTEX_POINT ( 'NONE', #696 ) ;
#79 = ORIENTED_EDGE ( 'NONE', *, *, #80, .F. ) ;
#80 = EDGE_CURVE ( 'NONE', #22, #134, #695, .T. ) ;
#81 = ORIENTED_EDGE ( 'NONE', *, *, #46, .F. ) ;
#82 = VERTEX_POINT ( 'NONE', #691 ) ;
#83 = ORIENTED_EDGE ( 'NONE', *, *, #84, .F. ) ;
#84 = EDGE_CURVE ( 'NONE', #78, #2, #690, .T. ) ;
#85 = ORIENTED_EDGE ( 'NONE', *, *, #92, .F. ) ;
#86 = ORIENTED_EDGE ( 'NONE', *, *, #125, .F. ) ;
#87 = EDGE_LOOP ( 'NONE', ( #64, #263, #61, #58, #166, #56 ) ) ;
#88 = ORIENTED_EDGE ( 'NONE', *, *, #111, .F. ) ;
#89 = ORIENTED_EDGE ( 'NONE', *, *, #113, .F. ) ;
#90 = VERTEX_POINT ( 'NONE', #685 ) ;
#91 = ORIENTED_EDGE ( 'NONE', *, *, #140, .F. ) ;
#92 = EDGE_CURVE ( 'NONE', #19, #90, #684, .T. ) ;
#93 = ORIENTED_EDGE ( 'NONE', *, *, #135, .F. ) ;
#94 = ORIENTED_EDGE ( 'NONE', *, *, #165, .F. ) ;
#95 = ORIENTED_EDGE ( 'NONE', *, *, #96, .F. ) ;
#96 = EDGE_CURVE ( 'NONE', #134, #97, #383, .T. ) ;
#97 = VERTEX_POINT ( 'NONE', #452 ) ;
#98 = ORIENTED_EDGE ( 'NONE', *, *, #17, .F. ) ;
#99 = ORIENTED_EDGE ( 'NONE', *, *, #100, .T. ) ;
#100 = EDGE_CURVE ( 'NONE', #78, #82, #354, .T. ) ;
#101 = EDGE_CURVE ( 'NONE', #18, #164, #412, .T. ) ;
#102 = ORIENTED_EDGE ( 'NONE', *, *, #14, .T. ) ;
#103 = EDGE_LOOP ( 'NONE', ( #4, #6, #112, #114, #7, #37 ) ) ;
#104 = EDGE_CURVE ( 'NONE', #19, #15, #456, .T. ) ;
#105 = ORIENTED_EDGE ( 'NONE', *, *, #106, .F. ) ;
#106 = EDGE_CURVE ( 'NONE', #18, #19, #457, .T. ) ;
#107 = VERTEX_POINT ( 'NONE', #349 ) ;
#108 = VERTEX_POINT ( 'NONE', #348 ) ;
#109 = ADVANCED_FACE ( 'NONE', ( #432 ), #470, .F. ) ;
#110 = ORIENTED_EDGE ( 'NONE', *, *, #111, .T. ) ;
#111 = EDGE_CURVE ( 'NONE', #108, #15, #461, .T. ) ;
#112 = ORIENTED_EDGE ( 'NONE', *, *, #113, .T. ) ;
#113 = EDGE_CURVE ( 'NONE', #107, #108, #353, .T. ) ;
#114 = ORIENTED_EDGE ( 'NONE', *, *, #12, .T. ) ;
#115 = VERTEX_POINT ( 'NONE', #345 ) ;
#116 = EDGE_CURVE ( 'NONE', #162, #115, #438, .T. ) ;
#117 = ORIENTED_EDGE ( 'NONE', *, *, #43, .F. ) ;
#118 = ORIENTED_EDGE ( 'NONE', *, *, #133, .T. ) ;
#119 = ORIENTED_EDGE ( 'NONE', *, *, #116, .T. ) ;
#120 = ORIENTED_EDGE ( 'NONE', *, *, #160, .F. ) ;
#121 = EDGE_LOOP ( 'NONE', ( #85, #150, #149, #147, #144, #91 ) ) ;
#122 = ORIENTED_EDGE ( 'NONE', *, *, #123, .T. ) ;
#123 = EDGE_CURVE ( 'NONE', #151, #10, #433, .T. ) ;
#124 = ADVANCED_FACE ( 'NONE', ( #407 ), #465, .F. ) ;
#125 = EDGE_CURVE ( 'NONE', #151, #107, #445, .T. ) ;
#126 = EDGE_CURVE ( 'NONE', #82, #129, #440, .T. ) ;
#127 = EDGE_LOOP ( 'NONE', ( #131, #94, #132, #79, #81 ) ) ;
#128 = ADVANCED_FACE ( 'NONE', ( #342 ), #402, .T. ) ;
#129 = VERTEX_POINT ( 'NONE', #401 ) ;
#130 = ORIENTED_EDGE ( 'NONE', *, *, #126, .T. ) ;
#131 = ORIENTED_EDGE ( 'NONE', *, *, #135, .T. ) ;
#132 = ORIENTED_EDGE ( 'NONE', *, *, #133, .F. ) ;
#133 = EDGE_CURVE ( 'NONE', #134, #163, #400, .T. ) ;
#134 = VERTEX_POINT ( 'NONE', #327 ) ;
#135 = EDGE_CURVE ( 'NONE', #1, #164, #325, .T. ) ;
#136 = EDGE_LOOP ( 'NONE', ( #98, #83, #99, #130, #77, #74 ) ) ;
#137 = ADVANCED_FACE ( 'NONE', ( #369 ), #530, .F. ) ;
#138 = EDGE_LOOP ( 'NONE', ( #95, #118, #120, #119, #117, #38 ) ) ;
#139 = ORIENTED_EDGE ( 'NONE', *, *, #5, .T. ) ;
#140 = EDGE_CURVE ( 'NONE', #90, #145, #519, .T. ) ;
#141 = ADVANCED_FACE ( 'NONE', ( #511 ), #566, .F. ) ;
#142 = EDGE_LOOP ( 'NONE', ( #157, #159, #155, #156, #158, #153 ) ) ;
#143 = EDGE_CURVE ( 'NONE', #145, #148, #532, .T. ) ;
#144 = ORIENTED_EDGE ( 'NONE', *, *, #143, .F. ) ;
#145 = VERTEX_POINT ( 'NONE', #549 ) ;
#146 = EDGE_CURVE ( 'NONE', #10, #148, #491, .T. ) ;
#147 = ORIENTED_EDGE ( 'NONE', *, *, #146, .T. ) ;
#148 = VERTEX_POINT ( 'NONE', #487 ) ;
#149 = ORIENTED_EDGE ( 'NONE', *, *, #11, .T. ) ;
#150 = ORIENTED_EDGE ( 'NONE', *, *, #104, .T. ) ;
#151 = VERTEX_POINT ( 'NONE', #486 ) ;
#152 = ADVANCED_FACE ( 'NONE', ( #485 ), #552, .F. ) ;
#153 = ORIENTED_EDGE ( 'NONE', *, *, #165, .T. ) ;
#154 = EDGE_LOOP ( 'NONE', ( #139, #102, #75, #93 ) ) ;
#155 = ORIENTED_EDGE ( 'NONE', *, *, #92, .T. ) ;
#156 = ORIENTED_EDGE ( 'NONE', *, *, #161, .T. ) ;
#157 = ORIENTED_EDGE ( 'NONE', *, *, #101, .F. ) ;
#158 = ORIENTED_EDGE ( 'NONE', *, *, #160, .T. ) ;
#159 = ORIENTED_EDGE ( 'NONE', *, *, #106, .T. ) ;
#160 = EDGE_CURVE ( 'NONE', #162, #163, #514, .T. ) ;
#161 = EDGE_CURVE ( 'NONE', #90, #162, #526, .T. ) ;
#162 = VERTEX_POINT ( 'NONE', #539 ) ;
#163 = VERTEX_POINT ( 'NONE', #538 ) ;
#164 = VERTEX_POINT ( 'NONE', #537 ) ;
#165 = EDGE_CURVE ( 'NONE', #163, #164, #563, .T. ) ;
#166 = ORIENTED_EDGE ( 'NONE', *, *, #43, .T. ) ;
#167 = ORIENTED_EDGE ( 'NONE', *, *, #116, .F. ) ;
#168 = ORIENTED_EDGE ( 'NONE', *, *, #36, .T. ) ;
#169 = ORIENTED_EDGE ( 'NONE', *, *, #60, .T. ) ;
#170 = CARTESIAN_POINT ( 'NONE',  ( -0.4330708661417322900, 0.3881330174709721200, -0.06608577337648387200 ) ) ;
#171 = LENGTH_MEASURE_WITH_UNIT ( LENGTH_MEASURE( 0.02539999999999999900 ), #173 );
#172 = DIMENSIONAL_EXPONENTS ( 1.000000000000000000, 0.0000000000000000000, 0.0000000000000000000, 0.0000000000000000000, 0.0000000000000000000, 0.0000000000000000000, 0.0000000000000000000 ) ;
#173 =( LENGTH_UNIT ( ) NAMED_UNIT ( * ) SI_UNIT ( $, .METRE. ) );
#174 = MECHANICAL_DESIGN_GEOMETRIC_PRESENTATION_REPRESENTATION (  '', ( #176 ), #258 ) ;
#175 = PRESENTATION_LAYER_ASSIGNMENT (  '', '', ( #176 ) ) ;
#176 = STYLED_ITEM ( 'NONE', ( #177 ), #34 ) ;
#177 = PRESENTATION_STYLE_ASSIGNMENT (( #178 ) ) ;
#178 = SURFACE_STYLE_USAGE ( .BOTH. , #179 ) ;
#179 = SURFACE_SIDE_STYLE ('',( #180 ) ) ;
#180 = SURFACE_STYLE_FILL_AREA ( #181 ) ;
#181 = FILL_AREA_STYLE ('',( #273 ) ) ;
#182 = CARTESIAN_POINT ( 'NONE',  ( -0.4275030962111295300, -0.3937007874015746600, 0.04615351583284882400 ) ) ;
#183 = CARTESIAN_POINT ( 'NONE',  ( 0.4330708661417322900, 0.0000000000000000000, 0.07165354330708724500 ) ) ;
#184 =( NAMED_UNIT ( * ) SI_UNIT ( $, .STERADIAN. ) SOLID_ANGLE_UNIT ( ) );
#185 =( NAMED_UNIT ( * ) PLANE_ANGLE_UNIT ( ) SI_UNIT ( $, .RADIAN. ) );
#186 = UNCERTAINTY_MEASURE_WITH_UNIT (LENGTH_MEASURE( 1.000000000000000100E-005 ), #189, 'distance_accuracy_value', 'NONE');
#187 =( NAMED_UNIT ( * ) SI_UNIT ( $, .STERADIAN. ) SOLID_ANGLE_UNIT ( ) );
#188 =( NAMED_UNIT ( * ) PLANE_ANGLE_UNIT ( ) SI_UNIT ( $, .RADIAN. ) );
#189 =( CONVERSION_BASED_UNIT ( 'INCH', #287 ) LENGTH_UNIT ( ) NAMED_UNIT ( #288 ) );
#190 = SURFACE_STYLE_USAGE ( .BOTH. , #191 ) ;
#191 = SURFACE_SIDE_STYLE ('',( #192 ) ) ;
#192 = SURFACE_STYLE_FILL_AREA ( #193 ) ;
#193 = FILL_AREA_STYLE ('',( #202 ) ) ;
#194 = COLOUR_RGB ( '',0.7529411764705882200, 0.7529411764705882200, 0.7529411764705882200 ) ;
#195 = FACE_OUTER_BOUND ( 'NONE', #103, .T. ) ;
#196 = CARTESIAN_POINT ( 'NONE',  ( 0.4330708661417323500, -0.3881330174709719500, 0.04687259711610968600 ) ) ;
#197 = DIRECTION ( 'NONE',  ( 0.0000000000000000000, 0.0000000000000000000, -1.000000000000000000 ) ) ;
#198 = DIRECTION ( 'NONE',  ( 1.000000000000000000, 0.0000000000000000000, 0.0000000000000000000 ) ) ;
#199 = CARTESIAN_POINT ( 'NONE',  ( 0.4330708661417322900, 0.0000000000000000000, -2.980314960629920000 ) ) ;
#200 = AXIS2_PLACEMENT_3D ( 'NONE', #199, #198, #197 ) ;
#201 = CIRCLE ( 'NONE', #200, 3.051968503937007200 ) ;
#202 = FILL_AREA_STYLE_COLOUR ( '', #194 ) ;
#203 = DIRECTION ( 'NONE',  ( -0.0000000000000000000, 1.000000000000000000, -0.0000000000000000000 ) ) ;
#204 = VECTOR ( 'NONE', #203, 39.37007874015748100 ) ;
#205 = AXIS2_PLACEMENT_3D ( 'NONE', #317, #316, #315 ) ;
#206 = FACE_OUTER_BOUND ( 'NONE', #48, .T. ) ;
#207 = FILL_AREA_STYLE_COLOUR ( '', #314 ) ;
#208 = CYLINDRICAL_SURFACE ( 'NONE', #205, 3.051968503937007200 ) ;
#209 =( GEOMETRIC_REPRESENTATION_CONTEXT ( 3 ) GLOBAL_UNCERTAINTY_ASSIGNED_CONTEXT ( ( #186 ) ) GLOBAL_UNIT_ASSIGNED_CONTEXT ( ( #189, #188, #187 ) ) REPRESENTATION_CONTEXT ( 'NONE', 'WORKASPACE' ) );
#210 = CARTESIAN_POINT ( 'NONE',  ( -0.4330708661417322900, -0.3937007874015748300, -0.06608577337648390000 ) ) ;
#211 = LINE ( 'NONE', #210, #204 ) ;
#212 = UNCERTAINTY_MEASURE_WITH_UNIT (LENGTH_MEASURE( 1.000000000000000100E-005 ), #285, 'distance_accuracy_value', 'NONE');
#213 = MECHANICAL_DESIGN_GEOMETRIC_PRESENTATION_REPRESENTATION (  '', ( #215 ), #262 ) ;
#214 = PRESENTATION_LAYER_ASSIGNMENT (  '', '', ( #215 ) ) ;
#215 = STYLED_ITEM ( 'NONE', ( #216 ), #13 ) ;
#216 = PRESENTATION_STYLE_ASSIGNMENT (( #217 ) ) ;
#217 = SURFACE_STYLE_USAGE ( .BOTH. , #299 ) ;
#218 = FILL_AREA_STYLE ('',( #298 ) ) ;
#219 = COLOUR_RGB ( '',0.7529411764705882200, 0.7529411764705882200, 0.7529411764705882200 ) ;
#220 = CARTESIAN_POINT ( 'NONE',  ( 0.4275030962111295300, -0.3937007874015746600, 0.04615351583284882400 ) ) ;
#221 = DIRECTION ( 'NONE',  ( -1.000000000000000000, -0.0000000000000000000, -0.0000000000000000000 ) ) ;
#222 = VECTOR ( 'NONE', #221, 39.37007874015748100 ) ;
#223 = CARTESIAN_POINT ( 'NONE',  ( 0.4330708661417322900, -0.3937007874015748300, 0.04615351583284882400 ) ) ;
#224 = UNCERTAINTY_MEASURE_WITH_UNIT (LENGTH_MEASURE( 1.000000000000000100E-005 ), #227, 'distance_accuracy_value', 'NONE');
#225 =( NAMED_UNIT ( * ) SI_UNIT ( $, .STERADIAN. ) SOLID_ANGLE_UNIT ( ) );
#226 =( NAMED_UNIT ( * ) PLANE_ANGLE_UNIT ( ) SI_UNIT ( $, .RADIAN. ) );
#227 =( CONVERSION_BASED_UNIT ( 'INCH', #171 ) LENGTH_UNIT ( ) NAMED_UNIT ( #172 ) );
#228 =( GEOMETRIC_REPRESENTATION_CONTEXT ( 3 ) GLOBAL_UNCERTAINTY_ASSIGNED_CONTEXT ( ( #229 ) ) GLOBAL_UNIT_ASSIGNED_CONTEXT ( ( #302, #301, #230 ) ) REPRESENTATION_CONTEXT ( 'NONE', 'WORKASPACE' ) );
#229 = UNCERTAINTY_MEASURE_WITH_UNIT (LENGTH_MEASURE( 1.000000000000000100E-005 ), #302, 'distance_accuracy_value', 'NONE');
#230 =( NAMED_UNIT ( * ) SI_UNIT ( $, .STERADIAN. ) SOLID_ANGLE_UNIT ( ) );
#231 = EDGE_CURVE ( 'NONE', #51, #39, #559, .T. ) ;
#232 = LINE ( 'NONE', #223, #222 ) ;
#233 = FACE_OUTER_BOUND ( 'NONE', #8, .T. ) ;
#234 =( BOUNDED_CURVE ( )  B_SPLINE_CURVE ( 3, ( #267, #266, #265, #264 ),
 .UNSPECIFIED., .F., .T. ) 
 B_SPLINE_CURVE_WITH_KNOTS ( ( 4, 4 ),
 ( 1.698316300697068300, 1.700155773679737000 ),
 .UNSPECIFIED. ) 
 CURVE ( )  GEOMETRIC_REPRESENTATION_ITEM ( )  RATIONAL_B_SPLINE_CURVE ( ( 1.000000000000000000, 0.9999997180282820300, 0.9999997180282820300, 1.000000000000000000 ) ) 
 REPRESENTATION_ITEM ( '' )  );
#235 = CARTESIAN_POINT ( 'NONE',  ( -0.4330708661417322900, -0.3881330174709719500, -0.06608577337648390000 ) ) ;
#236 = DIRECTION ( 'NONE',  ( -0.0000000000000000000, 1.301042606982605300E-016, -1.000000000000000000 ) ) ;
#237 = VECTOR ( 'NONE', #236, 39.37007874015748100 ) ;
#238 = CARTESIAN_POINT ( 'NONE',  ( -0.4275030962111295300, -0.3937007874015746600, 0.07165354330708724500 ) ) ;
#239 = DIRECTION ( 'NONE',  ( 0.0000000000000000000, 0.0000000000000000000, -1.000000000000000000 ) ) ;
#240 = DIRECTION ( 'NONE',  ( 1.000000000000000000, 0.0000000000000000000, 0.0000000000000000000 ) ) ;
#241 = CARTESIAN_POINT ( 'NONE',  ( -0.4330708661417322900, 0.0000000000000000000, -2.980314960629920000 ) ) ;
#242 =( BOUNDED_CURVE ( )  B_SPLINE_CURVE ( 3, ( #632, #656, #633, #724 ),
 .UNSPECIFIED., .F., .T. ) 
 B_SPLINE_CURVE_WITH_KNOTS ( ( 4, 4 ),
 ( 1.441436879910056100, 1.443276352892725000 ),
 .UNSPECIFIED. ) 
 CURVE ( )  GEOMETRIC_REPRESENTATION_ITEM ( )  RATIONAL_B_SPLINE_CURVE ( ( 1.000000000000000000, 0.9999997180282820300, 0.9999997180282820300, 1.000000000000000000 ) ) 
 REPRESENTATION_ITEM ( '' )  );
#243 = DIRECTION ( 'NONE',  ( -0.5773502691896245100, -0.5773502691896280600, -0.5773502691896245100 ) ) ;
#244 = VECTOR ( 'NONE', #243, 39.37007874015748900 ) ;
#245 = CARTESIAN_POINT ( 'NONE',  ( 0.1443569553805787200, 0.1049868766404193400, -0.3547996841376375700 ) ) ;
#246 = LINE ( 'NONE', #245, #244 ) ;
#247 = CARTESIAN_POINT ( 'NONE',  ( 0.4302869811764309900, 0.3909169024362733600, -0.06886965834178528100 ) ) ;
#248 = CARTESIAN_POINT ( 'NONE',  ( 0.4275030962111295300, 0.3937007874015748300, -0.06608577337648388600 ) ) ;
#249 = DIRECTION ( 'NONE',  ( -0.0000000000000000000, 1.301042606982605300E-016, -1.000000000000000000 ) ) ;
#250 = VECTOR ( 'NONE', #249, 39.37007874015748100 ) ;
#251 = CARTESIAN_POINT ( 'NONE',  ( 0.4275030962111294700, 0.3937007874015748300, 0.07165354330708735600 ) ) ;
#252 = LINE ( 'NONE', #251, #250 ) ;
#253 = DIRECTION ( 'NONE',  ( 0.0000000000000000000, -0.7071067811865496800, -0.7071067811865453500 ) ) ;
#254 = DIRECTION ( 'NONE',  ( 0.0000000000000000000, -0.7071067811865453500, 0.7071067811865496800 ) ) ;
#255 = CARTESIAN_POINT ( 'NONE',  ( -0.4330708661417322900, 0.3937007874015748300, -0.06608577337648385800 ) ) ;
#256 = AXIS2_PLACEMENT_3D ( 'NONE', #255, #254, #253 ) ;
#257 = PLANE ( 'NONE',  #256 ) ;
#258 =( GEOMETRIC_REPRESENTATION_CONTEXT ( 3 ) GLOBAL_UNCERTAINTY_ASSIGNED_CONTEXT ( ( #224 ) ) GLOBAL_UNIT_ASSIGNED_CONTEXT ( ( #227, #226, #225 ) ) REPRESENTATION_CONTEXT ( 'NONE', 'WORKASPACE' ) );
#259 = PLANE ( 'NONE',  #261 ) ;
#260 = LINE ( 'NONE', #238, #237 ) ;
#261 = AXIS2_PLACEMENT_3D ( 'NONE', #241, #240, #239 ) ;
#262 =( GEOMETRIC_REPRESENTATION_CONTEXT ( 3 ) GLOBAL_UNCERTAINTY_ASSIGNED_CONTEXT ( ( #212 ) ) GLOBAL_UNIT_ASSIGNED_CONTEXT ( ( #285, #185, #184 ) ) REPRESENTATION_CONTEXT ( 'NONE', 'WORKASPACE' ) );
#263 = ORIENTED_EDGE ( 'NONE', *, *, #59, .T. ) ;
#264 = CARTESIAN_POINT ( 'NONE',  ( -0.4275030962111295300, -0.3937007874015746600, 0.04615351583284882400 ) ) ;
#265 = CARTESIAN_POINT ( 'NONE',  ( -0.4293587988045415900, -0.3918450848081627100, 0.04639491652077639600 ) ) ;
#266 = CARTESIAN_POINT ( 'NONE',  ( -0.4312147226380603200, -0.3899891609746439800, 0.04663461034945040600 ) ) ;
#267 = CARTESIAN_POINT ( 'NONE',  ( -0.4330708661417323500, -0.3881330174709719500, 0.04687259711610968600 ) ) ;
#268 = COLOUR_RGB ( '',0.7529411764705882200, 0.7529411764705882200, 0.7529411764705882200 ) ;
#269 = FACE_OUTER_BOUND ( 'NONE', #87, .T. ) ;
#270 = DIRECTION ( 'NONE',  ( -0.0000000000000000000, 1.301042606982605300E-016, -1.000000000000000000 ) ) ;
#271 = VECTOR ( 'NONE', #270, 39.37007874015748100 ) ;
#272 = CARTESIAN_POINT ( 'NONE',  ( 0.4330708661417322900, 0.3881330174709720600, 0.07165354330708735600 ) ) ;
#273 = FILL_AREA_STYLE_COLOUR ( '', #268 ) ;
#274 = LINE ( 'NONE', #272, #271 ) ;
#275 = DIRECTION ( 'NONE',  ( 0.5773502691896316200, -0.5773502691896245100, -0.5773502691896209600 ) ) ;
#276 = VECTOR ( 'NONE', #275, 39.37007874015748900 ) ;
#277 = CARTESIAN_POINT ( 'NONE',  ( 0.1406451087601696700, 0.6805587748525311300, 0.2207722140744706500 ) ) ;
#278 = LINE ( 'NONE', #277, #276 ) ;
#279 = DIRECTION ( 'NONE',  ( 0.0000000000000000000, 0.0000000000000000000, -1.000000000000000000 ) ) ;
#280 = DIRECTION ( 'NONE',  ( 1.000000000000000000, 0.0000000000000000000, 0.0000000000000000000 ) ) ;
#281 = CARTESIAN_POINT ( 'NONE',  ( 0.4330708661417322900, 0.0000000000000000000, -2.980314960629920000 ) ) ;
#282 = AXIS2_PLACEMENT_3D ( 'NONE', #281, #280, #279 ) ;
#283 = PLANE ( 'NONE',  #282 ) ;
#284 = ORIENTED_EDGE ( 'NONE', *, *, #161, .F. ) ;
#285 =( CONVERSION_BASED_UNIT ( 'INCH', #286 ) LENGTH_UNIT ( ) NAMED_UNIT ( #294 ) );
#286 = LENGTH_MEASURE_WITH_UNIT ( LENGTH_MEASURE( 0.02539999999999999900 ), #295 );
#287 = LENGTH_MEASURE_WITH_UNIT ( LENGTH_MEASURE( 0.02539999999999999900 ), #289 );
#288 = DIMENSIONAL_EXPONENTS ( 1.000000000000000000, 0.0000000000000000000, 0.0000000000000000000, 0.0000000000000000000, 0.0000000000000000000, 0.0000000000000000000, 0.0000000000000000000 ) ;
#289 =( LENGTH_UNIT ( ) NAMED_UNIT ( * ) SI_UNIT ( $, .METRE. ) );
#290 = MECHANICAL_DESIGN_GEOMETRIC_PRESENTATION_REPRESENTATION (  '', ( #292 ), #209 ) ;
#291 = PRESENTATION_LAYER_ASSIGNMENT (  '', '', ( #292 ) ) ;
#292 = STYLED_ITEM ( 'NONE', ( #293 ), #25 ) ;
#293 = PRESENTATION_STYLE_ASSIGNMENT (( #190 ) ) ;
#294 = DIMENSIONAL_EXPONENTS ( 1.000000000000000000, 0.0000000000000000000, 0.0000000000000000000, 0.0000000000000000000, 0.0000000000000000000, 0.0000000000000000000, 0.0000000000000000000 ) ;
#295 =( LENGTH_UNIT ( ) NAMED_UNIT ( * ) SI_UNIT ( $, .METRE. ) );
#296 = OPEN_SHELL ( 'NONE', ( #25, #109, #13, #124, #141, #152, #128, #76, #137, #27, #53, #34, #72, #54, #67 ) ) ;
#297 = ORIENTED_EDGE ( 'NONE', *, *, #140, .T. ) ;
#298 = FILL_AREA_STYLE_COLOUR ( '', #219 ) ;
#299 = SURFACE_SIDE_STYLE ('',( #300 ) ) ;
#300 = SURFACE_STYLE_FILL_AREA ( #218 ) ;
#301 =( NAMED_UNIT ( * ) PLANE_ANGLE_UNIT ( ) SI_UNIT ( $, .RADIAN. ) );
#302 =( CONVERSION_BASED_UNIT ( 'INCH', #303 ) LENGTH_UNIT ( ) NAMED_UNIT ( #304 ) );
#303 = LENGTH_MEASURE_WITH_UNIT ( LENGTH_MEASURE( 0.02539999999999999900 ), #305 );
#304 = DIMENSIONAL_EXPONENTS ( 1.000000000000000000, 0.0000000000000000000, 0.0000000000000000000, 0.0000000000000000000, 0.0000000000000000000, 0.0000000000000000000, 0.0000000000000000000 ) ;
#305 =( LENGTH_UNIT ( ) NAMED_UNIT ( * ) SI_UNIT ( $, .METRE. ) );
#306 = MECHANICAL_DESIGN_GEOMETRIC_PRESENTATION_REPRESENTATION (  '', ( #308 ), #228 ) ;
#307 = PRESENTATION_LAYER_ASSIGNMENT (  '', '', ( #308 ) ) ;
#308 = STYLED_ITEM ( 'NONE', ( #309 ), #27 ) ;
#309 = PRESENTATION_STYLE_ASSIGNMENT (( #310 ) ) ;
#310 = SURFACE_STYLE_USAGE ( .BOTH. , #311 ) ;
#311 = SURFACE_SIDE_STYLE ('',( #312 ) ) ;
#312 = SURFACE_STYLE_FILL_AREA ( #313 ) ;
#313 = FILL_AREA_STYLE ('',( #207 ) ) ;
#314 = COLOUR_RGB ( '',0.7529411764705882200, 0.7529411764705882200, 0.7529411764705882200 ) ;
#315 = DIRECTION ( 'NONE',  ( 0.0000000000000000000, 0.0000000000000000000, 1.000000000000000000 ) ) ;
#316 = DIRECTION ( 'NONE',  ( -1.000000000000000000, -0.0000000000000000000, -0.0000000000000000000 ) ) ;
#317 = CARTESIAN_POINT ( 'NONE',  ( 0.4330708661417322900, 0.0000000000000000000, -2.980314960629920000 ) ) ;
#318 = CARTESIAN_POINT ( 'NONE',  ( -0.4302869811764308300, -0.3909169024362733600, -0.06886965834178536400 ) ) ;
#319 = CARTESIAN_POINT ( 'NONE',  ( -0.4275030962111295300, -0.3937007874015746600, -0.06608577337648410800 ) ) ;
#320 = DIRECTION ( 'NONE',  ( -1.000000000000000000, -0.0000000000000000000, -0.0000000000000000000 ) ) ;
#321 = VECTOR ( 'NONE', #320, 39.37007874015748100 ) ;
#322 = CARTESIAN_POINT ( 'NONE',  ( 0.4330708661417322900, 0.0000000000000000000, 0.07165354330708724500 ) ) ;
#323 = LINE ( 'NONE', #322, #321 ) ;
#324 = CARTESIAN_POINT ( 'NONE',  ( 0.4275030962111295300, -0.3937007874015746600, 0.07165354330708724500 ) ) ;
#325 = LINE ( 'NONE', #324, #371 ) ;
#326 = FILL_AREA_STYLE_COLOUR ( '', #368 ) ;
#327 = CARTESIAN_POINT ( 'NONE',  ( 0.4330708661417323500, -0.3881330174709719000, -0.06608577337648392800 ) ) ;
#328 = DIRECTION ( 'NONE',  ( -0.5773502691896280600, -0.5773502691896209600, -0.5773502691896280600 ) ) ;
#329 = VECTOR ( 'NONE', #328, 39.37007874015748900 ) ;
#330 = CARTESIAN_POINT ( 'NONE',  ( 0.4275030962111294700, -0.3937007874015746600, -0.07165354330708680100 ) ) ;
#331 = DIMENSIONAL_EXPONENTS ( 1.000000000000000000, 0.0000000000000000000, 0.0000000000000000000, 0.0000000000000000000, 0.0000000000000000000, 0.0000000000000000000, 0.0000000000000000000 ) ;
#332 =( LENGTH_UNIT ( ) NAMED_UNIT ( * ) SI_UNIT ( $, .METRE. ) );
#333 = MECHANICAL_DESIGN_GEOMETRIC_PRESENTATION_REPRESENTATION (  '', ( #335 ), #403 ) ;
#334 = PRESENTATION_LAYER_ASSIGNMENT (  '', '', ( #335 ) ) ;
#335 = STYLED_ITEM ( 'NONE', ( #336 ), #128 ) ;
#336 = PRESENTATION_STYLE_ASSIGNMENT (( #337 ) ) ;
#337 = SURFACE_STYLE_USAGE ( .BOTH. , #338 ) ;
#338 = SURFACE_SIDE_STYLE ('',( #339 ) ) ;
#339 = SURFACE_STYLE_FILL_AREA ( #340 ) ;
#340 = FILL_AREA_STYLE ('',( #441 ) ) ;
#341 = COLOUR_RGB ( '',0.7529411764705882200, 0.7529411764705882200, 0.7529411764705882200 ) ;
#342 = FACE_OUTER_BOUND ( 'NONE', #136, .T. ) ;
#343 = DIRECTION ( 'NONE',  ( -1.000000000000000000, -0.0000000000000000000, -0.0000000000000000000 ) ) ;
#344 = VECTOR ( 'NONE', #343, 39.37007874015748100 ) ;
#345 = CARTESIAN_POINT ( 'NONE',  ( 0.4275030962111295300, 0.3881330174709717300, -0.07165354330708675900 ) ) ;
#346 = DIRECTION ( 'NONE',  ( 0.0000000000000000000, 0.0000000000000000000, -1.000000000000000000 ) ) ;
#347 = DIRECTION ( 'NONE',  ( 1.000000000000000000, 0.0000000000000000000, 0.0000000000000000000 ) ) ;
#348 = CARTESIAN_POINT ( 'NONE',  ( -0.4330708661417323500, -0.3881330174709719500, 0.04687259711610968600 ) ) ;
#349 = CARTESIAN_POINT ( 'NONE',  ( -0.4330708661417322900, 0.0000000000000000000, 0.07165354330708724500 ) ) ;
#350 =( NAMED_UNIT ( * ) PLANE_ANGLE_UNIT ( ) SI_UNIT ( $, .RADIAN. ) );
#351 = CARTESIAN_POINT ( 'NONE',  ( -0.4330708661417322900, 0.0000000000000000000, -2.980314960629920000 ) ) ;
#352 = AXIS2_PLACEMENT_3D ( 'NONE', #351, #347, #346 ) ;
#353 = CIRCLE ( 'NONE', #352, 3.051968503937007200 ) ;
#354 =( BOUNDED_CURVE ( )  B_SPLINE_CURVE ( 3, ( #356, #355, #423, #422 ),
 .UNSPECIFIED., .F., .F. ) 
 B_SPLINE_CURVE_WITH_KNOTS ( ( 4, 4 ),
 ( 4.839908954286861400, 4.841748427269530800 ),
 .UNSPECIFIED. ) 
 CURVE ( )  GEOMETRIC_REPRESENTATION_ITEM ( )  RATIONAL_B_SPLINE_CURVE ( ( 1.000000000000000000, 0.9999997180282820300, 0.9999997180282820300, 1.000000000000000000 ) ) 
 REPRESENTATION_ITEM ( '' )  );
#355 = CARTESIAN_POINT ( 'NONE',  ( 0.4312147226380608200, 0.3899891609746434800, 0.04663461034945087100 ) ) ;
#356 = CARTESIAN_POINT ( 'NONE',  ( 0.4330708661417322900, 0.3881330174709720600, 0.04687259711610979000 ) ) ;
#357 = UNCERTAINTY_MEASURE_WITH_UNIT (LENGTH_MEASURE( 1.000000000000000100E-005 ), #404, 'distance_accuracy_value', 'NONE');
#358 =( NAMED_UNIT ( * ) SI_UNIT ( $, .STERADIAN. ) SOLID_ANGLE_UNIT ( ) );
#359 =( LENGTH_UNIT ( ) NAMED_UNIT ( * ) SI_UNIT ( $, .METRE. ) );
#360 = MECHANICAL_DESIGN_GEOMETRIC_PRESENTATION_REPRESENTATION (  '', ( #362 ), #513 ) ;
#361 = PRESENTATION_LAYER_ASSIGNMENT (  '', '', ( #362 ) ) ;
#362 = STYLED_ITEM ( 'NONE', ( #363 ), #137 ) ;
#363 = PRESENTATION_STYLE_ASSIGNMENT (( #364 ) ) ;
#364 = SURFACE_STYLE_USAGE ( .BOTH. , #365 ) ;
#365 = SURFACE_SIDE_STYLE ('',( #366 ) ) ;
#366 = SURFACE_STYLE_FILL_AREA ( #367 ) ;
#367 = FILL_AREA_STYLE ('',( #326 ) ) ;
#368 = COLOUR_RGB ( '',0.7529411764705882200, 0.7529411764705882200, 0.7529411764705882200 ) ;
#369 = FACE_OUTER_BOUND ( 'NONE', #138, .T. ) ;
#370 = DIRECTION ( 'NONE',  ( -0.0000000000000000000, 1.301042606982605300E-016, -1.000000000000000000 ) ) ;
#371 = VECTOR ( 'NONE', #370, 39.37007874015748100 ) ;
#372 = DIRECTION ( 'NONE',  ( -0.5773502691896280600, 0.5773502691896209600, 0.5773502691896280600 ) ) ;
#373 = VECTOR ( 'NONE', #372, 39.37007874015748900 ) ;
#374 = CARTESIAN_POINT ( 'NONE',  ( -0.4275030962111294700, -0.3937007874015746600, -0.07165354330708670300 ) ) ;
#375 = MECHANICAL_DESIGN_GEOMETRIC_PRESENTATION_REPRESENTATION (  '', ( #377 ), #468 ) ;
#376 = PRESENTATION_LAYER_ASSIGNMENT (  '', '', ( #377 ) ) ;
#377 = STYLED_ITEM ( 'NONE', ( #378 ), #124 ) ;
#378 = PRESENTATION_STYLE_ASSIGNMENT (( #379 ) ) ;
#379 = SURFACE_STYLE_USAGE ( .BOTH. , #380 ) ;
#380 = SURFACE_SIDE_STYLE ('',( #381 ) ) ;
#381 = SURFACE_STYLE_FILL_AREA ( #382 ) ;
#382 = FILL_AREA_STYLE ('',( #434 ) ) ;
#383 = LINE ( 'NONE', #450, #455 ) ;
#384 = UNCERTAINTY_MEASURE_WITH_UNIT (LENGTH_MEASURE( 1.000000000000000100E-005 ), #387, 'distance_accuracy_value', 'NONE');
#385 =( NAMED_UNIT ( * ) SI_UNIT ( $, .STERADIAN. ) SOLID_ANGLE_UNIT ( ) );
#386 =( NAMED_UNIT ( * ) PLANE_ANGLE_UNIT ( ) SI_UNIT ( $, .RADIAN. ) );
#387 =( CONVERSION_BASED_UNIT ( 'INCH', #388 ) LENGTH_UNIT ( ) NAMED_UNIT ( #389 ) );
#388 = LENGTH_MEASURE_WITH_UNIT ( LENGTH_MEASURE( 0.02539999999999999900 ), #359 );
#389 = DIMENSIONAL_EXPONENTS ( 1.000000000000000000, 0.0000000000000000000, 0.0000000000000000000, 0.0000000000000000000, 0.0000000000000000000, 0.0000000000000000000, 0.0000000000000000000 ) ;
#390 = DIRECTION ( 'NONE',  ( -0.7071067811865517900, 0.7071067811865431300, 0.0000000000000000000 ) ) ;
#391 = DIRECTION ( 'NONE',  ( 0.7071067811865432400, 0.7071067811865519000, 9.199760500100301500E-017 ) ) ;
#392 = CARTESIAN_POINT ( 'NONE',  ( -0.4330708661417323500, -0.3881330174709719500, 0.07165354330708724500 ) ) ;
#393 =( LENGTH_UNIT ( ) NAMED_UNIT ( * ) SI_UNIT ( $, .METRE. ) );
#394 = MECHANICAL_DESIGN_GEOMETRIC_PRESENTATION_REPRESENTATION (  '', ( #414 ), #449 ) ;
#395 = PRESENTATION_LAYER_ASSIGNMENT (  '', '', ( #414 ) ) ;
#396 = DIRECTION ( 'NONE',  ( 0.0000000000000000000, 0.0000000000000000000, 1.000000000000000000 ) ) ;
#397 = DIRECTION ( 'NONE',  ( -1.000000000000000000, -0.0000000000000000000, -0.0000000000000000000 ) ) ;
#398 = CARTESIAN_POINT ( 'NONE',  ( 0.4330708661417322900, 0.0000000000000000000, -2.980314960629920000 ) ) ;
#399 = AXIS2_PLACEMENT_3D ( 'NONE', #398, #397, #396 ) ;
#400 = LINE ( 'NONE', #330, #329 ) ;
#401 = CARTESIAN_POINT ( 'NONE',  ( -0.4275030962111294700, 0.3937007874015748300, 0.04615351583284882400 ) ) ;
#402 = CYLINDRICAL_SURFACE ( 'NONE', #399, 3.051968503937007200 ) ;
#403 =( GEOMETRIC_REPRESENTATION_CONTEXT ( 3 ) GLOBAL_UNCERTAINTY_ASSIGNED_CONTEXT ( ( #472 ) ) GLOBAL_UNIT_ASSIGNED_CONTEXT ( ( #475, #474, #473 ) ) REPRESENTATION_CONTEXT ( 'NONE', 'WORKASPACE' ) );
#404 =( CONVERSION_BASED_UNIT ( 'INCH', #405 ) LENGTH_UNIT ( ) NAMED_UNIT ( #471 ) );
#405 = LENGTH_MEASURE_WITH_UNIT ( LENGTH_MEASURE( 0.02539999999999999900 ), #393 );
#406 = COLOUR_RGB ( '',0.7529411764705882200, 0.7529411764705882200, 0.7529411764705882200 ) ;
#407 = FACE_OUTER_BOUND ( 'NONE', #121, .T. ) ;
#408 = DIRECTION ( 'NONE',  ( -0.0000000000000000000, 1.301042606982605300E-016, -1.000000000000000000 ) ) ;
#409 = VECTOR ( 'NONE', #408, 39.37007874015748100 ) ;
#410 = CARTESIAN_POINT ( 'NONE',  ( -0.4330708661417322900, 0.3881330174709720600, 0.07165354330708735600 ) ) ;
#411 = CARTESIAN_POINT ( 'NONE',  ( -0.4330708661417322900, -0.3937007874015748300, -0.06608577337648395600 ) ) ;
#412 = LINE ( 'NONE', #411, #428 ) ;
#413 = UNCERTAINTY_MEASURE_WITH_UNIT (LENGTH_MEASURE( 1.000000000000000100E-005 ), #421, 'distance_accuracy_value', 'NONE');
#414 = STYLED_ITEM ( 'NONE', ( #415 ), #109 ) ;
#415 = PRESENTATION_STYLE_ASSIGNMENT (( #416 ) ) ;
#416 = SURFACE_STYLE_USAGE ( .BOTH. , #417 ) ;
#417 = SURFACE_SIDE_STYLE ('',( #418 ) ) ;
#418 = SURFACE_STYLE_FILL_AREA ( #429 ) ;
#419 =( NAMED_UNIT ( * ) SI_UNIT ( $, .STERADIAN. ) SOLID_ANGLE_UNIT ( ) );
#420 =( NAMED_UNIT ( * ) PLANE_ANGLE_UNIT ( ) SI_UNIT ( $, .RADIAN. ) );
#421 =( CONVERSION_BASED_UNIT ( 'INCH', #424 ) LENGTH_UNIT ( ) NAMED_UNIT ( #425 ) );
#422 = CARTESIAN_POINT ( 'NONE',  ( 0.4275030962111294700, 0.3937007874015748300, 0.04615351583284882400 ) ) ;
#423 = CARTESIAN_POINT ( 'NONE',  ( 0.4293587988045413600, 0.3918450848081629400, 0.04639491652077647900 ) ) ;
#424 = LENGTH_MEASURE_WITH_UNIT ( LENGTH_MEASURE( 0.02539999999999999900 ), #426 );
#425 = DIMENSIONAL_EXPONENTS ( 1.000000000000000000, 0.0000000000000000000, 0.0000000000000000000, 0.0000000000000000000, 0.0000000000000000000, 0.0000000000000000000, 0.0000000000000000000 ) ;
#426 =( LENGTH_UNIT ( ) NAMED_UNIT ( * ) SI_UNIT ( $, .METRE. ) );
#427 = DIRECTION ( 'NONE',  ( 1.000000000000000000, -0.0000000000000000000, -0.0000000000000000000 ) ) ;
#428 = VECTOR ( 'NONE', #427, 39.37007874015748100 ) ;
#429 = FILL_AREA_STYLE ('',( #430 ) ) ;
#430 = FILL_AREA_STYLE_COLOUR ( '', #431 ) ;
#431 = COLOUR_RGB ( '',0.7529411764705882200, 0.7529411764705882200, 0.7529411764705882200 ) ;
#432 = FACE_OUTER_BOUND ( 'NONE', #23, .T. ) ;
#433 = LINE ( 'NONE', #410, #409 ) ;
#434 = FILL_AREA_STYLE_COLOUR ( '', #406 ) ;
#435 = DIRECTION ( 'NONE',  ( -0.0000000000000000000, 1.000000000000000000, -0.0000000000000000000 ) ) ;
#436 = VECTOR ( 'NONE', #435, 39.37007874015748100 ) ;
#437 = CARTESIAN_POINT ( 'NONE',  ( 0.4275030962111295300, -0.3937007874015748300, -0.07165354330708675900 ) ) ;
#438 = LINE ( 'NONE', #437, #436 ) ;
#439 = CARTESIAN_POINT ( 'NONE',  ( 0.4330708661417322900, 0.3937007874015748300, 0.04615351583284882400 ) ) ;
#440 = LINE ( 'NONE', #439, #344 ) ;
#441 = FILL_AREA_STYLE_COLOUR ( '', #341 ) ;
#442 = DIRECTION ( 'NONE',  ( 0.0000000000000000000, 0.0000000000000000000, -1.000000000000000000 ) ) ;
#443 = DIRECTION ( 'NONE',  ( 1.000000000000000000, 0.0000000000000000000, 0.0000000000000000000 ) ) ;
#444 = AXIS2_PLACEMENT_3D ( 'NONE', #466, #443, #442 ) ;
#445 = CIRCLE ( 'NONE', #444, 3.051968503937007200 ) ;
#446 = DIRECTION ( 'NONE',  ( 0.7071067811865474600, 0.0000000000000000000, -0.7071067811865474600 ) ) ;
#447 = DIRECTION ( 'NONE',  ( 0.7071067811865475700, 0.0000000000000000000, 0.7071067811865475700 ) ) ;
#448 = CARTESIAN_POINT ( 'NONE',  ( -0.4275030962111295300, -0.3937007874015748300, -0.07165354330708664800 ) ) ;
#449 =( GEOMETRIC_REPRESENTATION_CONTEXT ( 3 ) GLOBAL_UNCERTAINTY_ASSIGNED_CONTEXT ( ( #357 ) ) GLOBAL_UNIT_ASSIGNED_CONTEXT ( ( #404, #350, #358 ) ) REPRESENTATION_CONTEXT ( 'NONE', 'WORKASPACE' ) );
#450 = CARTESIAN_POINT ( 'NONE',  ( 0.4330708661417322900, -0.3937007874015748300, -0.06608577337648401100 ) ) ;
#451 = VECTOR ( 'NONE', #454, 39.37007874015748900 ) ;
#452 = CARTESIAN_POINT ( 'NONE',  ( 0.4330708661417322900, 0.3881330174709720600, -0.06608577337648401100 ) ) ;
#453 = DIRECTION ( 'NONE',  ( -0.0000000000000000000, 1.000000000000000000, -0.0000000000000000000 ) ) ;
#454 = DIRECTION ( 'NONE',  ( 0.5773502691896245100, 0.5773502691896280600, -0.5773502691896245100 ) ) ;
#455 = VECTOR ( 'NONE', #453, 39.37007874015748100 ) ;
#456 = LINE ( 'NONE', #374, #373 ) ;
#457 = LINE ( 'NONE', #464, #463 ) ;
#458 = DIRECTION ( 'NONE',  ( -0.0000000000000000000, 1.301042606982605300E-016, -1.000000000000000000 ) ) ;
#459 = VECTOR ( 'NONE', #458, 39.37007874015748100 ) ;
#460 = CARTESIAN_POINT ( 'NONE',  ( -0.4330708661417323500, -0.3881330174709719500, 0.07165354330708724500 ) ) ;
#461 = LINE ( 'NONE', #460, #459 ) ;
#462 = DIRECTION ( 'NONE',  ( -0.5773502691896316200, 0.5773502691896246200, -0.5773502691896210700 ) ) ;
#463 = VECTOR ( 'NONE', #462, 39.37007874015748100 ) ;
#464 = CARTESIAN_POINT ( 'NONE',  ( -0.4293590195213303800, -0.3918448640913738700, -0.06794169668668491300 ) ) ;
#465 = PLANE ( 'NONE',  #467 ) ;
#466 = CARTESIAN_POINT ( 'NONE',  ( -0.4330708661417322900, 0.0000000000000000000, -2.980314960629920000 ) ) ;
#467 = AXIS2_PLACEMENT_3D ( 'NONE', #448, #447, #446 ) ;
#468 =( GEOMETRIC_REPRESENTATION_CONTEXT ( 3 ) GLOBAL_UNCERTAINTY_ASSIGNED_CONTEXT ( ( #413 ) ) GLOBAL_UNIT_ASSIGNED_CONTEXT ( ( #421, #420, #419 ) ) REPRESENTATION_CONTEXT ( 'NONE', 'WORKASPACE' ) );
#469 = AXIS2_PLACEMENT_3D ( 'NONE', #392, #391, #390 ) ;
#470 = PLANE ( 'NONE',  #469 ) ;
#471 = DIMENSIONAL_EXPONENTS ( 1.000000000000000000, 0.0000000000000000000, 0.0000000000000000000, 0.0000000000000000000, 0.0000000000000000000, 0.0000000000000000000, 0.0000000000000000000 ) ;
#472 = UNCERTAINTY_MEASURE_WITH_UNIT (LENGTH_MEASURE( 1.000000000000000100E-005 ), #475, 'distance_accuracy_value', 'NONE');
#473 =( NAMED_UNIT ( * ) SI_UNIT ( $, .STERADIAN. ) SOLID_ANGLE_UNIT ( ) );
#474 =( NAMED_UNIT ( * ) PLANE_ANGLE_UNIT ( ) SI_UNIT ( $, .RADIAN. ) );
#475 =( CONVERSION_BASED_UNIT ( 'INCH', #476 ) LENGTH_UNIT ( ) NAMED_UNIT ( #331 ) );
#476 = LENGTH_MEASURE_WITH_UNIT ( LENGTH_MEASURE( 0.02539999999999999900 ), #332 );
#477 = UNCERTAINTY_MEASURE_WITH_UNIT (LENGTH_MEASURE( 1.000000000000000100E-005 ), #564, 'distance_accuracy_value', 'NONE');
#478 = LENGTH_MEASURE_WITH_UNIT ( LENGTH_MEASURE( 0.02539999999999999900 ), #583 );
#479 = DIMENSIONAL_EXPONENTS ( 1.000000000000000000, 0.0000000000000000000, 0.0000000000000000000, 0.0000000000000000000, 0.0000000000000000000, 0.0000000000000000000, 0.0000000000000000000 ) ;
#480 = SURFACE_STYLE_USAGE ( .BOTH. , #481 ) ;
#481 = SURFACE_SIDE_STYLE ('',( #482 ) ) ;
#482 = SURFACE_STYLE_FILL_AREA ( #483 ) ;
#483 = FILL_AREA_STYLE ('',( #492 ) ) ;
#484 = COLOUR_RGB ( '',0.7529411764705882200, 0.7529411764705882200, 0.7529411764705882200 ) ;
#485 = FACE_OUTER_BOUND ( 'NONE', #154, .T. ) ;
#486 = CARTESIAN_POINT ( 'NONE',  ( -0.4330708661417322900, 0.3881330174709720600, 0.04687259711610979000 ) ) ;
#487 = CARTESIAN_POINT ( 'NONE',  ( -0.4302869811764308800, 0.3909169024362734700, -0.06886965834178522500 ) ) ;
#488 = DIRECTION ( 'NONE',  ( 0.5773502691896280600, 0.5773502691896211800, -0.5773502691896280600 ) ) ;
#489 = VECTOR ( 'NONE', #488, 39.37007874015748100 ) ;
#490 = CARTESIAN_POINT ( 'NONE',  ( -0.6899702878121784000, 0.1312335958005291200, 0.1908136482939621900 ) ) ;
#491 = LINE ( 'NONE', #490, #489 ) ;
#492 = FILL_AREA_STYLE_COLOUR ( '', #484 ) ;
#493 = CARTESIAN_POINT ( 'NONE',  ( 0.4275030962111295300, -0.3937007874015748300, -0.07165354330708675900 ) ) ;
#494 = MECHANICAL_DESIGN_GEOMETRIC_PRESENTATION_REPRESENTATION (  '', ( #496 ), #545 ) ;
#495 = PRESENTATION_LAYER_ASSIGNMENT (  '', '', ( #496 ) ) ;
#496 = STYLED_ITEM ( 'NONE', ( #497 ), #141 ) ;
#497 = PRESENTATION_STYLE_ASSIGNMENT (( #498 ) ) ;
#498 = SURFACE_STYLE_USAGE ( .BOTH. , #499 ) ;
#499 = SURFACE_SIDE_STYLE ('',( #546 ) ) ;
#500 = DIMENSIONAL_EXPONENTS ( 1.000000000000000000, 0.0000000000000000000, 0.0000000000000000000, 0.0000000000000000000, 0.0000000000000000000, 0.0000000000000000000, 0.0000000000000000000 ) ;
#501 =( NAMED_UNIT ( * ) SI_UNIT ( $, .STERADIAN. ) SOLID_ANGLE_UNIT ( ) );
#502 =( NAMED_UNIT ( * ) PLANE_ANGLE_UNIT ( ) SI_UNIT ( $, .RADIAN. ) );
#503 =( CONVERSION_BASED_UNIT ( 'INCH', #478 ) LENGTH_UNIT ( ) NAMED_UNIT ( #479 ) );
#504 = DIRECTION ( 'NONE',  ( 0.0000000000000000000, -0.7071067811865496800, 0.7071067811865453500 ) ) ;
#505 = DIRECTION ( 'NONE',  ( 0.0000000000000000000, 0.7071067811865453500, 0.7071067811865496800 ) ) ;
#506 = CARTESIAN_POINT ( 'NONE',  ( -0.4330708661417322900, -0.3937007874015748300, -0.06608577337648395600 ) ) ;
#507 = AXIS2_PLACEMENT_3D ( 'NONE', #506, #505, #504 ) ;
#508 = FILL_AREA_STYLE_COLOUR ( '', #548 ) ;
#509 = LENGTH_MEASURE_WITH_UNIT ( LENGTH_MEASURE( 0.02539999999999999900 ), #533 );
#510 =( NAMED_UNIT ( * ) SI_UNIT ( $, .STERADIAN. ) SOLID_ANGLE_UNIT ( ) );
#511 = FACE_OUTER_BOUND ( 'NONE', #142, .T. ) ;
#512 = DIRECTION ( 'NONE',  ( -0.0000000000000000000, 1.000000000000000000, -0.0000000000000000000 ) ) ;
#513 =( GEOMETRIC_REPRESENTATION_CONTEXT ( 3 ) GLOBAL_UNCERTAINTY_ASSIGNED_CONTEXT ( ( #384 ) ) GLOBAL_UNIT_ASSIGNED_CONTEXT ( ( #387, #386, #385 ) ) REPRESENTATION_CONTEXT ( 'NONE', 'WORKASPACE' ) );
#514 = LINE ( 'NONE', #529, #528 ) ;
#515 = DIRECTION ( 'NONE',  ( 0.0000000000000000000, -0.0000000000000000000, 1.000000000000000000 ) ) ;
#516 = DIRECTION ( 'NONE',  ( 0.0000000000000000000, 1.000000000000000000, 0.0000000000000000000 ) ) ;
#517 = VECTOR ( 'NONE', #512, 39.37007874015748100 ) ;
#518 = CARTESIAN_POINT ( 'NONE',  ( -0.4275030962111295300, -0.3937007874015748300, -0.07165354330708664800 ) ) ;
#519 = LINE ( 'NONE', #518, #517 ) ;
#520 = UNCERTAINTY_MEASURE_WITH_UNIT (LENGTH_MEASURE( 1.000000000000000100E-005 ), #523, 'distance_accuracy_value', 'NONE');
#521 =( NAMED_UNIT ( * ) SI_UNIT ( $, .STERADIAN. ) SOLID_ANGLE_UNIT ( ) );
#522 =( NAMED_UNIT ( * ) PLANE_ANGLE_UNIT ( ) SI_UNIT ( $, .RADIAN. ) );
#523 =( CONVERSION_BASED_UNIT ( 'INCH', #534 ) LENGTH_UNIT ( ) NAMED_UNIT ( #535 ) );
#524 = VECTOR ( 'NONE', #540, 39.37007874015748100 ) ;
#525 = CARTESIAN_POINT ( 'NONE',  ( -0.4330708661417322900, -0.3881330174709720600, -0.07165354330708666200 ) ) ;
#526 = LINE ( 'NONE', #525, #524 ) ;
#527 = DIRECTION ( 'NONE',  ( 0.5773502691896245100, -0.5773502691896280600, 0.5773502691896245100 ) ) ;
#528 = VECTOR ( 'NONE', #527, 39.37007874015748900 ) ;
#529 = CARTESIAN_POINT ( 'NONE',  ( 0.1443569553805786300, -0.1049868766404193600, -0.3547996841376376300 ) ) ;
#530 = PLANE ( 'NONE',  #565 ) ;
#531 = CARTESIAN_POINT ( 'NONE',  ( -0.4330708661417322900, 0.3937007874015748300, -0.06608577337648387200 ) ) ;
#532 = LINE ( 'NONE', #531, #551 ) ;
#533 =( LENGTH_UNIT ( ) NAMED_UNIT ( * ) SI_UNIT ( $, .METRE. ) );
#534 = LENGTH_MEASURE_WITH_UNIT ( LENGTH_MEASURE( 0.02539999999999999900 ), #536 );
#535 = DIMENSIONAL_EXPONENTS ( 1.000000000000000000, 0.0000000000000000000, 0.0000000000000000000, 0.0000000000000000000, 0.0000000000000000000, 0.0000000000000000000, 0.0000000000000000000 ) ;
#536 =( LENGTH_UNIT ( ) NAMED_UNIT ( * ) SI_UNIT ( $, .METRE. ) );
#537 = CARTESIAN_POINT ( 'NONE',  ( 0.4275030962111295300, -0.3937007874015746600, -0.06608577337648403900 ) ) ;
#538 = CARTESIAN_POINT ( 'NONE',  ( 0.4302869811764308300, -0.3909169024362733100, -0.06886965834178544700 ) ) ;
#539 = CARTESIAN_POINT ( 'NONE',  ( 0.4275030962111295300, -0.3881330174709720600, -0.07165354330708671700 ) ) ;
#540 = DIRECTION ( 'NONE',  ( 1.000000000000000000, -0.0000000000000000000, -0.0000000000000000000 ) ) ;
#541 = DIRECTION ( 'NONE',  ( -0.7071067811865475700, 0.0000000000000000000, 0.7071067811865475700 ) ) ;
#542 = UNCERTAINTY_MEASURE_WITH_UNIT (LENGTH_MEASURE( 1.000000000000000100E-005 ), #503, 'distance_accuracy_value', 'NONE');
#543 = DIRECTION ( 'NONE',  ( 0.7071067811865474600, 0.0000000000000000000, 0.7071067811865474600 ) ) ;
#544 =( NAMED_UNIT ( * ) PLANE_ANGLE_UNIT ( ) SI_UNIT ( $, .RADIAN. ) );
#545 =( GEOMETRIC_REPRESENTATION_CONTEXT ( 3 ) GLOBAL_UNCERTAINTY_ASSIGNED_CONTEXT ( ( #477 ) ) GLOBAL_UNIT_ASSIGNED_CONTEXT ( ( #564, #544, #510 ) ) REPRESENTATION_CONTEXT ( 'NONE', 'WORKASPACE' ) );
#546 = SURFACE_STYLE_FILL_AREA ( #547 ) ;
#547 = FILL_AREA_STYLE ('',( #508 ) ) ;
#548 = COLOUR_RGB ( '',0.7529411764705882200, 0.7529411764705882200, 0.7529411764705882200 ) ;
#549 = CARTESIAN_POINT ( 'NONE',  ( -0.4275030962111295300, 0.3881330174709720100, -0.07165354330708664800 ) ) ;
#550 = DIRECTION ( 'NONE',  ( -0.5773502691896245100, 0.5773502691896280600, 0.5773502691896245100 ) ) ;
#551 = VECTOR ( 'NONE', #550, 39.37007874015748900 ) ;
#552 = PLANE ( 'NONE',  #554 ) ;
#553 = CARTESIAN_POINT ( 'NONE',  ( 0.4330708661417322900, -0.3937007874015748300, -0.07165354330708666200 ) ) ;
#554 = AXIS2_PLACEMENT_3D ( 'NONE', #553, #516, #515 ) ;
#555 =( GEOMETRIC_REPRESENTATION_CONTEXT ( 3 ) GLOBAL_UNCERTAINTY_ASSIGNED_CONTEXT ( ( #542 ) ) GLOBAL_UNIT_ASSIGNED_CONTEXT ( ( #503, #502, #501 ) ) REPRESENTATION_CONTEXT ( 'NONE', 'WORKASPACE' ) );
#556 = DIRECTION ( 'NONE',  ( 1.000000000000000000, -0.0000000000000000000, -0.0000000000000000000 ) ) ;
#557 = VECTOR ( 'NONE', #556, 39.37007874015748100 ) ;
#558 = CARTESIAN_POINT ( 'NONE',  ( -0.4330708661417322900, 0.3937007874015748300, -0.06608577337648385800 ) ) ;
#559 = LINE ( 'NONE', #558, #557 ) ;
#560 = DIRECTION ( 'NONE',  ( -0.5773502691896316200, -0.5773502691896246200, 0.5773502691896210700 ) ) ;
#561 = VECTOR ( 'NONE', #560, 39.37007874015748100 ) ;
#562 = CARTESIAN_POINT ( 'NONE',  ( 0.1406451087601697000, -0.6805587748525310200, 0.2207722140744705100 ) ) ;
#563 = LINE ( 'NONE', #562, #561 ) ;
#564 =( CONVERSION_BASED_UNIT ( 'INCH', #509 ) LENGTH_UNIT ( ) NAMED_UNIT ( #500 ) );
#565 = AXIS2_PLACEMENT_3D ( 'NONE', #493, #541, #543 ) ;
#566 = PLANE ( 'NONE',  #507 ) ;
#567 = LENGTH_MEASURE_WITH_UNIT ( LENGTH_MEASURE( 0.02539999999999999900 ), #569 );
#568 = DIMENSIONAL_EXPONENTS ( 1.000000000000000000, 0.0000000000000000000, 0.0000000000000000000, 0.0000000000000000000, 0.0000000000000000000, 0.0000000000000000000, 0.0000000000000000000 ) ;
#569 =( LENGTH_UNIT ( ) NAMED_UNIT ( * ) SI_UNIT ( $, .METRE. ) );
#570 = MECHANICAL_DESIGN_GEOMETRIC_PRESENTATION_REPRESENTATION (  '', ( #572 ), #593 ) ;
#571 = PRESENTATION_LAYER_ASSIGNMENT (  '', '', ( #572 ) ) ;
#572 = STYLED_ITEM ( 'NONE', ( #573 ), #581 ) ;
#573 = PRESENTATION_STYLE_ASSIGNMENT (( #574 ) ) ;
#574 = SURFACE_STYLE_USAGE ( .BOTH. , #575 ) ;
#575 = SURFACE_SIDE_STYLE ('',( #576 ) ) ;
#576 = SURFACE_STYLE_FILL_AREA ( #577 ) ;
#577 = FILL_AREA_STYLE ('',( #578 ) ) ;
#578 = FILL_AREA_STYLE_COLOUR ( '', #579 ) ;
#579 = COLOUR_RGB ( '',0.7960784313725489700, 0.8235294117647058400, 0.9372549019607843100 ) ;
#580 = SHELL_BASED_SURFACE_MODEL ( 'NONE', ( #296 ) );
#581 = MANIFOLD_SURFACE_SHAPE_REPRESENTATION ( '5915-E0W', ( #580, #599 ), #582 ) ;
#582 =( GEOMETRIC_REPRESENTATION_CONTEXT ( 3 ) GLOBAL_UNCERTAINTY_ASSIGNED_CONTEXT ( ( #520 ) ) GLOBAL_UNIT_ASSIGNED_CONTEXT ( ( #523, #522, #521 ) ) REPRESENTATION_CONTEXT ( 'NONE', 'WORKASPACE' ) );
#583 =( LENGTH_UNIT ( ) NAMED_UNIT ( * ) SI_UNIT ( $, .METRE. ) );
#584 = MECHANICAL_DESIGN_GEOMETRIC_PRESENTATION_REPRESENTATION (  '', ( #586 ), #555 ) ;
#585 = PRESENTATION_LAYER_ASSIGNMENT (  '', '', ( #586 ) ) ;
#586 = STYLED_ITEM ( 'NONE', ( #587 ), #152 ) ;
#587 = PRESENTATION_STYLE_ASSIGNMENT (( #480 ) ) ;
#588 =( NAMED_UNIT ( * ) SI_UNIT ( $, .STERADIAN. ) SOLID_ANGLE_UNIT ( ) );
#589 = UNCERTAINTY_MEASURE_WITH_UNIT (LENGTH_MEASURE( 1.000000000000000100E-005 ), #608, 'distance_accuracy_value', 'NONE');
#590 = DIRECTION ( 'NONE',  ( 1.000000000000000000, 0.0000000000000000000, 0.0000000000000000000 ) ) ;
#591 = DIRECTION ( 'NONE',  ( 0.0000000000000000000, 0.0000000000000000000, 1.000000000000000000 ) ) ;
#592 = CARTESIAN_POINT ( 'NONE',  ( 0.0000000000000000000, 0.0000000000000000000, 0.0000000000000000000 ) ) ;
#593 =( GEOMETRIC_REPRESENTATION_CONTEXT ( 3 ) GLOBAL_UNCERTAINTY_ASSIGNED_CONTEXT ( ( #589 ) ) GLOBAL_UNIT_ASSIGNED_CONTEXT ( ( #608, #607, #588 ) ) REPRESENTATION_CONTEXT ( 'NONE', 'WORKASPACE' ) );
#594 = PRODUCT_RELATED_PRODUCT_CATEGORY ( 'part', '', ( #603 ) ) ;
#595 = PRODUCT_DEFINITION_FORMATION_WITH_SPECIFIED_SOURCE ( 'ANY', '', #603, .NOT_KNOWN. ) ;
#596 = PRODUCT_DEFINITION ( 'UNKNOWN', '', #595, #597 ) ;
#597 = PRODUCT_DEFINITION_CONTEXT ( 'detailed design', #602, 'design' ) ;
#598 = PRODUCT_DEFINITION_SHAPE ( 'NONE', 'NONE',  #596 ) ;
#599 = AXIS2_PLACEMENT_3D ( 'NONE', #592, #591, #590 ) ;
#600 = SHAPE_DEFINITION_REPRESENTATION ( #598, #581 ) ;
#601 = APPLICATION_PROTOCOL_DEFINITION ( 'draft international standard', 'automotive_design', 1998, #602 ) ;
#602 = APPLICATION_CONTEXT ( 'automotive_design' ) ;
#603 = PRODUCT ( '5915-E0W', '5915-E0W', '', ( #604 ) ) ;
#604 = PRODUCT_CONTEXT ( 'NONE', #606, 'mechanical' ) ;
#605 = APPLICATION_PROTOCOL_DEFINITION ( 'draft international standard', 'automotive_design', 1998, #606 ) ;
#606 = APPLICATION_CONTEXT ( 'automotive_design' ) ;
#607 =( NAMED_UNIT ( * ) PLANE_ANGLE_UNIT ( ) SI_UNIT ( $, .RADIAN. ) );
#608 =( CONVERSION_BASED_UNIT ( 'INCH', #567 ) LENGTH_UNIT ( ) NAMED_UNIT ( #568 ) );
#609 = UNCERTAINTY_MEASURE_WITH_UNIT (LENGTH_MEASURE( 1.000000000000000100E-005 ), #612, 'distance_accuracy_value', 'NONE');
#610 =( NAMED_UNIT ( * ) SI_UNIT ( $, .STERADIAN. ) SOLID_ANGLE_UNIT ( ) );
#611 =( NAMED_UNIT ( * ) PLANE_ANGLE_UNIT ( ) SI_UNIT ( $, .RADIAN. ) );
#612 =( CONVERSION_BASED_UNIT ( 'INCH', #613 ) LENGTH_UNIT ( ) NAMED_UNIT ( #614 ) );
#613 = LENGTH_MEASURE_WITH_UNIT ( LENGTH_MEASURE( 0.02539999999999999900 ), #615 );
#614 = DIMENSIONAL_EXPONENTS ( 1.000000000000000000, 0.0000000000000000000, 0.0000000000000000000, 0.0000000000000000000, 0.0000000000000000000, 0.0000000000000000000, 0.0000000000000000000 ) ;
#615 =( LENGTH_UNIT ( ) NAMED_UNIT ( * ) SI_UNIT ( $, .METRE. ) );
#616 = MECHANICAL_DESIGN_GEOMETRIC_PRESENTATION_REPRESENTATION (  '', ( #618 ), #768 ) ;
#617 = PRESENTATION_LAYER_ASSIGNMENT (  '', '', ( #618 ) ) ;
#618 = STYLED_ITEM ( 'NONE', ( #619 ), #67 ) ;
#619 = PRESENTATION_STYLE_ASSIGNMENT (( #620 ) ) ;
#620 = SURFACE_STYLE_USAGE ( .BOTH. , #621 ) ;
#621 = SURFACE_SIDE_STYLE ('',( #622 ) ) ;
#622 = SURFACE_STYLE_FILL_AREA ( #623 ) ;
#623 = FILL_AREA_STYLE ('',( #729 ) ) ;
#624 = COLOUR_RGB ( '',0.7529411764705882200, 0.7529411764705882200, 0.7529411764705882200 ) ;
#625 = FACE_OUTER_BOUND ( 'NONE', #70, .T. ) ;
#626 = DIRECTION ( 'NONE',  ( -0.0000000000000000000, 1.301042606982605300E-016, -1.000000000000000000 ) ) ;
#627 =( NAMED_UNIT ( * ) PLANE_ANGLE_UNIT ( ) SI_UNIT ( $, .RADIAN. ) );
#628 =( CONVERSION_BASED_UNIT ( 'INCH', #629 ) LENGTH_UNIT ( ) NAMED_UNIT ( #659 ) );
#629 = LENGTH_MEASURE_WITH_UNIT ( LENGTH_MEASURE( 0.02539999999999999900 ), #660 );
#630 =( NAMED_UNIT ( * ) PLANE_ANGLE_UNIT ( ) SI_UNIT ( $, .RADIAN. ) );
#631 =( CONVERSION_BASED_UNIT ( 'INCH', #725 ) LENGTH_UNIT ( ) NAMED_UNIT ( #657 ) );
#632 = CARTESIAN_POINT ( 'NONE',  ( 0.4275030962111295300, -0.3937007874015746600, 0.04615351583284882400 ) ) ;
#633 = CARTESIAN_POINT ( 'NONE',  ( 0.4312147226380603800, -0.3899891609746438700, 0.04663461034945092600 ) ) ;
#634 = DIRECTION ( 'NONE',  ( 0.5773502691896280600, -0.5773502691896211800, 0.5773502691896280600 ) ) ;
#635 = CARTESIAN_POINT ( 'NONE',  ( 0.6899702878121784000, 0.1312335958005291200, 0.1908136482939621100 ) ) ;
#636 = LINE ( 'NONE', #635, #675 ) ;
#637 = PRESENTATION_LAYER_ASSIGNMENT (  '', '', ( #638 ) ) ;
#638 = STYLED_ITEM ( 'NONE', ( #639 ), #54 ) ;
#639 = PRESENTATION_STYLE_ASSIGNMENT (( #640 ) ) ;
#640 = SURFACE_STYLE_USAGE ( .BOTH. , #641 ) ;
#641 = SURFACE_SIDE_STYLE ('',( #642 ) ) ;
#642 = SURFACE_STYLE_FILL_AREA ( #720 ) ;
#643 = COLOUR_RGB ( '',0.7529411764705882200, 0.7529411764705882200, 0.7529411764705882200 ) ;
#644 = FACE_OUTER_BOUND ( 'NONE', #62, .T. ) ;
#645 = DIRECTION ( 'NONE',  ( 0.7071067811865517900, -0.7071067811865431300, 0.0000000000000000000 ) ) ;
#646 = DIRECTION ( 'NONE',  ( -0.7071067811865432400, -0.7071067811865519000, -9.199760500100301500E-017 ) ) ;
#647 = FILL_AREA_STYLE_COLOUR ( '', #648 ) ;
#648 = COLOUR_RGB ( '',0.7529411764705882200, 0.7529411764705882200, 0.7529411764705882200 ) ;
#649 = DIRECTION ( 'NONE',  ( 0.7071067811865517900, 0.7071067811865431300, 0.0000000000000000000 ) ) ;
#650 = DIRECTION ( 'NONE',  ( 0.7071067811865432400, -0.7071067811865519000, -9.199760500100301500E-017 ) ) ;
#651 = CARTESIAN_POINT ( 'NONE',  ( -0.4330708661417322900, 0.3881330174709720600, 0.07165354330708735600 ) ) ;
#652 = AXIS2_PLACEMENT_3D ( 'NONE', #651, #650, #649 ) ;
#653 = PLANE ( 'NONE',  #652 ) ;
#654 =( GEOMETRIC_REPRESENTATION_CONTEXT ( 3 ) GLOBAL_UNCERTAINTY_ASSIGNED_CONTEXT ( ( #663 ) ) GLOBAL_UNIT_ASSIGNED_CONTEXT ( ( #666, #665, #664 ) ) REPRESENTATION_CONTEXT ( 'NONE', 'WORKASPACE' ) );
#655 =( GEOMETRIC_REPRESENTATION_CONTEXT ( 3 ) GLOBAL_UNCERTAINTY_ASSIGNED_CONTEXT ( ( #662 ) ) GLOBAL_UNIT_ASSIGNED_CONTEXT ( ( #631, #630, #706 ) ) REPRESENTATION_CONTEXT ( 'NONE', 'WORKASPACE' ) );
#656 = CARTESIAN_POINT ( 'NONE',  ( 0.4293587988045413600, -0.3918450848081627700, 0.04639491652077641600 ) ) ;
#657 = DIMENSIONAL_EXPONENTS ( 1.000000000000000000, 0.0000000000000000000, 0.0000000000000000000, 0.0000000000000000000, 0.0000000000000000000, 0.0000000000000000000, 0.0000000000000000000 ) ;
#658 =( LENGTH_UNIT ( ) NAMED_UNIT ( * ) SI_UNIT ( $, .METRE. ) );
#659 = DIMENSIONAL_EXPONENTS ( 1.000000000000000000, 0.0000000000000000000, 0.0000000000000000000, 0.0000000000000000000, 0.0000000000000000000, 0.0000000000000000000, 0.0000000000000000000 ) ;
#660 =( LENGTH_UNIT ( ) NAMED_UNIT ( * ) SI_UNIT ( $, .METRE. ) );
#661 = MECHANICAL_DESIGN_GEOMETRIC_PRESENTATION_REPRESENTATION (  '', ( #638 ), #743 ) ;
#662 = UNCERTAINTY_MEASURE_WITH_UNIT (LENGTH_MEASURE( 1.000000000000000100E-005 ), #631, 'distance_accuracy_value', 'NONE');
#663 = UNCERTAINTY_MEASURE_WITH_UNIT (LENGTH_MEASURE( 1.000000000000000100E-005 ), #666, 'distance_accuracy_value', 'NONE');
#664 =( NAMED_UNIT ( * ) SI_UNIT ( $, .STERADIAN. ) SOLID_ANGLE_UNIT ( ) );
#665 =( NAMED_UNIT ( * ) PLANE_ANGLE_UNIT ( ) SI_UNIT ( $, .RADIAN. ) );
#666 =( CONVERSION_BASED_UNIT ( 'INCH', #667 ) LENGTH_UNIT ( ) NAMED_UNIT ( #668 ) );
#667 = LENGTH_MEASURE_WITH_UNIT ( LENGTH_MEASURE( 0.02539999999999999900 ), #669 );
#668 = DIMENSIONAL_EXPONENTS ( 1.000000000000000000, 0.0000000000000000000, 0.0000000000000000000, 0.0000000000000000000, 0.0000000000000000000, 0.0000000000000000000, 0.0000000000000000000 ) ;
#669 =( LENGTH_UNIT ( ) NAMED_UNIT ( * ) SI_UNIT ( $, .METRE. ) );
#670 = MECHANICAL_DESIGN_GEOMETRIC_PRESENTATION_REPRESENTATION (  '', ( #754 ), #654 ) ;
#671 = SURFACE_SIDE_STYLE ('',( #672 ) ) ;
#672 = SURFACE_STYLE_FILL_AREA ( #674 ) ;
#673 = COLOUR_RGB ( '',0.7529411764705882200, 0.7529411764705882200, 0.7529411764705882200 ) ;
#674 = FILL_AREA_STYLE ('',( #680 ) ) ;
#675 = VECTOR ( 'NONE', #634, 39.37007874015748100 ) ;
#676 = PRESENTATION_LAYER_ASSIGNMENT (  '', '', ( #677 ) ) ;
#677 = STYLED_ITEM ( 'NONE', ( #678 ), #53 ) ;
#678 = PRESENTATION_STYLE_ASSIGNMENT (( #679 ) ) ;
#679 = SURFACE_STYLE_USAGE ( .BOTH. , #671 ) ;
#680 = FILL_AREA_STYLE_COLOUR ( '', #673 ) ;
#681 = FACE_OUTER_BOUND ( 'NONE', #33, .T. ) ;
#682 = CARTESIAN_POINT ( 'NONE',  ( -0.4275030962111294700, 0.3937007874015748300, -0.06608577337648384500 ) ) ;
#683 = CARTESIAN_POINT ( 'NONE',  ( -0.4330708661417322900, -0.3937007874015748300, -0.06608577337648392800 ) ) ;
#684 = LINE ( 'NONE', #683, #451 ) ;
#685 = CARTESIAN_POINT ( 'NONE',  ( -0.4275030962111295300, -0.3881330174709720600, -0.07165354330708666200 ) ) ;
#686 = DIRECTION ( 'NONE',  ( 0.0000000000000000000, 0.0000000000000000000, -1.000000000000000000 ) ) ;
#687 = DIRECTION ( 'NONE',  ( 1.000000000000000000, 0.0000000000000000000, 0.0000000000000000000 ) ) ;
#688 = CARTESIAN_POINT ( 'NONE',  ( 0.4330708661417322900, 0.0000000000000000000, -2.980314960629920000 ) ) ;
#689 = AXIS2_PLACEMENT_3D ( 'NONE', #688, #687, #686 ) ;
#690 = CIRCLE ( 'NONE', #689, 3.051968503937007200 ) ;
#691 = CARTESIAN_POINT ( 'NONE',  ( 0.4275030962111294700, 0.3937007874015748300, 0.04615351583284882400 ) ) ;
#692 = DIRECTION ( 'NONE',  ( -0.0000000000000000000, 1.301042606982605300E-016, -1.000000000000000000 ) ) ;
#693 = VECTOR ( 'NONE', #692, 39.37007874015748100 ) ;
#694 = CARTESIAN_POINT ( 'NONE',  ( 0.4330708661417323500, -0.3881330174709719500, 0.07165354330708724500 ) ) ;
#695 = LINE ( 'NONE', #694, #693 ) ;
#696 = CARTESIAN_POINT ( 'NONE',  ( 0.4330708661417322900, 0.3881330174709720600, 0.04687259711610979000 ) ) ;
#697 = DIRECTION ( 'NONE',  ( -0.7071067811865517900, -0.7071067811865431300, 0.0000000000000000000 ) ) ;
#698 = DIRECTION ( 'NONE',  ( -0.7071067811865432400, 0.7071067811865519000, 9.199760500100301500E-017 ) ) ;
#699 = CARTESIAN_POINT ( 'NONE',  ( 0.4330708661417323500, -0.3881330174709719500, 0.07165354330708724500 ) ) ;
#700 = AXIS2_PLACEMENT_3D ( 'NONE', #699, #698, #697 ) ;
#701 = PLANE ( 'NONE',  #700 ) ;
#702 =( GEOMETRIC_REPRESENTATION_CONTEXT ( 3 ) GLOBAL_UNCERTAINTY_ASSIGNED_CONTEXT ( ( #703 ) ) GLOBAL_UNIT_ASSIGNED_CONTEXT ( ( #707, #705, #704 ) ) REPRESENTATION_CONTEXT ( 'NONE', 'WORKASPACE' ) );
#703 = UNCERTAINTY_MEASURE_WITH_UNIT (LENGTH_MEASURE( 1.000000000000000100E-005 ), #707, 'distance_accuracy_value', 'NONE');
#704 =( NAMED_UNIT ( * ) SI_UNIT ( $, .STERADIAN. ) SOLID_ANGLE_UNIT ( ) );
#705 =( NAMED_UNIT ( * ) PLANE_ANGLE_UNIT ( ) SI_UNIT ( $, .RADIAN. ) );
#706 =( NAMED_UNIT ( * ) SI_UNIT ( $, .STERADIAN. ) SOLID_ANGLE_UNIT ( ) );
#707 =( CONVERSION_BASED_UNIT ( 'INCH', #708 ) LENGTH_UNIT ( ) NAMED_UNIT ( #709 ) );
#708 = LENGTH_MEASURE_WITH_UNIT ( LENGTH_MEASURE( 0.02539999999999999900 ), #710 );
#709 = DIMENSIONAL_EXPONENTS ( 1.000000000000000000, 0.0000000000000000000, 0.0000000000000000000, 0.0000000000000000000, 0.0000000000000000000, 0.0000000000000000000, 0.0000000000000000000 ) ;
#710 =( LENGTH_UNIT ( ) NAMED_UNIT ( * ) SI_UNIT ( $, .METRE. ) );
#711 = MECHANICAL_DESIGN_GEOMETRIC_PRESENTATION_REPRESENTATION (  '', ( #713 ), #702 ) ;
#712 = PRESENTATION_LAYER_ASSIGNMENT (  '', '', ( #713 ) ) ;
#713 = STYLED_ITEM ( 'NONE', ( #714 ), #76 ) ;
#714 = PRESENTATION_STYLE_ASSIGNMENT (( #715 ) ) ;
#715 = SURFACE_STYLE_USAGE ( .BOTH. , #716 ) ;
#716 = SURFACE_SIDE_STYLE ('',( #717 ) ) ;
#717 = SURFACE_STYLE_FILL_AREA ( #718 ) ;
#718 = FILL_AREA_STYLE ('',( #647 ) ) ;
#719 = PLANE ( 'NONE',  #723 ) ;
#720 = FILL_AREA_STYLE ('',( #721 ) ) ;
#721 = FILL_AREA_STYLE_COLOUR ( '', #643 ) ;
#722 = CARTESIAN_POINT ( 'NONE',  ( 0.4330708661417322900, 0.3881330174709720600, 0.07165354330708735600 ) ) ;
#723 = AXIS2_PLACEMENT_3D ( 'NONE', #722, #646, #645 ) ;
#724 = CARTESIAN_POINT ( 'NONE',  ( 0.4330708661417323500, -0.3881330174709719500, 0.04687259711610968600 ) ) ;
#725 = LENGTH_MEASURE_WITH_UNIT ( LENGTH_MEASURE( 0.02539999999999999900 ), #658 );
#726 = VECTOR ( 'NONE', #626, 39.37007874015748100 ) ;
#727 = CARTESIAN_POINT ( 'NONE',  ( -0.4275030962111294700, 0.3937007874015748300, 0.07165354330708735600 ) ) ;
#728 = LINE ( 'NONE', #727, #726 ) ;
#729 = FILL_AREA_STYLE_COLOUR ( '', #624 ) ;
#730 = DIRECTION ( 'NONE',  ( 1.000000000000000000, -0.0000000000000000000, -0.0000000000000000000 ) ) ;
#731 = VECTOR ( 'NONE', #730, 39.37007874015748100 ) ;
#732 = CARTESIAN_POINT ( 'NONE',  ( -0.4330708661417322900, 0.3881330174709720600, -0.07165354330708656500 ) ) ;
#733 = LINE ( 'NONE', #732, #731 ) ;
#734 = DIRECTION ( 'NONE',  ( 0.5773502691896316200, 0.5773502691896245100, 0.5773502691896209600 ) ) ;
#735 = VECTOR ( 'NONE', #734, 39.37007874015748900 ) ;
#736 = CARTESIAN_POINT ( 'NONE',  ( -0.4293590195213304300, 0.3918448640913738700, -0.06794169668668478800 ) ) ;
#737 = LINE ( 'NONE', #736, #735 ) ;
#738 = DIRECTION ( 'NONE',  ( 0.0000000000000000000, -0.0000000000000000000, -1.000000000000000000 ) ) ;
#739 = DIRECTION ( 'NONE',  ( 0.0000000000000000000, -1.000000000000000000, 0.0000000000000000000 ) ) ;
#740 = CARTESIAN_POINT ( 'NONE',  ( 0.4330708661417322900, 0.3937007874015748300, 0.04615351583284882400 ) ) ;
#741 = AXIS2_PLACEMENT_3D ( 'NONE', #740, #739, #738 ) ;
#742 = PLANE ( 'NONE',  #741 ) ;
#743 =( GEOMETRIC_REPRESENTATION_CONTEXT ( 3 ) GLOBAL_UNCERTAINTY_ASSIGNED_CONTEXT ( ( #744 ) ) GLOBAL_UNIT_ASSIGNED_CONTEXT ( ( #628, #627, #745 ) ) REPRESENTATION_CONTEXT ( 'NONE', 'WORKASPACE' ) );
#744 = UNCERTAINTY_MEASURE_WITH_UNIT (LENGTH_MEASURE( 1.000000000000000100E-005 ), #628, 'distance_accuracy_value', 'NONE');
#745 =( NAMED_UNIT ( * ) SI_UNIT ( $, .STERADIAN. ) SOLID_ANGLE_UNIT ( ) );
#746 = MECHANICAL_DESIGN_GEOMETRIC_PRESENTATION_REPRESENTATION (  '', ( #677 ), #655 ) ;
#747 = CARTESIAN_POINT ( 'NONE',  ( -0.4330708661417322900, 0.3881330174709720600, 0.04687259711610979000 ) ) ;
#748 = CARTESIAN_POINT ( 'NONE',  ( -0.4312147226380597700, 0.3899891609746445900, 0.04663461034945032300 ) ) ;
#749 = CARTESIAN_POINT ( 'NONE',  ( -0.4293587988045402500, 0.3918450848081639900, 0.04639491652077647900 ) ) ;
#750 = CARTESIAN_POINT ( 'NONE',  ( -0.4275030962111294700, 0.3937007874015748300, 0.04615351583284882400 ) ) ;
#751 = FACE_OUTER_BOUND ( 'NONE', #127, .T. ) ;
#752 =( BOUNDED_CURVE ( )  B_SPLINE_CURVE ( 3, ( #750, #749, #748, #747 ),
 .UNSPECIFIED., .F., .T. ) 
 B_SPLINE_CURVE_WITH_KNOTS ( ( 4, 4 ),
 ( 4.583029533499848500, 4.584869006482517900 ),
 .UNSPECIFIED. ) 
 CURVE ( )  GEOMETRIC_REPRESENTATION_ITEM ( )  RATIONAL_B_SPLINE_CURVE ( ( 1.000000000000000000, 0.9999997180282820300, 0.9999997180282820300, 1.000000000000000000 ) ) 
 REPRESENTATION_ITEM ( '' )  );
#753 = PRESENTATION_LAYER_ASSIGNMENT (  '', '', ( #754 ) ) ;
#754 = STYLED_ITEM ( 'NONE', ( #755 ), #72 ) ;
#755 = PRESENTATION_STYLE_ASSIGNMENT (( #756 ) ) ;
#756 = SURFACE_STYLE_USAGE ( .BOTH. , #757 ) ;
#757 = SURFACE_SIDE_STYLE ('',( #758 ) ) ;
#758 = SURFACE_STYLE_FILL_AREA ( #759 ) ;
#759 = FILL_AREA_STYLE ('',( #760 ) ) ;
#760 = FILL_AREA_STYLE_COLOUR ( '', #765 ) ;
#761 = DIRECTION ( 'NONE',  ( 0.0000000000000000000, -1.000000000000000000, -1.192622389734054900E-016 ) ) ;
#762 = DIRECTION ( 'NONE',  ( 0.0000000000000000000, -1.192622389734054900E-016, 1.000000000000000000 ) ) ;
#763 = CARTESIAN_POINT ( 'NONE',  ( 0.4330708661417322900, 0.3937007874015748300, -0.07165354330708656500 ) ) ;
#764 = AXIS2_PLACEMENT_3D ( 'NONE', #763, #762, #761 ) ;
#765 = COLOUR_RGB ( '',0.7529411764705882200, 0.7529411764705882200, 0.7529411764705882200 ) ;
#766 = FACE_OUTER_BOUND ( 'NONE', #71, .T. ) ;
#767 = PLANE ( 'NONE',  #764 ) ;
#768 =( GEOMETRIC_REPRESENTATION_CONTEXT ( 3 ) GLOBAL_UNCERTAINTY_ASSIGNED_CONTEXT ( ( #609 ) ) GLOBAL_UNIT_ASSIGNED_CONTEXT ( ( #612, #611, #610 ) ) REPRESENTATION_CONTEXT ( 'NONE', 'WORKASPACE' ) );
ENDSEC;
END-ISO-10303-21;
