ISO-10303-21;
HEADER;
FILE_DESCRIPTION (( 'STEP AP214' ),
    '1' );
FILE_NAME ('5701-E0W.STEP',
    '2010-04-22T18:56:21',
    ( '' ),
    ( '' ),
    'SwSTEP 2.0',
    'SolidWorks 2009',
    '' );
FILE_SCHEMA (( 'AUTOMOTIVE_DESIGN' ));
ENDSEC;

DATA;
#1 = ADVANCED_FACE ( 'NONE', ( #159 ), #218, .F. ) ;
#2 = EDGE_CURVE ( 'NONE', #13, #51, #217, .T. ) ;
#3 = ORIENTED_EDGE ( 'NONE', *, *, #26, .T. ) ;
#4 = ORIENTED_EDGE ( 'NONE', *, *, #7, .F. ) ;
#5 = VERTEX_POINT ( 'NONE', #229 ) ;
#6 = VERTEX_POINT ( 'NONE', #320 ) ;
#7 = EDGE_CURVE ( 'NONE', #6, #102, #319, .T. ) ;
#8 = ORIENTED_EDGE ( 'NONE', *, *, #27, .T. ) ;
#9 = EDGE_LOOP ( 'NONE', ( #57, #11, #18, #3, #19, #10 ) ) ;
#10 = ORIENTED_EDGE ( 'NONE', *, *, #101, .T. ) ;
#11 = ORIENTED_EDGE ( 'NONE', *, *, #2, .T. ) ;
#12 = ORIENTED_EDGE ( 'NONE', *, *, #89, .T. ) ;
#13 = VERTEX_POINT ( 'NONE', #284 ) ;
#14 = ORIENTED_EDGE ( 'NONE', *, *, #24, .F. ) ;
#15 = ORIENTED_EDGE ( 'NONE', *, *, #39, .F. ) ;
#16 = EDGE_LOOP ( 'NONE', ( #4, #8, #94, #91 ) ) ;
#17 = EDGE_CURVE ( 'NONE', #13, #5, #291, .T. ) ;
#18 = ORIENTED_EDGE ( 'NONE', *, *, #53, .T. ) ;
#19 = ORIENTED_EDGE ( 'NONE', *, *, #56, .T. ) ;
#20 = VERTEX_POINT ( 'NONE', #292 ) ;
#21 = EDGE_LOOP ( 'NONE', ( #31, #55, #29, #12, #15, #14 ) ) ;
#22 = EDGE_CURVE ( 'NONE', #52, #23, #228, .T. ) ;
#23 = VERTEX_POINT ( 'NONE', #224 ) ;
#24 = EDGE_CURVE ( 'NONE', #49, #186, #232, .T. ) ;
#25 = ORIENTED_EDGE ( 'NONE', *, *, #39, .T. ) ;
#26 = EDGE_CURVE ( 'NONE', #49, #136, #215, .T. ) ;
#27 = EDGE_CURVE ( 'NONE', #6, #13, #263, .T. ) ;
#28 = VERTEX_POINT ( 'NONE', #310 ) ;
#29 = ORIENTED_EDGE ( 'NONE', *, *, #22, .T. ) ;
#30 = EDGE_CURVE ( 'NONE', #48, #174, #223, .T. ) ;
#31 = ORIENTED_EDGE ( 'NONE', *, *, #53, .F. ) ;
#32 = ORIENTED_EDGE ( 'NONE', *, *, #185, .F. ) ;
#33 = EDGE_CURVE ( 'NONE', #51, #52, #205, .T. ) ;
#34 = EDGE_CURVE ( 'NONE', #40, #45, #262, .T. ) ;
#35 = EDGE_CURVE ( 'NONE', #45, #43, #221, .T. ) ;
#36 = ORIENTED_EDGE ( 'NONE', *, *, #26, .F. ) ;
#37 = ADVANCED_FACE ( 'NONE', ( #241 ), #204, .F. ) ;
#38 = EDGE_LOOP ( 'NONE', ( #25, #47, #42, #46, #50, #32 ) ) ;
#39 = EDGE_CURVE ( 'NONE', #186, #40, #272, .T. ) ;
#40 = VERTEX_POINT ( 'NONE', #268 ) ;
#41 = ORIENTED_EDGE ( 'NONE', *, *, #24, .T. ) ;
#42 = ORIENTED_EDGE ( 'NONE', *, *, #35, .T. ) ;
#43 = VERTEX_POINT ( 'NONE', #267 ) ;
#44 = EDGE_CURVE ( 'NONE', #43, #48, #283, .T. ) ;
#45 = VERTEX_POINT ( 'NONE', #279 ) ;
#46 = ORIENTED_EDGE ( 'NONE', *, *, #44, .T. ) ;
#47 = ORIENTED_EDGE ( 'NONE', *, *, #34, .T. ) ;
#48 = VERTEX_POINT ( 'NONE', #278 ) ;
#49 = VERTEX_POINT ( 'NONE', #277 ) ;
#50 = ORIENTED_EDGE ( 'NONE', *, *, #30, .T. ) ;
#51 = VERTEX_POINT ( 'NONE', #276 ) ;
#52 = VERTEX_POINT ( 'NONE', #275 ) ;
#53 = EDGE_CURVE ( 'NONE', #51, #49, #274, .T. ) ;
#54 = ADVANCED_FACE ( 'NONE', ( #303 ), #189, .F. ) ;
#55 = ORIENTED_EDGE ( 'NONE', *, *, #33, .T. ) ;
#56 = EDGE_CURVE ( 'NONE', #136, #20, #197, .T. ) ;
#57 = ORIENTED_EDGE ( 'NONE', *, *, #17, .F. ) ;
#58 = VERTEX_POINT ( 'NONE', #193 ) ;
#59 = EDGE_CURVE ( 'NONE', #112, #6, #192, .T. ) ;
#60 = ORIENTED_EDGE ( 'NONE', *, *, #7, .T. ) ;
#61 = EDGE_CURVE ( 'NONE', #28, #182, #252, .T. ) ;
#62 = ORIENTED_EDGE ( 'NONE', *, *, #64, .T. ) ;
#63 = EDGE_LOOP ( 'NONE', ( #65, #151, #131, #132, #176 ) ) ;
#64 = EDGE_CURVE ( 'NONE', #107, #182, #248, .T. ) ;
#65 = ORIENTED_EDGE ( 'NONE', *, *, #144, .T. ) ;
#66 = ORIENTED_EDGE ( 'NONE', *, *, #144, .F. ) ;
#67 = ORIENTED_EDGE ( 'NONE', *, *, #101, .F. ) ;
#68 = ORIENTED_EDGE ( 'NONE', *, *, #157, .F. ) ;
#69 = ADVANCED_FACE ( 'NONE', ( #403 ), #386, .F. ) ;
#70 = ORIENTED_EDGE ( 'NONE', *, *, #34, .F. ) ;
#71 = ORIENTED_EDGE ( 'NONE', *, *, #89, .F. ) ;
#72 = ORIENTED_EDGE ( 'NONE', *, *, #73, .F. ) ;
#73 = EDGE_CURVE ( 'NONE', #28, #120, #364, .T. ) ;
#74 = ADVANCED_FACE ( 'NONE', ( #337 ), #402, .F. ) ;
#75 = ADVANCED_FACE ( 'NONE', ( #347 ), #380, .F. ) ;
#76 = EDGE_LOOP ( 'NONE', ( #82, #83, #95, #77, #78 ) ) ;
#77 = ORIENTED_EDGE ( 'NONE', *, *, #27, .F. ) ;
#78 = ORIENTED_EDGE ( 'NONE', *, *, #59, .F. ) ;
#79 = ORIENTED_EDGE ( 'NONE', *, *, #106, .F. ) ;
#80 = ORIENTED_EDGE ( 'NONE', *, *, #93, .T. ) ;
#81 = ORIENTED_EDGE ( 'NONE', *, *, #98, .F. ) ;
#82 = ORIENTED_EDGE ( 'NONE', *, *, #98, .T. ) ;
#83 = ORIENTED_EDGE ( 'NONE', *, *, #33, .F. ) ;
#84 = ORIENTED_EDGE ( 'NONE', *, *, #59, .T. ) ;
#85 = EDGE_LOOP ( 'NONE', ( #113, #84, #60, #87 ) ) ;
#86 = EDGE_LOOP ( 'NONE', ( #104, #80, #79, #108 ) ) ;
#87 = ORIENTED_EDGE ( 'NONE', *, *, #88, .T. ) ;
#88 = EDGE_CURVE ( 'NONE', #102, #58, #421, .T. ) ;
#89 = EDGE_CURVE ( 'NONE', #23, #40, #333, .T. ) ;
#90 = ADVANCED_FACE ( 'NONE', ( #329 ), #390, .F. ) ;
#91 = ORIENTED_EDGE ( 'NONE', *, *, #92, .F. ) ;
#92 = EDGE_CURVE ( 'NONE', #102, #5, #411, .T. ) ;
#93 = EDGE_CURVE ( 'NONE', #112, #58, #406, .T. ) ;
#94 = ORIENTED_EDGE ( 'NONE', *, *, #17, .T. ) ;
#95 = ORIENTED_EDGE ( 'NONE', *, *, #2, .F. ) ;
#96 = ORIENTED_EDGE ( 'NONE', *, *, #105, .F. ) ;
#97 = ADVANCED_FACE ( 'NONE', ( #446 ), #484, .T. ) ;
#98 = EDGE_CURVE ( 'NONE', #112, #52, #486, .T. ) ;
#99 = ORIENTED_EDGE ( 'NONE', *, *, #100, .T. ) ;
#100 = EDGE_CURVE ( 'NONE', #120, #23, #490, .T. ) ;
#101 = EDGE_CURVE ( 'NONE', #20, #5, #453, .T. ) ;
#102 = VERTEX_POINT ( 'NONE', #449 ) ;
#103 = ADVANCED_FACE ( 'NONE', ( #448 ), #425, .F. ) ;
#104 = ORIENTED_EDGE ( 'NONE', *, *, #105, .T. ) ;
#105 = EDGE_CURVE ( 'NONE', #120, #112, #466, .T. ) ;
#106 = EDGE_CURVE ( 'NONE', #107, #58, #462, .T. ) ;
#107 = VERTEX_POINT ( 'NONE', #457 ) ;
#108 = ORIENTED_EDGE ( 'NONE', *, *, #109, .F. ) ;
#109 = EDGE_CURVE ( 'NONE', #120, #107, #441, .T. ) ;
#110 = EDGE_LOOP ( 'NONE', ( #81, #96, #99, #111 ) ) ;
#111 = ORIENTED_EDGE ( 'NONE', *, *, #22, .F. ) ;
#112 = VERTEX_POINT ( 'NONE', #437 ) ;
#113 = ORIENTED_EDGE ( 'NONE', *, *, #93, .F. ) ;
#114 = EDGE_LOOP ( 'NONE', ( #138, #177, #129, #143 ) ) ;
#115 = ORIENTED_EDGE ( 'NONE', *, *, #100, .F. ) ;
#116 = ADVANCED_FACE ( 'NONE', ( #436 ), #583, .F. ) ;
#117 = EDGE_LOOP ( 'NONE', ( #118, #70, #71, #115, #72 ) ) ;
#118 = ORIENTED_EDGE ( 'NONE', *, *, #119, .T. ) ;
#119 = EDGE_CURVE ( 'NONE', #28, #45, #516, .T. ) ;
#120 = VERTEX_POINT ( 'NONE', #517 ) ;
#121 = ADVANCED_FACE ( 'NONE', ( #515 ), #546, .F. ) ;
#122 = ORIENTED_EDGE ( 'NONE', *, *, #123, .T. ) ;
#123 = EDGE_CURVE ( 'NONE', #58, #124, #588, .T. ) ;
#124 = VERTEX_POINT ( 'NONE', #584 ) ;
#125 = EDGE_LOOP ( 'NONE', ( #148, #158, #155, #127, #126, #156 ) ) ;
#126 = ORIENTED_EDGE ( 'NONE', *, *, #30, .F. ) ;
#127 = ORIENTED_EDGE ( 'NONE', *, *, #135, .T. ) ;
#128 = EDGE_LOOP ( 'NONE', ( #133, #122, #145, #66 ) ) ;
#129 = ORIENTED_EDGE ( 'NONE', *, *, #61, .T. ) ;
#130 = ORIENTED_EDGE ( 'NONE', *, *, #73, .T. ) ;
#131 = ORIENTED_EDGE ( 'NONE', *, *, #44, .F. ) ;
#132 = ORIENTED_EDGE ( 'NONE', *, *, #175, .F. ) ;
#133 = ORIENTED_EDGE ( 'NONE', *, *, #106, .T. ) ;
#134 = ORIENTED_EDGE ( 'NONE', *, *, #135, .F. ) ;
#135 = EDGE_CURVE ( 'NONE', #136, #174, #545, .T. ) ;
#136 = VERTEX_POINT ( 'NONE', #579 ) ;
#137 = VERTEX_POINT ( 'NONE', #578 ) ;
#138 = ORIENTED_EDGE ( 'NONE', *, *, #35, .F. ) ;
#139 =( NAMED_UNIT ( * ) PLANE_ANGLE_UNIT ( ) SI_UNIT ( $, .RADIAN. ) );
#140 =( LENGTH_UNIT ( ) NAMED_UNIT ( * ) SI_UNIT ( .MILLI., .METRE. ) );
#141 = UNCERTAINTY_MEASURE_WITH_UNIT (LENGTH_MEASURE( 1.000000000000000100E-005 ), #140, 'distance_accuracy_value', 'NONE');
#142 =( NAMED_UNIT ( * ) SI_UNIT ( $, .STERADIAN. ) SOLID_ANGLE_UNIT ( ) );
#143 = ORIENTED_EDGE ( 'NONE', *, *, #175, .T. ) ;
#144 = EDGE_CURVE ( 'NONE', #107, #137, #576, .T. ) ;
#145 = ORIENTED_EDGE ( 'NONE', *, *, #172, .T. ) ;
#146 = ADVANCED_FACE ( 'NONE', ( #566 ), #532, .F. ) ;
#147 = COLOUR_RGB ( '',0.7529411764705882200, 0.7529411764705882200, 0.7529411764705882200 ) ;
#148 = ORIENTED_EDGE ( 'NONE', *, *, #172, .F. ) ;
#149 = ORIENTED_EDGE ( 'NONE', *, *, #88, .F. ) ;
#150 = ADVANCED_FACE ( 'NONE', ( #530 ), #610, .F. ) ;
#151 = ORIENTED_EDGE ( 'NONE', *, *, #169, .F. ) ;
#152 = ORIENTED_EDGE ( 'NONE', *, *, #61, .F. ) ;
#153 = ORIENTED_EDGE ( 'NONE', *, *, #92, .T. ) ;
#154 = ADVANCED_FACE ( 'NONE', ( #638 ), #661, .F. ) ;
#155 = ORIENTED_EDGE ( 'NONE', *, *, #56, .F. ) ;
#156 = ORIENTED_EDGE ( 'NONE', *, *, #169, .T. ) ;
#157 = EDGE_CURVE ( 'NONE', #124, #20, #634, .T. ) ;
#158 = ORIENTED_EDGE ( 'NONE', *, *, #157, .T. ) ;
#159 = FACE_OUTER_BOUND ( 'NONE', #9, .T. ) ;
#160 = MECHANICAL_DESIGN_GEOMETRIC_PRESENTATION_REPRESENTATION (  '', ( #162 ), #258 ) ;
#161 = PRESENTATION_LAYER_ASSIGNMENT (  '', '', ( #162 ) ) ;
#162 = STYLED_ITEM ( 'NONE', ( #163 ), #1 ) ;
#163 = PRESENTATION_STYLE_ASSIGNMENT (( #164 ) ) ;
#164 = SURFACE_STYLE_USAGE ( .BOTH. , #165 ) ;
#165 = SURFACE_SIDE_STYLE ('',( #166 ) ) ;
#166 = SURFACE_STYLE_FILL_AREA ( #167 ) ;
#167 = FILL_AREA_STYLE ('',( #168 ) ) ;
#168 = FILL_AREA_STYLE_COLOUR ( '', #147 ) ;
#169 = EDGE_CURVE ( 'NONE', #48, #137, #603, .T. ) ;
#170 = EDGE_LOOP ( 'NONE', ( #152, #130, #173, #62 ) ) ;
#171 = EDGE_LOOP ( 'NONE', ( #153, #67, #68, #180, #149 ) ) ;
#172 = EDGE_CURVE ( 'NONE', #124, #137, #645, .T. ) ;
#173 = ORIENTED_EDGE ( 'NONE', *, *, #109, .T. ) ;
#174 = VERTEX_POINT ( 'NONE', #662 ) ;
#175 = EDGE_CURVE ( 'NONE', #182, #43, #683, .T. ) ;
#176 = ORIENTED_EDGE ( 'NONE', *, *, #64, .F. ) ;
#177 = ORIENTED_EDGE ( 'NONE', *, *, #119, .F. ) ;
#178 = OPEN_SHELL ( 'NONE', ( #150, #37, #54, #1, #121, #90, #103, #97, #75, #116, #74, #154, #146, #69, #181, #179 ) ) ;
#179 = ADVANCED_FACE ( 'NONE', ( #654 ), #659, .F. ) ;
#180 = ORIENTED_EDGE ( 'NONE', *, *, #123, .F. ) ;
#181 = ADVANCED_FACE ( 'NONE', ( #679 ), #611, .F. ) ;
#182 = VERTEX_POINT ( 'NONE', #622 ) ;
#183 = EDGE_LOOP ( 'NONE', ( #184, #134, #36, #41 ) ) ;
#184 = ORIENTED_EDGE ( 'NONE', *, *, #185, .T. ) ;
#185 = EDGE_CURVE ( 'NONE', #186, #174, #617, .T. ) ;
#186 = VERTEX_POINT ( 'NONE', #687 ) ;
#187 = CARTESIAN_POINT ( 'NONE',  ( -6.000000000000000000, -5.000000000000004400, -1.335138177058310400 ) ) ;
#188 = AXIS2_PLACEMENT_3D ( 'NONE', #187, #199, #198 ) ;
#189 = PLANE ( 'NONE',  #188 ) ;
#190 =( GEOMETRIC_REPRESENTATION_CONTEXT ( 3 ) GLOBAL_UNCERTAINTY_ASSIGNED_CONTEXT ( ( #314 ) ) GLOBAL_UNIT_ASSIGNED_CONTEXT ( ( #317, #316, #315 ) ) REPRESENTATION_CONTEXT ( 'NONE', 'WORKASPACE' ) );
#191 = CARTESIAN_POINT ( 'NONE',  ( -5.905719095841792700, -4.952859547920899900, 1.382278629137414700 ) ) ;
#192 = LINE ( 'NONE', #191, #254 ) ;
#193 = CARTESIAN_POINT ( 'NONE',  ( 6.000000000000000900, -4.858578643762693400, 1.476559533295620700 ) ) ;
#194 = DIRECTION ( 'NONE',  ( 0.5773502691896288400, -0.5773502691896209600, 0.5773502691896275100 ) ) ;
#195 = VECTOR ( 'NONE', #194, 1000.000000000000000 ) ;
#196 = CARTESIAN_POINT ( 'NONE',  ( 1.905719095841749800, -0.9057190958418113200, -5.429419081216551000 ) ) ;
#197 = LINE ( 'NONE', #196, #195 ) ;
#198 = DIRECTION ( 'NONE',  ( 0.7071067811865483500, 0.0000000000000000000, -0.7071067811865466800 ) ) ;
#199 = DIRECTION ( 'NONE',  ( 0.7071067811865466800, 0.0000000000000000000, 0.7071067811865483500 ) ) ;
#200 = DIRECTION ( 'NONE',  ( 0.0000000000000000000, -0.7071067811865431300, -0.7071067811865517900 ) ) ;
#201 = DIRECTION ( 'NONE',  ( 0.0000000000000000000, -0.7071067811865519000, 0.7071067811865432400 ) ) ;
#202 = CARTESIAN_POINT ( 'NONE',  ( -6.000000000000000000, 4.858578643762693400, -1.476559533295621000 ) ) ;
#203 = AXIS2_PLACEMENT_3D ( 'NONE', #202, #201, #200 ) ;
#204 = PLANE ( 'NONE',  #203 ) ;
#205 = LINE ( 'NONE', #214, #213 ) ;
#206 = DIRECTION ( 'NONE',  ( -0.5773502691896289500, -0.5773502691896206200, -0.5773502691896277300 ) ) ;
#207 = VECTOR ( 'NONE', #206, 1000.000000000000000 ) ;
#208 = CARTESIAN_POINT ( 'NONE',  ( 1.905719095841748700, 0.9057190958418096500, -5.429419081216551900 ) ) ;
#209 = VECTOR ( 'NONE', #210, 1000.000000000000000 ) ;
#210 = DIRECTION ( 'NONE',  ( -0.5773502691896259500, 0.5773502691896224000, -0.5773502691896289500 ) ) ;
#211 = DIRECTION ( 'NONE',  ( 0.0000000000000000000, 0.7071067811865515700, 0.7071067811865435800 ) ) ;
#212 = DIRECTION ( 'NONE',  ( -0.5773502691896275100, 0.5773502691896237300, 0.5773502691896260600 ) ) ;
#213 = VECTOR ( 'NONE', #212, 1000.000000000000000 ) ;
#214 = CARTESIAN_POINT ( 'NONE',  ( -5.952859547920896300, -4.905719095841797100, -1.382278629137414300 ) ) ;
#215 = LINE ( 'NONE', #266, #265 ) ;
#216 = DIRECTION ( 'NONE',  ( -0.0000000000000000000, 1.000000000000000000, -0.0000000000000000000 ) ) ;
#217 = LINE ( 'NONE', #308, #209 ) ;
#218 = PLANE ( 'NONE',  #289 ) ;
#219 = VECTOR ( 'NONE', #242, 1000.000000000000000 ) ;
#220 = CARTESIAN_POINT ( 'NONE',  ( -6.000000000000000000, 5.000000000000000900, -1.335138177058311300 ) ) ;
#221 = LINE ( 'NONE', #220, #219 ) ;
#222 = FILL_AREA_STYLE_COLOUR ( '', #240 ) ;
#223 = LINE ( 'NONE', #208, #207 ) ;
#224 = CARTESIAN_POINT ( 'NONE',  ( -6.000000000000000000, 4.858578643762691700, -1.335138177058311300 ) ) ;
#225 = DIRECTION ( 'NONE',  ( -0.0000000000000000000, 1.000000000000000000, -0.0000000000000000000 ) ) ;
#226 = VECTOR ( 'NONE', #225, 1000.000000000000000 ) ;
#227 = CARTESIAN_POINT ( 'NONE',  ( -6.000000000000000000, -5.000000000000004400, -1.335138177058310400 ) ) ;
#228 = LINE ( 'NONE', #227, #226 ) ;
#229 = CARTESIAN_POINT ( 'NONE',  ( 5.858578643762691700, -5.000000000000000900, -1.335138177058313500 ) ) ;
#230 = VECTOR ( 'NONE', #216, 1000.000000000000000 ) ;
#231 = CARTESIAN_POINT ( 'NONE',  ( -5.858578643762690800, -5.000000000000004400, -1.476559533295619800 ) ) ;
#232 = LINE ( 'NONE', #231, #230 ) ;
#233 = PRESENTATION_LAYER_ASSIGNMENT (  '', '', ( #234 ) ) ;
#234 = STYLED_ITEM ( 'NONE', ( #235 ), #37 ) ;
#235 = PRESENTATION_STYLE_ASSIGNMENT (( #236 ) ) ;
#236 = SURFACE_STYLE_USAGE ( .BOTH. , #237 ) ;
#237 = SURFACE_SIDE_STYLE ('',( #238 ) ) ;
#238 = SURFACE_STYLE_FILL_AREA ( #239 ) ;
#239 = FILL_AREA_STYLE ('',( #222 ) ) ;
#240 = COLOUR_RGB ( '',0.7529411764705882200, 0.7529411764705882200, 0.7529411764705882200 ) ;
#241 = FACE_OUTER_BOUND ( 'NONE', #38, .T. ) ;
#242 = DIRECTION ( 'NONE',  ( 1.000000000000000000, -0.0000000000000000000, -0.0000000000000000000 ) ) ;
#243 =( LENGTH_UNIT ( ) NAMED_UNIT ( * ) SI_UNIT ( .MILLI., .METRE. ) );
#244 = MECHANICAL_DESIGN_GEOMETRIC_PRESENTATION_REPRESENTATION (  '', ( #234 ), #273 ) ;
#245 = VECTOR ( 'NONE', #399, 1000.000000000000000 ) ;
#246 = CARTESIAN_POINT ( 'NONE',  ( 1.905719095841740300, 8.952859547920926500, -2.617721370862581900 ) ) ;
#247 = VECTOR ( 'NONE', #455, 1000.000000000000000 ) ;
#248 = LINE ( 'NONE', #246, #245 ) ;
#249 = DIRECTION ( 'NONE',  ( 1.000000000000000000, -0.0000000000000000000, -0.0000000000000000000 ) ) ;
#250 = VECTOR ( 'NONE', #249, 1000.000000000000000 ) ;
#251 = CARTESIAN_POINT ( 'NONE',  ( -6.000000000000000000, 5.000000000000000900, 1.335138177058312200 ) ) ;
#252 = LINE ( 'NONE', #251, #250 ) ;
#253 = DIRECTION ( 'NONE',  ( 0.5773502691896293900, -0.5773502691896257300, -0.5773502691896221800 ) ) ;
#254 = VECTOR ( 'NONE', #253, 1000.000000000000000 ) ;
#255 = UNCERTAINTY_MEASURE_WITH_UNIT (LENGTH_MEASURE( 1.000000000000000100E-005 ), #243, 'distance_accuracy_value', 'NONE');
#256 =( NAMED_UNIT ( * ) SI_UNIT ( $, .STERADIAN. ) SOLID_ANGLE_UNIT ( ) );
#257 =( NAMED_UNIT ( * ) PLANE_ANGLE_UNIT ( ) SI_UNIT ( $, .RADIAN. ) );
#258 =( GEOMETRIC_REPRESENTATION_CONTEXT ( 3 ) GLOBAL_UNCERTAINTY_ASSIGNED_CONTEXT ( ( #141 ) ) GLOBAL_UNIT_ASSIGNED_CONTEXT ( ( #140, #139, #142 ) ) REPRESENTATION_CONTEXT ( 'NONE', 'WORKASPACE' ) );
#259 = DIRECTION ( 'NONE',  ( 0.5773502691896258400, 0.5773502691896221800, 0.5773502691896292800 ) ) ;
#260 = VECTOR ( 'NONE', #259, 1000.000000000000100 ) ;
#261 = CARTESIAN_POINT ( 'NONE',  ( -6.000000000000000000, 4.858578643762693400, -1.476559533295621200 ) ) ;
#262 = LINE ( 'NONE', #261, #260 ) ;
#263 = LINE ( 'NONE', #313, #312 ) ;
#264 = DIRECTION ( 'NONE',  ( 1.000000000000000000, -0.0000000000000000000, -0.0000000000000000000 ) ) ;
#265 = VECTOR ( 'NONE', #264, 1000.000000000000000 ) ;
#266 = CARTESIAN_POINT ( 'NONE',  ( -6.000000000000000000, -4.858578643762694300, -1.476559533295622100 ) ) ;
#267 = CARTESIAN_POINT ( 'NONE',  ( 5.858578643762690800, 5.000000000000000900, -1.335138177058310200 ) ) ;
#268 = CARTESIAN_POINT ( 'NONE',  ( -5.929289321881345400, 4.929289321881348100, -1.405848855176965700 ) ) ;
#269 = DIRECTION ( 'NONE',  ( -0.5773502691896289500, 0.5773502691896206200, 0.5773502691896277300 ) ) ;
#270 = VECTOR ( 'NONE', #269, 1000.000000000000000 ) ;
#271 = CARTESIAN_POINT ( 'NONE',  ( -5.905719095841792700, 4.905719095841795300, -1.429419081216516800 ) ) ;
#272 = LINE ( 'NONE', #271, #270 ) ;
#273 =( GEOMETRIC_REPRESENTATION_CONTEXT ( 3 ) GLOBAL_UNCERTAINTY_ASSIGNED_CONTEXT ( ( #255 ) ) GLOBAL_UNIT_ASSIGNED_CONTEXT ( ( #243, #257, #256 ) ) REPRESENTATION_CONTEXT ( 'NONE', 'WORKASPACE' ) );
#274 = LINE ( 'NONE', #306, #305 ) ;
#275 = CARTESIAN_POINT ( 'NONE',  ( -6.000000000000000000, -4.858578643762693400, -1.335138177058310400 ) ) ;
#276 = CARTESIAN_POINT ( 'NONE',  ( -5.929289321881344500, -4.929289321881349800, -1.405848855176966800 ) ) ;
#277 = CARTESIAN_POINT ( 'NONE',  ( -5.858578643762690800, -4.858578643762694300, -1.476559533295622100 ) ) ;
#278 = CARTESIAN_POINT ( 'NONE',  ( 5.929289321881345400, 4.929289321881348100, -1.405848855176965200 ) ) ;
#279 = CARTESIAN_POINT ( 'NONE',  ( -5.858578643762690800, 5.000000000000000900, -1.335138177058310800 ) ) ;
#280 = DIRECTION ( 'NONE',  ( 0.5773502691896258400, -0.5773502691896221800, -0.5773502691896292800 ) ) ;
#281 = VECTOR ( 'NONE', #280, 1000.000000000000100 ) ;
#282 = CARTESIAN_POINT ( 'NONE',  ( 1.999999999999998200, 8.858578643762669500, 2.523440466704404400 ) ) ;
#283 = LINE ( 'NONE', #282, #281 ) ;
#284 = CARTESIAN_POINT ( 'NONE',  ( -5.858578643762691700, -5.000000000000000900, -1.335138177058314400 ) ) ;
#285 = DIRECTION ( 'NONE',  ( 1.000000000000000000, -0.0000000000000000000, -0.0000000000000000000 ) ) ;
#286 = VECTOR ( 'NONE', #285, 1000.000000000000000 ) ;
#287 = DIRECTION ( 'NONE',  ( 1.000000000000000000, -0.0000000000000000000, -0.0000000000000000000 ) ) ;
#288 = VECTOR ( 'NONE', #287, 1000.000000000000000 ) ;
#289 = AXIS2_PLACEMENT_3D ( 'NONE', #293, #211, #309 ) ;
#290 = CARTESIAN_POINT ( 'NONE',  ( -6.000000000000000000, -5.000000000000002700, -1.335138177058312400 ) ) ;
#291 = LINE ( 'NONE', #290, #288 ) ;
#292 = CARTESIAN_POINT ( 'NONE',  ( 5.929289321881343600, -4.929289321881349800, -1.405848855176967200 ) ) ;
#293 = CARTESIAN_POINT ( 'NONE',  ( -6.000000000000000000, -4.858578643762694300, -1.476559533295622100 ) ) ;
#294 = MECHANICAL_DESIGN_GEOMETRIC_PRESENTATION_REPRESENTATION (  '', ( #296 ), #190 ) ;
#295 = PRESENTATION_LAYER_ASSIGNMENT (  '', '', ( #296 ) ) ;
#296 = STYLED_ITEM ( 'NONE', ( #297 ), #54 ) ;
#297 = PRESENTATION_STYLE_ASSIGNMENT (( #298 ) ) ;
#298 = SURFACE_STYLE_USAGE ( .BOTH. , #299 ) ;
#299 = SURFACE_SIDE_STYLE ('',( #300 ) ) ;
#300 = SURFACE_STYLE_FILL_AREA ( #301 ) ;
#301 = FILL_AREA_STYLE ('',( #307 ) ) ;
#302 = COLOUR_RGB ( '',0.7529411764705882200, 0.7529411764705882200, 0.7529411764705882200 ) ;
#303 = FACE_OUTER_BOUND ( 'NONE', #21, .T. ) ;
#304 = DIRECTION ( 'NONE',  ( 0.5773502691896288400, 0.5773502691896209600, -0.5773502691896275100 ) ) ;
#305 = VECTOR ( 'NONE', #304, 1000.000000000000000 ) ;
#306 = CARTESIAN_POINT ( 'NONE',  ( -5.905719095841792700, -4.905719095841798900, -1.429419081216517500 ) ) ;
#307 = FILL_AREA_STYLE_COLOUR ( '', #302 ) ;
#308 = CARTESIAN_POINT ( 'NONE',  ( -5.999999999999998200, -4.858578643762694300, -1.476559533295622700 ) ) ;
#309 = DIRECTION ( 'NONE',  ( 0.0000000000000000000, -0.7071067811865435800, 0.7071067811865515700 ) ) ;
#310 = CARTESIAN_POINT ( 'NONE',  ( -5.858578643762690800, 5.000000000000000900, 1.335138177058313100 ) ) ;
#311 = DIRECTION ( 'NONE',  ( -0.0000000000000000000, 1.219727444046192700E-016, -1.000000000000000000 ) ) ;
#312 = VECTOR ( 'NONE', #311, 1000.000000000000000 ) ;
#313 = CARTESIAN_POINT ( 'NONE',  ( -5.858578643762691700, -5.000000000000000900, 1.476559533295620700 ) ) ;
#314 = UNCERTAINTY_MEASURE_WITH_UNIT (LENGTH_MEASURE( 1.000000000000000100E-005 ), #317, 'distance_accuracy_value', 'NONE');
#315 =( NAMED_UNIT ( * ) SI_UNIT ( $, .STERADIAN. ) SOLID_ANGLE_UNIT ( ) );
#316 =( NAMED_UNIT ( * ) PLANE_ANGLE_UNIT ( ) SI_UNIT ( $, .RADIAN. ) );
#317 =( LENGTH_UNIT ( ) NAMED_UNIT ( * ) SI_UNIT ( .MILLI., .METRE. ) );
#318 = CARTESIAN_POINT ( 'NONE',  ( -6.000000000000000000, -5.000000000000004400, 1.335138177058311100 ) ) ;
#319 = LINE ( 'NONE', #318, #286 ) ;
#320 = CARTESIAN_POINT ( 'NONE',  ( -5.858578643762691700, -5.000000000000000900, 1.335138177058313500 ) ) ;
#321 =( LENGTH_UNIT ( ) NAMED_UNIT ( * ) SI_UNIT ( .MILLI., .METRE. ) );
#322 = MECHANICAL_DESIGN_GEOMETRIC_PRESENTATION_REPRESENTATION (  '', ( #324 ), #381 ) ;
#323 = PRESENTATION_LAYER_ASSIGNMENT (  '', '', ( #324 ) ) ;
#324 = STYLED_ITEM ( 'NONE', ( #325 ), #75 ) ;
#325 = PRESENTATION_STYLE_ASSIGNMENT (( #326 ) ) ;
#326 = SURFACE_STYLE_USAGE ( .BOTH. , #327 ) ;
#327 = SURFACE_SIDE_STYLE ('',( #340 ) ) ;
#328 = COLOUR_RGB ( '',0.7529411764705882200, 0.7529411764705882200, 0.7529411764705882200 ) ;
#329 = FACE_OUTER_BOUND ( 'NONE', #85, .T. ) ;
#330 = DIRECTION ( 'NONE',  ( 0.5773502691896274000, 0.5773502691896238400, -0.5773502691896260600 ) ) ;
#331 = VECTOR ( 'NONE', #330, 1000.000000000000000 ) ;
#332 = CARTESIAN_POINT ( 'NONE',  ( -9.286192881254232000, 1.572385762508481600, 1.951054704195912500 ) ) ;
#333 = LINE ( 'NONE', #332, #331 ) ;
#334 = FILL_AREA_STYLE_COLOUR ( '', #328 ) ;
#335 = FILL_AREA_STYLE ('',( #365 ) ) ;
#336 = COLOUR_RGB ( '',0.7529411764705882200, 0.7529411764705882200, 0.7529411764705882200 ) ;
#337 = FACE_OUTER_BOUND ( 'NONE', #114, .T. ) ;
#338 = DIRECTION ( 'NONE',  ( -0.5773502691896296200, -0.5773502691896260600, 0.5773502691896216200 ) ) ;
#339 = VECTOR ( 'NONE', #338, 1000.000000000000000 ) ;
#340 = SURFACE_STYLE_FILL_AREA ( #341 ) ;
#341 = FILL_AREA_STYLE ('',( #342 ) ) ;
#342 = FILL_AREA_STYLE_COLOUR ( '', #346 ) ;
#343 = DIRECTION ( 'NONE',  ( 0.0000000000000000000, -0.0000000000000000000, -1.000000000000000000 ) ) ;
#344 = DIRECTION ( 'NONE',  ( 0.0000000000000000000, -1.000000000000000000, 0.0000000000000000000 ) ) ;
#345 = CARTESIAN_POINT ( 'NONE',  ( 6.000000000000000000, 5.000000000000000900, 1.535250731559184800 ) ) ;
#346 = COLOUR_RGB ( '',0.7529411764705882200, 0.7529411764705882200, 0.7529411764705882200 ) ;
#347 = FACE_OUTER_BOUND ( 'NONE', #76, .T. ) ;
#348 = PRESENTATION_LAYER_ASSIGNMENT (  '', '', ( #400 ) ) ;
#349 =( LENGTH_UNIT ( ) NAMED_UNIT ( * ) SI_UNIT ( .MILLI., .METRE. ) );
#350 = MECHANICAL_DESIGN_GEOMETRIC_PRESENTATION_REPRESENTATION (  '', ( #352 ), #391 ) ;
#351 = PRESENTATION_LAYER_ASSIGNMENT (  '', '', ( #352 ) ) ;
#352 = STYLED_ITEM ( 'NONE', ( #353 ), #90 ) ;
#353 = PRESENTATION_STYLE_ASSIGNMENT (( #354 ) ) ;
#354 = SURFACE_STYLE_USAGE ( .BOTH. , #355 ) ;
#355 = SURFACE_SIDE_STYLE ('',( #356 ) ) ;
#356 = SURFACE_STYLE_FILL_AREA ( #357 ) ;
#357 = FILL_AREA_STYLE ('',( #334 ) ) ;
#358 = SURFACE_SIDE_STYLE ('',( #359 ) ) ;
#359 = SURFACE_STYLE_FILL_AREA ( #371 ) ;
#360 = UNCERTAINTY_MEASURE_WITH_UNIT (LENGTH_MEASURE( 1.000000000000000100E-005 ), #349, 'distance_accuracy_value', 'NONE');
#361 =( NAMED_UNIT ( * ) SI_UNIT ( $, .STERADIAN. ) SOLID_ANGLE_UNIT ( ) );
#362 =( NAMED_UNIT ( * ) PLANE_ANGLE_UNIT ( ) SI_UNIT ( $, .RADIAN. ) );
#363 = CARTESIAN_POINT ( 'NONE',  ( -5.905719095841793600, 4.952859547920898100, 1.382278629137415800 ) ) ;
#364 = LINE ( 'NONE', #363, #339 ) ;
#365 = FILL_AREA_STYLE_COLOUR ( '', #336 ) ;
#366 = UNCERTAINTY_MEASURE_WITH_UNIT (LENGTH_MEASURE( 1.000000000000000100E-005 ), #416, 'distance_accuracy_value', 'NONE');
#367 =( NAMED_UNIT ( * ) SI_UNIT ( $, .STERADIAN. ) SOLID_ANGLE_UNIT ( ) );
#368 = DIRECTION ( 'NONE',  ( 0.0000000000000000000, 0.0000000000000000000, 1.000000000000000000 ) ) ;
#369 = DIRECTION ( 'NONE',  ( -1.000000000000000000, -0.0000000000000000000, 0.0000000000000000000 ) ) ;
#370 =( NAMED_UNIT ( * ) PLANE_ANGLE_UNIT ( ) SI_UNIT ( $, .RADIAN. ) );
#371 = FILL_AREA_STYLE ('',( #372 ) ) ;
#372 = FILL_AREA_STYLE_COLOUR ( '', #382 ) ;
#373 = CARTESIAN_POINT ( 'NONE',  ( 6.000000000000000000, -1.301042606982605300E-015, 13.38344046670438000 ) ) ;
#374 = AXIS2_PLACEMENT_3D ( 'NONE', #373, #369, #368 ) ;
#375 =( LENGTH_UNIT ( ) NAMED_UNIT ( * ) SI_UNIT ( .MILLI., .METRE. ) );
#376 =( GEOMETRIC_REPRESENTATION_CONTEXT ( 3 ) GLOBAL_UNCERTAINTY_ASSIGNED_CONTEXT ( ( #366 ) ) GLOBAL_UNIT_ASSIGNED_CONTEXT ( ( #416, #370, #367 ) ) REPRESENTATION_CONTEXT ( 'NONE', 'WORKASPACE' ) );
#377 =( GEOMETRIC_REPRESENTATION_CONTEXT ( 3 ) GLOBAL_UNCERTAINTY_ASSIGNED_CONTEXT ( ( #404 ) ) GLOBAL_UNIT_ASSIGNED_CONTEXT ( ( #375, #385, #378 ) ) REPRESENTATION_CONTEXT ( 'NONE', 'WORKASPACE' ) );
#378 =( NAMED_UNIT ( * ) SI_UNIT ( $, .STERADIAN. ) SOLID_ANGLE_UNIT ( ) );
#379 = AXIS2_PLACEMENT_3D ( 'NONE', #424, #423, #422 ) ;
#380 = PLANE ( 'NONE',  #379 ) ;
#381 =( GEOMETRIC_REPRESENTATION_CONTEXT ( 3 ) GLOBAL_UNCERTAINTY_ASSIGNED_CONTEXT ( ( #383 ) ) GLOBAL_UNIT_ASSIGNED_CONTEXT ( ( #321, #415, #384 ) ) REPRESENTATION_CONTEXT ( 'NONE', 'WORKASPACE' ) );
#382 = COLOUR_RGB ( '',0.7529411764705882200, 0.7529411764705882200, 0.7529411764705882200 ) ;
#383 = UNCERTAINTY_MEASURE_WITH_UNIT (LENGTH_MEASURE( 1.000000000000000100E-005 ), #321, 'distance_accuracy_value', 'NONE');
#384 =( NAMED_UNIT ( * ) SI_UNIT ( $, .STERADIAN. ) SOLID_ANGLE_UNIT ( ) );
#385 =( NAMED_UNIT ( * ) PLANE_ANGLE_UNIT ( ) SI_UNIT ( $, .RADIAN. ) );
#386 = PLANE ( 'NONE',  #374 ) ;
#387 = PRESENTATION_STYLE_ASSIGNMENT (( #388 ) ) ;
#388 = SURFACE_STYLE_USAGE ( .BOTH. , #358 ) ;
#389 = AXIS2_PLACEMENT_3D ( 'NONE', #414, #413, #412 ) ;
#390 = PLANE ( 'NONE',  #389 ) ;
#391 =( GEOMETRIC_REPRESENTATION_CONTEXT ( 3 ) GLOBAL_UNCERTAINTY_ASSIGNED_CONTEXT ( ( #360 ) ) GLOBAL_UNIT_ASSIGNED_CONTEXT ( ( #349, #362, #361 ) ) REPRESENTATION_CONTEXT ( 'NONE', 'WORKASPACE' ) );
#392 = PRESENTATION_LAYER_ASSIGNMENT (  '', '', ( #393 ) ) ;
#393 = STYLED_ITEM ( 'NONE', ( #394 ), #74 ) ;
#394 = PRESENTATION_STYLE_ASSIGNMENT (( #395 ) ) ;
#395 = SURFACE_STYLE_USAGE ( .BOTH. , #396 ) ;
#396 = SURFACE_SIDE_STYLE ('',( #397 ) ) ;
#397 = SURFACE_STYLE_FILL_AREA ( #335 ) ;
#398 = MECHANICAL_DESIGN_GEOMETRIC_PRESENTATION_REPRESENTATION (  '', ( #400 ), #377 ) ;
#399 = DIRECTION ( 'NONE',  ( -0.5773502691896296200, 0.5773502691896260600, -0.5773502691896216200 ) ) ;
#400 = STYLED_ITEM ( 'NONE', ( #387 ), #69 ) ;
#401 = AXIS2_PLACEMENT_3D ( 'NONE', #345, #344, #343 ) ;
#402 = PLANE ( 'NONE',  #401 ) ;
#403 = FACE_OUTER_BOUND ( 'NONE', #128, .T. ) ;
#404 = UNCERTAINTY_MEASURE_WITH_UNIT (LENGTH_MEASURE( 1.000000000000000100E-005 ), #375, 'distance_accuracy_value', 'NONE');
#405 = CARTESIAN_POINT ( 'NONE',  ( -6.000000000000000000, -4.858578643762694300, 1.476559533295619800 ) ) ;
#406 = LINE ( 'NONE', #405, #247 ) ;
#407 = PRESENTATION_LAYER_ASSIGNMENT (  '', '', ( #519 ) ) ;
#408 = DIRECTION ( 'NONE',  ( -0.0000000000000000000, 1.219727444046192700E-016, -1.000000000000000000 ) ) ;
#409 = VECTOR ( 'NONE', #408, 1000.000000000000000 ) ;
#410 = CARTESIAN_POINT ( 'NONE',  ( 5.858578643762691700, -5.000000000000000900, 1.476559533295620700 ) ) ;
#411 = LINE ( 'NONE', #410, #409 ) ;
#412 = DIRECTION ( 'NONE',  ( 0.0000000000000000000, 0.7071067811865496800, 0.7071067811865453500 ) ) ;
#413 = DIRECTION ( 'NONE',  ( 0.0000000000000000000, 0.7071067811865453500, -0.7071067811865496800 ) ) ;
#414 = CARTESIAN_POINT ( 'NONE',  ( -6.000000000000000000, -5.000000000000004400, 1.335138177058311100 ) ) ;
#415 =( NAMED_UNIT ( * ) PLANE_ANGLE_UNIT ( ) SI_UNIT ( $, .RADIAN. ) );
#416 =( LENGTH_UNIT ( ) NAMED_UNIT ( * ) SI_UNIT ( .MILLI., .METRE. ) );
#417 = MECHANICAL_DESIGN_GEOMETRIC_PRESENTATION_REPRESENTATION (  '', ( #393 ), #376 ) ;
#418 = DIRECTION ( 'NONE',  ( 0.5773502691896293900, 0.5773502691896257300, 0.5773502691896221800 ) ) ;
#419 = VECTOR ( 'NONE', #418, 1000.000000000000000 ) ;
#420 = CARTESIAN_POINT ( 'NONE',  ( 1.905719095841742700, -8.952859547920924800, -2.617721370862585500 ) ) ;
#421 = LINE ( 'NONE', #420, #419 ) ;
#422 = DIRECTION ( 'NONE',  ( -0.7071067811865497900, 0.7071067811865453500, 0.0000000000000000000 ) ) ;
#423 = DIRECTION ( 'NONE',  ( 0.7071067811865453500, 0.7071067811865497900, 8.624775468844007000E-017 ) ) ;
#424 = CARTESIAN_POINT ( 'NONE',  ( -6.000000000000000900, -4.858578643762693400, 1.476559533295620700 ) ) ;
#425 = CYLINDRICAL_SURFACE ( 'NONE', #427, 12.85999999999999600 ) ;
#426 = CARTESIAN_POINT ( 'NONE',  ( 6.000000000000000000, -1.301042606982605300E-015, 13.38344046670438000 ) ) ;
#427 = AXIS2_PLACEMENT_3D ( 'NONE', #426, #468, #467 ) ;
#428 = FILL_AREA_STYLE_COLOUR ( '', #474 ) ;
#429 = PRESENTATION_LAYER_ASSIGNMENT (  '', '', ( #430 ) ) ;
#430 = STYLED_ITEM ( 'NONE', ( #509 ), #97 ) ;
#431 = SURFACE_SIDE_STYLE ('',( #432 ) ) ;
#432 = SURFACE_STYLE_FILL_AREA ( #433 ) ;
#433 = FILL_AREA_STYLE ('',( #434 ) ) ;
#434 = FILL_AREA_STYLE_COLOUR ( '', #435 ) ;
#435 = COLOUR_RGB ( '',0.7529411764705882200, 0.7529411764705882200, 0.7529411764705882200 ) ;
#436 = FACE_OUTER_BOUND ( 'NONE', #117, .T. ) ;
#437 = CARTESIAN_POINT ( 'NONE',  ( -6.000000000000000900, -4.858578643762693400, 1.476559533295620700 ) ) ;
#438 = DIRECTION ( 'NONE',  ( 1.000000000000000000, -0.0000000000000000000, -0.0000000000000000000 ) ) ;
#439 = VECTOR ( 'NONE', #438, 1000.000000000000000 ) ;
#440 = CARTESIAN_POINT ( 'NONE',  ( -6.000000000000000000, 4.858578643762691700, 1.476559533295621000 ) ) ;
#441 = LINE ( 'NONE', #440, #439 ) ;
#442 =( NAMED_UNIT ( * ) PLANE_ANGLE_UNIT ( ) SI_UNIT ( $, .RADIAN. ) );
#443 =( GEOMETRIC_REPRESENTATION_CONTEXT ( 3 ) GLOBAL_UNCERTAINTY_ASSIGNED_CONTEXT ( ( #444 ) ) GLOBAL_UNIT_ASSIGNED_CONTEXT ( ( #500, #499, #445 ) ) REPRESENTATION_CONTEXT ( 'NONE', 'WORKASPACE' ) );
#444 = UNCERTAINTY_MEASURE_WITH_UNIT (LENGTH_MEASURE( 1.000000000000000100E-005 ), #500, 'distance_accuracy_value', 'NONE');
#445 =( NAMED_UNIT ( * ) SI_UNIT ( $, .STERADIAN. ) SOLID_ANGLE_UNIT ( ) );
#446 = FACE_OUTER_BOUND ( 'NONE', #110, .T. ) ;
#447 =( NAMED_UNIT ( * ) SI_UNIT ( $, .STERADIAN. ) SOLID_ANGLE_UNIT ( ) );
#448 = FACE_OUTER_BOUND ( 'NONE', #86, .T. ) ;
#449 = CARTESIAN_POINT ( 'NONE',  ( 5.858578643762691700, -5.000000000000000900, 1.335138177058312600 ) ) ;
#450 = DIRECTION ( 'NONE',  ( -0.5773502691896259500, -0.5773502691896224000, 0.5773502691896289500 ) ) ;
#451 = VECTOR ( 'NONE', #450, 1000.000000000000000 ) ;
#452 = CARTESIAN_POINT ( 'NONE',  ( 1.999999999999996200, -8.858578643762673000, 2.523440466704400800 ) ) ;
#453 = LINE ( 'NONE', #452, #451 ) ;
#454 =( GEOMETRIC_REPRESENTATION_CONTEXT ( 3 ) GLOBAL_UNCERTAINTY_ASSIGNED_CONTEXT ( ( #493 ) ) GLOBAL_UNIT_ASSIGNED_CONTEXT ( ( #483, #442, #447 ) ) REPRESENTATION_CONTEXT ( 'NONE', 'WORKASPACE' ) );
#455 = DIRECTION ( 'NONE',  ( 1.000000000000000000, -0.0000000000000000000, -0.0000000000000000000 ) ) ;
#456 = UNCERTAINTY_MEASURE_WITH_UNIT (LENGTH_MEASURE( 1.000000000000000100E-005 ), #471, 'distance_accuracy_value', 'NONE');
#457 = CARTESIAN_POINT ( 'NONE',  ( 6.000000000000000000, 4.858578643762691700, 1.476559533295622100 ) ) ;
#458 = DIRECTION ( 'NONE',  ( 0.0000000000000000000, 0.0000000000000000000, 1.000000000000000000 ) ) ;
#459 = DIRECTION ( 'NONE',  ( -1.000000000000000000, -0.0000000000000000000, 0.0000000000000000000 ) ) ;
#460 = CARTESIAN_POINT ( 'NONE',  ( 6.000000000000000000, -1.301042606982605300E-015, 13.38344046670438000 ) ) ;
#461 = AXIS2_PLACEMENT_3D ( 'NONE', #460, #459, #458 ) ;
#462 = CIRCLE ( 'NONE', #461, 12.85999999999999600 ) ;
#463 = DIRECTION ( 'NONE',  ( 0.0000000000000000000, 0.0000000000000000000, 1.000000000000000000 ) ) ;
#464 = DIRECTION ( 'NONE',  ( -1.000000000000000000, -0.0000000000000000000, 0.0000000000000000000 ) ) ;
#465 = CARTESIAN_POINT ( 'NONE',  ( -6.000000000000000000, -1.301042606982605300E-015, 13.38344046670438000 ) ) ;
#466 = CIRCLE ( 'NONE', #469, 12.85999999999999600 ) ;
#467 = DIRECTION ( 'NONE',  ( 0.0000000000000000000, 0.0000000000000000000, 1.000000000000000000 ) ) ;
#468 = DIRECTION ( 'NONE',  ( -1.000000000000000000, -0.0000000000000000000, -0.0000000000000000000 ) ) ;
#469 = AXIS2_PLACEMENT_3D ( 'NONE', #465, #464, #463 ) ;
#470 =( NAMED_UNIT ( * ) PLANE_ANGLE_UNIT ( ) SI_UNIT ( $, .RADIAN. ) );
#471 =( LENGTH_UNIT ( ) NAMED_UNIT ( * ) SI_UNIT ( .MILLI., .METRE. ) );
#472 =( NAMED_UNIT ( * ) SI_UNIT ( $, .STERADIAN. ) SOLID_ANGLE_UNIT ( ) );
#473 = MECHANICAL_DESIGN_GEOMETRIC_PRESENTATION_REPRESENTATION (  '', ( #430 ), #454 ) ;
#474 = COLOUR_RGB ( '',0.7529411764705882200, 0.7529411764705882200, 0.7529411764705882200 ) ;
#475 = SURFACE_STYLE_FILL_AREA ( #491 ) ;
#476 = PRESENTATION_STYLE_ASSIGNMENT (( #477 ) ) ;
#477 = SURFACE_STYLE_USAGE ( .BOTH. , #478 ) ;
#478 = SURFACE_SIDE_STYLE ('',( #479 ) ) ;
#479 = SURFACE_STYLE_FILL_AREA ( #480 ) ;
#480 = FILL_AREA_STYLE ('',( #481 ) ) ;
#481 = FILL_AREA_STYLE_COLOUR ( '', #482 ) ;
#482 = COLOUR_RGB ( '',0.7529411764705882200, 0.7529411764705882200, 0.7529411764705882200 ) ;
#483 =( LENGTH_UNIT ( ) NAMED_UNIT ( * ) SI_UNIT ( .MILLI., .METRE. ) );
#484 = PLANE ( 'NONE',  #497 ) ;
#485 = CARTESIAN_POINT ( 'NONE',  ( -6.000000000000000900, -4.858578643762693400, 1.476559533295620700 ) ) ;
#486 = LINE ( 'NONE', #485, #512 ) ;
#487 = DIRECTION ( 'NONE',  ( -0.0000000000000000000, 1.219727444046192700E-016, -1.000000000000000000 ) ) ;
#488 = VECTOR ( 'NONE', #487, 1000.000000000000000 ) ;
#489 = CARTESIAN_POINT ( 'NONE',  ( -6.000000000000000000, 4.858578643762691700, 1.476559533295622100 ) ) ;
#490 = LINE ( 'NONE', #489, #488 ) ;
#491 = FILL_AREA_STYLE ('',( #428 ) ) ;
#492 =( GEOMETRIC_REPRESENTATION_CONTEXT ( 3 ) GLOBAL_UNCERTAINTY_ASSIGNED_CONTEXT ( ( #456 ) ) GLOBAL_UNIT_ASSIGNED_CONTEXT ( ( #471, #470, #472 ) ) REPRESENTATION_CONTEXT ( 'NONE', 'WORKASPACE' ) );
#493 = UNCERTAINTY_MEASURE_WITH_UNIT (LENGTH_MEASURE( 1.000000000000000100E-005 ), #483, 'distance_accuracy_value', 'NONE');
#494 = DIRECTION ( 'NONE',  ( 0.0000000000000000000, 0.0000000000000000000, 1.000000000000000000 ) ) ;
#495 = DIRECTION ( 'NONE',  ( -1.000000000000000000, -0.0000000000000000000, 0.0000000000000000000 ) ) ;
#496 = CARTESIAN_POINT ( 'NONE',  ( -6.000000000000000000, -1.301042606982605300E-015, 13.38344046670438000 ) ) ;
#497 = AXIS2_PLACEMENT_3D ( 'NONE', #496, #495, #494 ) ;
#498 = SURFACE_SIDE_STYLE ('',( #475 ) ) ;
#499 =( NAMED_UNIT ( * ) PLANE_ANGLE_UNIT ( ) SI_UNIT ( $, .RADIAN. ) );
#500 =( LENGTH_UNIT ( ) NAMED_UNIT ( * ) SI_UNIT ( .MILLI., .METRE. ) );
#501 = MECHANICAL_DESIGN_GEOMETRIC_PRESENTATION_REPRESENTATION (  '', ( #503 ), #443 ) ;
#502 = PRESENTATION_LAYER_ASSIGNMENT (  '', '', ( #503 ) ) ;
#503 = STYLED_ITEM ( 'NONE', ( #504 ), #116 ) ;
#504 = PRESENTATION_STYLE_ASSIGNMENT (( #505 ) ) ;
#505 = SURFACE_STYLE_USAGE ( .BOTH. , #431 ) ;
#506 = MECHANICAL_DESIGN_GEOMETRIC_PRESENTATION_REPRESENTATION (  '', ( #508 ), #492 ) ;
#507 = PRESENTATION_LAYER_ASSIGNMENT (  '', '', ( #508 ) ) ;
#508 = STYLED_ITEM ( 'NONE', ( #476 ), #103 ) ;
#509 = PRESENTATION_STYLE_ASSIGNMENT (( #510 ) ) ;
#510 = SURFACE_STYLE_USAGE ( .BOTH. , #498 ) ;
#511 = DIRECTION ( 'NONE',  ( -0.0000000000000000000, 1.219727444046192700E-016, -1.000000000000000000 ) ) ;
#512 = VECTOR ( 'NONE', #511, 1000.000000000000000 ) ;
#513 = FILL_AREA_STYLE_COLOUR ( '', #514 ) ;
#514 = COLOUR_RGB ( '',0.7529411764705882200, 0.7529411764705882200, 0.7529411764705882200 ) ;
#515 = FACE_OUTER_BOUND ( 'NONE', #16, .T. ) ;
#516 = LINE ( 'NONE', #549, #548 ) ;
#517 = CARTESIAN_POINT ( 'NONE',  ( -6.000000000000000000, 4.858578643762691700, 1.476559533295622100 ) ) ;
#518 = DIRECTION ( 'NONE',  ( 0.7071067811865497900, 0.7071067811865453500, 0.0000000000000000000 ) ) ;
#519 = STYLED_ITEM ( 'NONE', ( #520 ), #150 ) ;
#520 = PRESENTATION_STYLE_ASSIGNMENT (( #521 ) ) ;
#521 = SURFACE_STYLE_USAGE ( .BOTH. , #522 ) ;
#522 = SURFACE_SIDE_STYLE ('',( #523 ) ) ;
#523 = SURFACE_STYLE_FILL_AREA ( #524 ) ;
#524 = FILL_AREA_STYLE ('',( #531 ) ) ;
#525 = COLOUR_RGB ( '',0.7529411764705882200, 0.7529411764705882200, 0.7529411764705882200 ) ;
#526 = DIRECTION ( 'NONE',  ( 0.7071067811865497900, -0.7071067811865453500, 0.0000000000000000000 ) ) ;
#527 = DIRECTION ( 'NONE',  ( -0.7071067811865453500, -0.7071067811865497900, -8.624775468844007000E-017 ) ) ;
#528 = CARTESIAN_POINT ( 'NONE',  ( 6.000000000000000000, 4.858578643762691700, 1.476559533295622100 ) ) ;
#529 = AXIS2_PLACEMENT_3D ( 'NONE', #528, #527, #526 ) ;
#530 = FACE_OUTER_BOUND ( 'NONE', #183, .T. ) ;
#531 = FILL_AREA_STYLE_COLOUR ( '', #525 ) ;
#532 = PLANE ( 'NONE',  #529 ) ;
#533 =( GEOMETRIC_REPRESENTATION_CONTEXT ( 3 ) GLOBAL_UNCERTAINTY_ASSIGNED_CONTEXT ( ( #580 ) ) GLOBAL_UNIT_ASSIGNED_CONTEXT ( ( #556, #582, #581 ) ) REPRESENTATION_CONTEXT ( 'NONE', 'WORKASPACE' ) );
#534 = AXIS2_PLACEMENT_3D ( 'NONE', #550, #538, #518 ) ;
#535 = DIRECTION ( 'NONE',  ( 0.0000000000000000000, -0.0000000000000000000, 1.000000000000000000 ) ) ;
#536 = DIRECTION ( 'NONE',  ( 0.0000000000000000000, 1.000000000000000000, 0.0000000000000000000 ) ) ;
#537 = CARTESIAN_POINT ( 'NONE',  ( 6.000000000000000000, -5.000000000000002700, -1.476559533295621600 ) ) ;
#538 = DIRECTION ( 'NONE',  ( 0.7071067811865453500, -0.7071067811865497900, -8.624775468844007000E-017 ) ) ;
#539 = PRESENTATION_LAYER_ASSIGNMENT (  '', '', ( #540 ) ) ;
#540 = STYLED_ITEM ( 'NONE', ( #541 ), #121 ) ;
#541 = PRESENTATION_STYLE_ASSIGNMENT (( #551 ) ) ;
#542 = DIRECTION ( 'NONE',  ( -0.0000000000000000000, 1.000000000000000000, -0.0000000000000000000 ) ) ;
#543 = VECTOR ( 'NONE', #542, 1000.000000000000000 ) ;
#544 = CARTESIAN_POINT ( 'NONE',  ( 5.858578643762690800, -5.000000000000004400, -1.476559533295619800 ) ) ;
#545 = LINE ( 'NONE', #544, #543 ) ;
#546 = PLANE ( 'NONE',  #569 ) ;
#547 = DIRECTION ( 'NONE',  ( -0.0000000000000000000, 1.219727444046192700E-016, -1.000000000000000000 ) ) ;
#548 = VECTOR ( 'NONE', #547, 1000.000000000000000 ) ;
#549 = CARTESIAN_POINT ( 'NONE',  ( -5.858578643762690800, 5.000000000000000900, 1.476559533295622100 ) ) ;
#550 = CARTESIAN_POINT ( 'NONE',  ( -6.000000000000000000, 4.858578643762691700, 1.476559533295622100 ) ) ;
#551 = SURFACE_STYLE_USAGE ( .BOTH. , #552 ) ;
#552 = SURFACE_SIDE_STYLE ('',( #553 ) ) ;
#553 = SURFACE_STYLE_FILL_AREA ( #554 ) ;
#554 = FILL_AREA_STYLE ('',( #513 ) ) ;
#555 =( NAMED_UNIT ( * ) PLANE_ANGLE_UNIT ( ) SI_UNIT ( $, .RADIAN. ) );
#556 =( LENGTH_UNIT ( ) NAMED_UNIT ( * ) SI_UNIT ( .MILLI., .METRE. ) );
#557 = MECHANICAL_DESIGN_GEOMETRIC_PRESENTATION_REPRESENTATION (  '', ( #559 ), #533 ) ;
#558 = PRESENTATION_LAYER_ASSIGNMENT (  '', '', ( #559 ) ) ;
#559 = STYLED_ITEM ( 'NONE', ( #560 ), #146 ) ;
#560 = PRESENTATION_STYLE_ASSIGNMENT (( #561 ) ) ;
#561 = SURFACE_STYLE_USAGE ( .BOTH. , #562 ) ;
#562 = SURFACE_SIDE_STYLE ('',( #563 ) ) ;
#563 = SURFACE_STYLE_FILL_AREA ( #564 ) ;
#564 = FILL_AREA_STYLE ('',( #577 ) ) ;
#565 = COLOUR_RGB ( '',0.7529411764705882200, 0.7529411764705882200, 0.7529411764705882200 ) ;
#566 = FACE_OUTER_BOUND ( 'NONE', #63, .T. ) ;
#567 = DIRECTION ( 'NONE',  ( -0.0000000000000000000, 1.219727444046192700E-016, -1.000000000000000000 ) ) ;
#568 = VECTOR ( 'NONE', #567, 1000.000000000000000 ) ;
#569 = AXIS2_PLACEMENT_3D ( 'NONE', #537, #536, #535 ) ;
#570 =( GEOMETRIC_REPRESENTATION_CONTEXT ( 3 ) GLOBAL_UNCERTAINTY_ASSIGNED_CONTEXT ( ( #573 ) ) GLOBAL_UNIT_ASSIGNED_CONTEXT ( ( #571, #555, #574 ) ) REPRESENTATION_CONTEXT ( 'NONE', 'WORKASPACE' ) );
#571 =( LENGTH_UNIT ( ) NAMED_UNIT ( * ) SI_UNIT ( .MILLI., .METRE. ) );
#572 = MECHANICAL_DESIGN_GEOMETRIC_PRESENTATION_REPRESENTATION (  '', ( #540 ), #570 ) ;
#573 = UNCERTAINTY_MEASURE_WITH_UNIT (LENGTH_MEASURE( 1.000000000000000100E-005 ), #571, 'distance_accuracy_value', 'NONE');
#574 =( NAMED_UNIT ( * ) SI_UNIT ( $, .STERADIAN. ) SOLID_ANGLE_UNIT ( ) );
#575 = CARTESIAN_POINT ( 'NONE',  ( 6.000000000000000000, 4.858578643762691700, 1.476559533295622100 ) ) ;
#576 = LINE ( 'NONE', #575, #568 ) ;
#577 = FILL_AREA_STYLE_COLOUR ( '', #565 ) ;
#578 = CARTESIAN_POINT ( 'NONE',  ( 6.000000000000000000, 4.858578643762691700, -1.335138177058310400 ) ) ;
#579 = CARTESIAN_POINT ( 'NONE',  ( 5.858578643762690800, -4.858578643762697900, -1.476559533295619600 ) ) ;
#580 = UNCERTAINTY_MEASURE_WITH_UNIT (LENGTH_MEASURE( 1.000000000000000100E-005 ), #556, 'distance_accuracy_value', 'NONE');
#581 =( NAMED_UNIT ( * ) SI_UNIT ( $, .STERADIAN. ) SOLID_ANGLE_UNIT ( ) );
#582 =( NAMED_UNIT ( * ) PLANE_ANGLE_UNIT ( ) SI_UNIT ( $, .RADIAN. ) );
#583 = PLANE ( 'NONE',  #534 ) ;
#584 = CARTESIAN_POINT ( 'NONE',  ( 6.000000000000000900, -4.858578643762693400, -1.335138177058309500 ) ) ;
#585 = DIRECTION ( 'NONE',  ( -0.0000000000000000000, 1.219727444046192700E-016, -1.000000000000000000 ) ) ;
#586 = VECTOR ( 'NONE', #585, 1000.000000000000000 ) ;
#587 = CARTESIAN_POINT ( 'NONE',  ( 6.000000000000000900, -4.858578643762693400, 1.476559533295620700 ) ) ;
#588 = LINE ( 'NONE', #587, #586 ) ;
#589 = AXIS2_PLACEMENT_3D ( 'NONE', #591, #590, #635 ) ;
#590 = DIRECTION ( 'NONE',  ( 0.0000000000000000000, -0.7071067811865448000, -0.7071067811865502400 ) ) ;
#591 = CARTESIAN_POINT ( 'NONE',  ( -6.000000000000000000, 5.000000000000000900, 1.335138177058312200 ) ) ;
#592 =( LENGTH_UNIT ( ) NAMED_UNIT ( * ) SI_UNIT ( .MILLI., .METRE. ) );
#593 = MECHANICAL_DESIGN_GEOMETRIC_PRESENTATION_REPRESENTATION (  '', ( #595 ), #612 ) ;
#594 = PRESENTATION_LAYER_ASSIGNMENT (  '', '', ( #595 ) ) ;
#595 = STYLED_ITEM ( 'NONE', ( #596 ), #181 ) ;
#596 = PRESENTATION_STYLE_ASSIGNMENT (( #597 ) ) ;
#597 = SURFACE_STYLE_USAGE ( .BOTH. , #598 ) ;
#598 = SURFACE_SIDE_STYLE ('',( #599 ) ) ;
#599 = SURFACE_STYLE_FILL_AREA ( #600 ) ;
#600 = FILL_AREA_STYLE ('',( #675 ) ) ;
#601 = VECTOR ( 'NONE', #646, 1000.000000000000000 ) ;
#602 = CARTESIAN_POINT ( 'NONE',  ( 9.286192881254232000, 1.572385762508481600, 1.951054704195912500 ) ) ;
#603 = LINE ( 'NONE', #602, #601 ) ;
#604 =( GEOMETRIC_REPRESENTATION_CONTEXT ( 3 ) GLOBAL_UNCERTAINTY_ASSIGNED_CONTEXT ( ( #633 ) ) GLOBAL_UNIT_ASSIGNED_CONTEXT ( ( #613, #605, #629 ) ) REPRESENTATION_CONTEXT ( 'NONE', 'WORKASPACE' ) );
#605 =( NAMED_UNIT ( * ) PLANE_ANGLE_UNIT ( ) SI_UNIT ( $, .RADIAN. ) );
#606 = UNCERTAINTY_MEASURE_WITH_UNIT (LENGTH_MEASURE( 1.000000000000000100E-005 ), #656, 'distance_accuracy_value', 'NONE');
#607 = UNCERTAINTY_MEASURE_WITH_UNIT (LENGTH_MEASURE( 1.000000000000000100E-005 ), #592, 'distance_accuracy_value', 'NONE');
#608 =( NAMED_UNIT ( * ) SI_UNIT ( $, .STERADIAN. ) SOLID_ANGLE_UNIT ( ) );
#609 =( NAMED_UNIT ( * ) PLANE_ANGLE_UNIT ( ) SI_UNIT ( $, .RADIAN. ) );
#610 = PLANE ( 'NONE',  #636 ) ;
#611 = PLANE ( 'NONE',  #621 ) ;
#612 =( GEOMETRIC_REPRESENTATION_CONTEXT ( 3 ) GLOBAL_UNCERTAINTY_ASSIGNED_CONTEXT ( ( #607 ) ) GLOBAL_UNIT_ASSIGNED_CONTEXT ( ( #592, #609, #608 ) ) REPRESENTATION_CONTEXT ( 'NONE', 'WORKASPACE' ) );
#613 =( LENGTH_UNIT ( ) NAMED_UNIT ( * ) SI_UNIT ( .MILLI., .METRE. ) );
#614 = DIRECTION ( 'NONE',  ( 1.000000000000000000, -0.0000000000000000000, -0.0000000000000000000 ) ) ;
#615 = VECTOR ( 'NONE', #614, 1000.000000000000000 ) ;
#616 = CARTESIAN_POINT ( 'NONE',  ( -6.000000000000000000, 4.858578643762693400, -1.476559533295621000 ) ) ;
#617 = LINE ( 'NONE', #616, #615 ) ;
#618 = DIRECTION ( 'NONE',  ( -0.7071067811865497900, -0.7071067811865453500, 0.0000000000000000000 ) ) ;
#619 = DIRECTION ( 'NONE',  ( -0.7071067811865453500, 0.7071067811865497900, 8.624775468844007000E-017 ) ) ;
#620 = CARTESIAN_POINT ( 'NONE',  ( 6.000000000000000900, -4.858578643762693400, 1.476559533295620700 ) ) ;
#621 = AXIS2_PLACEMENT_3D ( 'NONE', #620, #619, #618 ) ;
#622 = CARTESIAN_POINT ( 'NONE',  ( 5.858578643762690800, 5.000000000000000900, 1.335138177058313500 ) ) ;
#623 = DIRECTION ( 'NONE',  ( -0.5773502691896275100, -0.5773502691896237300, -0.5773502691896260600 ) ) ;
#624 = VECTOR ( 'NONE', #623, 1000.000000000000000 ) ;
#625 = CARTESIAN_POINT ( 'NONE',  ( 5.952859547920896300, -4.905719095841797100, -1.382278629137414300 ) ) ;
#626 = UNCERTAINTY_MEASURE_WITH_UNIT (LENGTH_MEASURE( 1.000000000000000100E-005 ), #640, 'distance_accuracy_value', 'NONE');
#627 =( NAMED_UNIT ( * ) SI_UNIT ( $, .STERADIAN. ) SOLID_ANGLE_UNIT ( ) );
#628 =( NAMED_UNIT ( * ) PLANE_ANGLE_UNIT ( ) SI_UNIT ( $, .RADIAN. ) );
#629 =( NAMED_UNIT ( * ) SI_UNIT ( $, .STERADIAN. ) SOLID_ANGLE_UNIT ( ) );
#630 = DIRECTION ( 'NONE',  ( 0.0000000000000000000, -1.000000000000000000, -1.301042606982605100E-016 ) ) ;
#631 = DIRECTION ( 'NONE',  ( 0.0000000000000000000, -1.301042606982605100E-016, 1.000000000000000000 ) ) ;
#632 = CARTESIAN_POINT ( 'NONE',  ( 6.000000000000000000, 5.000000000000000900, -1.476559533295620300 ) ) ;
#633 = UNCERTAINTY_MEASURE_WITH_UNIT (LENGTH_MEASURE( 1.000000000000000100E-005 ), #613, 'distance_accuracy_value', 'NONE');
#634 = LINE ( 'NONE', #625, #624 ) ;
#635 = DIRECTION ( 'NONE',  ( 0.0000000000000000000, 0.7071067811865502400, -0.7071067811865448000 ) ) ;
#636 = AXIS2_PLACEMENT_3D ( 'NONE', #632, #631, #630 ) ;
#637 = COLOUR_RGB ( '',0.7529411764705882200, 0.7529411764705882200, 0.7529411764705882200 ) ;
#638 = FACE_OUTER_BOUND ( 'NONE', #170, .T. ) ;
#639 =( NAMED_UNIT ( * ) PLANE_ANGLE_UNIT ( ) SI_UNIT ( $, .RADIAN. ) );
#640 =( LENGTH_UNIT ( ) NAMED_UNIT ( * ) SI_UNIT ( .MILLI., .METRE. ) );
#641 = MECHANICAL_DESIGN_GEOMETRIC_PRESENTATION_REPRESENTATION (  '', ( #647 ), #660 ) ;
#642 = PRESENTATION_LAYER_ASSIGNMENT (  '', '', ( #647 ) ) ;
#643 = MECHANICAL_DESIGN_GEOMETRIC_PRESENTATION_REPRESENTATION (  '', ( #519 ), #655 ) ;
#644 = CARTESIAN_POINT ( 'NONE',  ( 6.000000000000000000, -5.000000000000004400, -1.335138177058310400 ) ) ;
#645 = LINE ( 'NONE', #644, #664 ) ;
#646 = DIRECTION ( 'NONE',  ( 0.5773502691896274000, -0.5773502691896238400, 0.5773502691896260600 ) ) ;
#647 = STYLED_ITEM ( 'NONE', ( #648 ), #179 ) ;
#648 = PRESENTATION_STYLE_ASSIGNMENT (( #649 ) ) ;
#649 = SURFACE_STYLE_USAGE ( .BOTH. , #650 ) ;
#650 = SURFACE_SIDE_STYLE ('',( #651 ) ) ;
#651 = SURFACE_STYLE_FILL_AREA ( #652 ) ;
#652 = FILL_AREA_STYLE ('',( #684 ) ) ;
#653 = COLOUR_RGB ( '',0.7529411764705882200, 0.7529411764705882200, 0.7529411764705882200 ) ;
#654 = FACE_OUTER_BOUND ( 'NONE', #125, .T. ) ;
#655 =( GEOMETRIC_REPRESENTATION_CONTEXT ( 3 ) GLOBAL_UNCERTAINTY_ASSIGNED_CONTEXT ( ( #606 ) ) GLOBAL_UNIT_ASSIGNED_CONTEXT ( ( #656, #628, #669 ) ) REPRESENTATION_CONTEXT ( 'NONE', 'WORKASPACE' ) );
#656 =( LENGTH_UNIT ( ) NAMED_UNIT ( * ) SI_UNIT ( .MILLI., .METRE. ) );
#657 = CARTESIAN_POINT ( 'NONE',  ( 6.000000000000000000, -5.000000000000004400, -1.335138177058310400 ) ) ;
#658 = AXIS2_PLACEMENT_3D ( 'NONE', #657, #677, #676 ) ;
#659 = PLANE ( 'NONE',  #658 ) ;
#660 =( GEOMETRIC_REPRESENTATION_CONTEXT ( 3 ) GLOBAL_UNCERTAINTY_ASSIGNED_CONTEXT ( ( #626 ) ) GLOBAL_UNIT_ASSIGNED_CONTEXT ( ( #640, #639, #627 ) ) REPRESENTATION_CONTEXT ( 'NONE', 'WORKASPACE' ) );
#661 = PLANE ( 'NONE',  #589 ) ;
#662 = CARTESIAN_POINT ( 'NONE',  ( 5.858578643762690800, 4.858578643762693400, -1.476559533295619400 ) ) ;
#663 = DIRECTION ( 'NONE',  ( -0.0000000000000000000, 1.000000000000000000, -0.0000000000000000000 ) ) ;
#664 = VECTOR ( 'NONE', #663, 1000.000000000000000 ) ;
#665 = STYLED_ITEM ( 'NONE', ( #666 ), #154 ) ;
#666 = PRESENTATION_STYLE_ASSIGNMENT (( #667 ) ) ;
#667 = SURFACE_STYLE_USAGE ( .BOTH. , #668 ) ;
#668 = SURFACE_SIDE_STYLE ('',( #670 ) ) ;
#669 =( NAMED_UNIT ( * ) SI_UNIT ( $, .STERADIAN. ) SOLID_ANGLE_UNIT ( ) );
#670 = SURFACE_STYLE_FILL_AREA ( #671 ) ;
#671 = FILL_AREA_STYLE ('',( #672 ) ) ;
#672 = FILL_AREA_STYLE_COLOUR ( '', #637 ) ;
#673 = MECHANICAL_DESIGN_GEOMETRIC_PRESENTATION_REPRESENTATION (  '', ( #665 ), #604 ) ;
#674 = PRESENTATION_LAYER_ASSIGNMENT (  '', '', ( #665 ) ) ;
#675 = FILL_AREA_STYLE_COLOUR ( '', #678 ) ;
#676 = DIRECTION ( 'NONE',  ( 0.7071067811865483500, 0.0000000000000000000, 0.7071067811865466800 ) ) ;
#677 = DIRECTION ( 'NONE',  ( -0.7071067811865466800, 0.0000000000000000000, 0.7071067811865483500 ) ) ;
#678 = COLOUR_RGB ( '',0.7529411764705882200, 0.7529411764705882200, 0.7529411764705882200 ) ;
#679 = FACE_OUTER_BOUND ( 'NONE', #171, .T. ) ;
#680 = DIRECTION ( 'NONE',  ( -0.0000000000000000000, 1.219727444046192700E-016, -1.000000000000000000 ) ) ;
#681 = VECTOR ( 'NONE', #680, 1000.000000000000000 ) ;
#682 = CARTESIAN_POINT ( 'NONE',  ( 5.858578643762690800, 5.000000000000000900, 1.476559533295622100 ) ) ;
#683 = LINE ( 'NONE', #682, #681 ) ;
#684 = FILL_AREA_STYLE_COLOUR ( '', #653 ) ;
#685 = FILL_AREA_STYLE_COLOUR ( '', #689 ) ;
#686 =( LENGTH_UNIT ( ) NAMED_UNIT ( * ) SI_UNIT ( .MILLI., .METRE. ) );
#687 = CARTESIAN_POINT ( 'NONE',  ( -5.858578643762690800, 4.858578643762693400, -1.476559533295619800 ) ) ;
#688 = FILL_AREA_STYLE ('',( #685 ) ) ;
#689 = COLOUR_RGB ( '',0.7960784313725489700, 0.8235294117647058400, 0.9372549019607843100 ) ;
#690 =( NAMED_UNIT ( * ) PLANE_ANGLE_UNIT ( ) SI_UNIT ( $, .RADIAN. ) );
#691 = PRESENTATION_STYLE_ASSIGNMENT (( #692 ) ) ;
#692 = SURFACE_STYLE_USAGE ( .BOTH. , #714 ) ;
#693 = APPLICATION_CONTEXT ( 'automotive_design' ) ;
#694 = PRESENTATION_LAYER_ASSIGNMENT (  '', '', ( #695 ) ) ;
#695 = STYLED_ITEM ( 'NONE', ( #691 ), #711 ) ;
#696 = AXIS2_PLACEMENT_3D ( 'NONE', #701, #717, #716 ) ;
#697 =( NAMED_UNIT ( * ) SI_UNIT ( $, .STERADIAN. ) SOLID_ANGLE_UNIT ( ) );
#698 =( GEOMETRIC_REPRESENTATION_CONTEXT ( 3 ) GLOBAL_UNCERTAINTY_ASSIGNED_CONTEXT ( ( #703 ) ) GLOBAL_UNIT_ASSIGNED_CONTEXT ( ( #686, #690, #697 ) ) REPRESENTATION_CONTEXT ( 'NONE', 'WORKASPACE' ) );
#699 = UNCERTAINTY_MEASURE_WITH_UNIT (LENGTH_MEASURE( 1.000000000000000100E-005 ), #721, 'distance_accuracy_value', 'NONE');
#700 =( NAMED_UNIT ( * ) SI_UNIT ( $, .STERADIAN. ) SOLID_ANGLE_UNIT ( ) );
#701 = CARTESIAN_POINT ( 'NONE',  ( 0.0000000000000000000, 0.0000000000000000000, 0.0000000000000000000 ) ) ;
#702 = MECHANICAL_DESIGN_GEOMETRIC_PRESENTATION_REPRESENTATION (  '', ( #695 ), #698 ) ;
#703 = UNCERTAINTY_MEASURE_WITH_UNIT (LENGTH_MEASURE( 1.000000000000000100E-005 ), #686, 'distance_accuracy_value', 'NONE');
#704 = PRODUCT_DEFINITION ( 'UNKNOWN', '', #720, #705 ) ;
#705 = PRODUCT_DEFINITION_CONTEXT ( 'detailed design', #707, 'design' ) ;
#706 = APPLICATION_PROTOCOL_DEFINITION ( 'draft international standard', 'automotive_design', 1998, #707 ) ;
#707 = APPLICATION_CONTEXT ( 'automotive_design' ) ;
#708 = PRODUCT ( '5701-E0W', '5701-E0W', '', ( #709 ) ) ;
#709 = PRODUCT_CONTEXT ( 'NONE', #693, 'mechanical' ) ;
#710 = APPLICATION_PROTOCOL_DEFINITION ( 'draft international standard', 'automotive_design', 1998, #693 ) ;
#711 = MANIFOLD_SURFACE_SHAPE_REPRESENTATION ( '5701-E0W', ( #722, #696 ), #713 ) ;
#712 = SHAPE_DEFINITION_REPRESENTATION ( #718, #711 ) ;
#713 =( GEOMETRIC_REPRESENTATION_CONTEXT ( 3 ) GLOBAL_UNCERTAINTY_ASSIGNED_CONTEXT ( ( #699 ) ) GLOBAL_UNIT_ASSIGNED_CONTEXT ( ( #721, #723, #700 ) ) REPRESENTATION_CONTEXT ( 'NONE', 'WORKASPACE' ) );
#714 = SURFACE_SIDE_STYLE ('',( #715 ) ) ;
#715 = SURFACE_STYLE_FILL_AREA ( #688 ) ;
#716 = DIRECTION ( 'NONE',  ( 1.000000000000000000, 0.0000000000000000000, 0.0000000000000000000 ) ) ;
#717 = DIRECTION ( 'NONE',  ( 0.0000000000000000000, 0.0000000000000000000, 1.000000000000000000 ) ) ;
#718 = PRODUCT_DEFINITION_SHAPE ( 'NONE', 'NONE',  #704 ) ;
#719 = PRODUCT_RELATED_PRODUCT_CATEGORY ( 'part', '', ( #708 ) ) ;
#720 = PRODUCT_DEFINITION_FORMATION_WITH_SPECIFIED_SOURCE ( 'ANY', '', #708, .NOT_KNOWN. ) ;
#721 =( LENGTH_UNIT ( ) NAMED_UNIT ( * ) SI_UNIT ( .MILLI., .METRE. ) );
#722 = SHELL_BASED_SURFACE_MODEL ( 'NONE', ( #178 ) );
#723 =( NAMED_UNIT ( * ) PLANE_ANGLE_UNIT ( ) SI_UNIT ( $, .RADIAN. ) );
ENDSEC;
END-ISO-10303-21;
